G04 #@! TF.GenerationSoftware,KiCad,Pcbnew,(5.0.2)-1*
G04 #@! TF.CreationDate,2019-10-12T14:48:09+09:00*
G04 #@! TF.ProjectId,Barometer,4261726f-6d65-4746-9572-2e6b69636164,rev?*
G04 #@! TF.SameCoordinates,Original*
G04 #@! TF.FileFunction,Paste,Top*
G04 #@! TF.FilePolarity,Positive*
%FSLAX46Y46*%
G04 Gerber Fmt 4.6, Leading zero omitted, Abs format (unit mm)*
G04 Created by KiCad (PCBNEW (5.0.2)-1) date 2019/10/12 14:48:09*
%MOMM*%
%LPD*%
G01*
G04 APERTURE LIST*
%ADD10C,0.100000*%
%ADD11C,0.590000*%
%ADD12C,0.400000*%
%ADD13C,0.875000*%
%ADD14R,2.000000X1.100000*%
%ADD15R,0.800000X1.100000*%
%ADD16R,0.400000X1.350000*%
%ADD17R,1.800000X1.900000*%
%ADD18O,0.200000X0.800000*%
%ADD19O,0.800000X0.200000*%
%ADD20R,0.350000X0.650000*%
%ADD21R,1.000000X0.600000*%
%ADD22R,1.220000X0.650000*%
%ADD23R,2.200000X1.350000*%
%ADD24R,1.000000X0.400000*%
%ADD25R,4.700000X4.600000*%
G04 APERTURE END LIST*
D10*
G04 #@! TO.C,R16*
G36*
X163176958Y-92430710D02*
X163191276Y-92432834D01*
X163205317Y-92436351D01*
X163218946Y-92441228D01*
X163232031Y-92447417D01*
X163244447Y-92454858D01*
X163256073Y-92463481D01*
X163266798Y-92473202D01*
X163276519Y-92483927D01*
X163285142Y-92495553D01*
X163292583Y-92507969D01*
X163298772Y-92521054D01*
X163303649Y-92534683D01*
X163307166Y-92548724D01*
X163309290Y-92563042D01*
X163310000Y-92577500D01*
X163310000Y-92922500D01*
X163309290Y-92936958D01*
X163307166Y-92951276D01*
X163303649Y-92965317D01*
X163298772Y-92978946D01*
X163292583Y-92992031D01*
X163285142Y-93004447D01*
X163276519Y-93016073D01*
X163266798Y-93026798D01*
X163256073Y-93036519D01*
X163244447Y-93045142D01*
X163232031Y-93052583D01*
X163218946Y-93058772D01*
X163205317Y-93063649D01*
X163191276Y-93067166D01*
X163176958Y-93069290D01*
X163162500Y-93070000D01*
X162867500Y-93070000D01*
X162853042Y-93069290D01*
X162838724Y-93067166D01*
X162824683Y-93063649D01*
X162811054Y-93058772D01*
X162797969Y-93052583D01*
X162785553Y-93045142D01*
X162773927Y-93036519D01*
X162763202Y-93026798D01*
X162753481Y-93016073D01*
X162744858Y-93004447D01*
X162737417Y-92992031D01*
X162731228Y-92978946D01*
X162726351Y-92965317D01*
X162722834Y-92951276D01*
X162720710Y-92936958D01*
X162720000Y-92922500D01*
X162720000Y-92577500D01*
X162720710Y-92563042D01*
X162722834Y-92548724D01*
X162726351Y-92534683D01*
X162731228Y-92521054D01*
X162737417Y-92507969D01*
X162744858Y-92495553D01*
X162753481Y-92483927D01*
X162763202Y-92473202D01*
X162773927Y-92463481D01*
X162785553Y-92454858D01*
X162797969Y-92447417D01*
X162811054Y-92441228D01*
X162824683Y-92436351D01*
X162838724Y-92432834D01*
X162853042Y-92430710D01*
X162867500Y-92430000D01*
X163162500Y-92430000D01*
X163176958Y-92430710D01*
X163176958Y-92430710D01*
G37*
D11*
X163015000Y-92750000D03*
D10*
G36*
X164146958Y-92430710D02*
X164161276Y-92432834D01*
X164175317Y-92436351D01*
X164188946Y-92441228D01*
X164202031Y-92447417D01*
X164214447Y-92454858D01*
X164226073Y-92463481D01*
X164236798Y-92473202D01*
X164246519Y-92483927D01*
X164255142Y-92495553D01*
X164262583Y-92507969D01*
X164268772Y-92521054D01*
X164273649Y-92534683D01*
X164277166Y-92548724D01*
X164279290Y-92563042D01*
X164280000Y-92577500D01*
X164280000Y-92922500D01*
X164279290Y-92936958D01*
X164277166Y-92951276D01*
X164273649Y-92965317D01*
X164268772Y-92978946D01*
X164262583Y-92992031D01*
X164255142Y-93004447D01*
X164246519Y-93016073D01*
X164236798Y-93026798D01*
X164226073Y-93036519D01*
X164214447Y-93045142D01*
X164202031Y-93052583D01*
X164188946Y-93058772D01*
X164175317Y-93063649D01*
X164161276Y-93067166D01*
X164146958Y-93069290D01*
X164132500Y-93070000D01*
X163837500Y-93070000D01*
X163823042Y-93069290D01*
X163808724Y-93067166D01*
X163794683Y-93063649D01*
X163781054Y-93058772D01*
X163767969Y-93052583D01*
X163755553Y-93045142D01*
X163743927Y-93036519D01*
X163733202Y-93026798D01*
X163723481Y-93016073D01*
X163714858Y-93004447D01*
X163707417Y-92992031D01*
X163701228Y-92978946D01*
X163696351Y-92965317D01*
X163692834Y-92951276D01*
X163690710Y-92936958D01*
X163690000Y-92922500D01*
X163690000Y-92577500D01*
X163690710Y-92563042D01*
X163692834Y-92548724D01*
X163696351Y-92534683D01*
X163701228Y-92521054D01*
X163707417Y-92507969D01*
X163714858Y-92495553D01*
X163723481Y-92483927D01*
X163733202Y-92473202D01*
X163743927Y-92463481D01*
X163755553Y-92454858D01*
X163767969Y-92447417D01*
X163781054Y-92441228D01*
X163794683Y-92436351D01*
X163808724Y-92432834D01*
X163823042Y-92430710D01*
X163837500Y-92430000D01*
X164132500Y-92430000D01*
X164146958Y-92430710D01*
X164146958Y-92430710D01*
G37*
D11*
X163985000Y-92750000D03*
G04 #@! TD*
D10*
G04 #@! TO.C,U4*
G36*
X167659802Y-88800482D02*
X167669509Y-88801921D01*
X167679028Y-88804306D01*
X167688268Y-88807612D01*
X167697140Y-88811808D01*
X167705557Y-88816853D01*
X167713439Y-88822699D01*
X167720711Y-88829289D01*
X167727301Y-88836561D01*
X167733147Y-88844443D01*
X167738192Y-88852860D01*
X167742388Y-88861732D01*
X167745694Y-88870972D01*
X167748079Y-88880491D01*
X167749518Y-88890198D01*
X167750000Y-88900000D01*
X167750000Y-89250000D01*
X167749518Y-89259802D01*
X167748079Y-89269509D01*
X167745694Y-89279028D01*
X167742388Y-89288268D01*
X167738192Y-89297140D01*
X167733147Y-89305557D01*
X167727301Y-89313439D01*
X167720711Y-89320711D01*
X167713439Y-89327301D01*
X167705557Y-89333147D01*
X167697140Y-89338192D01*
X167688268Y-89342388D01*
X167679028Y-89345694D01*
X167669509Y-89348079D01*
X167659802Y-89349518D01*
X167650000Y-89350000D01*
X167450000Y-89350000D01*
X167440198Y-89349518D01*
X167430491Y-89348079D01*
X167420972Y-89345694D01*
X167411732Y-89342388D01*
X167402860Y-89338192D01*
X167394443Y-89333147D01*
X167386561Y-89327301D01*
X167379289Y-89320711D01*
X167372699Y-89313439D01*
X167366853Y-89305557D01*
X167361808Y-89297140D01*
X167357612Y-89288268D01*
X167354306Y-89279028D01*
X167351921Y-89269509D01*
X167350482Y-89259802D01*
X167350000Y-89250000D01*
X167350000Y-88900000D01*
X167350482Y-88890198D01*
X167351921Y-88880491D01*
X167354306Y-88870972D01*
X167357612Y-88861732D01*
X167361808Y-88852860D01*
X167366853Y-88844443D01*
X167372699Y-88836561D01*
X167379289Y-88829289D01*
X167386561Y-88822699D01*
X167394443Y-88816853D01*
X167402860Y-88811808D01*
X167411732Y-88807612D01*
X167420972Y-88804306D01*
X167430491Y-88801921D01*
X167440198Y-88800482D01*
X167450000Y-88800000D01*
X167650000Y-88800000D01*
X167659802Y-88800482D01*
X167659802Y-88800482D01*
G37*
D12*
X167550000Y-89075000D03*
D10*
G36*
X167059802Y-88800482D02*
X167069509Y-88801921D01*
X167079028Y-88804306D01*
X167088268Y-88807612D01*
X167097140Y-88811808D01*
X167105557Y-88816853D01*
X167113439Y-88822699D01*
X167120711Y-88829289D01*
X167127301Y-88836561D01*
X167133147Y-88844443D01*
X167138192Y-88852860D01*
X167142388Y-88861732D01*
X167145694Y-88870972D01*
X167148079Y-88880491D01*
X167149518Y-88890198D01*
X167150000Y-88900000D01*
X167150000Y-89250000D01*
X167149518Y-89259802D01*
X167148079Y-89269509D01*
X167145694Y-89279028D01*
X167142388Y-89288268D01*
X167138192Y-89297140D01*
X167133147Y-89305557D01*
X167127301Y-89313439D01*
X167120711Y-89320711D01*
X167113439Y-89327301D01*
X167105557Y-89333147D01*
X167097140Y-89338192D01*
X167088268Y-89342388D01*
X167079028Y-89345694D01*
X167069509Y-89348079D01*
X167059802Y-89349518D01*
X167050000Y-89350000D01*
X166850000Y-89350000D01*
X166840198Y-89349518D01*
X166830491Y-89348079D01*
X166820972Y-89345694D01*
X166811732Y-89342388D01*
X166802860Y-89338192D01*
X166794443Y-89333147D01*
X166786561Y-89327301D01*
X166779289Y-89320711D01*
X166772699Y-89313439D01*
X166766853Y-89305557D01*
X166761808Y-89297140D01*
X166757612Y-89288268D01*
X166754306Y-89279028D01*
X166751921Y-89269509D01*
X166750482Y-89259802D01*
X166750000Y-89250000D01*
X166750000Y-88900000D01*
X166750482Y-88890198D01*
X166751921Y-88880491D01*
X166754306Y-88870972D01*
X166757612Y-88861732D01*
X166761808Y-88852860D01*
X166766853Y-88844443D01*
X166772699Y-88836561D01*
X166779289Y-88829289D01*
X166786561Y-88822699D01*
X166794443Y-88816853D01*
X166802860Y-88811808D01*
X166811732Y-88807612D01*
X166820972Y-88804306D01*
X166830491Y-88801921D01*
X166840198Y-88800482D01*
X166850000Y-88800000D01*
X167050000Y-88800000D01*
X167059802Y-88800482D01*
X167059802Y-88800482D01*
G37*
D12*
X166950000Y-89075000D03*
D10*
G36*
X166509802Y-89200482D02*
X166519509Y-89201921D01*
X166529028Y-89204306D01*
X166538268Y-89207612D01*
X166547140Y-89211808D01*
X166555557Y-89216853D01*
X166563439Y-89222699D01*
X166570711Y-89229289D01*
X166577301Y-89236561D01*
X166583147Y-89244443D01*
X166588192Y-89252860D01*
X166592388Y-89261732D01*
X166595694Y-89270972D01*
X166598079Y-89280491D01*
X166599518Y-89290198D01*
X166600000Y-89300000D01*
X166600000Y-89500000D01*
X166599518Y-89509802D01*
X166598079Y-89519509D01*
X166595694Y-89529028D01*
X166592388Y-89538268D01*
X166588192Y-89547140D01*
X166583147Y-89555557D01*
X166577301Y-89563439D01*
X166570711Y-89570711D01*
X166563439Y-89577301D01*
X166555557Y-89583147D01*
X166547140Y-89588192D01*
X166538268Y-89592388D01*
X166529028Y-89595694D01*
X166519509Y-89598079D01*
X166509802Y-89599518D01*
X166500000Y-89600000D01*
X166150000Y-89600000D01*
X166140198Y-89599518D01*
X166130491Y-89598079D01*
X166120972Y-89595694D01*
X166111732Y-89592388D01*
X166102860Y-89588192D01*
X166094443Y-89583147D01*
X166086561Y-89577301D01*
X166079289Y-89570711D01*
X166072699Y-89563439D01*
X166066853Y-89555557D01*
X166061808Y-89547140D01*
X166057612Y-89538268D01*
X166054306Y-89529028D01*
X166051921Y-89519509D01*
X166050482Y-89509802D01*
X166050000Y-89500000D01*
X166050000Y-89300000D01*
X166050482Y-89290198D01*
X166051921Y-89280491D01*
X166054306Y-89270972D01*
X166057612Y-89261732D01*
X166061808Y-89252860D01*
X166066853Y-89244443D01*
X166072699Y-89236561D01*
X166079289Y-89229289D01*
X166086561Y-89222699D01*
X166094443Y-89216853D01*
X166102860Y-89211808D01*
X166111732Y-89207612D01*
X166120972Y-89204306D01*
X166130491Y-89201921D01*
X166140198Y-89200482D01*
X166150000Y-89200000D01*
X166500000Y-89200000D01*
X166509802Y-89200482D01*
X166509802Y-89200482D01*
G37*
D12*
X166325000Y-89400000D03*
D10*
G36*
X166509802Y-89800482D02*
X166519509Y-89801921D01*
X166529028Y-89804306D01*
X166538268Y-89807612D01*
X166547140Y-89811808D01*
X166555557Y-89816853D01*
X166563439Y-89822699D01*
X166570711Y-89829289D01*
X166577301Y-89836561D01*
X166583147Y-89844443D01*
X166588192Y-89852860D01*
X166592388Y-89861732D01*
X166595694Y-89870972D01*
X166598079Y-89880491D01*
X166599518Y-89890198D01*
X166600000Y-89900000D01*
X166600000Y-90100000D01*
X166599518Y-90109802D01*
X166598079Y-90119509D01*
X166595694Y-90129028D01*
X166592388Y-90138268D01*
X166588192Y-90147140D01*
X166583147Y-90155557D01*
X166577301Y-90163439D01*
X166570711Y-90170711D01*
X166563439Y-90177301D01*
X166555557Y-90183147D01*
X166547140Y-90188192D01*
X166538268Y-90192388D01*
X166529028Y-90195694D01*
X166519509Y-90198079D01*
X166509802Y-90199518D01*
X166500000Y-90200000D01*
X166150000Y-90200000D01*
X166140198Y-90199518D01*
X166130491Y-90198079D01*
X166120972Y-90195694D01*
X166111732Y-90192388D01*
X166102860Y-90188192D01*
X166094443Y-90183147D01*
X166086561Y-90177301D01*
X166079289Y-90170711D01*
X166072699Y-90163439D01*
X166066853Y-90155557D01*
X166061808Y-90147140D01*
X166057612Y-90138268D01*
X166054306Y-90129028D01*
X166051921Y-90119509D01*
X166050482Y-90109802D01*
X166050000Y-90100000D01*
X166050000Y-89900000D01*
X166050482Y-89890198D01*
X166051921Y-89880491D01*
X166054306Y-89870972D01*
X166057612Y-89861732D01*
X166061808Y-89852860D01*
X166066853Y-89844443D01*
X166072699Y-89836561D01*
X166079289Y-89829289D01*
X166086561Y-89822699D01*
X166094443Y-89816853D01*
X166102860Y-89811808D01*
X166111732Y-89807612D01*
X166120972Y-89804306D01*
X166130491Y-89801921D01*
X166140198Y-89800482D01*
X166150000Y-89800000D01*
X166500000Y-89800000D01*
X166509802Y-89800482D01*
X166509802Y-89800482D01*
G37*
D12*
X166325000Y-90000000D03*
D10*
G36*
X166509802Y-90400482D02*
X166519509Y-90401921D01*
X166529028Y-90404306D01*
X166538268Y-90407612D01*
X166547140Y-90411808D01*
X166555557Y-90416853D01*
X166563439Y-90422699D01*
X166570711Y-90429289D01*
X166577301Y-90436561D01*
X166583147Y-90444443D01*
X166588192Y-90452860D01*
X166592388Y-90461732D01*
X166595694Y-90470972D01*
X166598079Y-90480491D01*
X166599518Y-90490198D01*
X166600000Y-90500000D01*
X166600000Y-90700000D01*
X166599518Y-90709802D01*
X166598079Y-90719509D01*
X166595694Y-90729028D01*
X166592388Y-90738268D01*
X166588192Y-90747140D01*
X166583147Y-90755557D01*
X166577301Y-90763439D01*
X166570711Y-90770711D01*
X166563439Y-90777301D01*
X166555557Y-90783147D01*
X166547140Y-90788192D01*
X166538268Y-90792388D01*
X166529028Y-90795694D01*
X166519509Y-90798079D01*
X166509802Y-90799518D01*
X166500000Y-90800000D01*
X166150000Y-90800000D01*
X166140198Y-90799518D01*
X166130491Y-90798079D01*
X166120972Y-90795694D01*
X166111732Y-90792388D01*
X166102860Y-90788192D01*
X166094443Y-90783147D01*
X166086561Y-90777301D01*
X166079289Y-90770711D01*
X166072699Y-90763439D01*
X166066853Y-90755557D01*
X166061808Y-90747140D01*
X166057612Y-90738268D01*
X166054306Y-90729028D01*
X166051921Y-90719509D01*
X166050482Y-90709802D01*
X166050000Y-90700000D01*
X166050000Y-90500000D01*
X166050482Y-90490198D01*
X166051921Y-90480491D01*
X166054306Y-90470972D01*
X166057612Y-90461732D01*
X166061808Y-90452860D01*
X166066853Y-90444443D01*
X166072699Y-90436561D01*
X166079289Y-90429289D01*
X166086561Y-90422699D01*
X166094443Y-90416853D01*
X166102860Y-90411808D01*
X166111732Y-90407612D01*
X166120972Y-90404306D01*
X166130491Y-90401921D01*
X166140198Y-90400482D01*
X166150000Y-90400000D01*
X166500000Y-90400000D01*
X166509802Y-90400482D01*
X166509802Y-90400482D01*
G37*
D12*
X166325000Y-90600000D03*
D10*
G36*
X167059802Y-90650482D02*
X167069509Y-90651921D01*
X167079028Y-90654306D01*
X167088268Y-90657612D01*
X167097140Y-90661808D01*
X167105557Y-90666853D01*
X167113439Y-90672699D01*
X167120711Y-90679289D01*
X167127301Y-90686561D01*
X167133147Y-90694443D01*
X167138192Y-90702860D01*
X167142388Y-90711732D01*
X167145694Y-90720972D01*
X167148079Y-90730491D01*
X167149518Y-90740198D01*
X167150000Y-90750000D01*
X167150000Y-91100000D01*
X167149518Y-91109802D01*
X167148079Y-91119509D01*
X167145694Y-91129028D01*
X167142388Y-91138268D01*
X167138192Y-91147140D01*
X167133147Y-91155557D01*
X167127301Y-91163439D01*
X167120711Y-91170711D01*
X167113439Y-91177301D01*
X167105557Y-91183147D01*
X167097140Y-91188192D01*
X167088268Y-91192388D01*
X167079028Y-91195694D01*
X167069509Y-91198079D01*
X167059802Y-91199518D01*
X167050000Y-91200000D01*
X166850000Y-91200000D01*
X166840198Y-91199518D01*
X166830491Y-91198079D01*
X166820972Y-91195694D01*
X166811732Y-91192388D01*
X166802860Y-91188192D01*
X166794443Y-91183147D01*
X166786561Y-91177301D01*
X166779289Y-91170711D01*
X166772699Y-91163439D01*
X166766853Y-91155557D01*
X166761808Y-91147140D01*
X166757612Y-91138268D01*
X166754306Y-91129028D01*
X166751921Y-91119509D01*
X166750482Y-91109802D01*
X166750000Y-91100000D01*
X166750000Y-90750000D01*
X166750482Y-90740198D01*
X166751921Y-90730491D01*
X166754306Y-90720972D01*
X166757612Y-90711732D01*
X166761808Y-90702860D01*
X166766853Y-90694443D01*
X166772699Y-90686561D01*
X166779289Y-90679289D01*
X166786561Y-90672699D01*
X166794443Y-90666853D01*
X166802860Y-90661808D01*
X166811732Y-90657612D01*
X166820972Y-90654306D01*
X166830491Y-90651921D01*
X166840198Y-90650482D01*
X166850000Y-90650000D01*
X167050000Y-90650000D01*
X167059802Y-90650482D01*
X167059802Y-90650482D01*
G37*
D12*
X166950000Y-90925000D03*
D10*
G36*
X167659802Y-90650482D02*
X167669509Y-90651921D01*
X167679028Y-90654306D01*
X167688268Y-90657612D01*
X167697140Y-90661808D01*
X167705557Y-90666853D01*
X167713439Y-90672699D01*
X167720711Y-90679289D01*
X167727301Y-90686561D01*
X167733147Y-90694443D01*
X167738192Y-90702860D01*
X167742388Y-90711732D01*
X167745694Y-90720972D01*
X167748079Y-90730491D01*
X167749518Y-90740198D01*
X167750000Y-90750000D01*
X167750000Y-91100000D01*
X167749518Y-91109802D01*
X167748079Y-91119509D01*
X167745694Y-91129028D01*
X167742388Y-91138268D01*
X167738192Y-91147140D01*
X167733147Y-91155557D01*
X167727301Y-91163439D01*
X167720711Y-91170711D01*
X167713439Y-91177301D01*
X167705557Y-91183147D01*
X167697140Y-91188192D01*
X167688268Y-91192388D01*
X167679028Y-91195694D01*
X167669509Y-91198079D01*
X167659802Y-91199518D01*
X167650000Y-91200000D01*
X167450000Y-91200000D01*
X167440198Y-91199518D01*
X167430491Y-91198079D01*
X167420972Y-91195694D01*
X167411732Y-91192388D01*
X167402860Y-91188192D01*
X167394443Y-91183147D01*
X167386561Y-91177301D01*
X167379289Y-91170711D01*
X167372699Y-91163439D01*
X167366853Y-91155557D01*
X167361808Y-91147140D01*
X167357612Y-91138268D01*
X167354306Y-91129028D01*
X167351921Y-91119509D01*
X167350482Y-91109802D01*
X167350000Y-91100000D01*
X167350000Y-90750000D01*
X167350482Y-90740198D01*
X167351921Y-90730491D01*
X167354306Y-90720972D01*
X167357612Y-90711732D01*
X167361808Y-90702860D01*
X167366853Y-90694443D01*
X167372699Y-90686561D01*
X167379289Y-90679289D01*
X167386561Y-90672699D01*
X167394443Y-90666853D01*
X167402860Y-90661808D01*
X167411732Y-90657612D01*
X167420972Y-90654306D01*
X167430491Y-90651921D01*
X167440198Y-90650482D01*
X167450000Y-90650000D01*
X167650000Y-90650000D01*
X167659802Y-90650482D01*
X167659802Y-90650482D01*
G37*
D12*
X167550000Y-90925000D03*
D10*
G36*
X168359802Y-90400482D02*
X168369509Y-90401921D01*
X168379028Y-90404306D01*
X168388268Y-90407612D01*
X168397140Y-90411808D01*
X168405557Y-90416853D01*
X168413439Y-90422699D01*
X168420711Y-90429289D01*
X168427301Y-90436561D01*
X168433147Y-90444443D01*
X168438192Y-90452860D01*
X168442388Y-90461732D01*
X168445694Y-90470972D01*
X168448079Y-90480491D01*
X168449518Y-90490198D01*
X168450000Y-90500000D01*
X168450000Y-90700000D01*
X168449518Y-90709802D01*
X168448079Y-90719509D01*
X168445694Y-90729028D01*
X168442388Y-90738268D01*
X168438192Y-90747140D01*
X168433147Y-90755557D01*
X168427301Y-90763439D01*
X168420711Y-90770711D01*
X168413439Y-90777301D01*
X168405557Y-90783147D01*
X168397140Y-90788192D01*
X168388268Y-90792388D01*
X168379028Y-90795694D01*
X168369509Y-90798079D01*
X168359802Y-90799518D01*
X168350000Y-90800000D01*
X168000000Y-90800000D01*
X167990198Y-90799518D01*
X167980491Y-90798079D01*
X167970972Y-90795694D01*
X167961732Y-90792388D01*
X167952860Y-90788192D01*
X167944443Y-90783147D01*
X167936561Y-90777301D01*
X167929289Y-90770711D01*
X167922699Y-90763439D01*
X167916853Y-90755557D01*
X167911808Y-90747140D01*
X167907612Y-90738268D01*
X167904306Y-90729028D01*
X167901921Y-90719509D01*
X167900482Y-90709802D01*
X167900000Y-90700000D01*
X167900000Y-90500000D01*
X167900482Y-90490198D01*
X167901921Y-90480491D01*
X167904306Y-90470972D01*
X167907612Y-90461732D01*
X167911808Y-90452860D01*
X167916853Y-90444443D01*
X167922699Y-90436561D01*
X167929289Y-90429289D01*
X167936561Y-90422699D01*
X167944443Y-90416853D01*
X167952860Y-90411808D01*
X167961732Y-90407612D01*
X167970972Y-90404306D01*
X167980491Y-90401921D01*
X167990198Y-90400482D01*
X168000000Y-90400000D01*
X168350000Y-90400000D01*
X168359802Y-90400482D01*
X168359802Y-90400482D01*
G37*
D12*
X168175000Y-90600000D03*
D10*
G36*
X168359802Y-89800482D02*
X168369509Y-89801921D01*
X168379028Y-89804306D01*
X168388268Y-89807612D01*
X168397140Y-89811808D01*
X168405557Y-89816853D01*
X168413439Y-89822699D01*
X168420711Y-89829289D01*
X168427301Y-89836561D01*
X168433147Y-89844443D01*
X168438192Y-89852860D01*
X168442388Y-89861732D01*
X168445694Y-89870972D01*
X168448079Y-89880491D01*
X168449518Y-89890198D01*
X168450000Y-89900000D01*
X168450000Y-90100000D01*
X168449518Y-90109802D01*
X168448079Y-90119509D01*
X168445694Y-90129028D01*
X168442388Y-90138268D01*
X168438192Y-90147140D01*
X168433147Y-90155557D01*
X168427301Y-90163439D01*
X168420711Y-90170711D01*
X168413439Y-90177301D01*
X168405557Y-90183147D01*
X168397140Y-90188192D01*
X168388268Y-90192388D01*
X168379028Y-90195694D01*
X168369509Y-90198079D01*
X168359802Y-90199518D01*
X168350000Y-90200000D01*
X168000000Y-90200000D01*
X167990198Y-90199518D01*
X167980491Y-90198079D01*
X167970972Y-90195694D01*
X167961732Y-90192388D01*
X167952860Y-90188192D01*
X167944443Y-90183147D01*
X167936561Y-90177301D01*
X167929289Y-90170711D01*
X167922699Y-90163439D01*
X167916853Y-90155557D01*
X167911808Y-90147140D01*
X167907612Y-90138268D01*
X167904306Y-90129028D01*
X167901921Y-90119509D01*
X167900482Y-90109802D01*
X167900000Y-90100000D01*
X167900000Y-89900000D01*
X167900482Y-89890198D01*
X167901921Y-89880491D01*
X167904306Y-89870972D01*
X167907612Y-89861732D01*
X167911808Y-89852860D01*
X167916853Y-89844443D01*
X167922699Y-89836561D01*
X167929289Y-89829289D01*
X167936561Y-89822699D01*
X167944443Y-89816853D01*
X167952860Y-89811808D01*
X167961732Y-89807612D01*
X167970972Y-89804306D01*
X167980491Y-89801921D01*
X167990198Y-89800482D01*
X168000000Y-89800000D01*
X168350000Y-89800000D01*
X168359802Y-89800482D01*
X168359802Y-89800482D01*
G37*
D12*
X168175000Y-90000000D03*
D10*
G36*
X168359802Y-89200482D02*
X168369509Y-89201921D01*
X168379028Y-89204306D01*
X168388268Y-89207612D01*
X168397140Y-89211808D01*
X168405557Y-89216853D01*
X168413439Y-89222699D01*
X168420711Y-89229289D01*
X168427301Y-89236561D01*
X168433147Y-89244443D01*
X168438192Y-89252860D01*
X168442388Y-89261732D01*
X168445694Y-89270972D01*
X168448079Y-89280491D01*
X168449518Y-89290198D01*
X168450000Y-89300000D01*
X168450000Y-89500000D01*
X168449518Y-89509802D01*
X168448079Y-89519509D01*
X168445694Y-89529028D01*
X168442388Y-89538268D01*
X168438192Y-89547140D01*
X168433147Y-89555557D01*
X168427301Y-89563439D01*
X168420711Y-89570711D01*
X168413439Y-89577301D01*
X168405557Y-89583147D01*
X168397140Y-89588192D01*
X168388268Y-89592388D01*
X168379028Y-89595694D01*
X168369509Y-89598079D01*
X168359802Y-89599518D01*
X168350000Y-89600000D01*
X168000000Y-89600000D01*
X167990198Y-89599518D01*
X167980491Y-89598079D01*
X167970972Y-89595694D01*
X167961732Y-89592388D01*
X167952860Y-89588192D01*
X167944443Y-89583147D01*
X167936561Y-89577301D01*
X167929289Y-89570711D01*
X167922699Y-89563439D01*
X167916853Y-89555557D01*
X167911808Y-89547140D01*
X167907612Y-89538268D01*
X167904306Y-89529028D01*
X167901921Y-89519509D01*
X167900482Y-89509802D01*
X167900000Y-89500000D01*
X167900000Y-89300000D01*
X167900482Y-89290198D01*
X167901921Y-89280491D01*
X167904306Y-89270972D01*
X167907612Y-89261732D01*
X167911808Y-89252860D01*
X167916853Y-89244443D01*
X167922699Y-89236561D01*
X167929289Y-89229289D01*
X167936561Y-89222699D01*
X167944443Y-89216853D01*
X167952860Y-89211808D01*
X167961732Y-89207612D01*
X167970972Y-89204306D01*
X167980491Y-89201921D01*
X167990198Y-89200482D01*
X168000000Y-89200000D01*
X168350000Y-89200000D01*
X168359802Y-89200482D01*
X168359802Y-89200482D01*
G37*
D12*
X168175000Y-89400000D03*
G04 #@! TD*
D10*
G04 #@! TO.C,C30*
G36*
X167926958Y-87180710D02*
X167941276Y-87182834D01*
X167955317Y-87186351D01*
X167968946Y-87191228D01*
X167982031Y-87197417D01*
X167994447Y-87204858D01*
X168006073Y-87213481D01*
X168016798Y-87223202D01*
X168026519Y-87233927D01*
X168035142Y-87245553D01*
X168042583Y-87257969D01*
X168048772Y-87271054D01*
X168053649Y-87284683D01*
X168057166Y-87298724D01*
X168059290Y-87313042D01*
X168060000Y-87327500D01*
X168060000Y-87672500D01*
X168059290Y-87686958D01*
X168057166Y-87701276D01*
X168053649Y-87715317D01*
X168048772Y-87728946D01*
X168042583Y-87742031D01*
X168035142Y-87754447D01*
X168026519Y-87766073D01*
X168016798Y-87776798D01*
X168006073Y-87786519D01*
X167994447Y-87795142D01*
X167982031Y-87802583D01*
X167968946Y-87808772D01*
X167955317Y-87813649D01*
X167941276Y-87817166D01*
X167926958Y-87819290D01*
X167912500Y-87820000D01*
X167617500Y-87820000D01*
X167603042Y-87819290D01*
X167588724Y-87817166D01*
X167574683Y-87813649D01*
X167561054Y-87808772D01*
X167547969Y-87802583D01*
X167535553Y-87795142D01*
X167523927Y-87786519D01*
X167513202Y-87776798D01*
X167503481Y-87766073D01*
X167494858Y-87754447D01*
X167487417Y-87742031D01*
X167481228Y-87728946D01*
X167476351Y-87715317D01*
X167472834Y-87701276D01*
X167470710Y-87686958D01*
X167470000Y-87672500D01*
X167470000Y-87327500D01*
X167470710Y-87313042D01*
X167472834Y-87298724D01*
X167476351Y-87284683D01*
X167481228Y-87271054D01*
X167487417Y-87257969D01*
X167494858Y-87245553D01*
X167503481Y-87233927D01*
X167513202Y-87223202D01*
X167523927Y-87213481D01*
X167535553Y-87204858D01*
X167547969Y-87197417D01*
X167561054Y-87191228D01*
X167574683Y-87186351D01*
X167588724Y-87182834D01*
X167603042Y-87180710D01*
X167617500Y-87180000D01*
X167912500Y-87180000D01*
X167926958Y-87180710D01*
X167926958Y-87180710D01*
G37*
D11*
X167765000Y-87500000D03*
D10*
G36*
X168896958Y-87180710D02*
X168911276Y-87182834D01*
X168925317Y-87186351D01*
X168938946Y-87191228D01*
X168952031Y-87197417D01*
X168964447Y-87204858D01*
X168976073Y-87213481D01*
X168986798Y-87223202D01*
X168996519Y-87233927D01*
X169005142Y-87245553D01*
X169012583Y-87257969D01*
X169018772Y-87271054D01*
X169023649Y-87284683D01*
X169027166Y-87298724D01*
X169029290Y-87313042D01*
X169030000Y-87327500D01*
X169030000Y-87672500D01*
X169029290Y-87686958D01*
X169027166Y-87701276D01*
X169023649Y-87715317D01*
X169018772Y-87728946D01*
X169012583Y-87742031D01*
X169005142Y-87754447D01*
X168996519Y-87766073D01*
X168986798Y-87776798D01*
X168976073Y-87786519D01*
X168964447Y-87795142D01*
X168952031Y-87802583D01*
X168938946Y-87808772D01*
X168925317Y-87813649D01*
X168911276Y-87817166D01*
X168896958Y-87819290D01*
X168882500Y-87820000D01*
X168587500Y-87820000D01*
X168573042Y-87819290D01*
X168558724Y-87817166D01*
X168544683Y-87813649D01*
X168531054Y-87808772D01*
X168517969Y-87802583D01*
X168505553Y-87795142D01*
X168493927Y-87786519D01*
X168483202Y-87776798D01*
X168473481Y-87766073D01*
X168464858Y-87754447D01*
X168457417Y-87742031D01*
X168451228Y-87728946D01*
X168446351Y-87715317D01*
X168442834Y-87701276D01*
X168440710Y-87686958D01*
X168440000Y-87672500D01*
X168440000Y-87327500D01*
X168440710Y-87313042D01*
X168442834Y-87298724D01*
X168446351Y-87284683D01*
X168451228Y-87271054D01*
X168457417Y-87257969D01*
X168464858Y-87245553D01*
X168473481Y-87233927D01*
X168483202Y-87223202D01*
X168493927Y-87213481D01*
X168505553Y-87204858D01*
X168517969Y-87197417D01*
X168531054Y-87191228D01*
X168544683Y-87186351D01*
X168558724Y-87182834D01*
X168573042Y-87180710D01*
X168587500Y-87180000D01*
X168882500Y-87180000D01*
X168896958Y-87180710D01*
X168896958Y-87180710D01*
G37*
D11*
X168735000Y-87500000D03*
G04 #@! TD*
D10*
G04 #@! TO.C,R10*
G36*
X146676958Y-79680710D02*
X146691276Y-79682834D01*
X146705317Y-79686351D01*
X146718946Y-79691228D01*
X146732031Y-79697417D01*
X146744447Y-79704858D01*
X146756073Y-79713481D01*
X146766798Y-79723202D01*
X146776519Y-79733927D01*
X146785142Y-79745553D01*
X146792583Y-79757969D01*
X146798772Y-79771054D01*
X146803649Y-79784683D01*
X146807166Y-79798724D01*
X146809290Y-79813042D01*
X146810000Y-79827500D01*
X146810000Y-80172500D01*
X146809290Y-80186958D01*
X146807166Y-80201276D01*
X146803649Y-80215317D01*
X146798772Y-80228946D01*
X146792583Y-80242031D01*
X146785142Y-80254447D01*
X146776519Y-80266073D01*
X146766798Y-80276798D01*
X146756073Y-80286519D01*
X146744447Y-80295142D01*
X146732031Y-80302583D01*
X146718946Y-80308772D01*
X146705317Y-80313649D01*
X146691276Y-80317166D01*
X146676958Y-80319290D01*
X146662500Y-80320000D01*
X146367500Y-80320000D01*
X146353042Y-80319290D01*
X146338724Y-80317166D01*
X146324683Y-80313649D01*
X146311054Y-80308772D01*
X146297969Y-80302583D01*
X146285553Y-80295142D01*
X146273927Y-80286519D01*
X146263202Y-80276798D01*
X146253481Y-80266073D01*
X146244858Y-80254447D01*
X146237417Y-80242031D01*
X146231228Y-80228946D01*
X146226351Y-80215317D01*
X146222834Y-80201276D01*
X146220710Y-80186958D01*
X146220000Y-80172500D01*
X146220000Y-79827500D01*
X146220710Y-79813042D01*
X146222834Y-79798724D01*
X146226351Y-79784683D01*
X146231228Y-79771054D01*
X146237417Y-79757969D01*
X146244858Y-79745553D01*
X146253481Y-79733927D01*
X146263202Y-79723202D01*
X146273927Y-79713481D01*
X146285553Y-79704858D01*
X146297969Y-79697417D01*
X146311054Y-79691228D01*
X146324683Y-79686351D01*
X146338724Y-79682834D01*
X146353042Y-79680710D01*
X146367500Y-79680000D01*
X146662500Y-79680000D01*
X146676958Y-79680710D01*
X146676958Y-79680710D01*
G37*
D11*
X146515000Y-80000000D03*
D10*
G36*
X147646958Y-79680710D02*
X147661276Y-79682834D01*
X147675317Y-79686351D01*
X147688946Y-79691228D01*
X147702031Y-79697417D01*
X147714447Y-79704858D01*
X147726073Y-79713481D01*
X147736798Y-79723202D01*
X147746519Y-79733927D01*
X147755142Y-79745553D01*
X147762583Y-79757969D01*
X147768772Y-79771054D01*
X147773649Y-79784683D01*
X147777166Y-79798724D01*
X147779290Y-79813042D01*
X147780000Y-79827500D01*
X147780000Y-80172500D01*
X147779290Y-80186958D01*
X147777166Y-80201276D01*
X147773649Y-80215317D01*
X147768772Y-80228946D01*
X147762583Y-80242031D01*
X147755142Y-80254447D01*
X147746519Y-80266073D01*
X147736798Y-80276798D01*
X147726073Y-80286519D01*
X147714447Y-80295142D01*
X147702031Y-80302583D01*
X147688946Y-80308772D01*
X147675317Y-80313649D01*
X147661276Y-80317166D01*
X147646958Y-80319290D01*
X147632500Y-80320000D01*
X147337500Y-80320000D01*
X147323042Y-80319290D01*
X147308724Y-80317166D01*
X147294683Y-80313649D01*
X147281054Y-80308772D01*
X147267969Y-80302583D01*
X147255553Y-80295142D01*
X147243927Y-80286519D01*
X147233202Y-80276798D01*
X147223481Y-80266073D01*
X147214858Y-80254447D01*
X147207417Y-80242031D01*
X147201228Y-80228946D01*
X147196351Y-80215317D01*
X147192834Y-80201276D01*
X147190710Y-80186958D01*
X147190000Y-80172500D01*
X147190000Y-79827500D01*
X147190710Y-79813042D01*
X147192834Y-79798724D01*
X147196351Y-79784683D01*
X147201228Y-79771054D01*
X147207417Y-79757969D01*
X147214858Y-79745553D01*
X147223481Y-79733927D01*
X147233202Y-79723202D01*
X147243927Y-79713481D01*
X147255553Y-79704858D01*
X147267969Y-79697417D01*
X147281054Y-79691228D01*
X147294683Y-79686351D01*
X147308724Y-79682834D01*
X147323042Y-79680710D01*
X147337500Y-79680000D01*
X147632500Y-79680000D01*
X147646958Y-79680710D01*
X147646958Y-79680710D01*
G37*
D11*
X147485000Y-80000000D03*
G04 #@! TD*
D10*
G04 #@! TO.C,R9*
G36*
X132176958Y-80180710D02*
X132191276Y-80182834D01*
X132205317Y-80186351D01*
X132218946Y-80191228D01*
X132232031Y-80197417D01*
X132244447Y-80204858D01*
X132256073Y-80213481D01*
X132266798Y-80223202D01*
X132276519Y-80233927D01*
X132285142Y-80245553D01*
X132292583Y-80257969D01*
X132298772Y-80271054D01*
X132303649Y-80284683D01*
X132307166Y-80298724D01*
X132309290Y-80313042D01*
X132310000Y-80327500D01*
X132310000Y-80672500D01*
X132309290Y-80686958D01*
X132307166Y-80701276D01*
X132303649Y-80715317D01*
X132298772Y-80728946D01*
X132292583Y-80742031D01*
X132285142Y-80754447D01*
X132276519Y-80766073D01*
X132266798Y-80776798D01*
X132256073Y-80786519D01*
X132244447Y-80795142D01*
X132232031Y-80802583D01*
X132218946Y-80808772D01*
X132205317Y-80813649D01*
X132191276Y-80817166D01*
X132176958Y-80819290D01*
X132162500Y-80820000D01*
X131867500Y-80820000D01*
X131853042Y-80819290D01*
X131838724Y-80817166D01*
X131824683Y-80813649D01*
X131811054Y-80808772D01*
X131797969Y-80802583D01*
X131785553Y-80795142D01*
X131773927Y-80786519D01*
X131763202Y-80776798D01*
X131753481Y-80766073D01*
X131744858Y-80754447D01*
X131737417Y-80742031D01*
X131731228Y-80728946D01*
X131726351Y-80715317D01*
X131722834Y-80701276D01*
X131720710Y-80686958D01*
X131720000Y-80672500D01*
X131720000Y-80327500D01*
X131720710Y-80313042D01*
X131722834Y-80298724D01*
X131726351Y-80284683D01*
X131731228Y-80271054D01*
X131737417Y-80257969D01*
X131744858Y-80245553D01*
X131753481Y-80233927D01*
X131763202Y-80223202D01*
X131773927Y-80213481D01*
X131785553Y-80204858D01*
X131797969Y-80197417D01*
X131811054Y-80191228D01*
X131824683Y-80186351D01*
X131838724Y-80182834D01*
X131853042Y-80180710D01*
X131867500Y-80180000D01*
X132162500Y-80180000D01*
X132176958Y-80180710D01*
X132176958Y-80180710D01*
G37*
D11*
X132015000Y-80500000D03*
D10*
G36*
X133146958Y-80180710D02*
X133161276Y-80182834D01*
X133175317Y-80186351D01*
X133188946Y-80191228D01*
X133202031Y-80197417D01*
X133214447Y-80204858D01*
X133226073Y-80213481D01*
X133236798Y-80223202D01*
X133246519Y-80233927D01*
X133255142Y-80245553D01*
X133262583Y-80257969D01*
X133268772Y-80271054D01*
X133273649Y-80284683D01*
X133277166Y-80298724D01*
X133279290Y-80313042D01*
X133280000Y-80327500D01*
X133280000Y-80672500D01*
X133279290Y-80686958D01*
X133277166Y-80701276D01*
X133273649Y-80715317D01*
X133268772Y-80728946D01*
X133262583Y-80742031D01*
X133255142Y-80754447D01*
X133246519Y-80766073D01*
X133236798Y-80776798D01*
X133226073Y-80786519D01*
X133214447Y-80795142D01*
X133202031Y-80802583D01*
X133188946Y-80808772D01*
X133175317Y-80813649D01*
X133161276Y-80817166D01*
X133146958Y-80819290D01*
X133132500Y-80820000D01*
X132837500Y-80820000D01*
X132823042Y-80819290D01*
X132808724Y-80817166D01*
X132794683Y-80813649D01*
X132781054Y-80808772D01*
X132767969Y-80802583D01*
X132755553Y-80795142D01*
X132743927Y-80786519D01*
X132733202Y-80776798D01*
X132723481Y-80766073D01*
X132714858Y-80754447D01*
X132707417Y-80742031D01*
X132701228Y-80728946D01*
X132696351Y-80715317D01*
X132692834Y-80701276D01*
X132690710Y-80686958D01*
X132690000Y-80672500D01*
X132690000Y-80327500D01*
X132690710Y-80313042D01*
X132692834Y-80298724D01*
X132696351Y-80284683D01*
X132701228Y-80271054D01*
X132707417Y-80257969D01*
X132714858Y-80245553D01*
X132723481Y-80233927D01*
X132733202Y-80223202D01*
X132743927Y-80213481D01*
X132755553Y-80204858D01*
X132767969Y-80197417D01*
X132781054Y-80191228D01*
X132794683Y-80186351D01*
X132808724Y-80182834D01*
X132823042Y-80180710D01*
X132837500Y-80180000D01*
X133132500Y-80180000D01*
X133146958Y-80180710D01*
X133146958Y-80180710D01*
G37*
D11*
X132985000Y-80500000D03*
G04 #@! TD*
D10*
G04 #@! TO.C,R8*
G36*
X132176958Y-77180710D02*
X132191276Y-77182834D01*
X132205317Y-77186351D01*
X132218946Y-77191228D01*
X132232031Y-77197417D01*
X132244447Y-77204858D01*
X132256073Y-77213481D01*
X132266798Y-77223202D01*
X132276519Y-77233927D01*
X132285142Y-77245553D01*
X132292583Y-77257969D01*
X132298772Y-77271054D01*
X132303649Y-77284683D01*
X132307166Y-77298724D01*
X132309290Y-77313042D01*
X132310000Y-77327500D01*
X132310000Y-77672500D01*
X132309290Y-77686958D01*
X132307166Y-77701276D01*
X132303649Y-77715317D01*
X132298772Y-77728946D01*
X132292583Y-77742031D01*
X132285142Y-77754447D01*
X132276519Y-77766073D01*
X132266798Y-77776798D01*
X132256073Y-77786519D01*
X132244447Y-77795142D01*
X132232031Y-77802583D01*
X132218946Y-77808772D01*
X132205317Y-77813649D01*
X132191276Y-77817166D01*
X132176958Y-77819290D01*
X132162500Y-77820000D01*
X131867500Y-77820000D01*
X131853042Y-77819290D01*
X131838724Y-77817166D01*
X131824683Y-77813649D01*
X131811054Y-77808772D01*
X131797969Y-77802583D01*
X131785553Y-77795142D01*
X131773927Y-77786519D01*
X131763202Y-77776798D01*
X131753481Y-77766073D01*
X131744858Y-77754447D01*
X131737417Y-77742031D01*
X131731228Y-77728946D01*
X131726351Y-77715317D01*
X131722834Y-77701276D01*
X131720710Y-77686958D01*
X131720000Y-77672500D01*
X131720000Y-77327500D01*
X131720710Y-77313042D01*
X131722834Y-77298724D01*
X131726351Y-77284683D01*
X131731228Y-77271054D01*
X131737417Y-77257969D01*
X131744858Y-77245553D01*
X131753481Y-77233927D01*
X131763202Y-77223202D01*
X131773927Y-77213481D01*
X131785553Y-77204858D01*
X131797969Y-77197417D01*
X131811054Y-77191228D01*
X131824683Y-77186351D01*
X131838724Y-77182834D01*
X131853042Y-77180710D01*
X131867500Y-77180000D01*
X132162500Y-77180000D01*
X132176958Y-77180710D01*
X132176958Y-77180710D01*
G37*
D11*
X132015000Y-77500000D03*
D10*
G36*
X133146958Y-77180710D02*
X133161276Y-77182834D01*
X133175317Y-77186351D01*
X133188946Y-77191228D01*
X133202031Y-77197417D01*
X133214447Y-77204858D01*
X133226073Y-77213481D01*
X133236798Y-77223202D01*
X133246519Y-77233927D01*
X133255142Y-77245553D01*
X133262583Y-77257969D01*
X133268772Y-77271054D01*
X133273649Y-77284683D01*
X133277166Y-77298724D01*
X133279290Y-77313042D01*
X133280000Y-77327500D01*
X133280000Y-77672500D01*
X133279290Y-77686958D01*
X133277166Y-77701276D01*
X133273649Y-77715317D01*
X133268772Y-77728946D01*
X133262583Y-77742031D01*
X133255142Y-77754447D01*
X133246519Y-77766073D01*
X133236798Y-77776798D01*
X133226073Y-77786519D01*
X133214447Y-77795142D01*
X133202031Y-77802583D01*
X133188946Y-77808772D01*
X133175317Y-77813649D01*
X133161276Y-77817166D01*
X133146958Y-77819290D01*
X133132500Y-77820000D01*
X132837500Y-77820000D01*
X132823042Y-77819290D01*
X132808724Y-77817166D01*
X132794683Y-77813649D01*
X132781054Y-77808772D01*
X132767969Y-77802583D01*
X132755553Y-77795142D01*
X132743927Y-77786519D01*
X132733202Y-77776798D01*
X132723481Y-77766073D01*
X132714858Y-77754447D01*
X132707417Y-77742031D01*
X132701228Y-77728946D01*
X132696351Y-77715317D01*
X132692834Y-77701276D01*
X132690710Y-77686958D01*
X132690000Y-77672500D01*
X132690000Y-77327500D01*
X132690710Y-77313042D01*
X132692834Y-77298724D01*
X132696351Y-77284683D01*
X132701228Y-77271054D01*
X132707417Y-77257969D01*
X132714858Y-77245553D01*
X132723481Y-77233927D01*
X132733202Y-77223202D01*
X132743927Y-77213481D01*
X132755553Y-77204858D01*
X132767969Y-77197417D01*
X132781054Y-77191228D01*
X132794683Y-77186351D01*
X132808724Y-77182834D01*
X132823042Y-77180710D01*
X132837500Y-77180000D01*
X133132500Y-77180000D01*
X133146958Y-77180710D01*
X133146958Y-77180710D01*
G37*
D11*
X132985000Y-77500000D03*
G04 #@! TD*
D10*
G04 #@! TO.C,R6*
G36*
X132176958Y-78680710D02*
X132191276Y-78682834D01*
X132205317Y-78686351D01*
X132218946Y-78691228D01*
X132232031Y-78697417D01*
X132244447Y-78704858D01*
X132256073Y-78713481D01*
X132266798Y-78723202D01*
X132276519Y-78733927D01*
X132285142Y-78745553D01*
X132292583Y-78757969D01*
X132298772Y-78771054D01*
X132303649Y-78784683D01*
X132307166Y-78798724D01*
X132309290Y-78813042D01*
X132310000Y-78827500D01*
X132310000Y-79172500D01*
X132309290Y-79186958D01*
X132307166Y-79201276D01*
X132303649Y-79215317D01*
X132298772Y-79228946D01*
X132292583Y-79242031D01*
X132285142Y-79254447D01*
X132276519Y-79266073D01*
X132266798Y-79276798D01*
X132256073Y-79286519D01*
X132244447Y-79295142D01*
X132232031Y-79302583D01*
X132218946Y-79308772D01*
X132205317Y-79313649D01*
X132191276Y-79317166D01*
X132176958Y-79319290D01*
X132162500Y-79320000D01*
X131867500Y-79320000D01*
X131853042Y-79319290D01*
X131838724Y-79317166D01*
X131824683Y-79313649D01*
X131811054Y-79308772D01*
X131797969Y-79302583D01*
X131785553Y-79295142D01*
X131773927Y-79286519D01*
X131763202Y-79276798D01*
X131753481Y-79266073D01*
X131744858Y-79254447D01*
X131737417Y-79242031D01*
X131731228Y-79228946D01*
X131726351Y-79215317D01*
X131722834Y-79201276D01*
X131720710Y-79186958D01*
X131720000Y-79172500D01*
X131720000Y-78827500D01*
X131720710Y-78813042D01*
X131722834Y-78798724D01*
X131726351Y-78784683D01*
X131731228Y-78771054D01*
X131737417Y-78757969D01*
X131744858Y-78745553D01*
X131753481Y-78733927D01*
X131763202Y-78723202D01*
X131773927Y-78713481D01*
X131785553Y-78704858D01*
X131797969Y-78697417D01*
X131811054Y-78691228D01*
X131824683Y-78686351D01*
X131838724Y-78682834D01*
X131853042Y-78680710D01*
X131867500Y-78680000D01*
X132162500Y-78680000D01*
X132176958Y-78680710D01*
X132176958Y-78680710D01*
G37*
D11*
X132015000Y-79000000D03*
D10*
G36*
X133146958Y-78680710D02*
X133161276Y-78682834D01*
X133175317Y-78686351D01*
X133188946Y-78691228D01*
X133202031Y-78697417D01*
X133214447Y-78704858D01*
X133226073Y-78713481D01*
X133236798Y-78723202D01*
X133246519Y-78733927D01*
X133255142Y-78745553D01*
X133262583Y-78757969D01*
X133268772Y-78771054D01*
X133273649Y-78784683D01*
X133277166Y-78798724D01*
X133279290Y-78813042D01*
X133280000Y-78827500D01*
X133280000Y-79172500D01*
X133279290Y-79186958D01*
X133277166Y-79201276D01*
X133273649Y-79215317D01*
X133268772Y-79228946D01*
X133262583Y-79242031D01*
X133255142Y-79254447D01*
X133246519Y-79266073D01*
X133236798Y-79276798D01*
X133226073Y-79286519D01*
X133214447Y-79295142D01*
X133202031Y-79302583D01*
X133188946Y-79308772D01*
X133175317Y-79313649D01*
X133161276Y-79317166D01*
X133146958Y-79319290D01*
X133132500Y-79320000D01*
X132837500Y-79320000D01*
X132823042Y-79319290D01*
X132808724Y-79317166D01*
X132794683Y-79313649D01*
X132781054Y-79308772D01*
X132767969Y-79302583D01*
X132755553Y-79295142D01*
X132743927Y-79286519D01*
X132733202Y-79276798D01*
X132723481Y-79266073D01*
X132714858Y-79254447D01*
X132707417Y-79242031D01*
X132701228Y-79228946D01*
X132696351Y-79215317D01*
X132692834Y-79201276D01*
X132690710Y-79186958D01*
X132690000Y-79172500D01*
X132690000Y-78827500D01*
X132690710Y-78813042D01*
X132692834Y-78798724D01*
X132696351Y-78784683D01*
X132701228Y-78771054D01*
X132707417Y-78757969D01*
X132714858Y-78745553D01*
X132723481Y-78733927D01*
X132733202Y-78723202D01*
X132743927Y-78713481D01*
X132755553Y-78704858D01*
X132767969Y-78697417D01*
X132781054Y-78691228D01*
X132794683Y-78686351D01*
X132808724Y-78682834D01*
X132823042Y-78680710D01*
X132837500Y-78680000D01*
X133132500Y-78680000D01*
X133146958Y-78680710D01*
X133146958Y-78680710D01*
G37*
D11*
X132985000Y-79000000D03*
G04 #@! TD*
D10*
G04 #@! TO.C,R7*
G36*
X146676958Y-81180710D02*
X146691276Y-81182834D01*
X146705317Y-81186351D01*
X146718946Y-81191228D01*
X146732031Y-81197417D01*
X146744447Y-81204858D01*
X146756073Y-81213481D01*
X146766798Y-81223202D01*
X146776519Y-81233927D01*
X146785142Y-81245553D01*
X146792583Y-81257969D01*
X146798772Y-81271054D01*
X146803649Y-81284683D01*
X146807166Y-81298724D01*
X146809290Y-81313042D01*
X146810000Y-81327500D01*
X146810000Y-81672500D01*
X146809290Y-81686958D01*
X146807166Y-81701276D01*
X146803649Y-81715317D01*
X146798772Y-81728946D01*
X146792583Y-81742031D01*
X146785142Y-81754447D01*
X146776519Y-81766073D01*
X146766798Y-81776798D01*
X146756073Y-81786519D01*
X146744447Y-81795142D01*
X146732031Y-81802583D01*
X146718946Y-81808772D01*
X146705317Y-81813649D01*
X146691276Y-81817166D01*
X146676958Y-81819290D01*
X146662500Y-81820000D01*
X146367500Y-81820000D01*
X146353042Y-81819290D01*
X146338724Y-81817166D01*
X146324683Y-81813649D01*
X146311054Y-81808772D01*
X146297969Y-81802583D01*
X146285553Y-81795142D01*
X146273927Y-81786519D01*
X146263202Y-81776798D01*
X146253481Y-81766073D01*
X146244858Y-81754447D01*
X146237417Y-81742031D01*
X146231228Y-81728946D01*
X146226351Y-81715317D01*
X146222834Y-81701276D01*
X146220710Y-81686958D01*
X146220000Y-81672500D01*
X146220000Y-81327500D01*
X146220710Y-81313042D01*
X146222834Y-81298724D01*
X146226351Y-81284683D01*
X146231228Y-81271054D01*
X146237417Y-81257969D01*
X146244858Y-81245553D01*
X146253481Y-81233927D01*
X146263202Y-81223202D01*
X146273927Y-81213481D01*
X146285553Y-81204858D01*
X146297969Y-81197417D01*
X146311054Y-81191228D01*
X146324683Y-81186351D01*
X146338724Y-81182834D01*
X146353042Y-81180710D01*
X146367500Y-81180000D01*
X146662500Y-81180000D01*
X146676958Y-81180710D01*
X146676958Y-81180710D01*
G37*
D11*
X146515000Y-81500000D03*
D10*
G36*
X147646958Y-81180710D02*
X147661276Y-81182834D01*
X147675317Y-81186351D01*
X147688946Y-81191228D01*
X147702031Y-81197417D01*
X147714447Y-81204858D01*
X147726073Y-81213481D01*
X147736798Y-81223202D01*
X147746519Y-81233927D01*
X147755142Y-81245553D01*
X147762583Y-81257969D01*
X147768772Y-81271054D01*
X147773649Y-81284683D01*
X147777166Y-81298724D01*
X147779290Y-81313042D01*
X147780000Y-81327500D01*
X147780000Y-81672500D01*
X147779290Y-81686958D01*
X147777166Y-81701276D01*
X147773649Y-81715317D01*
X147768772Y-81728946D01*
X147762583Y-81742031D01*
X147755142Y-81754447D01*
X147746519Y-81766073D01*
X147736798Y-81776798D01*
X147726073Y-81786519D01*
X147714447Y-81795142D01*
X147702031Y-81802583D01*
X147688946Y-81808772D01*
X147675317Y-81813649D01*
X147661276Y-81817166D01*
X147646958Y-81819290D01*
X147632500Y-81820000D01*
X147337500Y-81820000D01*
X147323042Y-81819290D01*
X147308724Y-81817166D01*
X147294683Y-81813649D01*
X147281054Y-81808772D01*
X147267969Y-81802583D01*
X147255553Y-81795142D01*
X147243927Y-81786519D01*
X147233202Y-81776798D01*
X147223481Y-81766073D01*
X147214858Y-81754447D01*
X147207417Y-81742031D01*
X147201228Y-81728946D01*
X147196351Y-81715317D01*
X147192834Y-81701276D01*
X147190710Y-81686958D01*
X147190000Y-81672500D01*
X147190000Y-81327500D01*
X147190710Y-81313042D01*
X147192834Y-81298724D01*
X147196351Y-81284683D01*
X147201228Y-81271054D01*
X147207417Y-81257969D01*
X147214858Y-81245553D01*
X147223481Y-81233927D01*
X147233202Y-81223202D01*
X147243927Y-81213481D01*
X147255553Y-81204858D01*
X147267969Y-81197417D01*
X147281054Y-81191228D01*
X147294683Y-81186351D01*
X147308724Y-81182834D01*
X147323042Y-81180710D01*
X147337500Y-81180000D01*
X147632500Y-81180000D01*
X147646958Y-81180710D01*
X147646958Y-81180710D01*
G37*
D11*
X147485000Y-81500000D03*
G04 #@! TD*
D10*
G04 #@! TO.C,R4*
G36*
X160176958Y-100180710D02*
X160191276Y-100182834D01*
X160205317Y-100186351D01*
X160218946Y-100191228D01*
X160232031Y-100197417D01*
X160244447Y-100204858D01*
X160256073Y-100213481D01*
X160266798Y-100223202D01*
X160276519Y-100233927D01*
X160285142Y-100245553D01*
X160292583Y-100257969D01*
X160298772Y-100271054D01*
X160303649Y-100284683D01*
X160307166Y-100298724D01*
X160309290Y-100313042D01*
X160310000Y-100327500D01*
X160310000Y-100672500D01*
X160309290Y-100686958D01*
X160307166Y-100701276D01*
X160303649Y-100715317D01*
X160298772Y-100728946D01*
X160292583Y-100742031D01*
X160285142Y-100754447D01*
X160276519Y-100766073D01*
X160266798Y-100776798D01*
X160256073Y-100786519D01*
X160244447Y-100795142D01*
X160232031Y-100802583D01*
X160218946Y-100808772D01*
X160205317Y-100813649D01*
X160191276Y-100817166D01*
X160176958Y-100819290D01*
X160162500Y-100820000D01*
X159867500Y-100820000D01*
X159853042Y-100819290D01*
X159838724Y-100817166D01*
X159824683Y-100813649D01*
X159811054Y-100808772D01*
X159797969Y-100802583D01*
X159785553Y-100795142D01*
X159773927Y-100786519D01*
X159763202Y-100776798D01*
X159753481Y-100766073D01*
X159744858Y-100754447D01*
X159737417Y-100742031D01*
X159731228Y-100728946D01*
X159726351Y-100715317D01*
X159722834Y-100701276D01*
X159720710Y-100686958D01*
X159720000Y-100672500D01*
X159720000Y-100327500D01*
X159720710Y-100313042D01*
X159722834Y-100298724D01*
X159726351Y-100284683D01*
X159731228Y-100271054D01*
X159737417Y-100257969D01*
X159744858Y-100245553D01*
X159753481Y-100233927D01*
X159763202Y-100223202D01*
X159773927Y-100213481D01*
X159785553Y-100204858D01*
X159797969Y-100197417D01*
X159811054Y-100191228D01*
X159824683Y-100186351D01*
X159838724Y-100182834D01*
X159853042Y-100180710D01*
X159867500Y-100180000D01*
X160162500Y-100180000D01*
X160176958Y-100180710D01*
X160176958Y-100180710D01*
G37*
D11*
X160015000Y-100500000D03*
D10*
G36*
X161146958Y-100180710D02*
X161161276Y-100182834D01*
X161175317Y-100186351D01*
X161188946Y-100191228D01*
X161202031Y-100197417D01*
X161214447Y-100204858D01*
X161226073Y-100213481D01*
X161236798Y-100223202D01*
X161246519Y-100233927D01*
X161255142Y-100245553D01*
X161262583Y-100257969D01*
X161268772Y-100271054D01*
X161273649Y-100284683D01*
X161277166Y-100298724D01*
X161279290Y-100313042D01*
X161280000Y-100327500D01*
X161280000Y-100672500D01*
X161279290Y-100686958D01*
X161277166Y-100701276D01*
X161273649Y-100715317D01*
X161268772Y-100728946D01*
X161262583Y-100742031D01*
X161255142Y-100754447D01*
X161246519Y-100766073D01*
X161236798Y-100776798D01*
X161226073Y-100786519D01*
X161214447Y-100795142D01*
X161202031Y-100802583D01*
X161188946Y-100808772D01*
X161175317Y-100813649D01*
X161161276Y-100817166D01*
X161146958Y-100819290D01*
X161132500Y-100820000D01*
X160837500Y-100820000D01*
X160823042Y-100819290D01*
X160808724Y-100817166D01*
X160794683Y-100813649D01*
X160781054Y-100808772D01*
X160767969Y-100802583D01*
X160755553Y-100795142D01*
X160743927Y-100786519D01*
X160733202Y-100776798D01*
X160723481Y-100766073D01*
X160714858Y-100754447D01*
X160707417Y-100742031D01*
X160701228Y-100728946D01*
X160696351Y-100715317D01*
X160692834Y-100701276D01*
X160690710Y-100686958D01*
X160690000Y-100672500D01*
X160690000Y-100327500D01*
X160690710Y-100313042D01*
X160692834Y-100298724D01*
X160696351Y-100284683D01*
X160701228Y-100271054D01*
X160707417Y-100257969D01*
X160714858Y-100245553D01*
X160723481Y-100233927D01*
X160733202Y-100223202D01*
X160743927Y-100213481D01*
X160755553Y-100204858D01*
X160767969Y-100197417D01*
X160781054Y-100191228D01*
X160794683Y-100186351D01*
X160808724Y-100182834D01*
X160823042Y-100180710D01*
X160837500Y-100180000D01*
X161132500Y-100180000D01*
X161146958Y-100180710D01*
X161146958Y-100180710D01*
G37*
D11*
X160985000Y-100500000D03*
G04 #@! TD*
D10*
G04 #@! TO.C,C1*
G36*
X141186958Y-90675710D02*
X141201276Y-90677834D01*
X141215317Y-90681351D01*
X141228946Y-90686228D01*
X141242031Y-90692417D01*
X141254447Y-90699858D01*
X141266073Y-90708481D01*
X141276798Y-90718202D01*
X141286519Y-90728927D01*
X141295142Y-90740553D01*
X141302583Y-90752969D01*
X141308772Y-90766054D01*
X141313649Y-90779683D01*
X141317166Y-90793724D01*
X141319290Y-90808042D01*
X141320000Y-90822500D01*
X141320000Y-91117500D01*
X141319290Y-91131958D01*
X141317166Y-91146276D01*
X141313649Y-91160317D01*
X141308772Y-91173946D01*
X141302583Y-91187031D01*
X141295142Y-91199447D01*
X141286519Y-91211073D01*
X141276798Y-91221798D01*
X141266073Y-91231519D01*
X141254447Y-91240142D01*
X141242031Y-91247583D01*
X141228946Y-91253772D01*
X141215317Y-91258649D01*
X141201276Y-91262166D01*
X141186958Y-91264290D01*
X141172500Y-91265000D01*
X140827500Y-91265000D01*
X140813042Y-91264290D01*
X140798724Y-91262166D01*
X140784683Y-91258649D01*
X140771054Y-91253772D01*
X140757969Y-91247583D01*
X140745553Y-91240142D01*
X140733927Y-91231519D01*
X140723202Y-91221798D01*
X140713481Y-91211073D01*
X140704858Y-91199447D01*
X140697417Y-91187031D01*
X140691228Y-91173946D01*
X140686351Y-91160317D01*
X140682834Y-91146276D01*
X140680710Y-91131958D01*
X140680000Y-91117500D01*
X140680000Y-90822500D01*
X140680710Y-90808042D01*
X140682834Y-90793724D01*
X140686351Y-90779683D01*
X140691228Y-90766054D01*
X140697417Y-90752969D01*
X140704858Y-90740553D01*
X140713481Y-90728927D01*
X140723202Y-90718202D01*
X140733927Y-90708481D01*
X140745553Y-90699858D01*
X140757969Y-90692417D01*
X140771054Y-90686228D01*
X140784683Y-90681351D01*
X140798724Y-90677834D01*
X140813042Y-90675710D01*
X140827500Y-90675000D01*
X141172500Y-90675000D01*
X141186958Y-90675710D01*
X141186958Y-90675710D01*
G37*
D11*
X141000000Y-90970000D03*
D10*
G36*
X141186958Y-89705710D02*
X141201276Y-89707834D01*
X141215317Y-89711351D01*
X141228946Y-89716228D01*
X141242031Y-89722417D01*
X141254447Y-89729858D01*
X141266073Y-89738481D01*
X141276798Y-89748202D01*
X141286519Y-89758927D01*
X141295142Y-89770553D01*
X141302583Y-89782969D01*
X141308772Y-89796054D01*
X141313649Y-89809683D01*
X141317166Y-89823724D01*
X141319290Y-89838042D01*
X141320000Y-89852500D01*
X141320000Y-90147500D01*
X141319290Y-90161958D01*
X141317166Y-90176276D01*
X141313649Y-90190317D01*
X141308772Y-90203946D01*
X141302583Y-90217031D01*
X141295142Y-90229447D01*
X141286519Y-90241073D01*
X141276798Y-90251798D01*
X141266073Y-90261519D01*
X141254447Y-90270142D01*
X141242031Y-90277583D01*
X141228946Y-90283772D01*
X141215317Y-90288649D01*
X141201276Y-90292166D01*
X141186958Y-90294290D01*
X141172500Y-90295000D01*
X140827500Y-90295000D01*
X140813042Y-90294290D01*
X140798724Y-90292166D01*
X140784683Y-90288649D01*
X140771054Y-90283772D01*
X140757969Y-90277583D01*
X140745553Y-90270142D01*
X140733927Y-90261519D01*
X140723202Y-90251798D01*
X140713481Y-90241073D01*
X140704858Y-90229447D01*
X140697417Y-90217031D01*
X140691228Y-90203946D01*
X140686351Y-90190317D01*
X140682834Y-90176276D01*
X140680710Y-90161958D01*
X140680000Y-90147500D01*
X140680000Y-89852500D01*
X140680710Y-89838042D01*
X140682834Y-89823724D01*
X140686351Y-89809683D01*
X140691228Y-89796054D01*
X140697417Y-89782969D01*
X140704858Y-89770553D01*
X140713481Y-89758927D01*
X140723202Y-89748202D01*
X140733927Y-89738481D01*
X140745553Y-89729858D01*
X140757969Y-89722417D01*
X140771054Y-89716228D01*
X140784683Y-89711351D01*
X140798724Y-89707834D01*
X140813042Y-89705710D01*
X140827500Y-89705000D01*
X141172500Y-89705000D01*
X141186958Y-89705710D01*
X141186958Y-89705710D01*
G37*
D11*
X141000000Y-90000000D03*
G04 #@! TD*
D10*
G04 #@! TO.C,C2*
G36*
X142686958Y-89720710D02*
X142701276Y-89722834D01*
X142715317Y-89726351D01*
X142728946Y-89731228D01*
X142742031Y-89737417D01*
X142754447Y-89744858D01*
X142766073Y-89753481D01*
X142776798Y-89763202D01*
X142786519Y-89773927D01*
X142795142Y-89785553D01*
X142802583Y-89797969D01*
X142808772Y-89811054D01*
X142813649Y-89824683D01*
X142817166Y-89838724D01*
X142819290Y-89853042D01*
X142820000Y-89867500D01*
X142820000Y-90162500D01*
X142819290Y-90176958D01*
X142817166Y-90191276D01*
X142813649Y-90205317D01*
X142808772Y-90218946D01*
X142802583Y-90232031D01*
X142795142Y-90244447D01*
X142786519Y-90256073D01*
X142776798Y-90266798D01*
X142766073Y-90276519D01*
X142754447Y-90285142D01*
X142742031Y-90292583D01*
X142728946Y-90298772D01*
X142715317Y-90303649D01*
X142701276Y-90307166D01*
X142686958Y-90309290D01*
X142672500Y-90310000D01*
X142327500Y-90310000D01*
X142313042Y-90309290D01*
X142298724Y-90307166D01*
X142284683Y-90303649D01*
X142271054Y-90298772D01*
X142257969Y-90292583D01*
X142245553Y-90285142D01*
X142233927Y-90276519D01*
X142223202Y-90266798D01*
X142213481Y-90256073D01*
X142204858Y-90244447D01*
X142197417Y-90232031D01*
X142191228Y-90218946D01*
X142186351Y-90205317D01*
X142182834Y-90191276D01*
X142180710Y-90176958D01*
X142180000Y-90162500D01*
X142180000Y-89867500D01*
X142180710Y-89853042D01*
X142182834Y-89838724D01*
X142186351Y-89824683D01*
X142191228Y-89811054D01*
X142197417Y-89797969D01*
X142204858Y-89785553D01*
X142213481Y-89773927D01*
X142223202Y-89763202D01*
X142233927Y-89753481D01*
X142245553Y-89744858D01*
X142257969Y-89737417D01*
X142271054Y-89731228D01*
X142284683Y-89726351D01*
X142298724Y-89722834D01*
X142313042Y-89720710D01*
X142327500Y-89720000D01*
X142672500Y-89720000D01*
X142686958Y-89720710D01*
X142686958Y-89720710D01*
G37*
D11*
X142500000Y-90015000D03*
D10*
G36*
X142686958Y-90690710D02*
X142701276Y-90692834D01*
X142715317Y-90696351D01*
X142728946Y-90701228D01*
X142742031Y-90707417D01*
X142754447Y-90714858D01*
X142766073Y-90723481D01*
X142776798Y-90733202D01*
X142786519Y-90743927D01*
X142795142Y-90755553D01*
X142802583Y-90767969D01*
X142808772Y-90781054D01*
X142813649Y-90794683D01*
X142817166Y-90808724D01*
X142819290Y-90823042D01*
X142820000Y-90837500D01*
X142820000Y-91132500D01*
X142819290Y-91146958D01*
X142817166Y-91161276D01*
X142813649Y-91175317D01*
X142808772Y-91188946D01*
X142802583Y-91202031D01*
X142795142Y-91214447D01*
X142786519Y-91226073D01*
X142776798Y-91236798D01*
X142766073Y-91246519D01*
X142754447Y-91255142D01*
X142742031Y-91262583D01*
X142728946Y-91268772D01*
X142715317Y-91273649D01*
X142701276Y-91277166D01*
X142686958Y-91279290D01*
X142672500Y-91280000D01*
X142327500Y-91280000D01*
X142313042Y-91279290D01*
X142298724Y-91277166D01*
X142284683Y-91273649D01*
X142271054Y-91268772D01*
X142257969Y-91262583D01*
X142245553Y-91255142D01*
X142233927Y-91246519D01*
X142223202Y-91236798D01*
X142213481Y-91226073D01*
X142204858Y-91214447D01*
X142197417Y-91202031D01*
X142191228Y-91188946D01*
X142186351Y-91175317D01*
X142182834Y-91161276D01*
X142180710Y-91146958D01*
X142180000Y-91132500D01*
X142180000Y-90837500D01*
X142180710Y-90823042D01*
X142182834Y-90808724D01*
X142186351Y-90794683D01*
X142191228Y-90781054D01*
X142197417Y-90767969D01*
X142204858Y-90755553D01*
X142213481Y-90743927D01*
X142223202Y-90733202D01*
X142233927Y-90723481D01*
X142245553Y-90714858D01*
X142257969Y-90707417D01*
X142271054Y-90701228D01*
X142284683Y-90696351D01*
X142298724Y-90692834D01*
X142313042Y-90690710D01*
X142327500Y-90690000D01*
X142672500Y-90690000D01*
X142686958Y-90690710D01*
X142686958Y-90690710D01*
G37*
D11*
X142500000Y-90985000D03*
G04 #@! TD*
D10*
G04 #@! TO.C,C3*
G36*
X155936958Y-92690710D02*
X155951276Y-92692834D01*
X155965317Y-92696351D01*
X155978946Y-92701228D01*
X155992031Y-92707417D01*
X156004447Y-92714858D01*
X156016073Y-92723481D01*
X156026798Y-92733202D01*
X156036519Y-92743927D01*
X156045142Y-92755553D01*
X156052583Y-92767969D01*
X156058772Y-92781054D01*
X156063649Y-92794683D01*
X156067166Y-92808724D01*
X156069290Y-92823042D01*
X156070000Y-92837500D01*
X156070000Y-93132500D01*
X156069290Y-93146958D01*
X156067166Y-93161276D01*
X156063649Y-93175317D01*
X156058772Y-93188946D01*
X156052583Y-93202031D01*
X156045142Y-93214447D01*
X156036519Y-93226073D01*
X156026798Y-93236798D01*
X156016073Y-93246519D01*
X156004447Y-93255142D01*
X155992031Y-93262583D01*
X155978946Y-93268772D01*
X155965317Y-93273649D01*
X155951276Y-93277166D01*
X155936958Y-93279290D01*
X155922500Y-93280000D01*
X155577500Y-93280000D01*
X155563042Y-93279290D01*
X155548724Y-93277166D01*
X155534683Y-93273649D01*
X155521054Y-93268772D01*
X155507969Y-93262583D01*
X155495553Y-93255142D01*
X155483927Y-93246519D01*
X155473202Y-93236798D01*
X155463481Y-93226073D01*
X155454858Y-93214447D01*
X155447417Y-93202031D01*
X155441228Y-93188946D01*
X155436351Y-93175317D01*
X155432834Y-93161276D01*
X155430710Y-93146958D01*
X155430000Y-93132500D01*
X155430000Y-92837500D01*
X155430710Y-92823042D01*
X155432834Y-92808724D01*
X155436351Y-92794683D01*
X155441228Y-92781054D01*
X155447417Y-92767969D01*
X155454858Y-92755553D01*
X155463481Y-92743927D01*
X155473202Y-92733202D01*
X155483927Y-92723481D01*
X155495553Y-92714858D01*
X155507969Y-92707417D01*
X155521054Y-92701228D01*
X155534683Y-92696351D01*
X155548724Y-92692834D01*
X155563042Y-92690710D01*
X155577500Y-92690000D01*
X155922500Y-92690000D01*
X155936958Y-92690710D01*
X155936958Y-92690710D01*
G37*
D11*
X155750000Y-92985000D03*
D10*
G36*
X155936958Y-91720710D02*
X155951276Y-91722834D01*
X155965317Y-91726351D01*
X155978946Y-91731228D01*
X155992031Y-91737417D01*
X156004447Y-91744858D01*
X156016073Y-91753481D01*
X156026798Y-91763202D01*
X156036519Y-91773927D01*
X156045142Y-91785553D01*
X156052583Y-91797969D01*
X156058772Y-91811054D01*
X156063649Y-91824683D01*
X156067166Y-91838724D01*
X156069290Y-91853042D01*
X156070000Y-91867500D01*
X156070000Y-92162500D01*
X156069290Y-92176958D01*
X156067166Y-92191276D01*
X156063649Y-92205317D01*
X156058772Y-92218946D01*
X156052583Y-92232031D01*
X156045142Y-92244447D01*
X156036519Y-92256073D01*
X156026798Y-92266798D01*
X156016073Y-92276519D01*
X156004447Y-92285142D01*
X155992031Y-92292583D01*
X155978946Y-92298772D01*
X155965317Y-92303649D01*
X155951276Y-92307166D01*
X155936958Y-92309290D01*
X155922500Y-92310000D01*
X155577500Y-92310000D01*
X155563042Y-92309290D01*
X155548724Y-92307166D01*
X155534683Y-92303649D01*
X155521054Y-92298772D01*
X155507969Y-92292583D01*
X155495553Y-92285142D01*
X155483927Y-92276519D01*
X155473202Y-92266798D01*
X155463481Y-92256073D01*
X155454858Y-92244447D01*
X155447417Y-92232031D01*
X155441228Y-92218946D01*
X155436351Y-92205317D01*
X155432834Y-92191276D01*
X155430710Y-92176958D01*
X155430000Y-92162500D01*
X155430000Y-91867500D01*
X155430710Y-91853042D01*
X155432834Y-91838724D01*
X155436351Y-91824683D01*
X155441228Y-91811054D01*
X155447417Y-91797969D01*
X155454858Y-91785553D01*
X155463481Y-91773927D01*
X155473202Y-91763202D01*
X155483927Y-91753481D01*
X155495553Y-91744858D01*
X155507969Y-91737417D01*
X155521054Y-91731228D01*
X155534683Y-91726351D01*
X155548724Y-91722834D01*
X155563042Y-91720710D01*
X155577500Y-91720000D01*
X155922500Y-91720000D01*
X155936958Y-91720710D01*
X155936958Y-91720710D01*
G37*
D11*
X155750000Y-92015000D03*
G04 #@! TD*
D10*
G04 #@! TO.C,C4*
G36*
X152426958Y-95930710D02*
X152441276Y-95932834D01*
X152455317Y-95936351D01*
X152468946Y-95941228D01*
X152482031Y-95947417D01*
X152494447Y-95954858D01*
X152506073Y-95963481D01*
X152516798Y-95973202D01*
X152526519Y-95983927D01*
X152535142Y-95995553D01*
X152542583Y-96007969D01*
X152548772Y-96021054D01*
X152553649Y-96034683D01*
X152557166Y-96048724D01*
X152559290Y-96063042D01*
X152560000Y-96077500D01*
X152560000Y-96422500D01*
X152559290Y-96436958D01*
X152557166Y-96451276D01*
X152553649Y-96465317D01*
X152548772Y-96478946D01*
X152542583Y-96492031D01*
X152535142Y-96504447D01*
X152526519Y-96516073D01*
X152516798Y-96526798D01*
X152506073Y-96536519D01*
X152494447Y-96545142D01*
X152482031Y-96552583D01*
X152468946Y-96558772D01*
X152455317Y-96563649D01*
X152441276Y-96567166D01*
X152426958Y-96569290D01*
X152412500Y-96570000D01*
X152117500Y-96570000D01*
X152103042Y-96569290D01*
X152088724Y-96567166D01*
X152074683Y-96563649D01*
X152061054Y-96558772D01*
X152047969Y-96552583D01*
X152035553Y-96545142D01*
X152023927Y-96536519D01*
X152013202Y-96526798D01*
X152003481Y-96516073D01*
X151994858Y-96504447D01*
X151987417Y-96492031D01*
X151981228Y-96478946D01*
X151976351Y-96465317D01*
X151972834Y-96451276D01*
X151970710Y-96436958D01*
X151970000Y-96422500D01*
X151970000Y-96077500D01*
X151970710Y-96063042D01*
X151972834Y-96048724D01*
X151976351Y-96034683D01*
X151981228Y-96021054D01*
X151987417Y-96007969D01*
X151994858Y-95995553D01*
X152003481Y-95983927D01*
X152013202Y-95973202D01*
X152023927Y-95963481D01*
X152035553Y-95954858D01*
X152047969Y-95947417D01*
X152061054Y-95941228D01*
X152074683Y-95936351D01*
X152088724Y-95932834D01*
X152103042Y-95930710D01*
X152117500Y-95930000D01*
X152412500Y-95930000D01*
X152426958Y-95930710D01*
X152426958Y-95930710D01*
G37*
D11*
X152265000Y-96250000D03*
D10*
G36*
X153396958Y-95930710D02*
X153411276Y-95932834D01*
X153425317Y-95936351D01*
X153438946Y-95941228D01*
X153452031Y-95947417D01*
X153464447Y-95954858D01*
X153476073Y-95963481D01*
X153486798Y-95973202D01*
X153496519Y-95983927D01*
X153505142Y-95995553D01*
X153512583Y-96007969D01*
X153518772Y-96021054D01*
X153523649Y-96034683D01*
X153527166Y-96048724D01*
X153529290Y-96063042D01*
X153530000Y-96077500D01*
X153530000Y-96422500D01*
X153529290Y-96436958D01*
X153527166Y-96451276D01*
X153523649Y-96465317D01*
X153518772Y-96478946D01*
X153512583Y-96492031D01*
X153505142Y-96504447D01*
X153496519Y-96516073D01*
X153486798Y-96526798D01*
X153476073Y-96536519D01*
X153464447Y-96545142D01*
X153452031Y-96552583D01*
X153438946Y-96558772D01*
X153425317Y-96563649D01*
X153411276Y-96567166D01*
X153396958Y-96569290D01*
X153382500Y-96570000D01*
X153087500Y-96570000D01*
X153073042Y-96569290D01*
X153058724Y-96567166D01*
X153044683Y-96563649D01*
X153031054Y-96558772D01*
X153017969Y-96552583D01*
X153005553Y-96545142D01*
X152993927Y-96536519D01*
X152983202Y-96526798D01*
X152973481Y-96516073D01*
X152964858Y-96504447D01*
X152957417Y-96492031D01*
X152951228Y-96478946D01*
X152946351Y-96465317D01*
X152942834Y-96451276D01*
X152940710Y-96436958D01*
X152940000Y-96422500D01*
X152940000Y-96077500D01*
X152940710Y-96063042D01*
X152942834Y-96048724D01*
X152946351Y-96034683D01*
X152951228Y-96021054D01*
X152957417Y-96007969D01*
X152964858Y-95995553D01*
X152973481Y-95983927D01*
X152983202Y-95973202D01*
X152993927Y-95963481D01*
X153005553Y-95954858D01*
X153017969Y-95947417D01*
X153031054Y-95941228D01*
X153044683Y-95936351D01*
X153058724Y-95932834D01*
X153073042Y-95930710D01*
X153087500Y-95930000D01*
X153382500Y-95930000D01*
X153396958Y-95930710D01*
X153396958Y-95930710D01*
G37*
D11*
X153235000Y-96250000D03*
G04 #@! TD*
D10*
G04 #@! TO.C,C5*
G36*
X152381958Y-83930710D02*
X152396276Y-83932834D01*
X152410317Y-83936351D01*
X152423946Y-83941228D01*
X152437031Y-83947417D01*
X152449447Y-83954858D01*
X152461073Y-83963481D01*
X152471798Y-83973202D01*
X152481519Y-83983927D01*
X152490142Y-83995553D01*
X152497583Y-84007969D01*
X152503772Y-84021054D01*
X152508649Y-84034683D01*
X152512166Y-84048724D01*
X152514290Y-84063042D01*
X152515000Y-84077500D01*
X152515000Y-84422500D01*
X152514290Y-84436958D01*
X152512166Y-84451276D01*
X152508649Y-84465317D01*
X152503772Y-84478946D01*
X152497583Y-84492031D01*
X152490142Y-84504447D01*
X152481519Y-84516073D01*
X152471798Y-84526798D01*
X152461073Y-84536519D01*
X152449447Y-84545142D01*
X152437031Y-84552583D01*
X152423946Y-84558772D01*
X152410317Y-84563649D01*
X152396276Y-84567166D01*
X152381958Y-84569290D01*
X152367500Y-84570000D01*
X152072500Y-84570000D01*
X152058042Y-84569290D01*
X152043724Y-84567166D01*
X152029683Y-84563649D01*
X152016054Y-84558772D01*
X152002969Y-84552583D01*
X151990553Y-84545142D01*
X151978927Y-84536519D01*
X151968202Y-84526798D01*
X151958481Y-84516073D01*
X151949858Y-84504447D01*
X151942417Y-84492031D01*
X151936228Y-84478946D01*
X151931351Y-84465317D01*
X151927834Y-84451276D01*
X151925710Y-84436958D01*
X151925000Y-84422500D01*
X151925000Y-84077500D01*
X151925710Y-84063042D01*
X151927834Y-84048724D01*
X151931351Y-84034683D01*
X151936228Y-84021054D01*
X151942417Y-84007969D01*
X151949858Y-83995553D01*
X151958481Y-83983927D01*
X151968202Y-83973202D01*
X151978927Y-83963481D01*
X151990553Y-83954858D01*
X152002969Y-83947417D01*
X152016054Y-83941228D01*
X152029683Y-83936351D01*
X152043724Y-83932834D01*
X152058042Y-83930710D01*
X152072500Y-83930000D01*
X152367500Y-83930000D01*
X152381958Y-83930710D01*
X152381958Y-83930710D01*
G37*
D11*
X152220000Y-84250000D03*
D10*
G36*
X151411958Y-83930710D02*
X151426276Y-83932834D01*
X151440317Y-83936351D01*
X151453946Y-83941228D01*
X151467031Y-83947417D01*
X151479447Y-83954858D01*
X151491073Y-83963481D01*
X151501798Y-83973202D01*
X151511519Y-83983927D01*
X151520142Y-83995553D01*
X151527583Y-84007969D01*
X151533772Y-84021054D01*
X151538649Y-84034683D01*
X151542166Y-84048724D01*
X151544290Y-84063042D01*
X151545000Y-84077500D01*
X151545000Y-84422500D01*
X151544290Y-84436958D01*
X151542166Y-84451276D01*
X151538649Y-84465317D01*
X151533772Y-84478946D01*
X151527583Y-84492031D01*
X151520142Y-84504447D01*
X151511519Y-84516073D01*
X151501798Y-84526798D01*
X151491073Y-84536519D01*
X151479447Y-84545142D01*
X151467031Y-84552583D01*
X151453946Y-84558772D01*
X151440317Y-84563649D01*
X151426276Y-84567166D01*
X151411958Y-84569290D01*
X151397500Y-84570000D01*
X151102500Y-84570000D01*
X151088042Y-84569290D01*
X151073724Y-84567166D01*
X151059683Y-84563649D01*
X151046054Y-84558772D01*
X151032969Y-84552583D01*
X151020553Y-84545142D01*
X151008927Y-84536519D01*
X150998202Y-84526798D01*
X150988481Y-84516073D01*
X150979858Y-84504447D01*
X150972417Y-84492031D01*
X150966228Y-84478946D01*
X150961351Y-84465317D01*
X150957834Y-84451276D01*
X150955710Y-84436958D01*
X150955000Y-84422500D01*
X150955000Y-84077500D01*
X150955710Y-84063042D01*
X150957834Y-84048724D01*
X150961351Y-84034683D01*
X150966228Y-84021054D01*
X150972417Y-84007969D01*
X150979858Y-83995553D01*
X150988481Y-83983927D01*
X150998202Y-83973202D01*
X151008927Y-83963481D01*
X151020553Y-83954858D01*
X151032969Y-83947417D01*
X151046054Y-83941228D01*
X151059683Y-83936351D01*
X151073724Y-83932834D01*
X151088042Y-83930710D01*
X151102500Y-83930000D01*
X151397500Y-83930000D01*
X151411958Y-83930710D01*
X151411958Y-83930710D01*
G37*
D11*
X151250000Y-84250000D03*
G04 #@! TD*
D10*
G04 #@! TO.C,C6*
G36*
X142686958Y-85220710D02*
X142701276Y-85222834D01*
X142715317Y-85226351D01*
X142728946Y-85231228D01*
X142742031Y-85237417D01*
X142754447Y-85244858D01*
X142766073Y-85253481D01*
X142776798Y-85263202D01*
X142786519Y-85273927D01*
X142795142Y-85285553D01*
X142802583Y-85297969D01*
X142808772Y-85311054D01*
X142813649Y-85324683D01*
X142817166Y-85338724D01*
X142819290Y-85353042D01*
X142820000Y-85367500D01*
X142820000Y-85662500D01*
X142819290Y-85676958D01*
X142817166Y-85691276D01*
X142813649Y-85705317D01*
X142808772Y-85718946D01*
X142802583Y-85732031D01*
X142795142Y-85744447D01*
X142786519Y-85756073D01*
X142776798Y-85766798D01*
X142766073Y-85776519D01*
X142754447Y-85785142D01*
X142742031Y-85792583D01*
X142728946Y-85798772D01*
X142715317Y-85803649D01*
X142701276Y-85807166D01*
X142686958Y-85809290D01*
X142672500Y-85810000D01*
X142327500Y-85810000D01*
X142313042Y-85809290D01*
X142298724Y-85807166D01*
X142284683Y-85803649D01*
X142271054Y-85798772D01*
X142257969Y-85792583D01*
X142245553Y-85785142D01*
X142233927Y-85776519D01*
X142223202Y-85766798D01*
X142213481Y-85756073D01*
X142204858Y-85744447D01*
X142197417Y-85732031D01*
X142191228Y-85718946D01*
X142186351Y-85705317D01*
X142182834Y-85691276D01*
X142180710Y-85676958D01*
X142180000Y-85662500D01*
X142180000Y-85367500D01*
X142180710Y-85353042D01*
X142182834Y-85338724D01*
X142186351Y-85324683D01*
X142191228Y-85311054D01*
X142197417Y-85297969D01*
X142204858Y-85285553D01*
X142213481Y-85273927D01*
X142223202Y-85263202D01*
X142233927Y-85253481D01*
X142245553Y-85244858D01*
X142257969Y-85237417D01*
X142271054Y-85231228D01*
X142284683Y-85226351D01*
X142298724Y-85222834D01*
X142313042Y-85220710D01*
X142327500Y-85220000D01*
X142672500Y-85220000D01*
X142686958Y-85220710D01*
X142686958Y-85220710D01*
G37*
D11*
X142500000Y-85515000D03*
D10*
G36*
X142686958Y-86190710D02*
X142701276Y-86192834D01*
X142715317Y-86196351D01*
X142728946Y-86201228D01*
X142742031Y-86207417D01*
X142754447Y-86214858D01*
X142766073Y-86223481D01*
X142776798Y-86233202D01*
X142786519Y-86243927D01*
X142795142Y-86255553D01*
X142802583Y-86267969D01*
X142808772Y-86281054D01*
X142813649Y-86294683D01*
X142817166Y-86308724D01*
X142819290Y-86323042D01*
X142820000Y-86337500D01*
X142820000Y-86632500D01*
X142819290Y-86646958D01*
X142817166Y-86661276D01*
X142813649Y-86675317D01*
X142808772Y-86688946D01*
X142802583Y-86702031D01*
X142795142Y-86714447D01*
X142786519Y-86726073D01*
X142776798Y-86736798D01*
X142766073Y-86746519D01*
X142754447Y-86755142D01*
X142742031Y-86762583D01*
X142728946Y-86768772D01*
X142715317Y-86773649D01*
X142701276Y-86777166D01*
X142686958Y-86779290D01*
X142672500Y-86780000D01*
X142327500Y-86780000D01*
X142313042Y-86779290D01*
X142298724Y-86777166D01*
X142284683Y-86773649D01*
X142271054Y-86768772D01*
X142257969Y-86762583D01*
X142245553Y-86755142D01*
X142233927Y-86746519D01*
X142223202Y-86736798D01*
X142213481Y-86726073D01*
X142204858Y-86714447D01*
X142197417Y-86702031D01*
X142191228Y-86688946D01*
X142186351Y-86675317D01*
X142182834Y-86661276D01*
X142180710Y-86646958D01*
X142180000Y-86632500D01*
X142180000Y-86337500D01*
X142180710Y-86323042D01*
X142182834Y-86308724D01*
X142186351Y-86294683D01*
X142191228Y-86281054D01*
X142197417Y-86267969D01*
X142204858Y-86255553D01*
X142213481Y-86243927D01*
X142223202Y-86233202D01*
X142233927Y-86223481D01*
X142245553Y-86214858D01*
X142257969Y-86207417D01*
X142271054Y-86201228D01*
X142284683Y-86196351D01*
X142298724Y-86192834D01*
X142313042Y-86190710D01*
X142327500Y-86190000D01*
X142672500Y-86190000D01*
X142686958Y-86190710D01*
X142686958Y-86190710D01*
G37*
D11*
X142500000Y-86485000D03*
G04 #@! TD*
D10*
G04 #@! TO.C,C7*
G36*
X142686958Y-91720710D02*
X142701276Y-91722834D01*
X142715317Y-91726351D01*
X142728946Y-91731228D01*
X142742031Y-91737417D01*
X142754447Y-91744858D01*
X142766073Y-91753481D01*
X142776798Y-91763202D01*
X142786519Y-91773927D01*
X142795142Y-91785553D01*
X142802583Y-91797969D01*
X142808772Y-91811054D01*
X142813649Y-91824683D01*
X142817166Y-91838724D01*
X142819290Y-91853042D01*
X142820000Y-91867500D01*
X142820000Y-92162500D01*
X142819290Y-92176958D01*
X142817166Y-92191276D01*
X142813649Y-92205317D01*
X142808772Y-92218946D01*
X142802583Y-92232031D01*
X142795142Y-92244447D01*
X142786519Y-92256073D01*
X142776798Y-92266798D01*
X142766073Y-92276519D01*
X142754447Y-92285142D01*
X142742031Y-92292583D01*
X142728946Y-92298772D01*
X142715317Y-92303649D01*
X142701276Y-92307166D01*
X142686958Y-92309290D01*
X142672500Y-92310000D01*
X142327500Y-92310000D01*
X142313042Y-92309290D01*
X142298724Y-92307166D01*
X142284683Y-92303649D01*
X142271054Y-92298772D01*
X142257969Y-92292583D01*
X142245553Y-92285142D01*
X142233927Y-92276519D01*
X142223202Y-92266798D01*
X142213481Y-92256073D01*
X142204858Y-92244447D01*
X142197417Y-92232031D01*
X142191228Y-92218946D01*
X142186351Y-92205317D01*
X142182834Y-92191276D01*
X142180710Y-92176958D01*
X142180000Y-92162500D01*
X142180000Y-91867500D01*
X142180710Y-91853042D01*
X142182834Y-91838724D01*
X142186351Y-91824683D01*
X142191228Y-91811054D01*
X142197417Y-91797969D01*
X142204858Y-91785553D01*
X142213481Y-91773927D01*
X142223202Y-91763202D01*
X142233927Y-91753481D01*
X142245553Y-91744858D01*
X142257969Y-91737417D01*
X142271054Y-91731228D01*
X142284683Y-91726351D01*
X142298724Y-91722834D01*
X142313042Y-91720710D01*
X142327500Y-91720000D01*
X142672500Y-91720000D01*
X142686958Y-91720710D01*
X142686958Y-91720710D01*
G37*
D11*
X142500000Y-92015000D03*
D10*
G36*
X142686958Y-92690710D02*
X142701276Y-92692834D01*
X142715317Y-92696351D01*
X142728946Y-92701228D01*
X142742031Y-92707417D01*
X142754447Y-92714858D01*
X142766073Y-92723481D01*
X142776798Y-92733202D01*
X142786519Y-92743927D01*
X142795142Y-92755553D01*
X142802583Y-92767969D01*
X142808772Y-92781054D01*
X142813649Y-92794683D01*
X142817166Y-92808724D01*
X142819290Y-92823042D01*
X142820000Y-92837500D01*
X142820000Y-93132500D01*
X142819290Y-93146958D01*
X142817166Y-93161276D01*
X142813649Y-93175317D01*
X142808772Y-93188946D01*
X142802583Y-93202031D01*
X142795142Y-93214447D01*
X142786519Y-93226073D01*
X142776798Y-93236798D01*
X142766073Y-93246519D01*
X142754447Y-93255142D01*
X142742031Y-93262583D01*
X142728946Y-93268772D01*
X142715317Y-93273649D01*
X142701276Y-93277166D01*
X142686958Y-93279290D01*
X142672500Y-93280000D01*
X142327500Y-93280000D01*
X142313042Y-93279290D01*
X142298724Y-93277166D01*
X142284683Y-93273649D01*
X142271054Y-93268772D01*
X142257969Y-93262583D01*
X142245553Y-93255142D01*
X142233927Y-93246519D01*
X142223202Y-93236798D01*
X142213481Y-93226073D01*
X142204858Y-93214447D01*
X142197417Y-93202031D01*
X142191228Y-93188946D01*
X142186351Y-93175317D01*
X142182834Y-93161276D01*
X142180710Y-93146958D01*
X142180000Y-93132500D01*
X142180000Y-92837500D01*
X142180710Y-92823042D01*
X142182834Y-92808724D01*
X142186351Y-92794683D01*
X142191228Y-92781054D01*
X142197417Y-92767969D01*
X142204858Y-92755553D01*
X142213481Y-92743927D01*
X142223202Y-92733202D01*
X142233927Y-92723481D01*
X142245553Y-92714858D01*
X142257969Y-92707417D01*
X142271054Y-92701228D01*
X142284683Y-92696351D01*
X142298724Y-92692834D01*
X142313042Y-92690710D01*
X142327500Y-92690000D01*
X142672500Y-92690000D01*
X142686958Y-92690710D01*
X142686958Y-92690710D01*
G37*
D11*
X142500000Y-92985000D03*
G04 #@! TD*
D10*
G04 #@! TO.C,C8*
G36*
X147411958Y-83930710D02*
X147426276Y-83932834D01*
X147440317Y-83936351D01*
X147453946Y-83941228D01*
X147467031Y-83947417D01*
X147479447Y-83954858D01*
X147491073Y-83963481D01*
X147501798Y-83973202D01*
X147511519Y-83983927D01*
X147520142Y-83995553D01*
X147527583Y-84007969D01*
X147533772Y-84021054D01*
X147538649Y-84034683D01*
X147542166Y-84048724D01*
X147544290Y-84063042D01*
X147545000Y-84077500D01*
X147545000Y-84422500D01*
X147544290Y-84436958D01*
X147542166Y-84451276D01*
X147538649Y-84465317D01*
X147533772Y-84478946D01*
X147527583Y-84492031D01*
X147520142Y-84504447D01*
X147511519Y-84516073D01*
X147501798Y-84526798D01*
X147491073Y-84536519D01*
X147479447Y-84545142D01*
X147467031Y-84552583D01*
X147453946Y-84558772D01*
X147440317Y-84563649D01*
X147426276Y-84567166D01*
X147411958Y-84569290D01*
X147397500Y-84570000D01*
X147102500Y-84570000D01*
X147088042Y-84569290D01*
X147073724Y-84567166D01*
X147059683Y-84563649D01*
X147046054Y-84558772D01*
X147032969Y-84552583D01*
X147020553Y-84545142D01*
X147008927Y-84536519D01*
X146998202Y-84526798D01*
X146988481Y-84516073D01*
X146979858Y-84504447D01*
X146972417Y-84492031D01*
X146966228Y-84478946D01*
X146961351Y-84465317D01*
X146957834Y-84451276D01*
X146955710Y-84436958D01*
X146955000Y-84422500D01*
X146955000Y-84077500D01*
X146955710Y-84063042D01*
X146957834Y-84048724D01*
X146961351Y-84034683D01*
X146966228Y-84021054D01*
X146972417Y-84007969D01*
X146979858Y-83995553D01*
X146988481Y-83983927D01*
X146998202Y-83973202D01*
X147008927Y-83963481D01*
X147020553Y-83954858D01*
X147032969Y-83947417D01*
X147046054Y-83941228D01*
X147059683Y-83936351D01*
X147073724Y-83932834D01*
X147088042Y-83930710D01*
X147102500Y-83930000D01*
X147397500Y-83930000D01*
X147411958Y-83930710D01*
X147411958Y-83930710D01*
G37*
D11*
X147250000Y-84250000D03*
D10*
G36*
X148381958Y-83930710D02*
X148396276Y-83932834D01*
X148410317Y-83936351D01*
X148423946Y-83941228D01*
X148437031Y-83947417D01*
X148449447Y-83954858D01*
X148461073Y-83963481D01*
X148471798Y-83973202D01*
X148481519Y-83983927D01*
X148490142Y-83995553D01*
X148497583Y-84007969D01*
X148503772Y-84021054D01*
X148508649Y-84034683D01*
X148512166Y-84048724D01*
X148514290Y-84063042D01*
X148515000Y-84077500D01*
X148515000Y-84422500D01*
X148514290Y-84436958D01*
X148512166Y-84451276D01*
X148508649Y-84465317D01*
X148503772Y-84478946D01*
X148497583Y-84492031D01*
X148490142Y-84504447D01*
X148481519Y-84516073D01*
X148471798Y-84526798D01*
X148461073Y-84536519D01*
X148449447Y-84545142D01*
X148437031Y-84552583D01*
X148423946Y-84558772D01*
X148410317Y-84563649D01*
X148396276Y-84567166D01*
X148381958Y-84569290D01*
X148367500Y-84570000D01*
X148072500Y-84570000D01*
X148058042Y-84569290D01*
X148043724Y-84567166D01*
X148029683Y-84563649D01*
X148016054Y-84558772D01*
X148002969Y-84552583D01*
X147990553Y-84545142D01*
X147978927Y-84536519D01*
X147968202Y-84526798D01*
X147958481Y-84516073D01*
X147949858Y-84504447D01*
X147942417Y-84492031D01*
X147936228Y-84478946D01*
X147931351Y-84465317D01*
X147927834Y-84451276D01*
X147925710Y-84436958D01*
X147925000Y-84422500D01*
X147925000Y-84077500D01*
X147925710Y-84063042D01*
X147927834Y-84048724D01*
X147931351Y-84034683D01*
X147936228Y-84021054D01*
X147942417Y-84007969D01*
X147949858Y-83995553D01*
X147958481Y-83983927D01*
X147968202Y-83973202D01*
X147978927Y-83963481D01*
X147990553Y-83954858D01*
X148002969Y-83947417D01*
X148016054Y-83941228D01*
X148029683Y-83936351D01*
X148043724Y-83932834D01*
X148058042Y-83930710D01*
X148072500Y-83930000D01*
X148367500Y-83930000D01*
X148381958Y-83930710D01*
X148381958Y-83930710D01*
G37*
D11*
X148220000Y-84250000D03*
G04 #@! TD*
D10*
G04 #@! TO.C,C9*
G36*
X142686958Y-87720710D02*
X142701276Y-87722834D01*
X142715317Y-87726351D01*
X142728946Y-87731228D01*
X142742031Y-87737417D01*
X142754447Y-87744858D01*
X142766073Y-87753481D01*
X142776798Y-87763202D01*
X142786519Y-87773927D01*
X142795142Y-87785553D01*
X142802583Y-87797969D01*
X142808772Y-87811054D01*
X142813649Y-87824683D01*
X142817166Y-87838724D01*
X142819290Y-87853042D01*
X142820000Y-87867500D01*
X142820000Y-88162500D01*
X142819290Y-88176958D01*
X142817166Y-88191276D01*
X142813649Y-88205317D01*
X142808772Y-88218946D01*
X142802583Y-88232031D01*
X142795142Y-88244447D01*
X142786519Y-88256073D01*
X142776798Y-88266798D01*
X142766073Y-88276519D01*
X142754447Y-88285142D01*
X142742031Y-88292583D01*
X142728946Y-88298772D01*
X142715317Y-88303649D01*
X142701276Y-88307166D01*
X142686958Y-88309290D01*
X142672500Y-88310000D01*
X142327500Y-88310000D01*
X142313042Y-88309290D01*
X142298724Y-88307166D01*
X142284683Y-88303649D01*
X142271054Y-88298772D01*
X142257969Y-88292583D01*
X142245553Y-88285142D01*
X142233927Y-88276519D01*
X142223202Y-88266798D01*
X142213481Y-88256073D01*
X142204858Y-88244447D01*
X142197417Y-88232031D01*
X142191228Y-88218946D01*
X142186351Y-88205317D01*
X142182834Y-88191276D01*
X142180710Y-88176958D01*
X142180000Y-88162500D01*
X142180000Y-87867500D01*
X142180710Y-87853042D01*
X142182834Y-87838724D01*
X142186351Y-87824683D01*
X142191228Y-87811054D01*
X142197417Y-87797969D01*
X142204858Y-87785553D01*
X142213481Y-87773927D01*
X142223202Y-87763202D01*
X142233927Y-87753481D01*
X142245553Y-87744858D01*
X142257969Y-87737417D01*
X142271054Y-87731228D01*
X142284683Y-87726351D01*
X142298724Y-87722834D01*
X142313042Y-87720710D01*
X142327500Y-87720000D01*
X142672500Y-87720000D01*
X142686958Y-87720710D01*
X142686958Y-87720710D01*
G37*
D11*
X142500000Y-88015000D03*
D10*
G36*
X142686958Y-88690710D02*
X142701276Y-88692834D01*
X142715317Y-88696351D01*
X142728946Y-88701228D01*
X142742031Y-88707417D01*
X142754447Y-88714858D01*
X142766073Y-88723481D01*
X142776798Y-88733202D01*
X142786519Y-88743927D01*
X142795142Y-88755553D01*
X142802583Y-88767969D01*
X142808772Y-88781054D01*
X142813649Y-88794683D01*
X142817166Y-88808724D01*
X142819290Y-88823042D01*
X142820000Y-88837500D01*
X142820000Y-89132500D01*
X142819290Y-89146958D01*
X142817166Y-89161276D01*
X142813649Y-89175317D01*
X142808772Y-89188946D01*
X142802583Y-89202031D01*
X142795142Y-89214447D01*
X142786519Y-89226073D01*
X142776798Y-89236798D01*
X142766073Y-89246519D01*
X142754447Y-89255142D01*
X142742031Y-89262583D01*
X142728946Y-89268772D01*
X142715317Y-89273649D01*
X142701276Y-89277166D01*
X142686958Y-89279290D01*
X142672500Y-89280000D01*
X142327500Y-89280000D01*
X142313042Y-89279290D01*
X142298724Y-89277166D01*
X142284683Y-89273649D01*
X142271054Y-89268772D01*
X142257969Y-89262583D01*
X142245553Y-89255142D01*
X142233927Y-89246519D01*
X142223202Y-89236798D01*
X142213481Y-89226073D01*
X142204858Y-89214447D01*
X142197417Y-89202031D01*
X142191228Y-89188946D01*
X142186351Y-89175317D01*
X142182834Y-89161276D01*
X142180710Y-89146958D01*
X142180000Y-89132500D01*
X142180000Y-88837500D01*
X142180710Y-88823042D01*
X142182834Y-88808724D01*
X142186351Y-88794683D01*
X142191228Y-88781054D01*
X142197417Y-88767969D01*
X142204858Y-88755553D01*
X142213481Y-88743927D01*
X142223202Y-88733202D01*
X142233927Y-88723481D01*
X142245553Y-88714858D01*
X142257969Y-88707417D01*
X142271054Y-88701228D01*
X142284683Y-88696351D01*
X142298724Y-88692834D01*
X142313042Y-88690710D01*
X142327500Y-88690000D01*
X142672500Y-88690000D01*
X142686958Y-88690710D01*
X142686958Y-88690710D01*
G37*
D11*
X142500000Y-88985000D03*
G04 #@! TD*
D10*
G04 #@! TO.C,C10*
G36*
X150411958Y-83930710D02*
X150426276Y-83932834D01*
X150440317Y-83936351D01*
X150453946Y-83941228D01*
X150467031Y-83947417D01*
X150479447Y-83954858D01*
X150491073Y-83963481D01*
X150501798Y-83973202D01*
X150511519Y-83983927D01*
X150520142Y-83995553D01*
X150527583Y-84007969D01*
X150533772Y-84021054D01*
X150538649Y-84034683D01*
X150542166Y-84048724D01*
X150544290Y-84063042D01*
X150545000Y-84077500D01*
X150545000Y-84422500D01*
X150544290Y-84436958D01*
X150542166Y-84451276D01*
X150538649Y-84465317D01*
X150533772Y-84478946D01*
X150527583Y-84492031D01*
X150520142Y-84504447D01*
X150511519Y-84516073D01*
X150501798Y-84526798D01*
X150491073Y-84536519D01*
X150479447Y-84545142D01*
X150467031Y-84552583D01*
X150453946Y-84558772D01*
X150440317Y-84563649D01*
X150426276Y-84567166D01*
X150411958Y-84569290D01*
X150397500Y-84570000D01*
X150102500Y-84570000D01*
X150088042Y-84569290D01*
X150073724Y-84567166D01*
X150059683Y-84563649D01*
X150046054Y-84558772D01*
X150032969Y-84552583D01*
X150020553Y-84545142D01*
X150008927Y-84536519D01*
X149998202Y-84526798D01*
X149988481Y-84516073D01*
X149979858Y-84504447D01*
X149972417Y-84492031D01*
X149966228Y-84478946D01*
X149961351Y-84465317D01*
X149957834Y-84451276D01*
X149955710Y-84436958D01*
X149955000Y-84422500D01*
X149955000Y-84077500D01*
X149955710Y-84063042D01*
X149957834Y-84048724D01*
X149961351Y-84034683D01*
X149966228Y-84021054D01*
X149972417Y-84007969D01*
X149979858Y-83995553D01*
X149988481Y-83983927D01*
X149998202Y-83973202D01*
X150008927Y-83963481D01*
X150020553Y-83954858D01*
X150032969Y-83947417D01*
X150046054Y-83941228D01*
X150059683Y-83936351D01*
X150073724Y-83932834D01*
X150088042Y-83930710D01*
X150102500Y-83930000D01*
X150397500Y-83930000D01*
X150411958Y-83930710D01*
X150411958Y-83930710D01*
G37*
D11*
X150250000Y-84250000D03*
D10*
G36*
X149441958Y-83930710D02*
X149456276Y-83932834D01*
X149470317Y-83936351D01*
X149483946Y-83941228D01*
X149497031Y-83947417D01*
X149509447Y-83954858D01*
X149521073Y-83963481D01*
X149531798Y-83973202D01*
X149541519Y-83983927D01*
X149550142Y-83995553D01*
X149557583Y-84007969D01*
X149563772Y-84021054D01*
X149568649Y-84034683D01*
X149572166Y-84048724D01*
X149574290Y-84063042D01*
X149575000Y-84077500D01*
X149575000Y-84422500D01*
X149574290Y-84436958D01*
X149572166Y-84451276D01*
X149568649Y-84465317D01*
X149563772Y-84478946D01*
X149557583Y-84492031D01*
X149550142Y-84504447D01*
X149541519Y-84516073D01*
X149531798Y-84526798D01*
X149521073Y-84536519D01*
X149509447Y-84545142D01*
X149497031Y-84552583D01*
X149483946Y-84558772D01*
X149470317Y-84563649D01*
X149456276Y-84567166D01*
X149441958Y-84569290D01*
X149427500Y-84570000D01*
X149132500Y-84570000D01*
X149118042Y-84569290D01*
X149103724Y-84567166D01*
X149089683Y-84563649D01*
X149076054Y-84558772D01*
X149062969Y-84552583D01*
X149050553Y-84545142D01*
X149038927Y-84536519D01*
X149028202Y-84526798D01*
X149018481Y-84516073D01*
X149009858Y-84504447D01*
X149002417Y-84492031D01*
X148996228Y-84478946D01*
X148991351Y-84465317D01*
X148987834Y-84451276D01*
X148985710Y-84436958D01*
X148985000Y-84422500D01*
X148985000Y-84077500D01*
X148985710Y-84063042D01*
X148987834Y-84048724D01*
X148991351Y-84034683D01*
X148996228Y-84021054D01*
X149002417Y-84007969D01*
X149009858Y-83995553D01*
X149018481Y-83983927D01*
X149028202Y-83973202D01*
X149038927Y-83963481D01*
X149050553Y-83954858D01*
X149062969Y-83947417D01*
X149076054Y-83941228D01*
X149089683Y-83936351D01*
X149103724Y-83932834D01*
X149118042Y-83930710D01*
X149132500Y-83930000D01*
X149427500Y-83930000D01*
X149441958Y-83930710D01*
X149441958Y-83930710D01*
G37*
D11*
X149280000Y-84250000D03*
G04 #@! TD*
D10*
G04 #@! TO.C,C11*
G36*
X157131958Y-84680710D02*
X157146276Y-84682834D01*
X157160317Y-84686351D01*
X157173946Y-84691228D01*
X157187031Y-84697417D01*
X157199447Y-84704858D01*
X157211073Y-84713481D01*
X157221798Y-84723202D01*
X157231519Y-84733927D01*
X157240142Y-84745553D01*
X157247583Y-84757969D01*
X157253772Y-84771054D01*
X157258649Y-84784683D01*
X157262166Y-84798724D01*
X157264290Y-84813042D01*
X157265000Y-84827500D01*
X157265000Y-85172500D01*
X157264290Y-85186958D01*
X157262166Y-85201276D01*
X157258649Y-85215317D01*
X157253772Y-85228946D01*
X157247583Y-85242031D01*
X157240142Y-85254447D01*
X157231519Y-85266073D01*
X157221798Y-85276798D01*
X157211073Y-85286519D01*
X157199447Y-85295142D01*
X157187031Y-85302583D01*
X157173946Y-85308772D01*
X157160317Y-85313649D01*
X157146276Y-85317166D01*
X157131958Y-85319290D01*
X157117500Y-85320000D01*
X156822500Y-85320000D01*
X156808042Y-85319290D01*
X156793724Y-85317166D01*
X156779683Y-85313649D01*
X156766054Y-85308772D01*
X156752969Y-85302583D01*
X156740553Y-85295142D01*
X156728927Y-85286519D01*
X156718202Y-85276798D01*
X156708481Y-85266073D01*
X156699858Y-85254447D01*
X156692417Y-85242031D01*
X156686228Y-85228946D01*
X156681351Y-85215317D01*
X156677834Y-85201276D01*
X156675710Y-85186958D01*
X156675000Y-85172500D01*
X156675000Y-84827500D01*
X156675710Y-84813042D01*
X156677834Y-84798724D01*
X156681351Y-84784683D01*
X156686228Y-84771054D01*
X156692417Y-84757969D01*
X156699858Y-84745553D01*
X156708481Y-84733927D01*
X156718202Y-84723202D01*
X156728927Y-84713481D01*
X156740553Y-84704858D01*
X156752969Y-84697417D01*
X156766054Y-84691228D01*
X156779683Y-84686351D01*
X156793724Y-84682834D01*
X156808042Y-84680710D01*
X156822500Y-84680000D01*
X157117500Y-84680000D01*
X157131958Y-84680710D01*
X157131958Y-84680710D01*
G37*
D11*
X156970000Y-85000000D03*
D10*
G36*
X156161958Y-84680710D02*
X156176276Y-84682834D01*
X156190317Y-84686351D01*
X156203946Y-84691228D01*
X156217031Y-84697417D01*
X156229447Y-84704858D01*
X156241073Y-84713481D01*
X156251798Y-84723202D01*
X156261519Y-84733927D01*
X156270142Y-84745553D01*
X156277583Y-84757969D01*
X156283772Y-84771054D01*
X156288649Y-84784683D01*
X156292166Y-84798724D01*
X156294290Y-84813042D01*
X156295000Y-84827500D01*
X156295000Y-85172500D01*
X156294290Y-85186958D01*
X156292166Y-85201276D01*
X156288649Y-85215317D01*
X156283772Y-85228946D01*
X156277583Y-85242031D01*
X156270142Y-85254447D01*
X156261519Y-85266073D01*
X156251798Y-85276798D01*
X156241073Y-85286519D01*
X156229447Y-85295142D01*
X156217031Y-85302583D01*
X156203946Y-85308772D01*
X156190317Y-85313649D01*
X156176276Y-85317166D01*
X156161958Y-85319290D01*
X156147500Y-85320000D01*
X155852500Y-85320000D01*
X155838042Y-85319290D01*
X155823724Y-85317166D01*
X155809683Y-85313649D01*
X155796054Y-85308772D01*
X155782969Y-85302583D01*
X155770553Y-85295142D01*
X155758927Y-85286519D01*
X155748202Y-85276798D01*
X155738481Y-85266073D01*
X155729858Y-85254447D01*
X155722417Y-85242031D01*
X155716228Y-85228946D01*
X155711351Y-85215317D01*
X155707834Y-85201276D01*
X155705710Y-85186958D01*
X155705000Y-85172500D01*
X155705000Y-84827500D01*
X155705710Y-84813042D01*
X155707834Y-84798724D01*
X155711351Y-84784683D01*
X155716228Y-84771054D01*
X155722417Y-84757969D01*
X155729858Y-84745553D01*
X155738481Y-84733927D01*
X155748202Y-84723202D01*
X155758927Y-84713481D01*
X155770553Y-84704858D01*
X155782969Y-84697417D01*
X155796054Y-84691228D01*
X155809683Y-84686351D01*
X155823724Y-84682834D01*
X155838042Y-84680710D01*
X155852500Y-84680000D01*
X156147500Y-84680000D01*
X156161958Y-84680710D01*
X156161958Y-84680710D01*
G37*
D11*
X156000000Y-85000000D03*
G04 #@! TD*
D10*
G04 #@! TO.C,C12*
G36*
X156161958Y-89680710D02*
X156176276Y-89682834D01*
X156190317Y-89686351D01*
X156203946Y-89691228D01*
X156217031Y-89697417D01*
X156229447Y-89704858D01*
X156241073Y-89713481D01*
X156251798Y-89723202D01*
X156261519Y-89733927D01*
X156270142Y-89745553D01*
X156277583Y-89757969D01*
X156283772Y-89771054D01*
X156288649Y-89784683D01*
X156292166Y-89798724D01*
X156294290Y-89813042D01*
X156295000Y-89827500D01*
X156295000Y-90172500D01*
X156294290Y-90186958D01*
X156292166Y-90201276D01*
X156288649Y-90215317D01*
X156283772Y-90228946D01*
X156277583Y-90242031D01*
X156270142Y-90254447D01*
X156261519Y-90266073D01*
X156251798Y-90276798D01*
X156241073Y-90286519D01*
X156229447Y-90295142D01*
X156217031Y-90302583D01*
X156203946Y-90308772D01*
X156190317Y-90313649D01*
X156176276Y-90317166D01*
X156161958Y-90319290D01*
X156147500Y-90320000D01*
X155852500Y-90320000D01*
X155838042Y-90319290D01*
X155823724Y-90317166D01*
X155809683Y-90313649D01*
X155796054Y-90308772D01*
X155782969Y-90302583D01*
X155770553Y-90295142D01*
X155758927Y-90286519D01*
X155748202Y-90276798D01*
X155738481Y-90266073D01*
X155729858Y-90254447D01*
X155722417Y-90242031D01*
X155716228Y-90228946D01*
X155711351Y-90215317D01*
X155707834Y-90201276D01*
X155705710Y-90186958D01*
X155705000Y-90172500D01*
X155705000Y-89827500D01*
X155705710Y-89813042D01*
X155707834Y-89798724D01*
X155711351Y-89784683D01*
X155716228Y-89771054D01*
X155722417Y-89757969D01*
X155729858Y-89745553D01*
X155738481Y-89733927D01*
X155748202Y-89723202D01*
X155758927Y-89713481D01*
X155770553Y-89704858D01*
X155782969Y-89697417D01*
X155796054Y-89691228D01*
X155809683Y-89686351D01*
X155823724Y-89682834D01*
X155838042Y-89680710D01*
X155852500Y-89680000D01*
X156147500Y-89680000D01*
X156161958Y-89680710D01*
X156161958Y-89680710D01*
G37*
D11*
X156000000Y-90000000D03*
D10*
G36*
X157131958Y-89680710D02*
X157146276Y-89682834D01*
X157160317Y-89686351D01*
X157173946Y-89691228D01*
X157187031Y-89697417D01*
X157199447Y-89704858D01*
X157211073Y-89713481D01*
X157221798Y-89723202D01*
X157231519Y-89733927D01*
X157240142Y-89745553D01*
X157247583Y-89757969D01*
X157253772Y-89771054D01*
X157258649Y-89784683D01*
X157262166Y-89798724D01*
X157264290Y-89813042D01*
X157265000Y-89827500D01*
X157265000Y-90172500D01*
X157264290Y-90186958D01*
X157262166Y-90201276D01*
X157258649Y-90215317D01*
X157253772Y-90228946D01*
X157247583Y-90242031D01*
X157240142Y-90254447D01*
X157231519Y-90266073D01*
X157221798Y-90276798D01*
X157211073Y-90286519D01*
X157199447Y-90295142D01*
X157187031Y-90302583D01*
X157173946Y-90308772D01*
X157160317Y-90313649D01*
X157146276Y-90317166D01*
X157131958Y-90319290D01*
X157117500Y-90320000D01*
X156822500Y-90320000D01*
X156808042Y-90319290D01*
X156793724Y-90317166D01*
X156779683Y-90313649D01*
X156766054Y-90308772D01*
X156752969Y-90302583D01*
X156740553Y-90295142D01*
X156728927Y-90286519D01*
X156718202Y-90276798D01*
X156708481Y-90266073D01*
X156699858Y-90254447D01*
X156692417Y-90242031D01*
X156686228Y-90228946D01*
X156681351Y-90215317D01*
X156677834Y-90201276D01*
X156675710Y-90186958D01*
X156675000Y-90172500D01*
X156675000Y-89827500D01*
X156675710Y-89813042D01*
X156677834Y-89798724D01*
X156681351Y-89784683D01*
X156686228Y-89771054D01*
X156692417Y-89757969D01*
X156699858Y-89745553D01*
X156708481Y-89733927D01*
X156718202Y-89723202D01*
X156728927Y-89713481D01*
X156740553Y-89704858D01*
X156752969Y-89697417D01*
X156766054Y-89691228D01*
X156779683Y-89686351D01*
X156793724Y-89682834D01*
X156808042Y-89680710D01*
X156822500Y-89680000D01*
X157117500Y-89680000D01*
X157131958Y-89680710D01*
X157131958Y-89680710D01*
G37*
D11*
X156970000Y-90000000D03*
G04 #@! TD*
D10*
G04 #@! TO.C,C13*
G36*
X146676958Y-78180710D02*
X146691276Y-78182834D01*
X146705317Y-78186351D01*
X146718946Y-78191228D01*
X146732031Y-78197417D01*
X146744447Y-78204858D01*
X146756073Y-78213481D01*
X146766798Y-78223202D01*
X146776519Y-78233927D01*
X146785142Y-78245553D01*
X146792583Y-78257969D01*
X146798772Y-78271054D01*
X146803649Y-78284683D01*
X146807166Y-78298724D01*
X146809290Y-78313042D01*
X146810000Y-78327500D01*
X146810000Y-78672500D01*
X146809290Y-78686958D01*
X146807166Y-78701276D01*
X146803649Y-78715317D01*
X146798772Y-78728946D01*
X146792583Y-78742031D01*
X146785142Y-78754447D01*
X146776519Y-78766073D01*
X146766798Y-78776798D01*
X146756073Y-78786519D01*
X146744447Y-78795142D01*
X146732031Y-78802583D01*
X146718946Y-78808772D01*
X146705317Y-78813649D01*
X146691276Y-78817166D01*
X146676958Y-78819290D01*
X146662500Y-78820000D01*
X146367500Y-78820000D01*
X146353042Y-78819290D01*
X146338724Y-78817166D01*
X146324683Y-78813649D01*
X146311054Y-78808772D01*
X146297969Y-78802583D01*
X146285553Y-78795142D01*
X146273927Y-78786519D01*
X146263202Y-78776798D01*
X146253481Y-78766073D01*
X146244858Y-78754447D01*
X146237417Y-78742031D01*
X146231228Y-78728946D01*
X146226351Y-78715317D01*
X146222834Y-78701276D01*
X146220710Y-78686958D01*
X146220000Y-78672500D01*
X146220000Y-78327500D01*
X146220710Y-78313042D01*
X146222834Y-78298724D01*
X146226351Y-78284683D01*
X146231228Y-78271054D01*
X146237417Y-78257969D01*
X146244858Y-78245553D01*
X146253481Y-78233927D01*
X146263202Y-78223202D01*
X146273927Y-78213481D01*
X146285553Y-78204858D01*
X146297969Y-78197417D01*
X146311054Y-78191228D01*
X146324683Y-78186351D01*
X146338724Y-78182834D01*
X146353042Y-78180710D01*
X146367500Y-78180000D01*
X146662500Y-78180000D01*
X146676958Y-78180710D01*
X146676958Y-78180710D01*
G37*
D11*
X146515000Y-78500000D03*
D10*
G36*
X147646958Y-78180710D02*
X147661276Y-78182834D01*
X147675317Y-78186351D01*
X147688946Y-78191228D01*
X147702031Y-78197417D01*
X147714447Y-78204858D01*
X147726073Y-78213481D01*
X147736798Y-78223202D01*
X147746519Y-78233927D01*
X147755142Y-78245553D01*
X147762583Y-78257969D01*
X147768772Y-78271054D01*
X147773649Y-78284683D01*
X147777166Y-78298724D01*
X147779290Y-78313042D01*
X147780000Y-78327500D01*
X147780000Y-78672500D01*
X147779290Y-78686958D01*
X147777166Y-78701276D01*
X147773649Y-78715317D01*
X147768772Y-78728946D01*
X147762583Y-78742031D01*
X147755142Y-78754447D01*
X147746519Y-78766073D01*
X147736798Y-78776798D01*
X147726073Y-78786519D01*
X147714447Y-78795142D01*
X147702031Y-78802583D01*
X147688946Y-78808772D01*
X147675317Y-78813649D01*
X147661276Y-78817166D01*
X147646958Y-78819290D01*
X147632500Y-78820000D01*
X147337500Y-78820000D01*
X147323042Y-78819290D01*
X147308724Y-78817166D01*
X147294683Y-78813649D01*
X147281054Y-78808772D01*
X147267969Y-78802583D01*
X147255553Y-78795142D01*
X147243927Y-78786519D01*
X147233202Y-78776798D01*
X147223481Y-78766073D01*
X147214858Y-78754447D01*
X147207417Y-78742031D01*
X147201228Y-78728946D01*
X147196351Y-78715317D01*
X147192834Y-78701276D01*
X147190710Y-78686958D01*
X147190000Y-78672500D01*
X147190000Y-78327500D01*
X147190710Y-78313042D01*
X147192834Y-78298724D01*
X147196351Y-78284683D01*
X147201228Y-78271054D01*
X147207417Y-78257969D01*
X147214858Y-78245553D01*
X147223481Y-78233927D01*
X147233202Y-78223202D01*
X147243927Y-78213481D01*
X147255553Y-78204858D01*
X147267969Y-78197417D01*
X147281054Y-78191228D01*
X147294683Y-78186351D01*
X147308724Y-78182834D01*
X147323042Y-78180710D01*
X147337500Y-78180000D01*
X147632500Y-78180000D01*
X147646958Y-78180710D01*
X147646958Y-78180710D01*
G37*
D11*
X147485000Y-78500000D03*
G04 #@! TD*
D10*
G04 #@! TO.C,C14*
G36*
X146676958Y-76680710D02*
X146691276Y-76682834D01*
X146705317Y-76686351D01*
X146718946Y-76691228D01*
X146732031Y-76697417D01*
X146744447Y-76704858D01*
X146756073Y-76713481D01*
X146766798Y-76723202D01*
X146776519Y-76733927D01*
X146785142Y-76745553D01*
X146792583Y-76757969D01*
X146798772Y-76771054D01*
X146803649Y-76784683D01*
X146807166Y-76798724D01*
X146809290Y-76813042D01*
X146810000Y-76827500D01*
X146810000Y-77172500D01*
X146809290Y-77186958D01*
X146807166Y-77201276D01*
X146803649Y-77215317D01*
X146798772Y-77228946D01*
X146792583Y-77242031D01*
X146785142Y-77254447D01*
X146776519Y-77266073D01*
X146766798Y-77276798D01*
X146756073Y-77286519D01*
X146744447Y-77295142D01*
X146732031Y-77302583D01*
X146718946Y-77308772D01*
X146705317Y-77313649D01*
X146691276Y-77317166D01*
X146676958Y-77319290D01*
X146662500Y-77320000D01*
X146367500Y-77320000D01*
X146353042Y-77319290D01*
X146338724Y-77317166D01*
X146324683Y-77313649D01*
X146311054Y-77308772D01*
X146297969Y-77302583D01*
X146285553Y-77295142D01*
X146273927Y-77286519D01*
X146263202Y-77276798D01*
X146253481Y-77266073D01*
X146244858Y-77254447D01*
X146237417Y-77242031D01*
X146231228Y-77228946D01*
X146226351Y-77215317D01*
X146222834Y-77201276D01*
X146220710Y-77186958D01*
X146220000Y-77172500D01*
X146220000Y-76827500D01*
X146220710Y-76813042D01*
X146222834Y-76798724D01*
X146226351Y-76784683D01*
X146231228Y-76771054D01*
X146237417Y-76757969D01*
X146244858Y-76745553D01*
X146253481Y-76733927D01*
X146263202Y-76723202D01*
X146273927Y-76713481D01*
X146285553Y-76704858D01*
X146297969Y-76697417D01*
X146311054Y-76691228D01*
X146324683Y-76686351D01*
X146338724Y-76682834D01*
X146353042Y-76680710D01*
X146367500Y-76680000D01*
X146662500Y-76680000D01*
X146676958Y-76680710D01*
X146676958Y-76680710D01*
G37*
D11*
X146515000Y-77000000D03*
D10*
G36*
X147646958Y-76680710D02*
X147661276Y-76682834D01*
X147675317Y-76686351D01*
X147688946Y-76691228D01*
X147702031Y-76697417D01*
X147714447Y-76704858D01*
X147726073Y-76713481D01*
X147736798Y-76723202D01*
X147746519Y-76733927D01*
X147755142Y-76745553D01*
X147762583Y-76757969D01*
X147768772Y-76771054D01*
X147773649Y-76784683D01*
X147777166Y-76798724D01*
X147779290Y-76813042D01*
X147780000Y-76827500D01*
X147780000Y-77172500D01*
X147779290Y-77186958D01*
X147777166Y-77201276D01*
X147773649Y-77215317D01*
X147768772Y-77228946D01*
X147762583Y-77242031D01*
X147755142Y-77254447D01*
X147746519Y-77266073D01*
X147736798Y-77276798D01*
X147726073Y-77286519D01*
X147714447Y-77295142D01*
X147702031Y-77302583D01*
X147688946Y-77308772D01*
X147675317Y-77313649D01*
X147661276Y-77317166D01*
X147646958Y-77319290D01*
X147632500Y-77320000D01*
X147337500Y-77320000D01*
X147323042Y-77319290D01*
X147308724Y-77317166D01*
X147294683Y-77313649D01*
X147281054Y-77308772D01*
X147267969Y-77302583D01*
X147255553Y-77295142D01*
X147243927Y-77286519D01*
X147233202Y-77276798D01*
X147223481Y-77266073D01*
X147214858Y-77254447D01*
X147207417Y-77242031D01*
X147201228Y-77228946D01*
X147196351Y-77215317D01*
X147192834Y-77201276D01*
X147190710Y-77186958D01*
X147190000Y-77172500D01*
X147190000Y-76827500D01*
X147190710Y-76813042D01*
X147192834Y-76798724D01*
X147196351Y-76784683D01*
X147201228Y-76771054D01*
X147207417Y-76757969D01*
X147214858Y-76745553D01*
X147223481Y-76733927D01*
X147233202Y-76723202D01*
X147243927Y-76713481D01*
X147255553Y-76704858D01*
X147267969Y-76697417D01*
X147281054Y-76691228D01*
X147294683Y-76686351D01*
X147308724Y-76682834D01*
X147323042Y-76680710D01*
X147337500Y-76680000D01*
X147632500Y-76680000D01*
X147646958Y-76680710D01*
X147646958Y-76680710D01*
G37*
D11*
X147485000Y-77000000D03*
G04 #@! TD*
D10*
G04 #@! TO.C,C15*
G36*
X133186958Y-96505710D02*
X133201276Y-96507834D01*
X133215317Y-96511351D01*
X133228946Y-96516228D01*
X133242031Y-96522417D01*
X133254447Y-96529858D01*
X133266073Y-96538481D01*
X133276798Y-96548202D01*
X133286519Y-96558927D01*
X133295142Y-96570553D01*
X133302583Y-96582969D01*
X133308772Y-96596054D01*
X133313649Y-96609683D01*
X133317166Y-96623724D01*
X133319290Y-96638042D01*
X133320000Y-96652500D01*
X133320000Y-96947500D01*
X133319290Y-96961958D01*
X133317166Y-96976276D01*
X133313649Y-96990317D01*
X133308772Y-97003946D01*
X133302583Y-97017031D01*
X133295142Y-97029447D01*
X133286519Y-97041073D01*
X133276798Y-97051798D01*
X133266073Y-97061519D01*
X133254447Y-97070142D01*
X133242031Y-97077583D01*
X133228946Y-97083772D01*
X133215317Y-97088649D01*
X133201276Y-97092166D01*
X133186958Y-97094290D01*
X133172500Y-97095000D01*
X132827500Y-97095000D01*
X132813042Y-97094290D01*
X132798724Y-97092166D01*
X132784683Y-97088649D01*
X132771054Y-97083772D01*
X132757969Y-97077583D01*
X132745553Y-97070142D01*
X132733927Y-97061519D01*
X132723202Y-97051798D01*
X132713481Y-97041073D01*
X132704858Y-97029447D01*
X132697417Y-97017031D01*
X132691228Y-97003946D01*
X132686351Y-96990317D01*
X132682834Y-96976276D01*
X132680710Y-96961958D01*
X132680000Y-96947500D01*
X132680000Y-96652500D01*
X132680710Y-96638042D01*
X132682834Y-96623724D01*
X132686351Y-96609683D01*
X132691228Y-96596054D01*
X132697417Y-96582969D01*
X132704858Y-96570553D01*
X132713481Y-96558927D01*
X132723202Y-96548202D01*
X132733927Y-96538481D01*
X132745553Y-96529858D01*
X132757969Y-96522417D01*
X132771054Y-96516228D01*
X132784683Y-96511351D01*
X132798724Y-96507834D01*
X132813042Y-96505710D01*
X132827500Y-96505000D01*
X133172500Y-96505000D01*
X133186958Y-96505710D01*
X133186958Y-96505710D01*
G37*
D11*
X133000000Y-96800000D03*
D10*
G36*
X133186958Y-95535710D02*
X133201276Y-95537834D01*
X133215317Y-95541351D01*
X133228946Y-95546228D01*
X133242031Y-95552417D01*
X133254447Y-95559858D01*
X133266073Y-95568481D01*
X133276798Y-95578202D01*
X133286519Y-95588927D01*
X133295142Y-95600553D01*
X133302583Y-95612969D01*
X133308772Y-95626054D01*
X133313649Y-95639683D01*
X133317166Y-95653724D01*
X133319290Y-95668042D01*
X133320000Y-95682500D01*
X133320000Y-95977500D01*
X133319290Y-95991958D01*
X133317166Y-96006276D01*
X133313649Y-96020317D01*
X133308772Y-96033946D01*
X133302583Y-96047031D01*
X133295142Y-96059447D01*
X133286519Y-96071073D01*
X133276798Y-96081798D01*
X133266073Y-96091519D01*
X133254447Y-96100142D01*
X133242031Y-96107583D01*
X133228946Y-96113772D01*
X133215317Y-96118649D01*
X133201276Y-96122166D01*
X133186958Y-96124290D01*
X133172500Y-96125000D01*
X132827500Y-96125000D01*
X132813042Y-96124290D01*
X132798724Y-96122166D01*
X132784683Y-96118649D01*
X132771054Y-96113772D01*
X132757969Y-96107583D01*
X132745553Y-96100142D01*
X132733927Y-96091519D01*
X132723202Y-96081798D01*
X132713481Y-96071073D01*
X132704858Y-96059447D01*
X132697417Y-96047031D01*
X132691228Y-96033946D01*
X132686351Y-96020317D01*
X132682834Y-96006276D01*
X132680710Y-95991958D01*
X132680000Y-95977500D01*
X132680000Y-95682500D01*
X132680710Y-95668042D01*
X132682834Y-95653724D01*
X132686351Y-95639683D01*
X132691228Y-95626054D01*
X132697417Y-95612969D01*
X132704858Y-95600553D01*
X132713481Y-95588927D01*
X132723202Y-95578202D01*
X132733927Y-95568481D01*
X132745553Y-95559858D01*
X132757969Y-95552417D01*
X132771054Y-95546228D01*
X132784683Y-95541351D01*
X132798724Y-95537834D01*
X132813042Y-95535710D01*
X132827500Y-95535000D01*
X133172500Y-95535000D01*
X133186958Y-95535710D01*
X133186958Y-95535710D01*
G37*
D11*
X133000000Y-95830000D03*
G04 #@! TD*
D10*
G04 #@! TO.C,C16*
G36*
X139186958Y-95520710D02*
X139201276Y-95522834D01*
X139215317Y-95526351D01*
X139228946Y-95531228D01*
X139242031Y-95537417D01*
X139254447Y-95544858D01*
X139266073Y-95553481D01*
X139276798Y-95563202D01*
X139286519Y-95573927D01*
X139295142Y-95585553D01*
X139302583Y-95597969D01*
X139308772Y-95611054D01*
X139313649Y-95624683D01*
X139317166Y-95638724D01*
X139319290Y-95653042D01*
X139320000Y-95667500D01*
X139320000Y-95962500D01*
X139319290Y-95976958D01*
X139317166Y-95991276D01*
X139313649Y-96005317D01*
X139308772Y-96018946D01*
X139302583Y-96032031D01*
X139295142Y-96044447D01*
X139286519Y-96056073D01*
X139276798Y-96066798D01*
X139266073Y-96076519D01*
X139254447Y-96085142D01*
X139242031Y-96092583D01*
X139228946Y-96098772D01*
X139215317Y-96103649D01*
X139201276Y-96107166D01*
X139186958Y-96109290D01*
X139172500Y-96110000D01*
X138827500Y-96110000D01*
X138813042Y-96109290D01*
X138798724Y-96107166D01*
X138784683Y-96103649D01*
X138771054Y-96098772D01*
X138757969Y-96092583D01*
X138745553Y-96085142D01*
X138733927Y-96076519D01*
X138723202Y-96066798D01*
X138713481Y-96056073D01*
X138704858Y-96044447D01*
X138697417Y-96032031D01*
X138691228Y-96018946D01*
X138686351Y-96005317D01*
X138682834Y-95991276D01*
X138680710Y-95976958D01*
X138680000Y-95962500D01*
X138680000Y-95667500D01*
X138680710Y-95653042D01*
X138682834Y-95638724D01*
X138686351Y-95624683D01*
X138691228Y-95611054D01*
X138697417Y-95597969D01*
X138704858Y-95585553D01*
X138713481Y-95573927D01*
X138723202Y-95563202D01*
X138733927Y-95553481D01*
X138745553Y-95544858D01*
X138757969Y-95537417D01*
X138771054Y-95531228D01*
X138784683Y-95526351D01*
X138798724Y-95522834D01*
X138813042Y-95520710D01*
X138827500Y-95520000D01*
X139172500Y-95520000D01*
X139186958Y-95520710D01*
X139186958Y-95520710D01*
G37*
D11*
X139000000Y-95815000D03*
D10*
G36*
X139186958Y-96490710D02*
X139201276Y-96492834D01*
X139215317Y-96496351D01*
X139228946Y-96501228D01*
X139242031Y-96507417D01*
X139254447Y-96514858D01*
X139266073Y-96523481D01*
X139276798Y-96533202D01*
X139286519Y-96543927D01*
X139295142Y-96555553D01*
X139302583Y-96567969D01*
X139308772Y-96581054D01*
X139313649Y-96594683D01*
X139317166Y-96608724D01*
X139319290Y-96623042D01*
X139320000Y-96637500D01*
X139320000Y-96932500D01*
X139319290Y-96946958D01*
X139317166Y-96961276D01*
X139313649Y-96975317D01*
X139308772Y-96988946D01*
X139302583Y-97002031D01*
X139295142Y-97014447D01*
X139286519Y-97026073D01*
X139276798Y-97036798D01*
X139266073Y-97046519D01*
X139254447Y-97055142D01*
X139242031Y-97062583D01*
X139228946Y-97068772D01*
X139215317Y-97073649D01*
X139201276Y-97077166D01*
X139186958Y-97079290D01*
X139172500Y-97080000D01*
X138827500Y-97080000D01*
X138813042Y-97079290D01*
X138798724Y-97077166D01*
X138784683Y-97073649D01*
X138771054Y-97068772D01*
X138757969Y-97062583D01*
X138745553Y-97055142D01*
X138733927Y-97046519D01*
X138723202Y-97036798D01*
X138713481Y-97026073D01*
X138704858Y-97014447D01*
X138697417Y-97002031D01*
X138691228Y-96988946D01*
X138686351Y-96975317D01*
X138682834Y-96961276D01*
X138680710Y-96946958D01*
X138680000Y-96932500D01*
X138680000Y-96637500D01*
X138680710Y-96623042D01*
X138682834Y-96608724D01*
X138686351Y-96594683D01*
X138691228Y-96581054D01*
X138697417Y-96567969D01*
X138704858Y-96555553D01*
X138713481Y-96543927D01*
X138723202Y-96533202D01*
X138733927Y-96523481D01*
X138745553Y-96514858D01*
X138757969Y-96507417D01*
X138771054Y-96501228D01*
X138784683Y-96496351D01*
X138798724Y-96492834D01*
X138813042Y-96490710D01*
X138827500Y-96490000D01*
X139172500Y-96490000D01*
X139186958Y-96490710D01*
X139186958Y-96490710D01*
G37*
D11*
X139000000Y-96785000D03*
G04 #@! TD*
D10*
G04 #@! TO.C,C17*
G36*
X133186958Y-90290710D02*
X133201276Y-90292834D01*
X133215317Y-90296351D01*
X133228946Y-90301228D01*
X133242031Y-90307417D01*
X133254447Y-90314858D01*
X133266073Y-90323481D01*
X133276798Y-90333202D01*
X133286519Y-90343927D01*
X133295142Y-90355553D01*
X133302583Y-90367969D01*
X133308772Y-90381054D01*
X133313649Y-90394683D01*
X133317166Y-90408724D01*
X133319290Y-90423042D01*
X133320000Y-90437500D01*
X133320000Y-90732500D01*
X133319290Y-90746958D01*
X133317166Y-90761276D01*
X133313649Y-90775317D01*
X133308772Y-90788946D01*
X133302583Y-90802031D01*
X133295142Y-90814447D01*
X133286519Y-90826073D01*
X133276798Y-90836798D01*
X133266073Y-90846519D01*
X133254447Y-90855142D01*
X133242031Y-90862583D01*
X133228946Y-90868772D01*
X133215317Y-90873649D01*
X133201276Y-90877166D01*
X133186958Y-90879290D01*
X133172500Y-90880000D01*
X132827500Y-90880000D01*
X132813042Y-90879290D01*
X132798724Y-90877166D01*
X132784683Y-90873649D01*
X132771054Y-90868772D01*
X132757969Y-90862583D01*
X132745553Y-90855142D01*
X132733927Y-90846519D01*
X132723202Y-90836798D01*
X132713481Y-90826073D01*
X132704858Y-90814447D01*
X132697417Y-90802031D01*
X132691228Y-90788946D01*
X132686351Y-90775317D01*
X132682834Y-90761276D01*
X132680710Y-90746958D01*
X132680000Y-90732500D01*
X132680000Y-90437500D01*
X132680710Y-90423042D01*
X132682834Y-90408724D01*
X132686351Y-90394683D01*
X132691228Y-90381054D01*
X132697417Y-90367969D01*
X132704858Y-90355553D01*
X132713481Y-90343927D01*
X132723202Y-90333202D01*
X132733927Y-90323481D01*
X132745553Y-90314858D01*
X132757969Y-90307417D01*
X132771054Y-90301228D01*
X132784683Y-90296351D01*
X132798724Y-90292834D01*
X132813042Y-90290710D01*
X132827500Y-90290000D01*
X133172500Y-90290000D01*
X133186958Y-90290710D01*
X133186958Y-90290710D01*
G37*
D11*
X133000000Y-90585000D03*
D10*
G36*
X133186958Y-89320710D02*
X133201276Y-89322834D01*
X133215317Y-89326351D01*
X133228946Y-89331228D01*
X133242031Y-89337417D01*
X133254447Y-89344858D01*
X133266073Y-89353481D01*
X133276798Y-89363202D01*
X133286519Y-89373927D01*
X133295142Y-89385553D01*
X133302583Y-89397969D01*
X133308772Y-89411054D01*
X133313649Y-89424683D01*
X133317166Y-89438724D01*
X133319290Y-89453042D01*
X133320000Y-89467500D01*
X133320000Y-89762500D01*
X133319290Y-89776958D01*
X133317166Y-89791276D01*
X133313649Y-89805317D01*
X133308772Y-89818946D01*
X133302583Y-89832031D01*
X133295142Y-89844447D01*
X133286519Y-89856073D01*
X133276798Y-89866798D01*
X133266073Y-89876519D01*
X133254447Y-89885142D01*
X133242031Y-89892583D01*
X133228946Y-89898772D01*
X133215317Y-89903649D01*
X133201276Y-89907166D01*
X133186958Y-89909290D01*
X133172500Y-89910000D01*
X132827500Y-89910000D01*
X132813042Y-89909290D01*
X132798724Y-89907166D01*
X132784683Y-89903649D01*
X132771054Y-89898772D01*
X132757969Y-89892583D01*
X132745553Y-89885142D01*
X132733927Y-89876519D01*
X132723202Y-89866798D01*
X132713481Y-89856073D01*
X132704858Y-89844447D01*
X132697417Y-89832031D01*
X132691228Y-89818946D01*
X132686351Y-89805317D01*
X132682834Y-89791276D01*
X132680710Y-89776958D01*
X132680000Y-89762500D01*
X132680000Y-89467500D01*
X132680710Y-89453042D01*
X132682834Y-89438724D01*
X132686351Y-89424683D01*
X132691228Y-89411054D01*
X132697417Y-89397969D01*
X132704858Y-89385553D01*
X132713481Y-89373927D01*
X132723202Y-89363202D01*
X132733927Y-89353481D01*
X132745553Y-89344858D01*
X132757969Y-89337417D01*
X132771054Y-89331228D01*
X132784683Y-89326351D01*
X132798724Y-89322834D01*
X132813042Y-89320710D01*
X132827500Y-89320000D01*
X133172500Y-89320000D01*
X133186958Y-89320710D01*
X133186958Y-89320710D01*
G37*
D11*
X133000000Y-89615000D03*
G04 #@! TD*
D10*
G04 #@! TO.C,C18*
G36*
X139186958Y-90290710D02*
X139201276Y-90292834D01*
X139215317Y-90296351D01*
X139228946Y-90301228D01*
X139242031Y-90307417D01*
X139254447Y-90314858D01*
X139266073Y-90323481D01*
X139276798Y-90333202D01*
X139286519Y-90343927D01*
X139295142Y-90355553D01*
X139302583Y-90367969D01*
X139308772Y-90381054D01*
X139313649Y-90394683D01*
X139317166Y-90408724D01*
X139319290Y-90423042D01*
X139320000Y-90437500D01*
X139320000Y-90732500D01*
X139319290Y-90746958D01*
X139317166Y-90761276D01*
X139313649Y-90775317D01*
X139308772Y-90788946D01*
X139302583Y-90802031D01*
X139295142Y-90814447D01*
X139286519Y-90826073D01*
X139276798Y-90836798D01*
X139266073Y-90846519D01*
X139254447Y-90855142D01*
X139242031Y-90862583D01*
X139228946Y-90868772D01*
X139215317Y-90873649D01*
X139201276Y-90877166D01*
X139186958Y-90879290D01*
X139172500Y-90880000D01*
X138827500Y-90880000D01*
X138813042Y-90879290D01*
X138798724Y-90877166D01*
X138784683Y-90873649D01*
X138771054Y-90868772D01*
X138757969Y-90862583D01*
X138745553Y-90855142D01*
X138733927Y-90846519D01*
X138723202Y-90836798D01*
X138713481Y-90826073D01*
X138704858Y-90814447D01*
X138697417Y-90802031D01*
X138691228Y-90788946D01*
X138686351Y-90775317D01*
X138682834Y-90761276D01*
X138680710Y-90746958D01*
X138680000Y-90732500D01*
X138680000Y-90437500D01*
X138680710Y-90423042D01*
X138682834Y-90408724D01*
X138686351Y-90394683D01*
X138691228Y-90381054D01*
X138697417Y-90367969D01*
X138704858Y-90355553D01*
X138713481Y-90343927D01*
X138723202Y-90333202D01*
X138733927Y-90323481D01*
X138745553Y-90314858D01*
X138757969Y-90307417D01*
X138771054Y-90301228D01*
X138784683Y-90296351D01*
X138798724Y-90292834D01*
X138813042Y-90290710D01*
X138827500Y-90290000D01*
X139172500Y-90290000D01*
X139186958Y-90290710D01*
X139186958Y-90290710D01*
G37*
D11*
X139000000Y-90585000D03*
D10*
G36*
X139186958Y-89320710D02*
X139201276Y-89322834D01*
X139215317Y-89326351D01*
X139228946Y-89331228D01*
X139242031Y-89337417D01*
X139254447Y-89344858D01*
X139266073Y-89353481D01*
X139276798Y-89363202D01*
X139286519Y-89373927D01*
X139295142Y-89385553D01*
X139302583Y-89397969D01*
X139308772Y-89411054D01*
X139313649Y-89424683D01*
X139317166Y-89438724D01*
X139319290Y-89453042D01*
X139320000Y-89467500D01*
X139320000Y-89762500D01*
X139319290Y-89776958D01*
X139317166Y-89791276D01*
X139313649Y-89805317D01*
X139308772Y-89818946D01*
X139302583Y-89832031D01*
X139295142Y-89844447D01*
X139286519Y-89856073D01*
X139276798Y-89866798D01*
X139266073Y-89876519D01*
X139254447Y-89885142D01*
X139242031Y-89892583D01*
X139228946Y-89898772D01*
X139215317Y-89903649D01*
X139201276Y-89907166D01*
X139186958Y-89909290D01*
X139172500Y-89910000D01*
X138827500Y-89910000D01*
X138813042Y-89909290D01*
X138798724Y-89907166D01*
X138784683Y-89903649D01*
X138771054Y-89898772D01*
X138757969Y-89892583D01*
X138745553Y-89885142D01*
X138733927Y-89876519D01*
X138723202Y-89866798D01*
X138713481Y-89856073D01*
X138704858Y-89844447D01*
X138697417Y-89832031D01*
X138691228Y-89818946D01*
X138686351Y-89805317D01*
X138682834Y-89791276D01*
X138680710Y-89776958D01*
X138680000Y-89762500D01*
X138680000Y-89467500D01*
X138680710Y-89453042D01*
X138682834Y-89438724D01*
X138686351Y-89424683D01*
X138691228Y-89411054D01*
X138697417Y-89397969D01*
X138704858Y-89385553D01*
X138713481Y-89373927D01*
X138723202Y-89363202D01*
X138733927Y-89353481D01*
X138745553Y-89344858D01*
X138757969Y-89337417D01*
X138771054Y-89331228D01*
X138784683Y-89326351D01*
X138798724Y-89322834D01*
X138813042Y-89320710D01*
X138827500Y-89320000D01*
X139172500Y-89320000D01*
X139186958Y-89320710D01*
X139186958Y-89320710D01*
G37*
D11*
X139000000Y-89615000D03*
G04 #@! TD*
D10*
G04 #@! TO.C,C26*
G36*
X130761958Y-101980710D02*
X130776276Y-101982834D01*
X130790317Y-101986351D01*
X130803946Y-101991228D01*
X130817031Y-101997417D01*
X130829447Y-102004858D01*
X130841073Y-102013481D01*
X130851798Y-102023202D01*
X130861519Y-102033927D01*
X130870142Y-102045553D01*
X130877583Y-102057969D01*
X130883772Y-102071054D01*
X130888649Y-102084683D01*
X130892166Y-102098724D01*
X130894290Y-102113042D01*
X130895000Y-102127500D01*
X130895000Y-102472500D01*
X130894290Y-102486958D01*
X130892166Y-102501276D01*
X130888649Y-102515317D01*
X130883772Y-102528946D01*
X130877583Y-102542031D01*
X130870142Y-102554447D01*
X130861519Y-102566073D01*
X130851798Y-102576798D01*
X130841073Y-102586519D01*
X130829447Y-102595142D01*
X130817031Y-102602583D01*
X130803946Y-102608772D01*
X130790317Y-102613649D01*
X130776276Y-102617166D01*
X130761958Y-102619290D01*
X130747500Y-102620000D01*
X130452500Y-102620000D01*
X130438042Y-102619290D01*
X130423724Y-102617166D01*
X130409683Y-102613649D01*
X130396054Y-102608772D01*
X130382969Y-102602583D01*
X130370553Y-102595142D01*
X130358927Y-102586519D01*
X130348202Y-102576798D01*
X130338481Y-102566073D01*
X130329858Y-102554447D01*
X130322417Y-102542031D01*
X130316228Y-102528946D01*
X130311351Y-102515317D01*
X130307834Y-102501276D01*
X130305710Y-102486958D01*
X130305000Y-102472500D01*
X130305000Y-102127500D01*
X130305710Y-102113042D01*
X130307834Y-102098724D01*
X130311351Y-102084683D01*
X130316228Y-102071054D01*
X130322417Y-102057969D01*
X130329858Y-102045553D01*
X130338481Y-102033927D01*
X130348202Y-102023202D01*
X130358927Y-102013481D01*
X130370553Y-102004858D01*
X130382969Y-101997417D01*
X130396054Y-101991228D01*
X130409683Y-101986351D01*
X130423724Y-101982834D01*
X130438042Y-101980710D01*
X130452500Y-101980000D01*
X130747500Y-101980000D01*
X130761958Y-101980710D01*
X130761958Y-101980710D01*
G37*
D11*
X130600000Y-102300000D03*
D10*
G36*
X129791958Y-101980710D02*
X129806276Y-101982834D01*
X129820317Y-101986351D01*
X129833946Y-101991228D01*
X129847031Y-101997417D01*
X129859447Y-102004858D01*
X129871073Y-102013481D01*
X129881798Y-102023202D01*
X129891519Y-102033927D01*
X129900142Y-102045553D01*
X129907583Y-102057969D01*
X129913772Y-102071054D01*
X129918649Y-102084683D01*
X129922166Y-102098724D01*
X129924290Y-102113042D01*
X129925000Y-102127500D01*
X129925000Y-102472500D01*
X129924290Y-102486958D01*
X129922166Y-102501276D01*
X129918649Y-102515317D01*
X129913772Y-102528946D01*
X129907583Y-102542031D01*
X129900142Y-102554447D01*
X129891519Y-102566073D01*
X129881798Y-102576798D01*
X129871073Y-102586519D01*
X129859447Y-102595142D01*
X129847031Y-102602583D01*
X129833946Y-102608772D01*
X129820317Y-102613649D01*
X129806276Y-102617166D01*
X129791958Y-102619290D01*
X129777500Y-102620000D01*
X129482500Y-102620000D01*
X129468042Y-102619290D01*
X129453724Y-102617166D01*
X129439683Y-102613649D01*
X129426054Y-102608772D01*
X129412969Y-102602583D01*
X129400553Y-102595142D01*
X129388927Y-102586519D01*
X129378202Y-102576798D01*
X129368481Y-102566073D01*
X129359858Y-102554447D01*
X129352417Y-102542031D01*
X129346228Y-102528946D01*
X129341351Y-102515317D01*
X129337834Y-102501276D01*
X129335710Y-102486958D01*
X129335000Y-102472500D01*
X129335000Y-102127500D01*
X129335710Y-102113042D01*
X129337834Y-102098724D01*
X129341351Y-102084683D01*
X129346228Y-102071054D01*
X129352417Y-102057969D01*
X129359858Y-102045553D01*
X129368481Y-102033927D01*
X129378202Y-102023202D01*
X129388927Y-102013481D01*
X129400553Y-102004858D01*
X129412969Y-101997417D01*
X129426054Y-101991228D01*
X129439683Y-101986351D01*
X129453724Y-101982834D01*
X129468042Y-101980710D01*
X129482500Y-101980000D01*
X129777500Y-101980000D01*
X129791958Y-101980710D01*
X129791958Y-101980710D01*
G37*
D11*
X129630000Y-102300000D03*
G04 #@! TD*
D10*
G04 #@! TO.C,C27*
G36*
X133186958Y-97620710D02*
X133201276Y-97622834D01*
X133215317Y-97626351D01*
X133228946Y-97631228D01*
X133242031Y-97637417D01*
X133254447Y-97644858D01*
X133266073Y-97653481D01*
X133276798Y-97663202D01*
X133286519Y-97673927D01*
X133295142Y-97685553D01*
X133302583Y-97697969D01*
X133308772Y-97711054D01*
X133313649Y-97724683D01*
X133317166Y-97738724D01*
X133319290Y-97753042D01*
X133320000Y-97767500D01*
X133320000Y-98062500D01*
X133319290Y-98076958D01*
X133317166Y-98091276D01*
X133313649Y-98105317D01*
X133308772Y-98118946D01*
X133302583Y-98132031D01*
X133295142Y-98144447D01*
X133286519Y-98156073D01*
X133276798Y-98166798D01*
X133266073Y-98176519D01*
X133254447Y-98185142D01*
X133242031Y-98192583D01*
X133228946Y-98198772D01*
X133215317Y-98203649D01*
X133201276Y-98207166D01*
X133186958Y-98209290D01*
X133172500Y-98210000D01*
X132827500Y-98210000D01*
X132813042Y-98209290D01*
X132798724Y-98207166D01*
X132784683Y-98203649D01*
X132771054Y-98198772D01*
X132757969Y-98192583D01*
X132745553Y-98185142D01*
X132733927Y-98176519D01*
X132723202Y-98166798D01*
X132713481Y-98156073D01*
X132704858Y-98144447D01*
X132697417Y-98132031D01*
X132691228Y-98118946D01*
X132686351Y-98105317D01*
X132682834Y-98091276D01*
X132680710Y-98076958D01*
X132680000Y-98062500D01*
X132680000Y-97767500D01*
X132680710Y-97753042D01*
X132682834Y-97738724D01*
X132686351Y-97724683D01*
X132691228Y-97711054D01*
X132697417Y-97697969D01*
X132704858Y-97685553D01*
X132713481Y-97673927D01*
X132723202Y-97663202D01*
X132733927Y-97653481D01*
X132745553Y-97644858D01*
X132757969Y-97637417D01*
X132771054Y-97631228D01*
X132784683Y-97626351D01*
X132798724Y-97622834D01*
X132813042Y-97620710D01*
X132827500Y-97620000D01*
X133172500Y-97620000D01*
X133186958Y-97620710D01*
X133186958Y-97620710D01*
G37*
D11*
X133000000Y-97915000D03*
D10*
G36*
X133186958Y-98590710D02*
X133201276Y-98592834D01*
X133215317Y-98596351D01*
X133228946Y-98601228D01*
X133242031Y-98607417D01*
X133254447Y-98614858D01*
X133266073Y-98623481D01*
X133276798Y-98633202D01*
X133286519Y-98643927D01*
X133295142Y-98655553D01*
X133302583Y-98667969D01*
X133308772Y-98681054D01*
X133313649Y-98694683D01*
X133317166Y-98708724D01*
X133319290Y-98723042D01*
X133320000Y-98737500D01*
X133320000Y-99032500D01*
X133319290Y-99046958D01*
X133317166Y-99061276D01*
X133313649Y-99075317D01*
X133308772Y-99088946D01*
X133302583Y-99102031D01*
X133295142Y-99114447D01*
X133286519Y-99126073D01*
X133276798Y-99136798D01*
X133266073Y-99146519D01*
X133254447Y-99155142D01*
X133242031Y-99162583D01*
X133228946Y-99168772D01*
X133215317Y-99173649D01*
X133201276Y-99177166D01*
X133186958Y-99179290D01*
X133172500Y-99180000D01*
X132827500Y-99180000D01*
X132813042Y-99179290D01*
X132798724Y-99177166D01*
X132784683Y-99173649D01*
X132771054Y-99168772D01*
X132757969Y-99162583D01*
X132745553Y-99155142D01*
X132733927Y-99146519D01*
X132723202Y-99136798D01*
X132713481Y-99126073D01*
X132704858Y-99114447D01*
X132697417Y-99102031D01*
X132691228Y-99088946D01*
X132686351Y-99075317D01*
X132682834Y-99061276D01*
X132680710Y-99046958D01*
X132680000Y-99032500D01*
X132680000Y-98737500D01*
X132680710Y-98723042D01*
X132682834Y-98708724D01*
X132686351Y-98694683D01*
X132691228Y-98681054D01*
X132697417Y-98667969D01*
X132704858Y-98655553D01*
X132713481Y-98643927D01*
X132723202Y-98633202D01*
X132733927Y-98623481D01*
X132745553Y-98614858D01*
X132757969Y-98607417D01*
X132771054Y-98601228D01*
X132784683Y-98596351D01*
X132798724Y-98592834D01*
X132813042Y-98590710D01*
X132827500Y-98590000D01*
X133172500Y-98590000D01*
X133186958Y-98590710D01*
X133186958Y-98590710D01*
G37*
D11*
X133000000Y-98885000D03*
G04 #@! TD*
D10*
G04 #@! TO.C,D1*
G36*
X140027691Y-103101053D02*
X140048926Y-103104203D01*
X140069750Y-103109419D01*
X140089962Y-103116651D01*
X140109368Y-103125830D01*
X140127781Y-103136866D01*
X140145024Y-103149654D01*
X140160930Y-103164070D01*
X140175346Y-103179976D01*
X140188134Y-103197219D01*
X140199170Y-103215632D01*
X140208349Y-103235038D01*
X140215581Y-103255250D01*
X140220797Y-103276074D01*
X140223947Y-103297309D01*
X140225000Y-103318750D01*
X140225000Y-103756250D01*
X140223947Y-103777691D01*
X140220797Y-103798926D01*
X140215581Y-103819750D01*
X140208349Y-103839962D01*
X140199170Y-103859368D01*
X140188134Y-103877781D01*
X140175346Y-103895024D01*
X140160930Y-103910930D01*
X140145024Y-103925346D01*
X140127781Y-103938134D01*
X140109368Y-103949170D01*
X140089962Y-103958349D01*
X140069750Y-103965581D01*
X140048926Y-103970797D01*
X140027691Y-103973947D01*
X140006250Y-103975000D01*
X139493750Y-103975000D01*
X139472309Y-103973947D01*
X139451074Y-103970797D01*
X139430250Y-103965581D01*
X139410038Y-103958349D01*
X139390632Y-103949170D01*
X139372219Y-103938134D01*
X139354976Y-103925346D01*
X139339070Y-103910930D01*
X139324654Y-103895024D01*
X139311866Y-103877781D01*
X139300830Y-103859368D01*
X139291651Y-103839962D01*
X139284419Y-103819750D01*
X139279203Y-103798926D01*
X139276053Y-103777691D01*
X139275000Y-103756250D01*
X139275000Y-103318750D01*
X139276053Y-103297309D01*
X139279203Y-103276074D01*
X139284419Y-103255250D01*
X139291651Y-103235038D01*
X139300830Y-103215632D01*
X139311866Y-103197219D01*
X139324654Y-103179976D01*
X139339070Y-103164070D01*
X139354976Y-103149654D01*
X139372219Y-103136866D01*
X139390632Y-103125830D01*
X139410038Y-103116651D01*
X139430250Y-103109419D01*
X139451074Y-103104203D01*
X139472309Y-103101053D01*
X139493750Y-103100000D01*
X140006250Y-103100000D01*
X140027691Y-103101053D01*
X140027691Y-103101053D01*
G37*
D13*
X139750000Y-103537500D03*
D10*
G36*
X140027691Y-101526053D02*
X140048926Y-101529203D01*
X140069750Y-101534419D01*
X140089962Y-101541651D01*
X140109368Y-101550830D01*
X140127781Y-101561866D01*
X140145024Y-101574654D01*
X140160930Y-101589070D01*
X140175346Y-101604976D01*
X140188134Y-101622219D01*
X140199170Y-101640632D01*
X140208349Y-101660038D01*
X140215581Y-101680250D01*
X140220797Y-101701074D01*
X140223947Y-101722309D01*
X140225000Y-101743750D01*
X140225000Y-102181250D01*
X140223947Y-102202691D01*
X140220797Y-102223926D01*
X140215581Y-102244750D01*
X140208349Y-102264962D01*
X140199170Y-102284368D01*
X140188134Y-102302781D01*
X140175346Y-102320024D01*
X140160930Y-102335930D01*
X140145024Y-102350346D01*
X140127781Y-102363134D01*
X140109368Y-102374170D01*
X140089962Y-102383349D01*
X140069750Y-102390581D01*
X140048926Y-102395797D01*
X140027691Y-102398947D01*
X140006250Y-102400000D01*
X139493750Y-102400000D01*
X139472309Y-102398947D01*
X139451074Y-102395797D01*
X139430250Y-102390581D01*
X139410038Y-102383349D01*
X139390632Y-102374170D01*
X139372219Y-102363134D01*
X139354976Y-102350346D01*
X139339070Y-102335930D01*
X139324654Y-102320024D01*
X139311866Y-102302781D01*
X139300830Y-102284368D01*
X139291651Y-102264962D01*
X139284419Y-102244750D01*
X139279203Y-102223926D01*
X139276053Y-102202691D01*
X139275000Y-102181250D01*
X139275000Y-101743750D01*
X139276053Y-101722309D01*
X139279203Y-101701074D01*
X139284419Y-101680250D01*
X139291651Y-101660038D01*
X139300830Y-101640632D01*
X139311866Y-101622219D01*
X139324654Y-101604976D01*
X139339070Y-101589070D01*
X139354976Y-101574654D01*
X139372219Y-101561866D01*
X139390632Y-101550830D01*
X139410038Y-101541651D01*
X139430250Y-101534419D01*
X139451074Y-101529203D01*
X139472309Y-101526053D01*
X139493750Y-101525000D01*
X140006250Y-101525000D01*
X140027691Y-101526053D01*
X140027691Y-101526053D01*
G37*
D13*
X139750000Y-101962500D03*
G04 #@! TD*
D10*
G04 #@! TO.C,D2*
G36*
X138027691Y-103101053D02*
X138048926Y-103104203D01*
X138069750Y-103109419D01*
X138089962Y-103116651D01*
X138109368Y-103125830D01*
X138127781Y-103136866D01*
X138145024Y-103149654D01*
X138160930Y-103164070D01*
X138175346Y-103179976D01*
X138188134Y-103197219D01*
X138199170Y-103215632D01*
X138208349Y-103235038D01*
X138215581Y-103255250D01*
X138220797Y-103276074D01*
X138223947Y-103297309D01*
X138225000Y-103318750D01*
X138225000Y-103756250D01*
X138223947Y-103777691D01*
X138220797Y-103798926D01*
X138215581Y-103819750D01*
X138208349Y-103839962D01*
X138199170Y-103859368D01*
X138188134Y-103877781D01*
X138175346Y-103895024D01*
X138160930Y-103910930D01*
X138145024Y-103925346D01*
X138127781Y-103938134D01*
X138109368Y-103949170D01*
X138089962Y-103958349D01*
X138069750Y-103965581D01*
X138048926Y-103970797D01*
X138027691Y-103973947D01*
X138006250Y-103975000D01*
X137493750Y-103975000D01*
X137472309Y-103973947D01*
X137451074Y-103970797D01*
X137430250Y-103965581D01*
X137410038Y-103958349D01*
X137390632Y-103949170D01*
X137372219Y-103938134D01*
X137354976Y-103925346D01*
X137339070Y-103910930D01*
X137324654Y-103895024D01*
X137311866Y-103877781D01*
X137300830Y-103859368D01*
X137291651Y-103839962D01*
X137284419Y-103819750D01*
X137279203Y-103798926D01*
X137276053Y-103777691D01*
X137275000Y-103756250D01*
X137275000Y-103318750D01*
X137276053Y-103297309D01*
X137279203Y-103276074D01*
X137284419Y-103255250D01*
X137291651Y-103235038D01*
X137300830Y-103215632D01*
X137311866Y-103197219D01*
X137324654Y-103179976D01*
X137339070Y-103164070D01*
X137354976Y-103149654D01*
X137372219Y-103136866D01*
X137390632Y-103125830D01*
X137410038Y-103116651D01*
X137430250Y-103109419D01*
X137451074Y-103104203D01*
X137472309Y-103101053D01*
X137493750Y-103100000D01*
X138006250Y-103100000D01*
X138027691Y-103101053D01*
X138027691Y-103101053D01*
G37*
D13*
X137750000Y-103537500D03*
D10*
G36*
X138027691Y-101526053D02*
X138048926Y-101529203D01*
X138069750Y-101534419D01*
X138089962Y-101541651D01*
X138109368Y-101550830D01*
X138127781Y-101561866D01*
X138145024Y-101574654D01*
X138160930Y-101589070D01*
X138175346Y-101604976D01*
X138188134Y-101622219D01*
X138199170Y-101640632D01*
X138208349Y-101660038D01*
X138215581Y-101680250D01*
X138220797Y-101701074D01*
X138223947Y-101722309D01*
X138225000Y-101743750D01*
X138225000Y-102181250D01*
X138223947Y-102202691D01*
X138220797Y-102223926D01*
X138215581Y-102244750D01*
X138208349Y-102264962D01*
X138199170Y-102284368D01*
X138188134Y-102302781D01*
X138175346Y-102320024D01*
X138160930Y-102335930D01*
X138145024Y-102350346D01*
X138127781Y-102363134D01*
X138109368Y-102374170D01*
X138089962Y-102383349D01*
X138069750Y-102390581D01*
X138048926Y-102395797D01*
X138027691Y-102398947D01*
X138006250Y-102400000D01*
X137493750Y-102400000D01*
X137472309Y-102398947D01*
X137451074Y-102395797D01*
X137430250Y-102390581D01*
X137410038Y-102383349D01*
X137390632Y-102374170D01*
X137372219Y-102363134D01*
X137354976Y-102350346D01*
X137339070Y-102335930D01*
X137324654Y-102320024D01*
X137311866Y-102302781D01*
X137300830Y-102284368D01*
X137291651Y-102264962D01*
X137284419Y-102244750D01*
X137279203Y-102223926D01*
X137276053Y-102202691D01*
X137275000Y-102181250D01*
X137275000Y-101743750D01*
X137276053Y-101722309D01*
X137279203Y-101701074D01*
X137284419Y-101680250D01*
X137291651Y-101660038D01*
X137300830Y-101640632D01*
X137311866Y-101622219D01*
X137324654Y-101604976D01*
X137339070Y-101589070D01*
X137354976Y-101574654D01*
X137372219Y-101561866D01*
X137390632Y-101550830D01*
X137410038Y-101541651D01*
X137430250Y-101534419D01*
X137451074Y-101529203D01*
X137472309Y-101526053D01*
X137493750Y-101525000D01*
X138006250Y-101525000D01*
X138027691Y-101526053D01*
X138027691Y-101526053D01*
G37*
D13*
X137750000Y-101962500D03*
G04 #@! TD*
D10*
G04 #@! TO.C,D3*
G36*
X136027691Y-101526053D02*
X136048926Y-101529203D01*
X136069750Y-101534419D01*
X136089962Y-101541651D01*
X136109368Y-101550830D01*
X136127781Y-101561866D01*
X136145024Y-101574654D01*
X136160930Y-101589070D01*
X136175346Y-101604976D01*
X136188134Y-101622219D01*
X136199170Y-101640632D01*
X136208349Y-101660038D01*
X136215581Y-101680250D01*
X136220797Y-101701074D01*
X136223947Y-101722309D01*
X136225000Y-101743750D01*
X136225000Y-102181250D01*
X136223947Y-102202691D01*
X136220797Y-102223926D01*
X136215581Y-102244750D01*
X136208349Y-102264962D01*
X136199170Y-102284368D01*
X136188134Y-102302781D01*
X136175346Y-102320024D01*
X136160930Y-102335930D01*
X136145024Y-102350346D01*
X136127781Y-102363134D01*
X136109368Y-102374170D01*
X136089962Y-102383349D01*
X136069750Y-102390581D01*
X136048926Y-102395797D01*
X136027691Y-102398947D01*
X136006250Y-102400000D01*
X135493750Y-102400000D01*
X135472309Y-102398947D01*
X135451074Y-102395797D01*
X135430250Y-102390581D01*
X135410038Y-102383349D01*
X135390632Y-102374170D01*
X135372219Y-102363134D01*
X135354976Y-102350346D01*
X135339070Y-102335930D01*
X135324654Y-102320024D01*
X135311866Y-102302781D01*
X135300830Y-102284368D01*
X135291651Y-102264962D01*
X135284419Y-102244750D01*
X135279203Y-102223926D01*
X135276053Y-102202691D01*
X135275000Y-102181250D01*
X135275000Y-101743750D01*
X135276053Y-101722309D01*
X135279203Y-101701074D01*
X135284419Y-101680250D01*
X135291651Y-101660038D01*
X135300830Y-101640632D01*
X135311866Y-101622219D01*
X135324654Y-101604976D01*
X135339070Y-101589070D01*
X135354976Y-101574654D01*
X135372219Y-101561866D01*
X135390632Y-101550830D01*
X135410038Y-101541651D01*
X135430250Y-101534419D01*
X135451074Y-101529203D01*
X135472309Y-101526053D01*
X135493750Y-101525000D01*
X136006250Y-101525000D01*
X136027691Y-101526053D01*
X136027691Y-101526053D01*
G37*
D13*
X135750000Y-101962500D03*
D10*
G36*
X136027691Y-103101053D02*
X136048926Y-103104203D01*
X136069750Y-103109419D01*
X136089962Y-103116651D01*
X136109368Y-103125830D01*
X136127781Y-103136866D01*
X136145024Y-103149654D01*
X136160930Y-103164070D01*
X136175346Y-103179976D01*
X136188134Y-103197219D01*
X136199170Y-103215632D01*
X136208349Y-103235038D01*
X136215581Y-103255250D01*
X136220797Y-103276074D01*
X136223947Y-103297309D01*
X136225000Y-103318750D01*
X136225000Y-103756250D01*
X136223947Y-103777691D01*
X136220797Y-103798926D01*
X136215581Y-103819750D01*
X136208349Y-103839962D01*
X136199170Y-103859368D01*
X136188134Y-103877781D01*
X136175346Y-103895024D01*
X136160930Y-103910930D01*
X136145024Y-103925346D01*
X136127781Y-103938134D01*
X136109368Y-103949170D01*
X136089962Y-103958349D01*
X136069750Y-103965581D01*
X136048926Y-103970797D01*
X136027691Y-103973947D01*
X136006250Y-103975000D01*
X135493750Y-103975000D01*
X135472309Y-103973947D01*
X135451074Y-103970797D01*
X135430250Y-103965581D01*
X135410038Y-103958349D01*
X135390632Y-103949170D01*
X135372219Y-103938134D01*
X135354976Y-103925346D01*
X135339070Y-103910930D01*
X135324654Y-103895024D01*
X135311866Y-103877781D01*
X135300830Y-103859368D01*
X135291651Y-103839962D01*
X135284419Y-103819750D01*
X135279203Y-103798926D01*
X135276053Y-103777691D01*
X135275000Y-103756250D01*
X135275000Y-103318750D01*
X135276053Y-103297309D01*
X135279203Y-103276074D01*
X135284419Y-103255250D01*
X135291651Y-103235038D01*
X135300830Y-103215632D01*
X135311866Y-103197219D01*
X135324654Y-103179976D01*
X135339070Y-103164070D01*
X135354976Y-103149654D01*
X135372219Y-103136866D01*
X135390632Y-103125830D01*
X135410038Y-103116651D01*
X135430250Y-103109419D01*
X135451074Y-103104203D01*
X135472309Y-103101053D01*
X135493750Y-103100000D01*
X136006250Y-103100000D01*
X136027691Y-103101053D01*
X136027691Y-103101053D01*
G37*
D13*
X135750000Y-103537500D03*
G04 #@! TD*
D14*
G04 #@! TO.C,D4*
X135350000Y-93800000D03*
D15*
X137250000Y-93800000D03*
G04 #@! TD*
G04 #@! TO.C,D5*
X137250000Y-87600000D03*
D14*
X135350000Y-87600000D03*
G04 #@! TD*
D16*
G04 #@! TO.C,J3*
X166450000Y-99575000D03*
X167100000Y-99575000D03*
X167750000Y-99575000D03*
X168400000Y-99575000D03*
X169050000Y-99575000D03*
D17*
X166600000Y-102250000D03*
X168900000Y-102250000D03*
G04 #@! TD*
D10*
G04 #@! TO.C,R1*
G36*
X139936958Y-100190710D02*
X139951276Y-100192834D01*
X139965317Y-100196351D01*
X139978946Y-100201228D01*
X139992031Y-100207417D01*
X140004447Y-100214858D01*
X140016073Y-100223481D01*
X140026798Y-100233202D01*
X140036519Y-100243927D01*
X140045142Y-100255553D01*
X140052583Y-100267969D01*
X140058772Y-100281054D01*
X140063649Y-100294683D01*
X140067166Y-100308724D01*
X140069290Y-100323042D01*
X140070000Y-100337500D01*
X140070000Y-100632500D01*
X140069290Y-100646958D01*
X140067166Y-100661276D01*
X140063649Y-100675317D01*
X140058772Y-100688946D01*
X140052583Y-100702031D01*
X140045142Y-100714447D01*
X140036519Y-100726073D01*
X140026798Y-100736798D01*
X140016073Y-100746519D01*
X140004447Y-100755142D01*
X139992031Y-100762583D01*
X139978946Y-100768772D01*
X139965317Y-100773649D01*
X139951276Y-100777166D01*
X139936958Y-100779290D01*
X139922500Y-100780000D01*
X139577500Y-100780000D01*
X139563042Y-100779290D01*
X139548724Y-100777166D01*
X139534683Y-100773649D01*
X139521054Y-100768772D01*
X139507969Y-100762583D01*
X139495553Y-100755142D01*
X139483927Y-100746519D01*
X139473202Y-100736798D01*
X139463481Y-100726073D01*
X139454858Y-100714447D01*
X139447417Y-100702031D01*
X139441228Y-100688946D01*
X139436351Y-100675317D01*
X139432834Y-100661276D01*
X139430710Y-100646958D01*
X139430000Y-100632500D01*
X139430000Y-100337500D01*
X139430710Y-100323042D01*
X139432834Y-100308724D01*
X139436351Y-100294683D01*
X139441228Y-100281054D01*
X139447417Y-100267969D01*
X139454858Y-100255553D01*
X139463481Y-100243927D01*
X139473202Y-100233202D01*
X139483927Y-100223481D01*
X139495553Y-100214858D01*
X139507969Y-100207417D01*
X139521054Y-100201228D01*
X139534683Y-100196351D01*
X139548724Y-100192834D01*
X139563042Y-100190710D01*
X139577500Y-100190000D01*
X139922500Y-100190000D01*
X139936958Y-100190710D01*
X139936958Y-100190710D01*
G37*
D11*
X139750000Y-100485000D03*
D10*
G36*
X139936958Y-99220710D02*
X139951276Y-99222834D01*
X139965317Y-99226351D01*
X139978946Y-99231228D01*
X139992031Y-99237417D01*
X140004447Y-99244858D01*
X140016073Y-99253481D01*
X140026798Y-99263202D01*
X140036519Y-99273927D01*
X140045142Y-99285553D01*
X140052583Y-99297969D01*
X140058772Y-99311054D01*
X140063649Y-99324683D01*
X140067166Y-99338724D01*
X140069290Y-99353042D01*
X140070000Y-99367500D01*
X140070000Y-99662500D01*
X140069290Y-99676958D01*
X140067166Y-99691276D01*
X140063649Y-99705317D01*
X140058772Y-99718946D01*
X140052583Y-99732031D01*
X140045142Y-99744447D01*
X140036519Y-99756073D01*
X140026798Y-99766798D01*
X140016073Y-99776519D01*
X140004447Y-99785142D01*
X139992031Y-99792583D01*
X139978946Y-99798772D01*
X139965317Y-99803649D01*
X139951276Y-99807166D01*
X139936958Y-99809290D01*
X139922500Y-99810000D01*
X139577500Y-99810000D01*
X139563042Y-99809290D01*
X139548724Y-99807166D01*
X139534683Y-99803649D01*
X139521054Y-99798772D01*
X139507969Y-99792583D01*
X139495553Y-99785142D01*
X139483927Y-99776519D01*
X139473202Y-99766798D01*
X139463481Y-99756073D01*
X139454858Y-99744447D01*
X139447417Y-99732031D01*
X139441228Y-99718946D01*
X139436351Y-99705317D01*
X139432834Y-99691276D01*
X139430710Y-99676958D01*
X139430000Y-99662500D01*
X139430000Y-99367500D01*
X139430710Y-99353042D01*
X139432834Y-99338724D01*
X139436351Y-99324683D01*
X139441228Y-99311054D01*
X139447417Y-99297969D01*
X139454858Y-99285553D01*
X139463481Y-99273927D01*
X139473202Y-99263202D01*
X139483927Y-99253481D01*
X139495553Y-99244858D01*
X139507969Y-99237417D01*
X139521054Y-99231228D01*
X139534683Y-99226351D01*
X139548724Y-99222834D01*
X139563042Y-99220710D01*
X139577500Y-99220000D01*
X139922500Y-99220000D01*
X139936958Y-99220710D01*
X139936958Y-99220710D01*
G37*
D11*
X139750000Y-99515000D03*
G04 #@! TD*
D10*
G04 #@! TO.C,R2*
G36*
X137936958Y-99220710D02*
X137951276Y-99222834D01*
X137965317Y-99226351D01*
X137978946Y-99231228D01*
X137992031Y-99237417D01*
X138004447Y-99244858D01*
X138016073Y-99253481D01*
X138026798Y-99263202D01*
X138036519Y-99273927D01*
X138045142Y-99285553D01*
X138052583Y-99297969D01*
X138058772Y-99311054D01*
X138063649Y-99324683D01*
X138067166Y-99338724D01*
X138069290Y-99353042D01*
X138070000Y-99367500D01*
X138070000Y-99662500D01*
X138069290Y-99676958D01*
X138067166Y-99691276D01*
X138063649Y-99705317D01*
X138058772Y-99718946D01*
X138052583Y-99732031D01*
X138045142Y-99744447D01*
X138036519Y-99756073D01*
X138026798Y-99766798D01*
X138016073Y-99776519D01*
X138004447Y-99785142D01*
X137992031Y-99792583D01*
X137978946Y-99798772D01*
X137965317Y-99803649D01*
X137951276Y-99807166D01*
X137936958Y-99809290D01*
X137922500Y-99810000D01*
X137577500Y-99810000D01*
X137563042Y-99809290D01*
X137548724Y-99807166D01*
X137534683Y-99803649D01*
X137521054Y-99798772D01*
X137507969Y-99792583D01*
X137495553Y-99785142D01*
X137483927Y-99776519D01*
X137473202Y-99766798D01*
X137463481Y-99756073D01*
X137454858Y-99744447D01*
X137447417Y-99732031D01*
X137441228Y-99718946D01*
X137436351Y-99705317D01*
X137432834Y-99691276D01*
X137430710Y-99676958D01*
X137430000Y-99662500D01*
X137430000Y-99367500D01*
X137430710Y-99353042D01*
X137432834Y-99338724D01*
X137436351Y-99324683D01*
X137441228Y-99311054D01*
X137447417Y-99297969D01*
X137454858Y-99285553D01*
X137463481Y-99273927D01*
X137473202Y-99263202D01*
X137483927Y-99253481D01*
X137495553Y-99244858D01*
X137507969Y-99237417D01*
X137521054Y-99231228D01*
X137534683Y-99226351D01*
X137548724Y-99222834D01*
X137563042Y-99220710D01*
X137577500Y-99220000D01*
X137922500Y-99220000D01*
X137936958Y-99220710D01*
X137936958Y-99220710D01*
G37*
D11*
X137750000Y-99515000D03*
D10*
G36*
X137936958Y-100190710D02*
X137951276Y-100192834D01*
X137965317Y-100196351D01*
X137978946Y-100201228D01*
X137992031Y-100207417D01*
X138004447Y-100214858D01*
X138016073Y-100223481D01*
X138026798Y-100233202D01*
X138036519Y-100243927D01*
X138045142Y-100255553D01*
X138052583Y-100267969D01*
X138058772Y-100281054D01*
X138063649Y-100294683D01*
X138067166Y-100308724D01*
X138069290Y-100323042D01*
X138070000Y-100337500D01*
X138070000Y-100632500D01*
X138069290Y-100646958D01*
X138067166Y-100661276D01*
X138063649Y-100675317D01*
X138058772Y-100688946D01*
X138052583Y-100702031D01*
X138045142Y-100714447D01*
X138036519Y-100726073D01*
X138026798Y-100736798D01*
X138016073Y-100746519D01*
X138004447Y-100755142D01*
X137992031Y-100762583D01*
X137978946Y-100768772D01*
X137965317Y-100773649D01*
X137951276Y-100777166D01*
X137936958Y-100779290D01*
X137922500Y-100780000D01*
X137577500Y-100780000D01*
X137563042Y-100779290D01*
X137548724Y-100777166D01*
X137534683Y-100773649D01*
X137521054Y-100768772D01*
X137507969Y-100762583D01*
X137495553Y-100755142D01*
X137483927Y-100746519D01*
X137473202Y-100736798D01*
X137463481Y-100726073D01*
X137454858Y-100714447D01*
X137447417Y-100702031D01*
X137441228Y-100688946D01*
X137436351Y-100675317D01*
X137432834Y-100661276D01*
X137430710Y-100646958D01*
X137430000Y-100632500D01*
X137430000Y-100337500D01*
X137430710Y-100323042D01*
X137432834Y-100308724D01*
X137436351Y-100294683D01*
X137441228Y-100281054D01*
X137447417Y-100267969D01*
X137454858Y-100255553D01*
X137463481Y-100243927D01*
X137473202Y-100233202D01*
X137483927Y-100223481D01*
X137495553Y-100214858D01*
X137507969Y-100207417D01*
X137521054Y-100201228D01*
X137534683Y-100196351D01*
X137548724Y-100192834D01*
X137563042Y-100190710D01*
X137577500Y-100190000D01*
X137922500Y-100190000D01*
X137936958Y-100190710D01*
X137936958Y-100190710D01*
G37*
D11*
X137750000Y-100485000D03*
G04 #@! TD*
D10*
G04 #@! TO.C,R3*
G36*
X135936958Y-100190710D02*
X135951276Y-100192834D01*
X135965317Y-100196351D01*
X135978946Y-100201228D01*
X135992031Y-100207417D01*
X136004447Y-100214858D01*
X136016073Y-100223481D01*
X136026798Y-100233202D01*
X136036519Y-100243927D01*
X136045142Y-100255553D01*
X136052583Y-100267969D01*
X136058772Y-100281054D01*
X136063649Y-100294683D01*
X136067166Y-100308724D01*
X136069290Y-100323042D01*
X136070000Y-100337500D01*
X136070000Y-100632500D01*
X136069290Y-100646958D01*
X136067166Y-100661276D01*
X136063649Y-100675317D01*
X136058772Y-100688946D01*
X136052583Y-100702031D01*
X136045142Y-100714447D01*
X136036519Y-100726073D01*
X136026798Y-100736798D01*
X136016073Y-100746519D01*
X136004447Y-100755142D01*
X135992031Y-100762583D01*
X135978946Y-100768772D01*
X135965317Y-100773649D01*
X135951276Y-100777166D01*
X135936958Y-100779290D01*
X135922500Y-100780000D01*
X135577500Y-100780000D01*
X135563042Y-100779290D01*
X135548724Y-100777166D01*
X135534683Y-100773649D01*
X135521054Y-100768772D01*
X135507969Y-100762583D01*
X135495553Y-100755142D01*
X135483927Y-100746519D01*
X135473202Y-100736798D01*
X135463481Y-100726073D01*
X135454858Y-100714447D01*
X135447417Y-100702031D01*
X135441228Y-100688946D01*
X135436351Y-100675317D01*
X135432834Y-100661276D01*
X135430710Y-100646958D01*
X135430000Y-100632500D01*
X135430000Y-100337500D01*
X135430710Y-100323042D01*
X135432834Y-100308724D01*
X135436351Y-100294683D01*
X135441228Y-100281054D01*
X135447417Y-100267969D01*
X135454858Y-100255553D01*
X135463481Y-100243927D01*
X135473202Y-100233202D01*
X135483927Y-100223481D01*
X135495553Y-100214858D01*
X135507969Y-100207417D01*
X135521054Y-100201228D01*
X135534683Y-100196351D01*
X135548724Y-100192834D01*
X135563042Y-100190710D01*
X135577500Y-100190000D01*
X135922500Y-100190000D01*
X135936958Y-100190710D01*
X135936958Y-100190710D01*
G37*
D11*
X135750000Y-100485000D03*
D10*
G36*
X135936958Y-99220710D02*
X135951276Y-99222834D01*
X135965317Y-99226351D01*
X135978946Y-99231228D01*
X135992031Y-99237417D01*
X136004447Y-99244858D01*
X136016073Y-99253481D01*
X136026798Y-99263202D01*
X136036519Y-99273927D01*
X136045142Y-99285553D01*
X136052583Y-99297969D01*
X136058772Y-99311054D01*
X136063649Y-99324683D01*
X136067166Y-99338724D01*
X136069290Y-99353042D01*
X136070000Y-99367500D01*
X136070000Y-99662500D01*
X136069290Y-99676958D01*
X136067166Y-99691276D01*
X136063649Y-99705317D01*
X136058772Y-99718946D01*
X136052583Y-99732031D01*
X136045142Y-99744447D01*
X136036519Y-99756073D01*
X136026798Y-99766798D01*
X136016073Y-99776519D01*
X136004447Y-99785142D01*
X135992031Y-99792583D01*
X135978946Y-99798772D01*
X135965317Y-99803649D01*
X135951276Y-99807166D01*
X135936958Y-99809290D01*
X135922500Y-99810000D01*
X135577500Y-99810000D01*
X135563042Y-99809290D01*
X135548724Y-99807166D01*
X135534683Y-99803649D01*
X135521054Y-99798772D01*
X135507969Y-99792583D01*
X135495553Y-99785142D01*
X135483927Y-99776519D01*
X135473202Y-99766798D01*
X135463481Y-99756073D01*
X135454858Y-99744447D01*
X135447417Y-99732031D01*
X135441228Y-99718946D01*
X135436351Y-99705317D01*
X135432834Y-99691276D01*
X135430710Y-99676958D01*
X135430000Y-99662500D01*
X135430000Y-99367500D01*
X135430710Y-99353042D01*
X135432834Y-99338724D01*
X135436351Y-99324683D01*
X135441228Y-99311054D01*
X135447417Y-99297969D01*
X135454858Y-99285553D01*
X135463481Y-99273927D01*
X135473202Y-99263202D01*
X135483927Y-99253481D01*
X135495553Y-99244858D01*
X135507969Y-99237417D01*
X135521054Y-99231228D01*
X135534683Y-99226351D01*
X135548724Y-99222834D01*
X135563042Y-99220710D01*
X135577500Y-99220000D01*
X135922500Y-99220000D01*
X135936958Y-99220710D01*
X135936958Y-99220710D01*
G37*
D11*
X135750000Y-99515000D03*
G04 #@! TD*
D10*
G04 #@! TO.C,R5*
G36*
X160176958Y-98930710D02*
X160191276Y-98932834D01*
X160205317Y-98936351D01*
X160218946Y-98941228D01*
X160232031Y-98947417D01*
X160244447Y-98954858D01*
X160256073Y-98963481D01*
X160266798Y-98973202D01*
X160276519Y-98983927D01*
X160285142Y-98995553D01*
X160292583Y-99007969D01*
X160298772Y-99021054D01*
X160303649Y-99034683D01*
X160307166Y-99048724D01*
X160309290Y-99063042D01*
X160310000Y-99077500D01*
X160310000Y-99422500D01*
X160309290Y-99436958D01*
X160307166Y-99451276D01*
X160303649Y-99465317D01*
X160298772Y-99478946D01*
X160292583Y-99492031D01*
X160285142Y-99504447D01*
X160276519Y-99516073D01*
X160266798Y-99526798D01*
X160256073Y-99536519D01*
X160244447Y-99545142D01*
X160232031Y-99552583D01*
X160218946Y-99558772D01*
X160205317Y-99563649D01*
X160191276Y-99567166D01*
X160176958Y-99569290D01*
X160162500Y-99570000D01*
X159867500Y-99570000D01*
X159853042Y-99569290D01*
X159838724Y-99567166D01*
X159824683Y-99563649D01*
X159811054Y-99558772D01*
X159797969Y-99552583D01*
X159785553Y-99545142D01*
X159773927Y-99536519D01*
X159763202Y-99526798D01*
X159753481Y-99516073D01*
X159744858Y-99504447D01*
X159737417Y-99492031D01*
X159731228Y-99478946D01*
X159726351Y-99465317D01*
X159722834Y-99451276D01*
X159720710Y-99436958D01*
X159720000Y-99422500D01*
X159720000Y-99077500D01*
X159720710Y-99063042D01*
X159722834Y-99048724D01*
X159726351Y-99034683D01*
X159731228Y-99021054D01*
X159737417Y-99007969D01*
X159744858Y-98995553D01*
X159753481Y-98983927D01*
X159763202Y-98973202D01*
X159773927Y-98963481D01*
X159785553Y-98954858D01*
X159797969Y-98947417D01*
X159811054Y-98941228D01*
X159824683Y-98936351D01*
X159838724Y-98932834D01*
X159853042Y-98930710D01*
X159867500Y-98930000D01*
X160162500Y-98930000D01*
X160176958Y-98930710D01*
X160176958Y-98930710D01*
G37*
D11*
X160015000Y-99250000D03*
D10*
G36*
X161146958Y-98930710D02*
X161161276Y-98932834D01*
X161175317Y-98936351D01*
X161188946Y-98941228D01*
X161202031Y-98947417D01*
X161214447Y-98954858D01*
X161226073Y-98963481D01*
X161236798Y-98973202D01*
X161246519Y-98983927D01*
X161255142Y-98995553D01*
X161262583Y-99007969D01*
X161268772Y-99021054D01*
X161273649Y-99034683D01*
X161277166Y-99048724D01*
X161279290Y-99063042D01*
X161280000Y-99077500D01*
X161280000Y-99422500D01*
X161279290Y-99436958D01*
X161277166Y-99451276D01*
X161273649Y-99465317D01*
X161268772Y-99478946D01*
X161262583Y-99492031D01*
X161255142Y-99504447D01*
X161246519Y-99516073D01*
X161236798Y-99526798D01*
X161226073Y-99536519D01*
X161214447Y-99545142D01*
X161202031Y-99552583D01*
X161188946Y-99558772D01*
X161175317Y-99563649D01*
X161161276Y-99567166D01*
X161146958Y-99569290D01*
X161132500Y-99570000D01*
X160837500Y-99570000D01*
X160823042Y-99569290D01*
X160808724Y-99567166D01*
X160794683Y-99563649D01*
X160781054Y-99558772D01*
X160767969Y-99552583D01*
X160755553Y-99545142D01*
X160743927Y-99536519D01*
X160733202Y-99526798D01*
X160723481Y-99516073D01*
X160714858Y-99504447D01*
X160707417Y-99492031D01*
X160701228Y-99478946D01*
X160696351Y-99465317D01*
X160692834Y-99451276D01*
X160690710Y-99436958D01*
X160690000Y-99422500D01*
X160690000Y-99077500D01*
X160690710Y-99063042D01*
X160692834Y-99048724D01*
X160696351Y-99034683D01*
X160701228Y-99021054D01*
X160707417Y-99007969D01*
X160714858Y-98995553D01*
X160723481Y-98983927D01*
X160733202Y-98973202D01*
X160743927Y-98963481D01*
X160755553Y-98954858D01*
X160767969Y-98947417D01*
X160781054Y-98941228D01*
X160794683Y-98936351D01*
X160808724Y-98932834D01*
X160823042Y-98930710D01*
X160837500Y-98930000D01*
X161132500Y-98930000D01*
X161146958Y-98930710D01*
X161146958Y-98930710D01*
G37*
D11*
X160985000Y-99250000D03*
G04 #@! TD*
D10*
G04 #@! TO.C,R11*
G36*
X126691958Y-98930710D02*
X126706276Y-98932834D01*
X126720317Y-98936351D01*
X126733946Y-98941228D01*
X126747031Y-98947417D01*
X126759447Y-98954858D01*
X126771073Y-98963481D01*
X126781798Y-98973202D01*
X126791519Y-98983927D01*
X126800142Y-98995553D01*
X126807583Y-99007969D01*
X126813772Y-99021054D01*
X126818649Y-99034683D01*
X126822166Y-99048724D01*
X126824290Y-99063042D01*
X126825000Y-99077500D01*
X126825000Y-99422500D01*
X126824290Y-99436958D01*
X126822166Y-99451276D01*
X126818649Y-99465317D01*
X126813772Y-99478946D01*
X126807583Y-99492031D01*
X126800142Y-99504447D01*
X126791519Y-99516073D01*
X126781798Y-99526798D01*
X126771073Y-99536519D01*
X126759447Y-99545142D01*
X126747031Y-99552583D01*
X126733946Y-99558772D01*
X126720317Y-99563649D01*
X126706276Y-99567166D01*
X126691958Y-99569290D01*
X126677500Y-99570000D01*
X126382500Y-99570000D01*
X126368042Y-99569290D01*
X126353724Y-99567166D01*
X126339683Y-99563649D01*
X126326054Y-99558772D01*
X126312969Y-99552583D01*
X126300553Y-99545142D01*
X126288927Y-99536519D01*
X126278202Y-99526798D01*
X126268481Y-99516073D01*
X126259858Y-99504447D01*
X126252417Y-99492031D01*
X126246228Y-99478946D01*
X126241351Y-99465317D01*
X126237834Y-99451276D01*
X126235710Y-99436958D01*
X126235000Y-99422500D01*
X126235000Y-99077500D01*
X126235710Y-99063042D01*
X126237834Y-99048724D01*
X126241351Y-99034683D01*
X126246228Y-99021054D01*
X126252417Y-99007969D01*
X126259858Y-98995553D01*
X126268481Y-98983927D01*
X126278202Y-98973202D01*
X126288927Y-98963481D01*
X126300553Y-98954858D01*
X126312969Y-98947417D01*
X126326054Y-98941228D01*
X126339683Y-98936351D01*
X126353724Y-98932834D01*
X126368042Y-98930710D01*
X126382500Y-98930000D01*
X126677500Y-98930000D01*
X126691958Y-98930710D01*
X126691958Y-98930710D01*
G37*
D11*
X126530000Y-99250000D03*
D10*
G36*
X127661958Y-98930710D02*
X127676276Y-98932834D01*
X127690317Y-98936351D01*
X127703946Y-98941228D01*
X127717031Y-98947417D01*
X127729447Y-98954858D01*
X127741073Y-98963481D01*
X127751798Y-98973202D01*
X127761519Y-98983927D01*
X127770142Y-98995553D01*
X127777583Y-99007969D01*
X127783772Y-99021054D01*
X127788649Y-99034683D01*
X127792166Y-99048724D01*
X127794290Y-99063042D01*
X127795000Y-99077500D01*
X127795000Y-99422500D01*
X127794290Y-99436958D01*
X127792166Y-99451276D01*
X127788649Y-99465317D01*
X127783772Y-99478946D01*
X127777583Y-99492031D01*
X127770142Y-99504447D01*
X127761519Y-99516073D01*
X127751798Y-99526798D01*
X127741073Y-99536519D01*
X127729447Y-99545142D01*
X127717031Y-99552583D01*
X127703946Y-99558772D01*
X127690317Y-99563649D01*
X127676276Y-99567166D01*
X127661958Y-99569290D01*
X127647500Y-99570000D01*
X127352500Y-99570000D01*
X127338042Y-99569290D01*
X127323724Y-99567166D01*
X127309683Y-99563649D01*
X127296054Y-99558772D01*
X127282969Y-99552583D01*
X127270553Y-99545142D01*
X127258927Y-99536519D01*
X127248202Y-99526798D01*
X127238481Y-99516073D01*
X127229858Y-99504447D01*
X127222417Y-99492031D01*
X127216228Y-99478946D01*
X127211351Y-99465317D01*
X127207834Y-99451276D01*
X127205710Y-99436958D01*
X127205000Y-99422500D01*
X127205000Y-99077500D01*
X127205710Y-99063042D01*
X127207834Y-99048724D01*
X127211351Y-99034683D01*
X127216228Y-99021054D01*
X127222417Y-99007969D01*
X127229858Y-98995553D01*
X127238481Y-98983927D01*
X127248202Y-98973202D01*
X127258927Y-98963481D01*
X127270553Y-98954858D01*
X127282969Y-98947417D01*
X127296054Y-98941228D01*
X127309683Y-98936351D01*
X127323724Y-98932834D01*
X127338042Y-98930710D01*
X127352500Y-98930000D01*
X127647500Y-98930000D01*
X127661958Y-98930710D01*
X127661958Y-98930710D01*
G37*
D11*
X127500000Y-99250000D03*
G04 #@! TD*
D10*
G04 #@! TO.C,R12*
G36*
X127661958Y-97680710D02*
X127676276Y-97682834D01*
X127690317Y-97686351D01*
X127703946Y-97691228D01*
X127717031Y-97697417D01*
X127729447Y-97704858D01*
X127741073Y-97713481D01*
X127751798Y-97723202D01*
X127761519Y-97733927D01*
X127770142Y-97745553D01*
X127777583Y-97757969D01*
X127783772Y-97771054D01*
X127788649Y-97784683D01*
X127792166Y-97798724D01*
X127794290Y-97813042D01*
X127795000Y-97827500D01*
X127795000Y-98172500D01*
X127794290Y-98186958D01*
X127792166Y-98201276D01*
X127788649Y-98215317D01*
X127783772Y-98228946D01*
X127777583Y-98242031D01*
X127770142Y-98254447D01*
X127761519Y-98266073D01*
X127751798Y-98276798D01*
X127741073Y-98286519D01*
X127729447Y-98295142D01*
X127717031Y-98302583D01*
X127703946Y-98308772D01*
X127690317Y-98313649D01*
X127676276Y-98317166D01*
X127661958Y-98319290D01*
X127647500Y-98320000D01*
X127352500Y-98320000D01*
X127338042Y-98319290D01*
X127323724Y-98317166D01*
X127309683Y-98313649D01*
X127296054Y-98308772D01*
X127282969Y-98302583D01*
X127270553Y-98295142D01*
X127258927Y-98286519D01*
X127248202Y-98276798D01*
X127238481Y-98266073D01*
X127229858Y-98254447D01*
X127222417Y-98242031D01*
X127216228Y-98228946D01*
X127211351Y-98215317D01*
X127207834Y-98201276D01*
X127205710Y-98186958D01*
X127205000Y-98172500D01*
X127205000Y-97827500D01*
X127205710Y-97813042D01*
X127207834Y-97798724D01*
X127211351Y-97784683D01*
X127216228Y-97771054D01*
X127222417Y-97757969D01*
X127229858Y-97745553D01*
X127238481Y-97733927D01*
X127248202Y-97723202D01*
X127258927Y-97713481D01*
X127270553Y-97704858D01*
X127282969Y-97697417D01*
X127296054Y-97691228D01*
X127309683Y-97686351D01*
X127323724Y-97682834D01*
X127338042Y-97680710D01*
X127352500Y-97680000D01*
X127647500Y-97680000D01*
X127661958Y-97680710D01*
X127661958Y-97680710D01*
G37*
D11*
X127500000Y-98000000D03*
D10*
G36*
X126691958Y-97680710D02*
X126706276Y-97682834D01*
X126720317Y-97686351D01*
X126733946Y-97691228D01*
X126747031Y-97697417D01*
X126759447Y-97704858D01*
X126771073Y-97713481D01*
X126781798Y-97723202D01*
X126791519Y-97733927D01*
X126800142Y-97745553D01*
X126807583Y-97757969D01*
X126813772Y-97771054D01*
X126818649Y-97784683D01*
X126822166Y-97798724D01*
X126824290Y-97813042D01*
X126825000Y-97827500D01*
X126825000Y-98172500D01*
X126824290Y-98186958D01*
X126822166Y-98201276D01*
X126818649Y-98215317D01*
X126813772Y-98228946D01*
X126807583Y-98242031D01*
X126800142Y-98254447D01*
X126791519Y-98266073D01*
X126781798Y-98276798D01*
X126771073Y-98286519D01*
X126759447Y-98295142D01*
X126747031Y-98302583D01*
X126733946Y-98308772D01*
X126720317Y-98313649D01*
X126706276Y-98317166D01*
X126691958Y-98319290D01*
X126677500Y-98320000D01*
X126382500Y-98320000D01*
X126368042Y-98319290D01*
X126353724Y-98317166D01*
X126339683Y-98313649D01*
X126326054Y-98308772D01*
X126312969Y-98302583D01*
X126300553Y-98295142D01*
X126288927Y-98286519D01*
X126278202Y-98276798D01*
X126268481Y-98266073D01*
X126259858Y-98254447D01*
X126252417Y-98242031D01*
X126246228Y-98228946D01*
X126241351Y-98215317D01*
X126237834Y-98201276D01*
X126235710Y-98186958D01*
X126235000Y-98172500D01*
X126235000Y-97827500D01*
X126235710Y-97813042D01*
X126237834Y-97798724D01*
X126241351Y-97784683D01*
X126246228Y-97771054D01*
X126252417Y-97757969D01*
X126259858Y-97745553D01*
X126268481Y-97733927D01*
X126278202Y-97723202D01*
X126288927Y-97713481D01*
X126300553Y-97704858D01*
X126312969Y-97697417D01*
X126326054Y-97691228D01*
X126339683Y-97686351D01*
X126353724Y-97682834D01*
X126368042Y-97680710D01*
X126382500Y-97680000D01*
X126677500Y-97680000D01*
X126691958Y-97680710D01*
X126691958Y-97680710D01*
G37*
D11*
X126530000Y-98000000D03*
G04 #@! TD*
D18*
G04 #@! TO.C,U1*
X145300000Y-94000000D03*
X145700000Y-94000000D03*
X146100000Y-94000000D03*
X146500000Y-94000000D03*
X146900000Y-94000000D03*
X147300000Y-94000000D03*
X147700000Y-94000000D03*
X148100000Y-94000000D03*
X148500000Y-94000000D03*
X148900000Y-94000000D03*
X149300000Y-94000000D03*
X149700000Y-94000000D03*
X150100000Y-94000000D03*
X150500000Y-94000000D03*
X150900000Y-94000000D03*
X151300000Y-94000000D03*
X151700000Y-94000000D03*
D19*
X152500000Y-93200000D03*
X152500000Y-92800000D03*
X152500000Y-92400000D03*
X152500000Y-92000000D03*
X152500000Y-91600000D03*
X152500000Y-91200000D03*
X152500000Y-90800000D03*
X152500000Y-90400000D03*
X152500000Y-90000000D03*
X152500000Y-89600000D03*
X152500000Y-89200000D03*
X152500000Y-88800000D03*
X152500000Y-88400000D03*
X152500000Y-88000000D03*
X152500000Y-87600000D03*
X152500000Y-87200000D03*
X152500000Y-86800000D03*
D18*
X151700000Y-86000000D03*
X151300000Y-86000000D03*
X150900000Y-86000000D03*
X150500000Y-86000000D03*
X150100000Y-86000000D03*
X149700000Y-86000000D03*
X149300000Y-86000000D03*
X148900000Y-86000000D03*
X148500000Y-86000000D03*
X148100000Y-86000000D03*
X147700000Y-86000000D03*
X147300000Y-86000000D03*
X146900000Y-86000000D03*
X146500000Y-86000000D03*
X146100000Y-86000000D03*
X145700000Y-86000000D03*
X145300000Y-86000000D03*
D19*
X144500000Y-86800000D03*
X144500000Y-87200000D03*
X144500000Y-87600000D03*
X144500000Y-88000000D03*
X144500000Y-88400000D03*
X144500000Y-88800000D03*
X144500000Y-89200000D03*
X144500000Y-89600000D03*
X144500000Y-90000000D03*
X144500000Y-90400000D03*
X144500000Y-90800000D03*
X144500000Y-91200000D03*
X144500000Y-91600000D03*
X144500000Y-92000000D03*
X144500000Y-92400000D03*
X144500000Y-92800000D03*
X144500000Y-93200000D03*
G04 #@! TD*
D20*
G04 #@! TO.C,U3*
X129325000Y-100750000D03*
X129975000Y-100750000D03*
X130625000Y-100750000D03*
X131275000Y-100750000D03*
X131275000Y-97650000D03*
X130625000Y-97650000D03*
X129975000Y-97650000D03*
X129325000Y-97650000D03*
D21*
X130900000Y-99587500D03*
X130900000Y-98812500D03*
X129700000Y-98812500D03*
X129700000Y-99587500D03*
G04 #@! TD*
D22*
G04 #@! TO.C,VR1*
X134690000Y-95850000D03*
X134690000Y-96800000D03*
X134690000Y-97750000D03*
X137310000Y-97750000D03*
X137310000Y-95850000D03*
G04 #@! TD*
G04 #@! TO.C,VR2*
X137310000Y-89650000D03*
X137310000Y-91550000D03*
X134690000Y-91550000D03*
X134690000Y-90600000D03*
X134690000Y-89650000D03*
G04 #@! TD*
D23*
G04 #@! TO.C,Y1*
X156000000Y-88375000D03*
X156000000Y-86625000D03*
G04 #@! TD*
D10*
G04 #@! TO.C,C25*
G36*
X125586958Y-99290710D02*
X125601276Y-99292834D01*
X125615317Y-99296351D01*
X125628946Y-99301228D01*
X125642031Y-99307417D01*
X125654447Y-99314858D01*
X125666073Y-99323481D01*
X125676798Y-99333202D01*
X125686519Y-99343927D01*
X125695142Y-99355553D01*
X125702583Y-99367969D01*
X125708772Y-99381054D01*
X125713649Y-99394683D01*
X125717166Y-99408724D01*
X125719290Y-99423042D01*
X125720000Y-99437500D01*
X125720000Y-99732500D01*
X125719290Y-99746958D01*
X125717166Y-99761276D01*
X125713649Y-99775317D01*
X125708772Y-99788946D01*
X125702583Y-99802031D01*
X125695142Y-99814447D01*
X125686519Y-99826073D01*
X125676798Y-99836798D01*
X125666073Y-99846519D01*
X125654447Y-99855142D01*
X125642031Y-99862583D01*
X125628946Y-99868772D01*
X125615317Y-99873649D01*
X125601276Y-99877166D01*
X125586958Y-99879290D01*
X125572500Y-99880000D01*
X125227500Y-99880000D01*
X125213042Y-99879290D01*
X125198724Y-99877166D01*
X125184683Y-99873649D01*
X125171054Y-99868772D01*
X125157969Y-99862583D01*
X125145553Y-99855142D01*
X125133927Y-99846519D01*
X125123202Y-99836798D01*
X125113481Y-99826073D01*
X125104858Y-99814447D01*
X125097417Y-99802031D01*
X125091228Y-99788946D01*
X125086351Y-99775317D01*
X125082834Y-99761276D01*
X125080710Y-99746958D01*
X125080000Y-99732500D01*
X125080000Y-99437500D01*
X125080710Y-99423042D01*
X125082834Y-99408724D01*
X125086351Y-99394683D01*
X125091228Y-99381054D01*
X125097417Y-99367969D01*
X125104858Y-99355553D01*
X125113481Y-99343927D01*
X125123202Y-99333202D01*
X125133927Y-99323481D01*
X125145553Y-99314858D01*
X125157969Y-99307417D01*
X125171054Y-99301228D01*
X125184683Y-99296351D01*
X125198724Y-99292834D01*
X125213042Y-99290710D01*
X125227500Y-99290000D01*
X125572500Y-99290000D01*
X125586958Y-99290710D01*
X125586958Y-99290710D01*
G37*
D11*
X125400000Y-99585000D03*
D10*
G36*
X125586958Y-98320710D02*
X125601276Y-98322834D01*
X125615317Y-98326351D01*
X125628946Y-98331228D01*
X125642031Y-98337417D01*
X125654447Y-98344858D01*
X125666073Y-98353481D01*
X125676798Y-98363202D01*
X125686519Y-98373927D01*
X125695142Y-98385553D01*
X125702583Y-98397969D01*
X125708772Y-98411054D01*
X125713649Y-98424683D01*
X125717166Y-98438724D01*
X125719290Y-98453042D01*
X125720000Y-98467500D01*
X125720000Y-98762500D01*
X125719290Y-98776958D01*
X125717166Y-98791276D01*
X125713649Y-98805317D01*
X125708772Y-98818946D01*
X125702583Y-98832031D01*
X125695142Y-98844447D01*
X125686519Y-98856073D01*
X125676798Y-98866798D01*
X125666073Y-98876519D01*
X125654447Y-98885142D01*
X125642031Y-98892583D01*
X125628946Y-98898772D01*
X125615317Y-98903649D01*
X125601276Y-98907166D01*
X125586958Y-98909290D01*
X125572500Y-98910000D01*
X125227500Y-98910000D01*
X125213042Y-98909290D01*
X125198724Y-98907166D01*
X125184683Y-98903649D01*
X125171054Y-98898772D01*
X125157969Y-98892583D01*
X125145553Y-98885142D01*
X125133927Y-98876519D01*
X125123202Y-98866798D01*
X125113481Y-98856073D01*
X125104858Y-98844447D01*
X125097417Y-98832031D01*
X125091228Y-98818946D01*
X125086351Y-98805317D01*
X125082834Y-98791276D01*
X125080710Y-98776958D01*
X125080000Y-98762500D01*
X125080000Y-98467500D01*
X125080710Y-98453042D01*
X125082834Y-98438724D01*
X125086351Y-98424683D01*
X125091228Y-98411054D01*
X125097417Y-98397969D01*
X125104858Y-98385553D01*
X125113481Y-98373927D01*
X125123202Y-98363202D01*
X125133927Y-98353481D01*
X125145553Y-98344858D01*
X125157969Y-98337417D01*
X125171054Y-98331228D01*
X125184683Y-98326351D01*
X125198724Y-98322834D01*
X125213042Y-98320710D01*
X125227500Y-98320000D01*
X125572500Y-98320000D01*
X125586958Y-98320710D01*
X125586958Y-98320710D01*
G37*
D11*
X125400000Y-98615000D03*
G04 #@! TD*
D10*
G04 #@! TO.C,C28*
G36*
X171777691Y-90638553D02*
X171798926Y-90641703D01*
X171819750Y-90646919D01*
X171839962Y-90654151D01*
X171859368Y-90663330D01*
X171877781Y-90674366D01*
X171895024Y-90687154D01*
X171910930Y-90701570D01*
X171925346Y-90717476D01*
X171938134Y-90734719D01*
X171949170Y-90753132D01*
X171958349Y-90772538D01*
X171965581Y-90792750D01*
X171970797Y-90813574D01*
X171973947Y-90834809D01*
X171975000Y-90856250D01*
X171975000Y-91293750D01*
X171973947Y-91315191D01*
X171970797Y-91336426D01*
X171965581Y-91357250D01*
X171958349Y-91377462D01*
X171949170Y-91396868D01*
X171938134Y-91415281D01*
X171925346Y-91432524D01*
X171910930Y-91448430D01*
X171895024Y-91462846D01*
X171877781Y-91475634D01*
X171859368Y-91486670D01*
X171839962Y-91495849D01*
X171819750Y-91503081D01*
X171798926Y-91508297D01*
X171777691Y-91511447D01*
X171756250Y-91512500D01*
X171243750Y-91512500D01*
X171222309Y-91511447D01*
X171201074Y-91508297D01*
X171180250Y-91503081D01*
X171160038Y-91495849D01*
X171140632Y-91486670D01*
X171122219Y-91475634D01*
X171104976Y-91462846D01*
X171089070Y-91448430D01*
X171074654Y-91432524D01*
X171061866Y-91415281D01*
X171050830Y-91396868D01*
X171041651Y-91377462D01*
X171034419Y-91357250D01*
X171029203Y-91336426D01*
X171026053Y-91315191D01*
X171025000Y-91293750D01*
X171025000Y-90856250D01*
X171026053Y-90834809D01*
X171029203Y-90813574D01*
X171034419Y-90792750D01*
X171041651Y-90772538D01*
X171050830Y-90753132D01*
X171061866Y-90734719D01*
X171074654Y-90717476D01*
X171089070Y-90701570D01*
X171104976Y-90687154D01*
X171122219Y-90674366D01*
X171140632Y-90663330D01*
X171160038Y-90654151D01*
X171180250Y-90646919D01*
X171201074Y-90641703D01*
X171222309Y-90638553D01*
X171243750Y-90637500D01*
X171756250Y-90637500D01*
X171777691Y-90638553D01*
X171777691Y-90638553D01*
G37*
D13*
X171500000Y-91075000D03*
D10*
G36*
X171777691Y-89063553D02*
X171798926Y-89066703D01*
X171819750Y-89071919D01*
X171839962Y-89079151D01*
X171859368Y-89088330D01*
X171877781Y-89099366D01*
X171895024Y-89112154D01*
X171910930Y-89126570D01*
X171925346Y-89142476D01*
X171938134Y-89159719D01*
X171949170Y-89178132D01*
X171958349Y-89197538D01*
X171965581Y-89217750D01*
X171970797Y-89238574D01*
X171973947Y-89259809D01*
X171975000Y-89281250D01*
X171975000Y-89718750D01*
X171973947Y-89740191D01*
X171970797Y-89761426D01*
X171965581Y-89782250D01*
X171958349Y-89802462D01*
X171949170Y-89821868D01*
X171938134Y-89840281D01*
X171925346Y-89857524D01*
X171910930Y-89873430D01*
X171895024Y-89887846D01*
X171877781Y-89900634D01*
X171859368Y-89911670D01*
X171839962Y-89920849D01*
X171819750Y-89928081D01*
X171798926Y-89933297D01*
X171777691Y-89936447D01*
X171756250Y-89937500D01*
X171243750Y-89937500D01*
X171222309Y-89936447D01*
X171201074Y-89933297D01*
X171180250Y-89928081D01*
X171160038Y-89920849D01*
X171140632Y-89911670D01*
X171122219Y-89900634D01*
X171104976Y-89887846D01*
X171089070Y-89873430D01*
X171074654Y-89857524D01*
X171061866Y-89840281D01*
X171050830Y-89821868D01*
X171041651Y-89802462D01*
X171034419Y-89782250D01*
X171029203Y-89761426D01*
X171026053Y-89740191D01*
X171025000Y-89718750D01*
X171025000Y-89281250D01*
X171026053Y-89259809D01*
X171029203Y-89238574D01*
X171034419Y-89217750D01*
X171041651Y-89197538D01*
X171050830Y-89178132D01*
X171061866Y-89159719D01*
X171074654Y-89142476D01*
X171089070Y-89126570D01*
X171104976Y-89112154D01*
X171122219Y-89099366D01*
X171140632Y-89088330D01*
X171160038Y-89079151D01*
X171180250Y-89071919D01*
X171201074Y-89066703D01*
X171222309Y-89063553D01*
X171243750Y-89062500D01*
X171756250Y-89062500D01*
X171777691Y-89063553D01*
X171777691Y-89063553D01*
G37*
D13*
X171500000Y-89500000D03*
G04 #@! TD*
D10*
G04 #@! TO.C,C29*
G36*
X170186958Y-89220710D02*
X170201276Y-89222834D01*
X170215317Y-89226351D01*
X170228946Y-89231228D01*
X170242031Y-89237417D01*
X170254447Y-89244858D01*
X170266073Y-89253481D01*
X170276798Y-89263202D01*
X170286519Y-89273927D01*
X170295142Y-89285553D01*
X170302583Y-89297969D01*
X170308772Y-89311054D01*
X170313649Y-89324683D01*
X170317166Y-89338724D01*
X170319290Y-89353042D01*
X170320000Y-89367500D01*
X170320000Y-89662500D01*
X170319290Y-89676958D01*
X170317166Y-89691276D01*
X170313649Y-89705317D01*
X170308772Y-89718946D01*
X170302583Y-89732031D01*
X170295142Y-89744447D01*
X170286519Y-89756073D01*
X170276798Y-89766798D01*
X170266073Y-89776519D01*
X170254447Y-89785142D01*
X170242031Y-89792583D01*
X170228946Y-89798772D01*
X170215317Y-89803649D01*
X170201276Y-89807166D01*
X170186958Y-89809290D01*
X170172500Y-89810000D01*
X169827500Y-89810000D01*
X169813042Y-89809290D01*
X169798724Y-89807166D01*
X169784683Y-89803649D01*
X169771054Y-89798772D01*
X169757969Y-89792583D01*
X169745553Y-89785142D01*
X169733927Y-89776519D01*
X169723202Y-89766798D01*
X169713481Y-89756073D01*
X169704858Y-89744447D01*
X169697417Y-89732031D01*
X169691228Y-89718946D01*
X169686351Y-89705317D01*
X169682834Y-89691276D01*
X169680710Y-89676958D01*
X169680000Y-89662500D01*
X169680000Y-89367500D01*
X169680710Y-89353042D01*
X169682834Y-89338724D01*
X169686351Y-89324683D01*
X169691228Y-89311054D01*
X169697417Y-89297969D01*
X169704858Y-89285553D01*
X169713481Y-89273927D01*
X169723202Y-89263202D01*
X169733927Y-89253481D01*
X169745553Y-89244858D01*
X169757969Y-89237417D01*
X169771054Y-89231228D01*
X169784683Y-89226351D01*
X169798724Y-89222834D01*
X169813042Y-89220710D01*
X169827500Y-89220000D01*
X170172500Y-89220000D01*
X170186958Y-89220710D01*
X170186958Y-89220710D01*
G37*
D11*
X170000000Y-89515000D03*
D10*
G36*
X170186958Y-90190710D02*
X170201276Y-90192834D01*
X170215317Y-90196351D01*
X170228946Y-90201228D01*
X170242031Y-90207417D01*
X170254447Y-90214858D01*
X170266073Y-90223481D01*
X170276798Y-90233202D01*
X170286519Y-90243927D01*
X170295142Y-90255553D01*
X170302583Y-90267969D01*
X170308772Y-90281054D01*
X170313649Y-90294683D01*
X170317166Y-90308724D01*
X170319290Y-90323042D01*
X170320000Y-90337500D01*
X170320000Y-90632500D01*
X170319290Y-90646958D01*
X170317166Y-90661276D01*
X170313649Y-90675317D01*
X170308772Y-90688946D01*
X170302583Y-90702031D01*
X170295142Y-90714447D01*
X170286519Y-90726073D01*
X170276798Y-90736798D01*
X170266073Y-90746519D01*
X170254447Y-90755142D01*
X170242031Y-90762583D01*
X170228946Y-90768772D01*
X170215317Y-90773649D01*
X170201276Y-90777166D01*
X170186958Y-90779290D01*
X170172500Y-90780000D01*
X169827500Y-90780000D01*
X169813042Y-90779290D01*
X169798724Y-90777166D01*
X169784683Y-90773649D01*
X169771054Y-90768772D01*
X169757969Y-90762583D01*
X169745553Y-90755142D01*
X169733927Y-90746519D01*
X169723202Y-90736798D01*
X169713481Y-90726073D01*
X169704858Y-90714447D01*
X169697417Y-90702031D01*
X169691228Y-90688946D01*
X169686351Y-90675317D01*
X169682834Y-90661276D01*
X169680710Y-90646958D01*
X169680000Y-90632500D01*
X169680000Y-90337500D01*
X169680710Y-90323042D01*
X169682834Y-90308724D01*
X169686351Y-90294683D01*
X169691228Y-90281054D01*
X169697417Y-90267969D01*
X169704858Y-90255553D01*
X169713481Y-90243927D01*
X169723202Y-90233202D01*
X169733927Y-90223481D01*
X169745553Y-90214858D01*
X169757969Y-90207417D01*
X169771054Y-90201228D01*
X169784683Y-90196351D01*
X169798724Y-90192834D01*
X169813042Y-90190710D01*
X169827500Y-90190000D01*
X170172500Y-90190000D01*
X170186958Y-90190710D01*
X170186958Y-90190710D01*
G37*
D11*
X170000000Y-90485000D03*
G04 #@! TD*
D10*
G04 #@! TO.C,R13*
G36*
X164161958Y-86180710D02*
X164176276Y-86182834D01*
X164190317Y-86186351D01*
X164203946Y-86191228D01*
X164217031Y-86197417D01*
X164229447Y-86204858D01*
X164241073Y-86213481D01*
X164251798Y-86223202D01*
X164261519Y-86233927D01*
X164270142Y-86245553D01*
X164277583Y-86257969D01*
X164283772Y-86271054D01*
X164288649Y-86284683D01*
X164292166Y-86298724D01*
X164294290Y-86313042D01*
X164295000Y-86327500D01*
X164295000Y-86672500D01*
X164294290Y-86686958D01*
X164292166Y-86701276D01*
X164288649Y-86715317D01*
X164283772Y-86728946D01*
X164277583Y-86742031D01*
X164270142Y-86754447D01*
X164261519Y-86766073D01*
X164251798Y-86776798D01*
X164241073Y-86786519D01*
X164229447Y-86795142D01*
X164217031Y-86802583D01*
X164203946Y-86808772D01*
X164190317Y-86813649D01*
X164176276Y-86817166D01*
X164161958Y-86819290D01*
X164147500Y-86820000D01*
X163852500Y-86820000D01*
X163838042Y-86819290D01*
X163823724Y-86817166D01*
X163809683Y-86813649D01*
X163796054Y-86808772D01*
X163782969Y-86802583D01*
X163770553Y-86795142D01*
X163758927Y-86786519D01*
X163748202Y-86776798D01*
X163738481Y-86766073D01*
X163729858Y-86754447D01*
X163722417Y-86742031D01*
X163716228Y-86728946D01*
X163711351Y-86715317D01*
X163707834Y-86701276D01*
X163705710Y-86686958D01*
X163705000Y-86672500D01*
X163705000Y-86327500D01*
X163705710Y-86313042D01*
X163707834Y-86298724D01*
X163711351Y-86284683D01*
X163716228Y-86271054D01*
X163722417Y-86257969D01*
X163729858Y-86245553D01*
X163738481Y-86233927D01*
X163748202Y-86223202D01*
X163758927Y-86213481D01*
X163770553Y-86204858D01*
X163782969Y-86197417D01*
X163796054Y-86191228D01*
X163809683Y-86186351D01*
X163823724Y-86182834D01*
X163838042Y-86180710D01*
X163852500Y-86180000D01*
X164147500Y-86180000D01*
X164161958Y-86180710D01*
X164161958Y-86180710D01*
G37*
D11*
X164000000Y-86500000D03*
D10*
G36*
X163191958Y-86180710D02*
X163206276Y-86182834D01*
X163220317Y-86186351D01*
X163233946Y-86191228D01*
X163247031Y-86197417D01*
X163259447Y-86204858D01*
X163271073Y-86213481D01*
X163281798Y-86223202D01*
X163291519Y-86233927D01*
X163300142Y-86245553D01*
X163307583Y-86257969D01*
X163313772Y-86271054D01*
X163318649Y-86284683D01*
X163322166Y-86298724D01*
X163324290Y-86313042D01*
X163325000Y-86327500D01*
X163325000Y-86672500D01*
X163324290Y-86686958D01*
X163322166Y-86701276D01*
X163318649Y-86715317D01*
X163313772Y-86728946D01*
X163307583Y-86742031D01*
X163300142Y-86754447D01*
X163291519Y-86766073D01*
X163281798Y-86776798D01*
X163271073Y-86786519D01*
X163259447Y-86795142D01*
X163247031Y-86802583D01*
X163233946Y-86808772D01*
X163220317Y-86813649D01*
X163206276Y-86817166D01*
X163191958Y-86819290D01*
X163177500Y-86820000D01*
X162882500Y-86820000D01*
X162868042Y-86819290D01*
X162853724Y-86817166D01*
X162839683Y-86813649D01*
X162826054Y-86808772D01*
X162812969Y-86802583D01*
X162800553Y-86795142D01*
X162788927Y-86786519D01*
X162778202Y-86776798D01*
X162768481Y-86766073D01*
X162759858Y-86754447D01*
X162752417Y-86742031D01*
X162746228Y-86728946D01*
X162741351Y-86715317D01*
X162737834Y-86701276D01*
X162735710Y-86686958D01*
X162735000Y-86672500D01*
X162735000Y-86327500D01*
X162735710Y-86313042D01*
X162737834Y-86298724D01*
X162741351Y-86284683D01*
X162746228Y-86271054D01*
X162752417Y-86257969D01*
X162759858Y-86245553D01*
X162768481Y-86233927D01*
X162778202Y-86223202D01*
X162788927Y-86213481D01*
X162800553Y-86204858D01*
X162812969Y-86197417D01*
X162826054Y-86191228D01*
X162839683Y-86186351D01*
X162853724Y-86182834D01*
X162868042Y-86180710D01*
X162882500Y-86180000D01*
X163177500Y-86180000D01*
X163191958Y-86180710D01*
X163191958Y-86180710D01*
G37*
D11*
X163030000Y-86500000D03*
G04 #@! TD*
D10*
G04 #@! TO.C,R14*
G36*
X163191958Y-88180710D02*
X163206276Y-88182834D01*
X163220317Y-88186351D01*
X163233946Y-88191228D01*
X163247031Y-88197417D01*
X163259447Y-88204858D01*
X163271073Y-88213481D01*
X163281798Y-88223202D01*
X163291519Y-88233927D01*
X163300142Y-88245553D01*
X163307583Y-88257969D01*
X163313772Y-88271054D01*
X163318649Y-88284683D01*
X163322166Y-88298724D01*
X163324290Y-88313042D01*
X163325000Y-88327500D01*
X163325000Y-88672500D01*
X163324290Y-88686958D01*
X163322166Y-88701276D01*
X163318649Y-88715317D01*
X163313772Y-88728946D01*
X163307583Y-88742031D01*
X163300142Y-88754447D01*
X163291519Y-88766073D01*
X163281798Y-88776798D01*
X163271073Y-88786519D01*
X163259447Y-88795142D01*
X163247031Y-88802583D01*
X163233946Y-88808772D01*
X163220317Y-88813649D01*
X163206276Y-88817166D01*
X163191958Y-88819290D01*
X163177500Y-88820000D01*
X162882500Y-88820000D01*
X162868042Y-88819290D01*
X162853724Y-88817166D01*
X162839683Y-88813649D01*
X162826054Y-88808772D01*
X162812969Y-88802583D01*
X162800553Y-88795142D01*
X162788927Y-88786519D01*
X162778202Y-88776798D01*
X162768481Y-88766073D01*
X162759858Y-88754447D01*
X162752417Y-88742031D01*
X162746228Y-88728946D01*
X162741351Y-88715317D01*
X162737834Y-88701276D01*
X162735710Y-88686958D01*
X162735000Y-88672500D01*
X162735000Y-88327500D01*
X162735710Y-88313042D01*
X162737834Y-88298724D01*
X162741351Y-88284683D01*
X162746228Y-88271054D01*
X162752417Y-88257969D01*
X162759858Y-88245553D01*
X162768481Y-88233927D01*
X162778202Y-88223202D01*
X162788927Y-88213481D01*
X162800553Y-88204858D01*
X162812969Y-88197417D01*
X162826054Y-88191228D01*
X162839683Y-88186351D01*
X162853724Y-88182834D01*
X162868042Y-88180710D01*
X162882500Y-88180000D01*
X163177500Y-88180000D01*
X163191958Y-88180710D01*
X163191958Y-88180710D01*
G37*
D11*
X163030000Y-88500000D03*
D10*
G36*
X164161958Y-88180710D02*
X164176276Y-88182834D01*
X164190317Y-88186351D01*
X164203946Y-88191228D01*
X164217031Y-88197417D01*
X164229447Y-88204858D01*
X164241073Y-88213481D01*
X164251798Y-88223202D01*
X164261519Y-88233927D01*
X164270142Y-88245553D01*
X164277583Y-88257969D01*
X164283772Y-88271054D01*
X164288649Y-88284683D01*
X164292166Y-88298724D01*
X164294290Y-88313042D01*
X164295000Y-88327500D01*
X164295000Y-88672500D01*
X164294290Y-88686958D01*
X164292166Y-88701276D01*
X164288649Y-88715317D01*
X164283772Y-88728946D01*
X164277583Y-88742031D01*
X164270142Y-88754447D01*
X164261519Y-88766073D01*
X164251798Y-88776798D01*
X164241073Y-88786519D01*
X164229447Y-88795142D01*
X164217031Y-88802583D01*
X164203946Y-88808772D01*
X164190317Y-88813649D01*
X164176276Y-88817166D01*
X164161958Y-88819290D01*
X164147500Y-88820000D01*
X163852500Y-88820000D01*
X163838042Y-88819290D01*
X163823724Y-88817166D01*
X163809683Y-88813649D01*
X163796054Y-88808772D01*
X163782969Y-88802583D01*
X163770553Y-88795142D01*
X163758927Y-88786519D01*
X163748202Y-88776798D01*
X163738481Y-88766073D01*
X163729858Y-88754447D01*
X163722417Y-88742031D01*
X163716228Y-88728946D01*
X163711351Y-88715317D01*
X163707834Y-88701276D01*
X163705710Y-88686958D01*
X163705000Y-88672500D01*
X163705000Y-88327500D01*
X163705710Y-88313042D01*
X163707834Y-88298724D01*
X163711351Y-88284683D01*
X163716228Y-88271054D01*
X163722417Y-88257969D01*
X163729858Y-88245553D01*
X163738481Y-88233927D01*
X163748202Y-88223202D01*
X163758927Y-88213481D01*
X163770553Y-88204858D01*
X163782969Y-88197417D01*
X163796054Y-88191228D01*
X163809683Y-88186351D01*
X163823724Y-88182834D01*
X163838042Y-88180710D01*
X163852500Y-88180000D01*
X164147500Y-88180000D01*
X164161958Y-88180710D01*
X164161958Y-88180710D01*
G37*
D11*
X164000000Y-88500000D03*
G04 #@! TD*
D10*
G04 #@! TO.C,R15*
G36*
X164146958Y-90180710D02*
X164161276Y-90182834D01*
X164175317Y-90186351D01*
X164188946Y-90191228D01*
X164202031Y-90197417D01*
X164214447Y-90204858D01*
X164226073Y-90213481D01*
X164236798Y-90223202D01*
X164246519Y-90233927D01*
X164255142Y-90245553D01*
X164262583Y-90257969D01*
X164268772Y-90271054D01*
X164273649Y-90284683D01*
X164277166Y-90298724D01*
X164279290Y-90313042D01*
X164280000Y-90327500D01*
X164280000Y-90672500D01*
X164279290Y-90686958D01*
X164277166Y-90701276D01*
X164273649Y-90715317D01*
X164268772Y-90728946D01*
X164262583Y-90742031D01*
X164255142Y-90754447D01*
X164246519Y-90766073D01*
X164236798Y-90776798D01*
X164226073Y-90786519D01*
X164214447Y-90795142D01*
X164202031Y-90802583D01*
X164188946Y-90808772D01*
X164175317Y-90813649D01*
X164161276Y-90817166D01*
X164146958Y-90819290D01*
X164132500Y-90820000D01*
X163837500Y-90820000D01*
X163823042Y-90819290D01*
X163808724Y-90817166D01*
X163794683Y-90813649D01*
X163781054Y-90808772D01*
X163767969Y-90802583D01*
X163755553Y-90795142D01*
X163743927Y-90786519D01*
X163733202Y-90776798D01*
X163723481Y-90766073D01*
X163714858Y-90754447D01*
X163707417Y-90742031D01*
X163701228Y-90728946D01*
X163696351Y-90715317D01*
X163692834Y-90701276D01*
X163690710Y-90686958D01*
X163690000Y-90672500D01*
X163690000Y-90327500D01*
X163690710Y-90313042D01*
X163692834Y-90298724D01*
X163696351Y-90284683D01*
X163701228Y-90271054D01*
X163707417Y-90257969D01*
X163714858Y-90245553D01*
X163723481Y-90233927D01*
X163733202Y-90223202D01*
X163743927Y-90213481D01*
X163755553Y-90204858D01*
X163767969Y-90197417D01*
X163781054Y-90191228D01*
X163794683Y-90186351D01*
X163808724Y-90182834D01*
X163823042Y-90180710D01*
X163837500Y-90180000D01*
X164132500Y-90180000D01*
X164146958Y-90180710D01*
X164146958Y-90180710D01*
G37*
D11*
X163985000Y-90500000D03*
D10*
G36*
X163176958Y-90180710D02*
X163191276Y-90182834D01*
X163205317Y-90186351D01*
X163218946Y-90191228D01*
X163232031Y-90197417D01*
X163244447Y-90204858D01*
X163256073Y-90213481D01*
X163266798Y-90223202D01*
X163276519Y-90233927D01*
X163285142Y-90245553D01*
X163292583Y-90257969D01*
X163298772Y-90271054D01*
X163303649Y-90284683D01*
X163307166Y-90298724D01*
X163309290Y-90313042D01*
X163310000Y-90327500D01*
X163310000Y-90672500D01*
X163309290Y-90686958D01*
X163307166Y-90701276D01*
X163303649Y-90715317D01*
X163298772Y-90728946D01*
X163292583Y-90742031D01*
X163285142Y-90754447D01*
X163276519Y-90766073D01*
X163266798Y-90776798D01*
X163256073Y-90786519D01*
X163244447Y-90795142D01*
X163232031Y-90802583D01*
X163218946Y-90808772D01*
X163205317Y-90813649D01*
X163191276Y-90817166D01*
X163176958Y-90819290D01*
X163162500Y-90820000D01*
X162867500Y-90820000D01*
X162853042Y-90819290D01*
X162838724Y-90817166D01*
X162824683Y-90813649D01*
X162811054Y-90808772D01*
X162797969Y-90802583D01*
X162785553Y-90795142D01*
X162773927Y-90786519D01*
X162763202Y-90776798D01*
X162753481Y-90766073D01*
X162744858Y-90754447D01*
X162737417Y-90742031D01*
X162731228Y-90728946D01*
X162726351Y-90715317D01*
X162722834Y-90701276D01*
X162720710Y-90686958D01*
X162720000Y-90672500D01*
X162720000Y-90327500D01*
X162720710Y-90313042D01*
X162722834Y-90298724D01*
X162726351Y-90284683D01*
X162731228Y-90271054D01*
X162737417Y-90257969D01*
X162744858Y-90245553D01*
X162753481Y-90233927D01*
X162763202Y-90223202D01*
X162773927Y-90213481D01*
X162785553Y-90204858D01*
X162797969Y-90197417D01*
X162811054Y-90191228D01*
X162824683Y-90186351D01*
X162838724Y-90182834D01*
X162853042Y-90180710D01*
X162867500Y-90180000D01*
X163162500Y-90180000D01*
X163176958Y-90180710D01*
X163176958Y-90180710D01*
G37*
D11*
X163015000Y-90500000D03*
G04 #@! TD*
D24*
G04 #@! TO.C,U2*
X136000000Y-81405000D03*
X144000000Y-80135000D03*
X144000000Y-78865000D03*
X136000000Y-78865000D03*
X144000000Y-81405000D03*
X144000000Y-77595000D03*
D25*
X140000000Y-79500000D03*
D24*
X136000000Y-80135000D03*
X136000000Y-77595000D03*
G04 #@! TD*
M02*
