G04 #@! TF.GenerationSoftware,KiCad,Pcbnew,(5.0.2)-1*
G04 #@! TF.CreationDate,2019-10-12T14:48:09+09:00*
G04 #@! TF.ProjectId,Barometer,4261726f-6d65-4746-9572-2e6b69636164,rev?*
G04 #@! TF.SameCoordinates,Original*
G04 #@! TF.FileFunction,Legend,Top*
G04 #@! TF.FilePolarity,Positive*
%FSLAX46Y46*%
G04 Gerber Fmt 4.6, Leading zero omitted, Abs format (unit mm)*
G04 Created by KiCad (PCBNEW (5.0.2)-1) date 2019/10/12 14:48:09*
%MOMM*%
%LPD*%
G01*
G04 APERTURE LIST*
%ADD10C,0.200000*%
%ADD11C,0.120000*%
%ADD12C,0.150000*%
%ADD13C,0.010000*%
G04 APERTURE END LIST*
D10*
X161250000Y-96000000D02*
X175250000Y-96000000D01*
X161250000Y-84000000D02*
X161250000Y-96000000D01*
X167250000Y-84000000D02*
X159250000Y-84000000D01*
X167250000Y-84000000D02*
X175250000Y-84000000D01*
X169486068Y-80000000D02*
G75*
G03X169486068Y-80000000I-2236068J0D01*
G01*
X159250000Y-76000000D02*
X167500000Y-76000000D01*
X159250000Y-98000000D02*
X159250000Y-76000000D01*
X175250000Y-98000000D02*
X159250000Y-98000000D01*
X175250000Y-76000000D02*
X175250000Y-98000000D01*
X167250000Y-76000000D02*
X175250000Y-76000000D01*
D11*
G04 #@! TO.C,U4*
X168610000Y-91060000D02*
X168610000Y-91360000D01*
X168610000Y-91360000D02*
X168010000Y-91360000D01*
X165890000Y-88940000D02*
X165890000Y-88640000D01*
X165890000Y-88640000D02*
X166490000Y-88640000D01*
X165890000Y-91060000D02*
X165890000Y-91360000D01*
X165890000Y-91360000D02*
X166490000Y-91360000D01*
X168610000Y-88940000D02*
X168610000Y-88640000D01*
G04 #@! TO.C,D1*
X139015000Y-101950000D02*
X139015000Y-104235000D01*
X139015000Y-104235000D02*
X140485000Y-104235000D01*
X140485000Y-104235000D02*
X140485000Y-101950000D01*
G04 #@! TO.C,D2*
X137015000Y-101950000D02*
X137015000Y-104235000D01*
X137015000Y-104235000D02*
X138485000Y-104235000D01*
X138485000Y-104235000D02*
X138485000Y-101950000D01*
G04 #@! TO.C,D3*
X136485000Y-104235000D02*
X136485000Y-101950000D01*
X135015000Y-104235000D02*
X136485000Y-104235000D01*
X135015000Y-101950000D02*
X135015000Y-104235000D01*
G04 #@! TO.C,D4*
X134200000Y-93000000D02*
X137250000Y-93000000D01*
X134200000Y-94600000D02*
X134200000Y-93000000D01*
X137250000Y-94600000D02*
X134200000Y-94600000D01*
G04 #@! TO.C,D5*
X137250000Y-88400000D02*
X134200000Y-88400000D01*
X134200000Y-88400000D02*
X134200000Y-86800000D01*
X134200000Y-86800000D02*
X137250000Y-86800000D01*
D12*
G04 #@! TO.C,J2*
X142500000Y-104700000D02*
X142500000Y-98700000D01*
X157500000Y-104700000D02*
X157000000Y-104700000D01*
X157500000Y-98700000D02*
X157500000Y-104700000D01*
X157000000Y-98700000D02*
X157500000Y-98700000D01*
X143400000Y-102000000D02*
X143400000Y-99600000D01*
X143400000Y-102000000D02*
X143400000Y-103700000D01*
X156600000Y-102000000D02*
X156600000Y-99600000D01*
X156600000Y-102000000D02*
X156600000Y-103700000D01*
X154100000Y-103700000D02*
X143400000Y-103700000D01*
X143400000Y-99600000D02*
X154100000Y-99600000D01*
X156100000Y-98700000D02*
X156100000Y-99600000D01*
X156100000Y-103700000D02*
X156100000Y-104700000D01*
X157000000Y-104700000D02*
X156100000Y-104700000D01*
X143900000Y-99600000D02*
X143900000Y-98700000D01*
X143900000Y-104700000D02*
X142500000Y-104700000D01*
X143900000Y-103700000D02*
X143900000Y-104700000D01*
X143900000Y-98700000D02*
X142500000Y-98700000D01*
X157000000Y-98700000D02*
X156100000Y-98700000D01*
X145200000Y-99000000D02*
X145200000Y-99600000D01*
X144500000Y-99000000D02*
X145200000Y-99000000D01*
X144500000Y-99600000D02*
X144500000Y-99000000D01*
X154800000Y-99000000D02*
X154800000Y-99600000D01*
X155500000Y-99000000D02*
X154800000Y-99000000D01*
X155500000Y-99600000D02*
X155500000Y-99000000D01*
X152300000Y-99200000D02*
X145200000Y-99200000D01*
X156600000Y-99600000D02*
X154100000Y-99600000D01*
X152300000Y-99200000D02*
X154800000Y-99200000D01*
X156600000Y-103700000D02*
X154100000Y-103700000D01*
D11*
G04 #@! TO.C,J3*
X163800000Y-101150000D02*
X163800000Y-99350000D01*
X163800000Y-99350000D02*
X164650000Y-99350000D01*
X171700000Y-101150000D02*
X171700000Y-99400000D01*
X171700000Y-99400000D02*
X171700000Y-99350000D01*
X171700000Y-99350000D02*
X170800000Y-99350000D01*
X163800000Y-103300000D02*
X163800000Y-104500000D01*
X166450000Y-98750000D02*
X166250000Y-98550000D01*
X166250000Y-98550000D02*
X166650000Y-98550000D01*
X166650000Y-98550000D02*
X166450000Y-98750000D01*
X171700000Y-103300000D02*
X171700000Y-104500000D01*
X164650000Y-99350000D02*
X164650000Y-98500000D01*
X164650000Y-98500000D02*
X166050000Y-98500000D01*
X170800000Y-99350000D02*
X170800000Y-98500000D01*
X170800000Y-98500000D02*
X169450000Y-98500000D01*
G04 #@! TO.C,J4*
X119840000Y-90000000D02*
X119840000Y-83690000D01*
X119840000Y-83690000D02*
X131560000Y-83690000D01*
X131560000Y-83690000D02*
X131560000Y-85110000D01*
X131560000Y-85110000D02*
X127060000Y-85110000D01*
X127060000Y-85110000D02*
X127060000Y-90000000D01*
X119840000Y-90000000D02*
X119840000Y-96310000D01*
X119840000Y-96310000D02*
X131560000Y-96310000D01*
X131560000Y-96310000D02*
X131560000Y-94890000D01*
X131560000Y-94890000D02*
X127060000Y-94890000D01*
X127060000Y-94890000D02*
X127060000Y-90000000D01*
X125950000Y-86000000D02*
X120450000Y-86000000D01*
X120450000Y-86000000D02*
X120450000Y-86500000D01*
X120450000Y-86500000D02*
X125950000Y-86500000D01*
X125950000Y-86500000D02*
X125950000Y-86000000D01*
X125950000Y-88500000D02*
X120450000Y-88500000D01*
X120450000Y-88500000D02*
X120450000Y-89000000D01*
X120450000Y-89000000D02*
X125950000Y-89000000D01*
X125950000Y-89000000D02*
X125950000Y-88500000D01*
X125950000Y-91000000D02*
X120450000Y-91000000D01*
X120450000Y-91000000D02*
X120450000Y-91500000D01*
X120450000Y-91500000D02*
X125950000Y-91500000D01*
X125950000Y-91500000D02*
X125950000Y-91000000D01*
X125950000Y-93500000D02*
X120450000Y-93500000D01*
X120450000Y-93500000D02*
X120450000Y-94000000D01*
X120450000Y-94000000D02*
X125950000Y-94000000D01*
X125950000Y-94000000D02*
X125950000Y-93500000D01*
X130650000Y-86250000D02*
X131250000Y-85950000D01*
X131250000Y-85950000D02*
X131250000Y-86550000D01*
X131250000Y-86550000D02*
X130650000Y-86250000D01*
G04 #@! TO.C,U1*
X144350000Y-86400000D02*
X144350000Y-85850000D01*
X144350000Y-85850000D02*
X144900000Y-85850000D01*
X152650000Y-86400000D02*
X152650000Y-85850000D01*
X152650000Y-85850000D02*
X152100000Y-85850000D01*
X152650000Y-93600000D02*
X152650000Y-94150000D01*
X152650000Y-94150000D02*
X152100000Y-94150000D01*
X144350000Y-93600000D02*
X144350000Y-94400000D01*
G04 #@! TO.C,U3*
X128890000Y-100760000D02*
X128890000Y-101020000D01*
X131860000Y-97640000D02*
X131710000Y-97640000D01*
X131860000Y-100760000D02*
X131860000Y-97640000D01*
X128740000Y-100760000D02*
X128740000Y-97640000D01*
X131860000Y-100760000D02*
X131710000Y-100760000D01*
X128740000Y-100760000D02*
X128890000Y-100760000D01*
X128740000Y-97640000D02*
X128890000Y-97640000D01*
G04 #@! TO.C,VR1*
X135120000Y-98360000D02*
X136880000Y-98360000D01*
X136880000Y-95290000D02*
X134450000Y-95290000D01*
G04 #@! TO.C,VR2*
X136880000Y-89090000D02*
X134450000Y-89090000D01*
X135120000Y-92160000D02*
X136880000Y-92160000D01*
D12*
G04 #@! TO.C,Y1*
X154850000Y-87375000D02*
X154850000Y-87625000D01*
X157150000Y-87375000D02*
X157150000Y-87625000D01*
D11*
G04 #@! TO.C,C28*
X170990000Y-90450279D02*
X170990000Y-90124721D01*
X172010000Y-90450279D02*
X172010000Y-90124721D01*
D12*
G04 #@! TO.C,U2*
X136000000Y-76500000D02*
X136000000Y-82500000D01*
X144000000Y-82500000D02*
X144000000Y-79500000D01*
X144000000Y-79500000D02*
X144000000Y-76500000D01*
X144000000Y-76500000D02*
X136000000Y-76500000D01*
X136000000Y-82500000D02*
X144000000Y-82500000D01*
D13*
G04 #@! TO.C,REF\002A\002A*
G36*
X155555814Y-76968931D02*
X155639635Y-77413555D01*
X155948920Y-77541053D01*
X156258206Y-77668551D01*
X156629246Y-77416246D01*
X156733157Y-77345996D01*
X156827087Y-77283272D01*
X156906652Y-77230938D01*
X156967470Y-77191857D01*
X157005157Y-77168893D01*
X157015421Y-77163942D01*
X157033910Y-77176676D01*
X157073420Y-77211882D01*
X157129522Y-77265062D01*
X157197787Y-77331718D01*
X157273786Y-77407354D01*
X157353092Y-77487472D01*
X157431275Y-77567574D01*
X157503907Y-77643164D01*
X157566559Y-77709745D01*
X157614803Y-77762818D01*
X157644210Y-77797887D01*
X157651241Y-77809623D01*
X157641123Y-77831260D01*
X157612759Y-77878662D01*
X157569129Y-77947193D01*
X157513218Y-78032215D01*
X157448006Y-78129093D01*
X157410219Y-78184350D01*
X157341343Y-78285248D01*
X157280140Y-78376299D01*
X157229578Y-78452970D01*
X157192628Y-78510728D01*
X157172258Y-78545043D01*
X157169197Y-78552254D01*
X157176136Y-78572748D01*
X157195051Y-78620513D01*
X157223087Y-78688832D01*
X157257391Y-78770989D01*
X157295109Y-78860270D01*
X157333387Y-78949958D01*
X157369370Y-79033338D01*
X157400206Y-79103694D01*
X157423039Y-79154310D01*
X157435017Y-79178471D01*
X157435724Y-79179422D01*
X157454531Y-79184036D01*
X157504618Y-79194328D01*
X157580793Y-79209287D01*
X157677865Y-79227901D01*
X157790643Y-79249159D01*
X157856442Y-79261418D01*
X157976950Y-79284362D01*
X158085797Y-79306195D01*
X158177476Y-79325722D01*
X158246481Y-79341748D01*
X158287304Y-79353079D01*
X158295511Y-79356674D01*
X158303548Y-79381006D01*
X158310033Y-79435959D01*
X158314970Y-79515108D01*
X158318364Y-79612026D01*
X158320218Y-79720287D01*
X158320538Y-79833465D01*
X158319327Y-79945135D01*
X158316590Y-80048868D01*
X158312331Y-80138241D01*
X158306555Y-80206826D01*
X158299267Y-80248197D01*
X158294895Y-80256810D01*
X158268764Y-80267133D01*
X158213393Y-80281892D01*
X158136107Y-80299352D01*
X158044230Y-80317780D01*
X158012158Y-80323741D01*
X157857524Y-80352066D01*
X157735375Y-80374876D01*
X157641673Y-80393080D01*
X157572384Y-80407583D01*
X157523471Y-80419292D01*
X157490897Y-80429115D01*
X157470628Y-80437956D01*
X157458626Y-80446724D01*
X157456947Y-80448457D01*
X157440184Y-80476371D01*
X157414614Y-80530695D01*
X157382788Y-80604777D01*
X157347260Y-80691965D01*
X157310583Y-80785608D01*
X157275311Y-80879052D01*
X157243996Y-80965647D01*
X157219193Y-81038740D01*
X157203454Y-81091678D01*
X157199332Y-81117811D01*
X157199676Y-81118726D01*
X157213641Y-81140086D01*
X157245322Y-81187084D01*
X157291391Y-81254827D01*
X157348518Y-81338423D01*
X157413373Y-81432982D01*
X157431843Y-81459854D01*
X157497699Y-81557275D01*
X157555650Y-81646163D01*
X157602538Y-81721412D01*
X157635207Y-81777920D01*
X157650500Y-81810581D01*
X157651241Y-81814593D01*
X157638392Y-81835684D01*
X157602888Y-81877464D01*
X157549293Y-81935445D01*
X157482171Y-82005135D01*
X157406087Y-82082045D01*
X157325604Y-82161683D01*
X157245287Y-82239561D01*
X157169699Y-82311186D01*
X157103405Y-82372070D01*
X157050969Y-82417721D01*
X157016955Y-82443650D01*
X157007545Y-82447883D01*
X156985643Y-82437912D01*
X156940800Y-82411020D01*
X156880321Y-82371736D01*
X156833789Y-82340117D01*
X156749475Y-82282098D01*
X156649626Y-82213784D01*
X156549473Y-82145579D01*
X156495627Y-82109075D01*
X156313371Y-81985800D01*
X156160381Y-82068520D01*
X156090682Y-82104759D01*
X156031414Y-82132926D01*
X155991311Y-82148991D01*
X155981103Y-82151226D01*
X155968829Y-82134722D01*
X155944613Y-82088082D01*
X155910263Y-82015609D01*
X155867588Y-81921606D01*
X155818394Y-81810374D01*
X155764490Y-81686215D01*
X155707684Y-81553432D01*
X155649782Y-81416327D01*
X155592593Y-81279202D01*
X155537924Y-81146358D01*
X155487584Y-81022098D01*
X155443380Y-80910725D01*
X155407119Y-80816539D01*
X155380609Y-80743844D01*
X155365658Y-80696941D01*
X155363254Y-80680833D01*
X155382311Y-80660286D01*
X155424036Y-80626933D01*
X155479706Y-80587702D01*
X155484378Y-80584599D01*
X155628264Y-80469423D01*
X155744283Y-80335053D01*
X155831430Y-80185784D01*
X155888699Y-80025913D01*
X155915086Y-79859737D01*
X155909585Y-79691552D01*
X155871190Y-79525655D01*
X155798895Y-79366342D01*
X155777626Y-79331487D01*
X155666996Y-79190737D01*
X155536302Y-79077714D01*
X155390064Y-78993003D01*
X155232808Y-78937194D01*
X155069057Y-78910874D01*
X154903333Y-78914630D01*
X154740162Y-78949050D01*
X154584065Y-79014723D01*
X154439567Y-79112235D01*
X154394869Y-79151813D01*
X154281112Y-79275703D01*
X154198218Y-79406124D01*
X154141356Y-79552315D01*
X154109687Y-79697088D01*
X154101869Y-79859860D01*
X154127938Y-80023440D01*
X154185245Y-80182298D01*
X154271144Y-80330906D01*
X154382986Y-80463735D01*
X154518123Y-80575256D01*
X154535883Y-80587011D01*
X154592150Y-80625508D01*
X154634923Y-80658863D01*
X154655372Y-80680160D01*
X154655669Y-80680833D01*
X154651279Y-80703871D01*
X154633876Y-80756157D01*
X154605268Y-80833390D01*
X154567265Y-80931268D01*
X154521674Y-81045491D01*
X154470303Y-81171758D01*
X154414962Y-81305767D01*
X154357458Y-81443218D01*
X154299601Y-81579808D01*
X154243198Y-81711237D01*
X154190058Y-81833205D01*
X154141990Y-81941409D01*
X154100801Y-82031549D01*
X154068301Y-82099323D01*
X154046297Y-82140430D01*
X154037436Y-82151226D01*
X154010360Y-82142819D01*
X153959697Y-82120272D01*
X153894183Y-82087613D01*
X153858159Y-82068520D01*
X153705168Y-81985800D01*
X153522912Y-82109075D01*
X153429875Y-82172228D01*
X153328015Y-82241727D01*
X153232562Y-82307165D01*
X153184750Y-82340117D01*
X153117505Y-82385273D01*
X153060564Y-82421057D01*
X153021354Y-82442938D01*
X153008619Y-82447563D01*
X152990083Y-82435085D01*
X152949059Y-82400252D01*
X152889525Y-82346678D01*
X152815458Y-82277983D01*
X152730835Y-82197781D01*
X152677315Y-82146286D01*
X152583681Y-82054286D01*
X152502759Y-81971999D01*
X152437823Y-81902945D01*
X152392142Y-81850644D01*
X152368989Y-81818616D01*
X152366768Y-81812116D01*
X152377076Y-81787394D01*
X152405561Y-81737405D01*
X152449063Y-81667212D01*
X152504423Y-81581875D01*
X152568480Y-81486456D01*
X152586697Y-81459854D01*
X152653073Y-81363167D01*
X152712622Y-81276117D01*
X152762016Y-81203595D01*
X152797925Y-81150493D01*
X152817019Y-81121703D01*
X152818864Y-81118726D01*
X152816105Y-81095782D01*
X152801462Y-81045336D01*
X152777487Y-80974041D01*
X152746734Y-80888547D01*
X152711756Y-80795507D01*
X152675107Y-80701574D01*
X152639339Y-80613399D01*
X152607006Y-80537634D01*
X152580662Y-80480931D01*
X152562858Y-80449943D01*
X152561593Y-80448457D01*
X152550706Y-80439601D01*
X152532318Y-80430843D01*
X152502394Y-80421277D01*
X152456897Y-80409996D01*
X152391791Y-80396093D01*
X152303039Y-80378663D01*
X152186607Y-80356798D01*
X152038458Y-80329591D01*
X152006382Y-80323741D01*
X151911314Y-80305374D01*
X151828435Y-80287405D01*
X151765070Y-80271569D01*
X151728542Y-80259600D01*
X151723644Y-80256810D01*
X151715573Y-80232072D01*
X151709013Y-80176790D01*
X151703967Y-80097389D01*
X151700441Y-80000296D01*
X151698439Y-79891938D01*
X151697964Y-79778740D01*
X151699023Y-79667128D01*
X151701618Y-79563529D01*
X151705754Y-79474368D01*
X151711437Y-79406072D01*
X151718669Y-79365066D01*
X151723029Y-79356674D01*
X151747302Y-79348208D01*
X151802574Y-79334435D01*
X151883338Y-79316550D01*
X151984088Y-79295748D01*
X152099317Y-79273223D01*
X152162098Y-79261418D01*
X152281213Y-79239151D01*
X152387435Y-79218979D01*
X152475573Y-79201915D01*
X152540434Y-79188969D01*
X152576826Y-79181155D01*
X152582816Y-79179422D01*
X152592939Y-79159890D01*
X152614338Y-79112843D01*
X152644161Y-79045003D01*
X152679555Y-78963091D01*
X152717668Y-78873828D01*
X152755647Y-78783935D01*
X152790640Y-78700135D01*
X152819794Y-78629147D01*
X152840257Y-78577694D01*
X152849177Y-78552497D01*
X152849343Y-78551396D01*
X152839231Y-78531519D01*
X152810883Y-78485777D01*
X152767277Y-78418717D01*
X152711394Y-78334884D01*
X152646213Y-78238826D01*
X152608321Y-78183650D01*
X152539275Y-78082481D01*
X152477950Y-77990630D01*
X152427337Y-77912744D01*
X152390429Y-77853469D01*
X152370218Y-77817451D01*
X152367299Y-77809377D01*
X152379847Y-77790584D01*
X152414537Y-77750457D01*
X152466937Y-77693493D01*
X152532616Y-77624185D01*
X152607144Y-77547031D01*
X152686087Y-77466525D01*
X152765017Y-77387163D01*
X152839500Y-77313440D01*
X152905106Y-77249852D01*
X152957404Y-77200894D01*
X152991961Y-77171061D01*
X153003522Y-77163942D01*
X153022346Y-77173953D01*
X153067369Y-77202078D01*
X153134213Y-77245454D01*
X153218501Y-77301218D01*
X153315856Y-77366506D01*
X153389293Y-77416246D01*
X153760333Y-77668551D01*
X154378905Y-77413555D01*
X154462725Y-76968931D01*
X154546546Y-76524307D01*
X155471994Y-76524307D01*
X155555814Y-76968931D01*
X155555814Y-76968931D01*
G37*
X155555814Y-76968931D02*
X155639635Y-77413555D01*
X155948920Y-77541053D01*
X156258206Y-77668551D01*
X156629246Y-77416246D01*
X156733157Y-77345996D01*
X156827087Y-77283272D01*
X156906652Y-77230938D01*
X156967470Y-77191857D01*
X157005157Y-77168893D01*
X157015421Y-77163942D01*
X157033910Y-77176676D01*
X157073420Y-77211882D01*
X157129522Y-77265062D01*
X157197787Y-77331718D01*
X157273786Y-77407354D01*
X157353092Y-77487472D01*
X157431275Y-77567574D01*
X157503907Y-77643164D01*
X157566559Y-77709745D01*
X157614803Y-77762818D01*
X157644210Y-77797887D01*
X157651241Y-77809623D01*
X157641123Y-77831260D01*
X157612759Y-77878662D01*
X157569129Y-77947193D01*
X157513218Y-78032215D01*
X157448006Y-78129093D01*
X157410219Y-78184350D01*
X157341343Y-78285248D01*
X157280140Y-78376299D01*
X157229578Y-78452970D01*
X157192628Y-78510728D01*
X157172258Y-78545043D01*
X157169197Y-78552254D01*
X157176136Y-78572748D01*
X157195051Y-78620513D01*
X157223087Y-78688832D01*
X157257391Y-78770989D01*
X157295109Y-78860270D01*
X157333387Y-78949958D01*
X157369370Y-79033338D01*
X157400206Y-79103694D01*
X157423039Y-79154310D01*
X157435017Y-79178471D01*
X157435724Y-79179422D01*
X157454531Y-79184036D01*
X157504618Y-79194328D01*
X157580793Y-79209287D01*
X157677865Y-79227901D01*
X157790643Y-79249159D01*
X157856442Y-79261418D01*
X157976950Y-79284362D01*
X158085797Y-79306195D01*
X158177476Y-79325722D01*
X158246481Y-79341748D01*
X158287304Y-79353079D01*
X158295511Y-79356674D01*
X158303548Y-79381006D01*
X158310033Y-79435959D01*
X158314970Y-79515108D01*
X158318364Y-79612026D01*
X158320218Y-79720287D01*
X158320538Y-79833465D01*
X158319327Y-79945135D01*
X158316590Y-80048868D01*
X158312331Y-80138241D01*
X158306555Y-80206826D01*
X158299267Y-80248197D01*
X158294895Y-80256810D01*
X158268764Y-80267133D01*
X158213393Y-80281892D01*
X158136107Y-80299352D01*
X158044230Y-80317780D01*
X158012158Y-80323741D01*
X157857524Y-80352066D01*
X157735375Y-80374876D01*
X157641673Y-80393080D01*
X157572384Y-80407583D01*
X157523471Y-80419292D01*
X157490897Y-80429115D01*
X157470628Y-80437956D01*
X157458626Y-80446724D01*
X157456947Y-80448457D01*
X157440184Y-80476371D01*
X157414614Y-80530695D01*
X157382788Y-80604777D01*
X157347260Y-80691965D01*
X157310583Y-80785608D01*
X157275311Y-80879052D01*
X157243996Y-80965647D01*
X157219193Y-81038740D01*
X157203454Y-81091678D01*
X157199332Y-81117811D01*
X157199676Y-81118726D01*
X157213641Y-81140086D01*
X157245322Y-81187084D01*
X157291391Y-81254827D01*
X157348518Y-81338423D01*
X157413373Y-81432982D01*
X157431843Y-81459854D01*
X157497699Y-81557275D01*
X157555650Y-81646163D01*
X157602538Y-81721412D01*
X157635207Y-81777920D01*
X157650500Y-81810581D01*
X157651241Y-81814593D01*
X157638392Y-81835684D01*
X157602888Y-81877464D01*
X157549293Y-81935445D01*
X157482171Y-82005135D01*
X157406087Y-82082045D01*
X157325604Y-82161683D01*
X157245287Y-82239561D01*
X157169699Y-82311186D01*
X157103405Y-82372070D01*
X157050969Y-82417721D01*
X157016955Y-82443650D01*
X157007545Y-82447883D01*
X156985643Y-82437912D01*
X156940800Y-82411020D01*
X156880321Y-82371736D01*
X156833789Y-82340117D01*
X156749475Y-82282098D01*
X156649626Y-82213784D01*
X156549473Y-82145579D01*
X156495627Y-82109075D01*
X156313371Y-81985800D01*
X156160381Y-82068520D01*
X156090682Y-82104759D01*
X156031414Y-82132926D01*
X155991311Y-82148991D01*
X155981103Y-82151226D01*
X155968829Y-82134722D01*
X155944613Y-82088082D01*
X155910263Y-82015609D01*
X155867588Y-81921606D01*
X155818394Y-81810374D01*
X155764490Y-81686215D01*
X155707684Y-81553432D01*
X155649782Y-81416327D01*
X155592593Y-81279202D01*
X155537924Y-81146358D01*
X155487584Y-81022098D01*
X155443380Y-80910725D01*
X155407119Y-80816539D01*
X155380609Y-80743844D01*
X155365658Y-80696941D01*
X155363254Y-80680833D01*
X155382311Y-80660286D01*
X155424036Y-80626933D01*
X155479706Y-80587702D01*
X155484378Y-80584599D01*
X155628264Y-80469423D01*
X155744283Y-80335053D01*
X155831430Y-80185784D01*
X155888699Y-80025913D01*
X155915086Y-79859737D01*
X155909585Y-79691552D01*
X155871190Y-79525655D01*
X155798895Y-79366342D01*
X155777626Y-79331487D01*
X155666996Y-79190737D01*
X155536302Y-79077714D01*
X155390064Y-78993003D01*
X155232808Y-78937194D01*
X155069057Y-78910874D01*
X154903333Y-78914630D01*
X154740162Y-78949050D01*
X154584065Y-79014723D01*
X154439567Y-79112235D01*
X154394869Y-79151813D01*
X154281112Y-79275703D01*
X154198218Y-79406124D01*
X154141356Y-79552315D01*
X154109687Y-79697088D01*
X154101869Y-79859860D01*
X154127938Y-80023440D01*
X154185245Y-80182298D01*
X154271144Y-80330906D01*
X154382986Y-80463735D01*
X154518123Y-80575256D01*
X154535883Y-80587011D01*
X154592150Y-80625508D01*
X154634923Y-80658863D01*
X154655372Y-80680160D01*
X154655669Y-80680833D01*
X154651279Y-80703871D01*
X154633876Y-80756157D01*
X154605268Y-80833390D01*
X154567265Y-80931268D01*
X154521674Y-81045491D01*
X154470303Y-81171758D01*
X154414962Y-81305767D01*
X154357458Y-81443218D01*
X154299601Y-81579808D01*
X154243198Y-81711237D01*
X154190058Y-81833205D01*
X154141990Y-81941409D01*
X154100801Y-82031549D01*
X154068301Y-82099323D01*
X154046297Y-82140430D01*
X154037436Y-82151226D01*
X154010360Y-82142819D01*
X153959697Y-82120272D01*
X153894183Y-82087613D01*
X153858159Y-82068520D01*
X153705168Y-81985800D01*
X153522912Y-82109075D01*
X153429875Y-82172228D01*
X153328015Y-82241727D01*
X153232562Y-82307165D01*
X153184750Y-82340117D01*
X153117505Y-82385273D01*
X153060564Y-82421057D01*
X153021354Y-82442938D01*
X153008619Y-82447563D01*
X152990083Y-82435085D01*
X152949059Y-82400252D01*
X152889525Y-82346678D01*
X152815458Y-82277983D01*
X152730835Y-82197781D01*
X152677315Y-82146286D01*
X152583681Y-82054286D01*
X152502759Y-81971999D01*
X152437823Y-81902945D01*
X152392142Y-81850644D01*
X152368989Y-81818616D01*
X152366768Y-81812116D01*
X152377076Y-81787394D01*
X152405561Y-81737405D01*
X152449063Y-81667212D01*
X152504423Y-81581875D01*
X152568480Y-81486456D01*
X152586697Y-81459854D01*
X152653073Y-81363167D01*
X152712622Y-81276117D01*
X152762016Y-81203595D01*
X152797925Y-81150493D01*
X152817019Y-81121703D01*
X152818864Y-81118726D01*
X152816105Y-81095782D01*
X152801462Y-81045336D01*
X152777487Y-80974041D01*
X152746734Y-80888547D01*
X152711756Y-80795507D01*
X152675107Y-80701574D01*
X152639339Y-80613399D01*
X152607006Y-80537634D01*
X152580662Y-80480931D01*
X152562858Y-80449943D01*
X152561593Y-80448457D01*
X152550706Y-80439601D01*
X152532318Y-80430843D01*
X152502394Y-80421277D01*
X152456897Y-80409996D01*
X152391791Y-80396093D01*
X152303039Y-80378663D01*
X152186607Y-80356798D01*
X152038458Y-80329591D01*
X152006382Y-80323741D01*
X151911314Y-80305374D01*
X151828435Y-80287405D01*
X151765070Y-80271569D01*
X151728542Y-80259600D01*
X151723644Y-80256810D01*
X151715573Y-80232072D01*
X151709013Y-80176790D01*
X151703967Y-80097389D01*
X151700441Y-80000296D01*
X151698439Y-79891938D01*
X151697964Y-79778740D01*
X151699023Y-79667128D01*
X151701618Y-79563529D01*
X151705754Y-79474368D01*
X151711437Y-79406072D01*
X151718669Y-79365066D01*
X151723029Y-79356674D01*
X151747302Y-79348208D01*
X151802574Y-79334435D01*
X151883338Y-79316550D01*
X151984088Y-79295748D01*
X152099317Y-79273223D01*
X152162098Y-79261418D01*
X152281213Y-79239151D01*
X152387435Y-79218979D01*
X152475573Y-79201915D01*
X152540434Y-79188969D01*
X152576826Y-79181155D01*
X152582816Y-79179422D01*
X152592939Y-79159890D01*
X152614338Y-79112843D01*
X152644161Y-79045003D01*
X152679555Y-78963091D01*
X152717668Y-78873828D01*
X152755647Y-78783935D01*
X152790640Y-78700135D01*
X152819794Y-78629147D01*
X152840257Y-78577694D01*
X152849177Y-78552497D01*
X152849343Y-78551396D01*
X152839231Y-78531519D01*
X152810883Y-78485777D01*
X152767277Y-78418717D01*
X152711394Y-78334884D01*
X152646213Y-78238826D01*
X152608321Y-78183650D01*
X152539275Y-78082481D01*
X152477950Y-77990630D01*
X152427337Y-77912744D01*
X152390429Y-77853469D01*
X152370218Y-77817451D01*
X152367299Y-77809377D01*
X152379847Y-77790584D01*
X152414537Y-77750457D01*
X152466937Y-77693493D01*
X152532616Y-77624185D01*
X152607144Y-77547031D01*
X152686087Y-77466525D01*
X152765017Y-77387163D01*
X152839500Y-77313440D01*
X152905106Y-77249852D01*
X152957404Y-77200894D01*
X152991961Y-77171061D01*
X153003522Y-77163942D01*
X153022346Y-77173953D01*
X153067369Y-77202078D01*
X153134213Y-77245454D01*
X153218501Y-77301218D01*
X153315856Y-77366506D01*
X153389293Y-77416246D01*
X153760333Y-77668551D01*
X154378905Y-77413555D01*
X154462725Y-76968931D01*
X154546546Y-76524307D01*
X155471994Y-76524307D01*
X155555814Y-76968931D01*
G36*
X178475467Y-96228823D02*
X178453224Y-96260202D01*
X178425515Y-96287911D01*
X178116080Y-96287911D01*
X178024201Y-96287838D01*
X177952160Y-96287495D01*
X177897220Y-96286692D01*
X177856640Y-96285241D01*
X177827683Y-96282952D01*
X177807609Y-96279636D01*
X177793679Y-96275105D01*
X177783155Y-96269169D01*
X177776900Y-96264514D01*
X177752327Y-96233783D01*
X177749659Y-96198496D01*
X177764729Y-96166245D01*
X177773626Y-96155588D01*
X177785443Y-96148464D01*
X177804474Y-96144167D01*
X177835008Y-96141991D01*
X177881338Y-96141228D01*
X177917129Y-96141155D01*
X178051955Y-96141155D01*
X178051955Y-95644444D01*
X177929300Y-95644444D01*
X177873213Y-95643931D01*
X177834667Y-95641876D01*
X177808639Y-95637508D01*
X177790103Y-95630056D01*
X177776900Y-95621047D01*
X177752396Y-95590144D01*
X177749494Y-95555196D01*
X177766911Y-95521738D01*
X177776041Y-95512604D01*
X177788145Y-95506152D01*
X177806999Y-95501897D01*
X177836380Y-95499352D01*
X177880063Y-95498029D01*
X177941825Y-95497443D01*
X177956000Y-95497375D01*
X178072369Y-95496891D01*
X178168273Y-95496641D01*
X178245823Y-95496723D01*
X178307131Y-95497231D01*
X178354310Y-95498262D01*
X178389470Y-95499913D01*
X178414724Y-95502279D01*
X178432183Y-95505457D01*
X178443959Y-95509544D01*
X178452165Y-95514634D01*
X178458355Y-95520266D01*
X178478156Y-95552128D01*
X178475467Y-95585357D01*
X178453224Y-95616735D01*
X178438874Y-95629433D01*
X178423022Y-95637526D01*
X178400446Y-95642042D01*
X178365922Y-95644006D01*
X178314224Y-95644444D01*
X178198711Y-95644444D01*
X178198711Y-96141155D01*
X178317244Y-96141155D01*
X178371852Y-96141662D01*
X178408725Y-96143698D01*
X178432693Y-96148035D01*
X178448585Y-96155447D01*
X178458355Y-96163733D01*
X178478156Y-96195594D01*
X178475467Y-96228823D01*
X178475467Y-96228823D01*
G37*
X178475467Y-96228823D02*
X178453224Y-96260202D01*
X178425515Y-96287911D01*
X178116080Y-96287911D01*
X178024201Y-96287838D01*
X177952160Y-96287495D01*
X177897220Y-96286692D01*
X177856640Y-96285241D01*
X177827683Y-96282952D01*
X177807609Y-96279636D01*
X177793679Y-96275105D01*
X177783155Y-96269169D01*
X177776900Y-96264514D01*
X177752327Y-96233783D01*
X177749659Y-96198496D01*
X177764729Y-96166245D01*
X177773626Y-96155588D01*
X177785443Y-96148464D01*
X177804474Y-96144167D01*
X177835008Y-96141991D01*
X177881338Y-96141228D01*
X177917129Y-96141155D01*
X178051955Y-96141155D01*
X178051955Y-95644444D01*
X177929300Y-95644444D01*
X177873213Y-95643931D01*
X177834667Y-95641876D01*
X177808639Y-95637508D01*
X177790103Y-95630056D01*
X177776900Y-95621047D01*
X177752396Y-95590144D01*
X177749494Y-95555196D01*
X177766911Y-95521738D01*
X177776041Y-95512604D01*
X177788145Y-95506152D01*
X177806999Y-95501897D01*
X177836380Y-95499352D01*
X177880063Y-95498029D01*
X177941825Y-95497443D01*
X177956000Y-95497375D01*
X178072369Y-95496891D01*
X178168273Y-95496641D01*
X178245823Y-95496723D01*
X178307131Y-95497231D01*
X178354310Y-95498262D01*
X178389470Y-95499913D01*
X178414724Y-95502279D01*
X178432183Y-95505457D01*
X178443959Y-95509544D01*
X178452165Y-95514634D01*
X178458355Y-95520266D01*
X178478156Y-95552128D01*
X178475467Y-95585357D01*
X178453224Y-95616735D01*
X178438874Y-95629433D01*
X178423022Y-95637526D01*
X178400446Y-95642042D01*
X178365922Y-95644006D01*
X178314224Y-95644444D01*
X178198711Y-95644444D01*
X178198711Y-96141155D01*
X178317244Y-96141155D01*
X178371852Y-96141662D01*
X178408725Y-96143698D01*
X178432693Y-96148035D01*
X178448585Y-96155447D01*
X178458355Y-96163733D01*
X178478156Y-96195594D01*
X178475467Y-96228823D01*
G36*
X178480837Y-94963065D02*
X178480458Y-95041772D01*
X178479667Y-95102863D01*
X178478330Y-95148817D01*
X178476317Y-95182114D01*
X178473494Y-95205236D01*
X178469731Y-95220662D01*
X178464895Y-95230871D01*
X178461178Y-95235813D01*
X178428642Y-95261457D01*
X178394862Y-95264559D01*
X178364174Y-95248711D01*
X178351911Y-95238348D01*
X178343550Y-95227196D01*
X178338343Y-95211035D01*
X178335543Y-95185642D01*
X178334404Y-95146798D01*
X178334179Y-95090280D01*
X178334178Y-95079180D01*
X178334178Y-94933244D01*
X178063244Y-94933244D01*
X177977846Y-94933148D01*
X177912136Y-94932711D01*
X177863226Y-94931712D01*
X177828227Y-94929928D01*
X177804251Y-94927137D01*
X177788407Y-94923117D01*
X177777809Y-94917645D01*
X177769733Y-94910666D01*
X177749888Y-94877734D01*
X177751452Y-94843354D01*
X177774094Y-94812176D01*
X177776900Y-94809886D01*
X177787508Y-94802429D01*
X177799919Y-94796747D01*
X177817150Y-94792601D01*
X177842216Y-94789750D01*
X177878133Y-94787954D01*
X177927917Y-94786972D01*
X177994583Y-94786564D01*
X178070411Y-94786489D01*
X178334178Y-94786489D01*
X178334178Y-94647127D01*
X178334582Y-94587322D01*
X178336160Y-94545918D01*
X178339453Y-94518748D01*
X178345008Y-94501646D01*
X178353369Y-94490443D01*
X178354822Y-94489083D01*
X178388061Y-94472725D01*
X178425638Y-94474172D01*
X178458355Y-94492978D01*
X178464702Y-94500250D01*
X178469734Y-94509627D01*
X178473604Y-94523609D01*
X178476463Y-94544696D01*
X178478465Y-94575389D01*
X178479761Y-94618189D01*
X178480502Y-94675595D01*
X178480842Y-94750110D01*
X178480932Y-94844233D01*
X178480933Y-94864260D01*
X178480837Y-94963065D01*
X178480837Y-94963065D01*
G37*
X178480837Y-94963065D02*
X178480458Y-95041772D01*
X178479667Y-95102863D01*
X178478330Y-95148817D01*
X178476317Y-95182114D01*
X178473494Y-95205236D01*
X178469731Y-95220662D01*
X178464895Y-95230871D01*
X178461178Y-95235813D01*
X178428642Y-95261457D01*
X178394862Y-95264559D01*
X178364174Y-95248711D01*
X178351911Y-95238348D01*
X178343550Y-95227196D01*
X178338343Y-95211035D01*
X178335543Y-95185642D01*
X178334404Y-95146798D01*
X178334179Y-95090280D01*
X178334178Y-95079180D01*
X178334178Y-94933244D01*
X178063244Y-94933244D01*
X177977846Y-94933148D01*
X177912136Y-94932711D01*
X177863226Y-94931712D01*
X177828227Y-94929928D01*
X177804251Y-94927137D01*
X177788407Y-94923117D01*
X177777809Y-94917645D01*
X177769733Y-94910666D01*
X177749888Y-94877734D01*
X177751452Y-94843354D01*
X177774094Y-94812176D01*
X177776900Y-94809886D01*
X177787508Y-94802429D01*
X177799919Y-94796747D01*
X177817150Y-94792601D01*
X177842216Y-94789750D01*
X177878133Y-94787954D01*
X177927917Y-94786972D01*
X177994583Y-94786564D01*
X178070411Y-94786489D01*
X178334178Y-94786489D01*
X178334178Y-94647127D01*
X178334582Y-94587322D01*
X178336160Y-94545918D01*
X178339453Y-94518748D01*
X178345008Y-94501646D01*
X178353369Y-94490443D01*
X178354822Y-94489083D01*
X178388061Y-94472725D01*
X178425638Y-94474172D01*
X178458355Y-94492978D01*
X178464702Y-94500250D01*
X178469734Y-94509627D01*
X178473604Y-94523609D01*
X178476463Y-94544696D01*
X178478465Y-94575389D01*
X178479761Y-94618189D01*
X178480502Y-94675595D01*
X178480842Y-94750110D01*
X178480932Y-94844233D01*
X178480933Y-94864260D01*
X178480837Y-94963065D01*
G36*
X178474123Y-94188614D02*
X178459353Y-94212327D01*
X178437773Y-94238978D01*
X178116227Y-94238978D01*
X178022170Y-94238893D01*
X177948068Y-94238529D01*
X177891296Y-94237724D01*
X177849232Y-94236313D01*
X177819252Y-94234133D01*
X177798733Y-94231021D01*
X177785051Y-94226814D01*
X177775584Y-94221348D01*
X177770918Y-94217472D01*
X177750425Y-94186034D01*
X177751261Y-94150233D01*
X177768736Y-94118873D01*
X177790316Y-94092222D01*
X178437773Y-94092222D01*
X178459353Y-94118873D01*
X178475051Y-94144594D01*
X178480933Y-94165600D01*
X178474123Y-94188614D01*
X178474123Y-94188614D01*
G37*
X178474123Y-94188614D02*
X178459353Y-94212327D01*
X178437773Y-94238978D01*
X178116227Y-94238978D01*
X178022170Y-94238893D01*
X177948068Y-94238529D01*
X177891296Y-94237724D01*
X177849232Y-94236313D01*
X177819252Y-94234133D01*
X177798733Y-94231021D01*
X177785051Y-94226814D01*
X177775584Y-94221348D01*
X177770918Y-94217472D01*
X177750425Y-94186034D01*
X177751261Y-94150233D01*
X177768736Y-94118873D01*
X177790316Y-94092222D01*
X178437773Y-94092222D01*
X178459353Y-94118873D01*
X178475051Y-94144594D01*
X178480933Y-94165600D01*
X178474123Y-94188614D01*
G36*
X178478966Y-93744665D02*
X178471965Y-93764255D01*
X178471623Y-93765010D01*
X178451322Y-93791613D01*
X178430439Y-93806270D01*
X178420648Y-93809138D01*
X178407639Y-93808996D01*
X178389105Y-93804961D01*
X178362743Y-93796146D01*
X178326248Y-93781669D01*
X178277313Y-93760645D01*
X178213635Y-93732188D01*
X178132907Y-93695415D01*
X178088784Y-93675175D01*
X178010015Y-93638625D01*
X177937577Y-93604315D01*
X177874120Y-93573552D01*
X177822292Y-93547648D01*
X177784741Y-93527910D01*
X177764116Y-93515650D01*
X177761267Y-93513224D01*
X177748698Y-93482183D01*
X177750381Y-93447121D01*
X177765668Y-93419000D01*
X177766911Y-93417854D01*
X177783846Y-93406668D01*
X177816830Y-93387904D01*
X177861620Y-93363875D01*
X177913968Y-93336897D01*
X177933258Y-93327201D01*
X178079850Y-93254014D01*
X177920607Y-93174240D01*
X177865585Y-93145767D01*
X177817868Y-93119350D01*
X177781107Y-93097148D01*
X177758956Y-93081319D01*
X177754259Y-93075954D01*
X177747898Y-93034257D01*
X177761267Y-92999849D01*
X177775554Y-92989728D01*
X177807308Y-92972214D01*
X177853403Y-92948735D01*
X177910715Y-92920720D01*
X177976120Y-92889599D01*
X178046493Y-92856799D01*
X178118709Y-92823750D01*
X178189645Y-92791881D01*
X178256175Y-92762619D01*
X178315174Y-92737395D01*
X178363519Y-92717636D01*
X178398085Y-92704772D01*
X178415747Y-92700231D01*
X178416387Y-92700277D01*
X178438612Y-92711326D01*
X178461247Y-92733410D01*
X178462232Y-92734710D01*
X178477575Y-92761853D01*
X178477426Y-92786958D01*
X178474534Y-92796368D01*
X178468282Y-92807834D01*
X178455986Y-92820010D01*
X178435092Y-92834357D01*
X178403051Y-92852336D01*
X178357312Y-92875407D01*
X178295323Y-92905030D01*
X178238102Y-92931745D01*
X178171774Y-92962480D01*
X178112126Y-92990021D01*
X178062275Y-93012938D01*
X178025336Y-93029798D01*
X178004427Y-93039173D01*
X178001155Y-93040540D01*
X178006503Y-93046689D01*
X178028891Y-93060822D01*
X178065054Y-93081057D01*
X178111723Y-93105515D01*
X178130978Y-93115248D01*
X178195996Y-93148217D01*
X178243346Y-93173643D01*
X178275781Y-93193612D01*
X178296054Y-93210210D01*
X178306918Y-93225524D01*
X178311125Y-93241640D01*
X178311600Y-93252143D01*
X178309958Y-93270670D01*
X178303169Y-93286904D01*
X178288434Y-93303035D01*
X178262956Y-93321251D01*
X178223939Y-93343739D01*
X178168586Y-93372689D01*
X178137097Y-93388662D01*
X178086913Y-93414570D01*
X178045296Y-93437167D01*
X178015758Y-93454458D01*
X178001811Y-93464450D01*
X178001230Y-93465809D01*
X178012207Y-93472261D01*
X178040710Y-93486708D01*
X178083756Y-93507703D01*
X178138362Y-93533797D01*
X178201546Y-93563546D01*
X178232929Y-93578180D01*
X178313922Y-93616250D01*
X178376244Y-93646905D01*
X178421929Y-93671737D01*
X178453011Y-93692337D01*
X178471522Y-93710298D01*
X178479496Y-93727210D01*
X178478966Y-93744665D01*
X178478966Y-93744665D01*
G37*
X178478966Y-93744665D02*
X178471965Y-93764255D01*
X178471623Y-93765010D01*
X178451322Y-93791613D01*
X178430439Y-93806270D01*
X178420648Y-93809138D01*
X178407639Y-93808996D01*
X178389105Y-93804961D01*
X178362743Y-93796146D01*
X178326248Y-93781669D01*
X178277313Y-93760645D01*
X178213635Y-93732188D01*
X178132907Y-93695415D01*
X178088784Y-93675175D01*
X178010015Y-93638625D01*
X177937577Y-93604315D01*
X177874120Y-93573552D01*
X177822292Y-93547648D01*
X177784741Y-93527910D01*
X177764116Y-93515650D01*
X177761267Y-93513224D01*
X177748698Y-93482183D01*
X177750381Y-93447121D01*
X177765668Y-93419000D01*
X177766911Y-93417854D01*
X177783846Y-93406668D01*
X177816830Y-93387904D01*
X177861620Y-93363875D01*
X177913968Y-93336897D01*
X177933258Y-93327201D01*
X178079850Y-93254014D01*
X177920607Y-93174240D01*
X177865585Y-93145767D01*
X177817868Y-93119350D01*
X177781107Y-93097148D01*
X177758956Y-93081319D01*
X177754259Y-93075954D01*
X177747898Y-93034257D01*
X177761267Y-92999849D01*
X177775554Y-92989728D01*
X177807308Y-92972214D01*
X177853403Y-92948735D01*
X177910715Y-92920720D01*
X177976120Y-92889599D01*
X178046493Y-92856799D01*
X178118709Y-92823750D01*
X178189645Y-92791881D01*
X178256175Y-92762619D01*
X178315174Y-92737395D01*
X178363519Y-92717636D01*
X178398085Y-92704772D01*
X178415747Y-92700231D01*
X178416387Y-92700277D01*
X178438612Y-92711326D01*
X178461247Y-92733410D01*
X178462232Y-92734710D01*
X178477575Y-92761853D01*
X178477426Y-92786958D01*
X178474534Y-92796368D01*
X178468282Y-92807834D01*
X178455986Y-92820010D01*
X178435092Y-92834357D01*
X178403051Y-92852336D01*
X178357312Y-92875407D01*
X178295323Y-92905030D01*
X178238102Y-92931745D01*
X178171774Y-92962480D01*
X178112126Y-92990021D01*
X178062275Y-93012938D01*
X178025336Y-93029798D01*
X178004427Y-93039173D01*
X178001155Y-93040540D01*
X178006503Y-93046689D01*
X178028891Y-93060822D01*
X178065054Y-93081057D01*
X178111723Y-93105515D01*
X178130978Y-93115248D01*
X178195996Y-93148217D01*
X178243346Y-93173643D01*
X178275781Y-93193612D01*
X178296054Y-93210210D01*
X178306918Y-93225524D01*
X178311125Y-93241640D01*
X178311600Y-93252143D01*
X178309958Y-93270670D01*
X178303169Y-93286904D01*
X178288434Y-93303035D01*
X178262956Y-93321251D01*
X178223939Y-93343739D01*
X178168586Y-93372689D01*
X178137097Y-93388662D01*
X178086913Y-93414570D01*
X178045296Y-93437167D01*
X178015758Y-93454458D01*
X178001811Y-93464450D01*
X178001230Y-93465809D01*
X178012207Y-93472261D01*
X178040710Y-93486708D01*
X178083756Y-93507703D01*
X178138362Y-93533797D01*
X178201546Y-93563546D01*
X178232929Y-93578180D01*
X178313922Y-93616250D01*
X178376244Y-93646905D01*
X178421929Y-93671737D01*
X178453011Y-93692337D01*
X178471522Y-93710298D01*
X178479496Y-93727210D01*
X178478966Y-93744665D01*
G36*
X178480725Y-91018309D02*
X178476364Y-91147288D01*
X178463139Y-91256991D01*
X178440259Y-91349226D01*
X178406930Y-91425802D01*
X178362362Y-91488527D01*
X178305764Y-91539212D01*
X178236342Y-91579663D01*
X178234649Y-91580459D01*
X178172517Y-91604601D01*
X178117491Y-91613203D01*
X178062113Y-91606231D01*
X177998927Y-91583654D01*
X177989311Y-91579372D01*
X177933034Y-91550172D01*
X177889549Y-91517356D01*
X177852583Y-91475002D01*
X177815865Y-91417190D01*
X177813948Y-91413831D01*
X177789773Y-91363504D01*
X177771718Y-91306621D01*
X177759161Y-91239527D01*
X177751478Y-91158565D01*
X177748047Y-91060082D01*
X177747749Y-91025286D01*
X177747155Y-90859594D01*
X177776900Y-90836197D01*
X177786681Y-90829257D01*
X177798103Y-90823842D01*
X177813905Y-90819765D01*
X177836825Y-90816837D01*
X177869604Y-90814867D01*
X177893911Y-90814225D01*
X177893911Y-90970844D01*
X177893911Y-91064726D01*
X177895517Y-91119664D01*
X177899745Y-91176060D01*
X177905708Y-91222345D01*
X177906210Y-91225139D01*
X177928264Y-91307348D01*
X177961400Y-91371114D01*
X178007153Y-91418452D01*
X178067061Y-91451382D01*
X178082939Y-91457108D01*
X178107667Y-91462721D01*
X178132098Y-91460291D01*
X178164600Y-91448467D01*
X178180566Y-91441340D01*
X178222994Y-91418000D01*
X178252760Y-91389880D01*
X178273489Y-91358940D01*
X178300463Y-91296966D01*
X178320002Y-91217651D01*
X178331254Y-91125253D01*
X178333730Y-91058333D01*
X178334178Y-90970844D01*
X177893911Y-90970844D01*
X177893911Y-90814225D01*
X177914979Y-90813668D01*
X177975689Y-90813050D01*
X178054474Y-90812825D01*
X178116080Y-90812800D01*
X178425515Y-90812800D01*
X178453224Y-90840509D01*
X178464456Y-90852806D01*
X178472147Y-90866103D01*
X178476960Y-90884672D01*
X178479554Y-90912786D01*
X178480590Y-90954717D01*
X178480730Y-91014737D01*
X178480725Y-91018309D01*
X178480725Y-91018309D01*
G37*
X178480725Y-91018309D02*
X178476364Y-91147288D01*
X178463139Y-91256991D01*
X178440259Y-91349226D01*
X178406930Y-91425802D01*
X178362362Y-91488527D01*
X178305764Y-91539212D01*
X178236342Y-91579663D01*
X178234649Y-91580459D01*
X178172517Y-91604601D01*
X178117491Y-91613203D01*
X178062113Y-91606231D01*
X177998927Y-91583654D01*
X177989311Y-91579372D01*
X177933034Y-91550172D01*
X177889549Y-91517356D01*
X177852583Y-91475002D01*
X177815865Y-91417190D01*
X177813948Y-91413831D01*
X177789773Y-91363504D01*
X177771718Y-91306621D01*
X177759161Y-91239527D01*
X177751478Y-91158565D01*
X177748047Y-91060082D01*
X177747749Y-91025286D01*
X177747155Y-90859594D01*
X177776900Y-90836197D01*
X177786681Y-90829257D01*
X177798103Y-90823842D01*
X177813905Y-90819765D01*
X177836825Y-90816837D01*
X177869604Y-90814867D01*
X177893911Y-90814225D01*
X177893911Y-90970844D01*
X177893911Y-91064726D01*
X177895517Y-91119664D01*
X177899745Y-91176060D01*
X177905708Y-91222345D01*
X177906210Y-91225139D01*
X177928264Y-91307348D01*
X177961400Y-91371114D01*
X178007153Y-91418452D01*
X178067061Y-91451382D01*
X178082939Y-91457108D01*
X178107667Y-91462721D01*
X178132098Y-91460291D01*
X178164600Y-91448467D01*
X178180566Y-91441340D01*
X178222994Y-91418000D01*
X178252760Y-91389880D01*
X178273489Y-91358940D01*
X178300463Y-91296966D01*
X178320002Y-91217651D01*
X178331254Y-91125253D01*
X178333730Y-91058333D01*
X178334178Y-90970844D01*
X177893911Y-90970844D01*
X177893911Y-90814225D01*
X177914979Y-90813668D01*
X177975689Y-90813050D01*
X178054474Y-90812825D01*
X178116080Y-90812800D01*
X178425515Y-90812800D01*
X178453224Y-90840509D01*
X178464456Y-90852806D01*
X178472147Y-90866103D01*
X178476960Y-90884672D01*
X178479554Y-90912786D01*
X178480590Y-90954717D01*
X178480730Y-91014737D01*
X178480725Y-91018309D01*
G36*
X178480740Y-90230343D02*
X178479826Y-90306701D01*
X178477689Y-90365217D01*
X178473825Y-90408255D01*
X178467733Y-90438183D01*
X178458910Y-90457368D01*
X178446854Y-90468176D01*
X178431061Y-90472973D01*
X178411030Y-90474127D01*
X178408665Y-90474133D01*
X178386008Y-90473131D01*
X178368497Y-90468396D01*
X178355426Y-90457333D01*
X178346087Y-90437348D01*
X178339773Y-90405846D01*
X178335778Y-90360232D01*
X178333394Y-90297913D01*
X178331914Y-90216293D01*
X178331586Y-90191277D01*
X178328533Y-89949200D01*
X178263622Y-89945814D01*
X178198711Y-89942429D01*
X178198711Y-90110576D01*
X178198469Y-90176266D01*
X178197444Y-90223172D01*
X178195189Y-90255083D01*
X178191258Y-90275791D01*
X178185202Y-90289084D01*
X178176576Y-90298755D01*
X178176507Y-90298817D01*
X178142888Y-90316356D01*
X178106552Y-90315722D01*
X178075577Y-90297314D01*
X178072393Y-90293671D01*
X178064188Y-90280741D01*
X178058479Y-90263024D01*
X178054838Y-90236570D01*
X178052833Y-90197432D01*
X178052036Y-90141662D01*
X178051955Y-90105994D01*
X178051955Y-89943555D01*
X177893911Y-89943555D01*
X177893911Y-90190161D01*
X177893769Y-90271580D01*
X177893186Y-90333410D01*
X177891932Y-90378637D01*
X177889773Y-90410248D01*
X177886477Y-90431231D01*
X177881811Y-90444573D01*
X177875543Y-90453261D01*
X177873267Y-90455450D01*
X177841720Y-90471614D01*
X177805832Y-90472797D01*
X177774715Y-90459536D01*
X177764729Y-90449043D01*
X177759231Y-90438129D01*
X177754978Y-90421217D01*
X177751820Y-90395633D01*
X177749608Y-90358701D01*
X177748194Y-90307746D01*
X177747428Y-90240094D01*
X177747162Y-90153069D01*
X177747155Y-90133394D01*
X177747213Y-90044911D01*
X177747533Y-89976227D01*
X177748333Y-89924564D01*
X177749833Y-89887145D01*
X177752251Y-89861190D01*
X177755806Y-89843922D01*
X177760718Y-89832562D01*
X177767205Y-89824332D01*
X177771862Y-89819817D01*
X177780111Y-89813021D01*
X177790331Y-89807712D01*
X177805200Y-89803706D01*
X177827398Y-89800821D01*
X177859607Y-89798874D01*
X177904504Y-89797681D01*
X177964772Y-89797061D01*
X178043089Y-89796829D01*
X178109006Y-89796800D01*
X178201372Y-89796871D01*
X178273883Y-89797208D01*
X178329263Y-89797998D01*
X178370235Y-89799426D01*
X178399522Y-89801679D01*
X178419847Y-89804943D01*
X178433934Y-89809404D01*
X178444505Y-89815248D01*
X178451189Y-89820197D01*
X178480933Y-89843594D01*
X178480933Y-90133774D01*
X178480740Y-90230343D01*
X178480740Y-90230343D01*
G37*
X178480740Y-90230343D02*
X178479826Y-90306701D01*
X178477689Y-90365217D01*
X178473825Y-90408255D01*
X178467733Y-90438183D01*
X178458910Y-90457368D01*
X178446854Y-90468176D01*
X178431061Y-90472973D01*
X178411030Y-90474127D01*
X178408665Y-90474133D01*
X178386008Y-90473131D01*
X178368497Y-90468396D01*
X178355426Y-90457333D01*
X178346087Y-90437348D01*
X178339773Y-90405846D01*
X178335778Y-90360232D01*
X178333394Y-90297913D01*
X178331914Y-90216293D01*
X178331586Y-90191277D01*
X178328533Y-89949200D01*
X178263622Y-89945814D01*
X178198711Y-89942429D01*
X178198711Y-90110576D01*
X178198469Y-90176266D01*
X178197444Y-90223172D01*
X178195189Y-90255083D01*
X178191258Y-90275791D01*
X178185202Y-90289084D01*
X178176576Y-90298755D01*
X178176507Y-90298817D01*
X178142888Y-90316356D01*
X178106552Y-90315722D01*
X178075577Y-90297314D01*
X178072393Y-90293671D01*
X178064188Y-90280741D01*
X178058479Y-90263024D01*
X178054838Y-90236570D01*
X178052833Y-90197432D01*
X178052036Y-90141662D01*
X178051955Y-90105994D01*
X178051955Y-89943555D01*
X177893911Y-89943555D01*
X177893911Y-90190161D01*
X177893769Y-90271580D01*
X177893186Y-90333410D01*
X177891932Y-90378637D01*
X177889773Y-90410248D01*
X177886477Y-90431231D01*
X177881811Y-90444573D01*
X177875543Y-90453261D01*
X177873267Y-90455450D01*
X177841720Y-90471614D01*
X177805832Y-90472797D01*
X177774715Y-90459536D01*
X177764729Y-90449043D01*
X177759231Y-90438129D01*
X177754978Y-90421217D01*
X177751820Y-90395633D01*
X177749608Y-90358701D01*
X177748194Y-90307746D01*
X177747428Y-90240094D01*
X177747162Y-90153069D01*
X177747155Y-90133394D01*
X177747213Y-90044911D01*
X177747533Y-89976227D01*
X177748333Y-89924564D01*
X177749833Y-89887145D01*
X177752251Y-89861190D01*
X177755806Y-89843922D01*
X177760718Y-89832562D01*
X177767205Y-89824332D01*
X177771862Y-89819817D01*
X177780111Y-89813021D01*
X177790331Y-89807712D01*
X177805200Y-89803706D01*
X177827398Y-89800821D01*
X177859607Y-89798874D01*
X177904504Y-89797681D01*
X177964772Y-89797061D01*
X178043089Y-89796829D01*
X178109006Y-89796800D01*
X178201372Y-89796871D01*
X178273883Y-89797208D01*
X178329263Y-89797998D01*
X178370235Y-89799426D01*
X178399522Y-89801679D01*
X178419847Y-89804943D01*
X178433934Y-89809404D01*
X178444505Y-89815248D01*
X178451189Y-89820197D01*
X178480933Y-89843594D01*
X178480933Y-90133774D01*
X178480740Y-90230343D01*
G36*
X178476552Y-88699886D02*
X178462727Y-88723452D01*
X178440119Y-88754265D01*
X178407662Y-88793922D01*
X178364292Y-88844020D01*
X178308942Y-88906157D01*
X178240549Y-88981928D01*
X178161916Y-89068666D01*
X177998122Y-89249289D01*
X178217971Y-89254933D01*
X178293649Y-89256971D01*
X178350006Y-89258937D01*
X178390294Y-89261266D01*
X178417765Y-89264394D01*
X178435671Y-89268755D01*
X178447263Y-89274784D01*
X178455792Y-89282916D01*
X178459377Y-89287228D01*
X178478330Y-89321759D01*
X178475559Y-89354617D01*
X178459367Y-89380682D01*
X178437801Y-89407333D01*
X178122849Y-89410648D01*
X178030221Y-89411565D01*
X177957456Y-89412032D01*
X177901839Y-89411887D01*
X177860658Y-89410968D01*
X177831197Y-89409113D01*
X177810745Y-89406161D01*
X177796587Y-89401950D01*
X177786009Y-89396318D01*
X177777526Y-89390073D01*
X177761793Y-89376561D01*
X177751364Y-89363117D01*
X177747361Y-89347876D01*
X177750906Y-89328974D01*
X177763121Y-89304545D01*
X177785129Y-89272727D01*
X177818051Y-89231652D01*
X177863009Y-89179458D01*
X177921125Y-89114278D01*
X177987901Y-89040444D01*
X178228542Y-88775155D01*
X178009411Y-88769511D01*
X177933872Y-88767469D01*
X177877646Y-88765498D01*
X177837476Y-88763161D01*
X177810104Y-88760019D01*
X177792272Y-88755636D01*
X177780721Y-88749576D01*
X177772193Y-88741400D01*
X177768718Y-88737216D01*
X177749628Y-88700235D01*
X177752507Y-88665292D01*
X177776900Y-88634864D01*
X177786714Y-88627903D01*
X177798174Y-88622477D01*
X177814032Y-88618397D01*
X177837037Y-88615471D01*
X177869938Y-88613508D01*
X177915484Y-88612317D01*
X177976427Y-88611708D01*
X178055514Y-88611489D01*
X178114044Y-88611466D01*
X178205593Y-88611540D01*
X178277313Y-88611887D01*
X178331955Y-88612699D01*
X178372268Y-88614167D01*
X178401002Y-88616481D01*
X178420907Y-88619833D01*
X178434732Y-88624412D01*
X178445228Y-88630411D01*
X178451189Y-88634864D01*
X178465309Y-88646150D01*
X178475971Y-88656699D01*
X178482108Y-88668107D01*
X178482657Y-88681970D01*
X178476552Y-88699886D01*
X178476552Y-88699886D01*
G37*
X178476552Y-88699886D02*
X178462727Y-88723452D01*
X178440119Y-88754265D01*
X178407662Y-88793922D01*
X178364292Y-88844020D01*
X178308942Y-88906157D01*
X178240549Y-88981928D01*
X178161916Y-89068666D01*
X177998122Y-89249289D01*
X178217971Y-89254933D01*
X178293649Y-89256971D01*
X178350006Y-89258937D01*
X178390294Y-89261266D01*
X178417765Y-89264394D01*
X178435671Y-89268755D01*
X178447263Y-89274784D01*
X178455792Y-89282916D01*
X178459377Y-89287228D01*
X178478330Y-89321759D01*
X178475559Y-89354617D01*
X178459367Y-89380682D01*
X178437801Y-89407333D01*
X178122849Y-89410648D01*
X178030221Y-89411565D01*
X177957456Y-89412032D01*
X177901839Y-89411887D01*
X177860658Y-89410968D01*
X177831197Y-89409113D01*
X177810745Y-89406161D01*
X177796587Y-89401950D01*
X177786009Y-89396318D01*
X177777526Y-89390073D01*
X177761793Y-89376561D01*
X177751364Y-89363117D01*
X177747361Y-89347876D01*
X177750906Y-89328974D01*
X177763121Y-89304545D01*
X177785129Y-89272727D01*
X177818051Y-89231652D01*
X177863009Y-89179458D01*
X177921125Y-89114278D01*
X177987901Y-89040444D01*
X178228542Y-88775155D01*
X178009411Y-88769511D01*
X177933872Y-88767469D01*
X177877646Y-88765498D01*
X177837476Y-88763161D01*
X177810104Y-88760019D01*
X177792272Y-88755636D01*
X177780721Y-88749576D01*
X177772193Y-88741400D01*
X177768718Y-88737216D01*
X177749628Y-88700235D01*
X177752507Y-88665292D01*
X177776900Y-88634864D01*
X177786714Y-88627903D01*
X177798174Y-88622477D01*
X177814032Y-88618397D01*
X177837037Y-88615471D01*
X177869938Y-88613508D01*
X177915484Y-88612317D01*
X177976427Y-88611708D01*
X178055514Y-88611489D01*
X178114044Y-88611466D01*
X178205593Y-88611540D01*
X178277313Y-88611887D01*
X178331955Y-88612699D01*
X178372268Y-88614167D01*
X178401002Y-88616481D01*
X178420907Y-88619833D01*
X178434732Y-88624412D01*
X178445228Y-88630411D01*
X178451189Y-88634864D01*
X178465309Y-88646150D01*
X178475971Y-88656699D01*
X178482108Y-88668107D01*
X178482657Y-88681970D01*
X178476552Y-88699886D01*
G36*
X178475401Y-88049919D02*
X178463905Y-88118435D01*
X178446033Y-88171057D01*
X178422501Y-88205292D01*
X178409076Y-88214621D01*
X178377852Y-88224107D01*
X178349605Y-88217723D01*
X178322818Y-88197570D01*
X178310287Y-88166255D01*
X178311304Y-88120817D01*
X178318094Y-88085674D01*
X178331029Y-88007581D01*
X178332258Y-87927774D01*
X178321759Y-87838445D01*
X178317310Y-87813771D01*
X178293892Y-87730709D01*
X178259055Y-87665727D01*
X178213396Y-87619539D01*
X178157506Y-87592855D01*
X178128612Y-87587337D01*
X178069988Y-87590949D01*
X178018121Y-87614271D01*
X177974022Y-87655176D01*
X177938701Y-87711541D01*
X177913171Y-87781240D01*
X177898441Y-87862148D01*
X177895522Y-87952140D01*
X177905425Y-88049090D01*
X177906359Y-88054564D01*
X177913541Y-88093125D01*
X177920479Y-88114506D01*
X177930773Y-88123773D01*
X177948024Y-88125994D01*
X177957159Y-88126044D01*
X177995511Y-88126044D01*
X177995511Y-88057569D01*
X177999653Y-87997100D01*
X178012853Y-87955835D01*
X178036270Y-87931825D01*
X178071064Y-87923123D01*
X178075606Y-87923017D01*
X178105346Y-87928108D01*
X178126581Y-87945567D01*
X178140634Y-87978061D01*
X178148827Y-88028257D01*
X178151839Y-88076877D01*
X178153567Y-88147544D01*
X178150930Y-88198802D01*
X178141200Y-88233761D01*
X178121647Y-88255530D01*
X178089544Y-88267220D01*
X178042162Y-88271940D01*
X177979929Y-88272800D01*
X177910465Y-88271391D01*
X177863214Y-88267152D01*
X177837988Y-88260064D01*
X177836012Y-88258689D01*
X177804492Y-88219772D01*
X177779530Y-88162714D01*
X177761660Y-88091131D01*
X177751414Y-88008642D01*
X177749327Y-87918861D01*
X177755932Y-87825408D01*
X177764044Y-87770444D01*
X177788446Y-87684234D01*
X177828338Y-87604108D01*
X177880113Y-87537023D01*
X177890461Y-87526827D01*
X177933965Y-87493698D01*
X177987882Y-87463806D01*
X178044408Y-87440643D01*
X178095741Y-87427702D01*
X178115456Y-87426142D01*
X178156581Y-87432782D01*
X178207748Y-87450432D01*
X178261606Y-87475703D01*
X178310805Y-87505211D01*
X178343666Y-87531281D01*
X178392548Y-87592235D01*
X178431455Y-87671031D01*
X178459506Y-87764843D01*
X178475821Y-87870850D01*
X178479808Y-87968000D01*
X178475401Y-88049919D01*
X178475401Y-88049919D01*
G37*
X178475401Y-88049919D02*
X178463905Y-88118435D01*
X178446033Y-88171057D01*
X178422501Y-88205292D01*
X178409076Y-88214621D01*
X178377852Y-88224107D01*
X178349605Y-88217723D01*
X178322818Y-88197570D01*
X178310287Y-88166255D01*
X178311304Y-88120817D01*
X178318094Y-88085674D01*
X178331029Y-88007581D01*
X178332258Y-87927774D01*
X178321759Y-87838445D01*
X178317310Y-87813771D01*
X178293892Y-87730709D01*
X178259055Y-87665727D01*
X178213396Y-87619539D01*
X178157506Y-87592855D01*
X178128612Y-87587337D01*
X178069988Y-87590949D01*
X178018121Y-87614271D01*
X177974022Y-87655176D01*
X177938701Y-87711541D01*
X177913171Y-87781240D01*
X177898441Y-87862148D01*
X177895522Y-87952140D01*
X177905425Y-88049090D01*
X177906359Y-88054564D01*
X177913541Y-88093125D01*
X177920479Y-88114506D01*
X177930773Y-88123773D01*
X177948024Y-88125994D01*
X177957159Y-88126044D01*
X177995511Y-88126044D01*
X177995511Y-88057569D01*
X177999653Y-87997100D01*
X178012853Y-87955835D01*
X178036270Y-87931825D01*
X178071064Y-87923123D01*
X178075606Y-87923017D01*
X178105346Y-87928108D01*
X178126581Y-87945567D01*
X178140634Y-87978061D01*
X178148827Y-88028257D01*
X178151839Y-88076877D01*
X178153567Y-88147544D01*
X178150930Y-88198802D01*
X178141200Y-88233761D01*
X178121647Y-88255530D01*
X178089544Y-88267220D01*
X178042162Y-88271940D01*
X177979929Y-88272800D01*
X177910465Y-88271391D01*
X177863214Y-88267152D01*
X177837988Y-88260064D01*
X177836012Y-88258689D01*
X177804492Y-88219772D01*
X177779530Y-88162714D01*
X177761660Y-88091131D01*
X177751414Y-88008642D01*
X177749327Y-87918861D01*
X177755932Y-87825408D01*
X177764044Y-87770444D01*
X177788446Y-87684234D01*
X177828338Y-87604108D01*
X177880113Y-87537023D01*
X177890461Y-87526827D01*
X177933965Y-87493698D01*
X177987882Y-87463806D01*
X178044408Y-87440643D01*
X178095741Y-87427702D01*
X178115456Y-87426142D01*
X178156581Y-87432782D01*
X178207748Y-87450432D01*
X178261606Y-87475703D01*
X178310805Y-87505211D01*
X178343666Y-87531281D01*
X178392548Y-87592235D01*
X178431455Y-87671031D01*
X178459506Y-87764843D01*
X178475821Y-87870850D01*
X178479808Y-87968000D01*
X178475401Y-88049919D01*
G36*
X178458355Y-87076178D02*
X178450782Y-87082758D01*
X178441013Y-87087921D01*
X178426429Y-87091836D01*
X178404415Y-87094676D01*
X178372352Y-87096613D01*
X178327625Y-87097817D01*
X178267615Y-87098461D01*
X178189706Y-87098716D01*
X178114044Y-87098755D01*
X178020198Y-87098686D01*
X177946311Y-87098362D01*
X177889768Y-87097614D01*
X177847951Y-87096268D01*
X177818243Y-87094154D01*
X177798027Y-87091100D01*
X177784686Y-87086934D01*
X177775602Y-87081484D01*
X177769733Y-87076178D01*
X177750053Y-87043174D01*
X177751819Y-87008009D01*
X177773283Y-86976545D01*
X177781663Y-86969316D01*
X177791386Y-86963666D01*
X177805139Y-86959401D01*
X177825611Y-86956327D01*
X177855488Y-86954248D01*
X177897459Y-86952970D01*
X177954211Y-86952299D01*
X178028433Y-86952041D01*
X178112463Y-86952000D01*
X178425515Y-86952000D01*
X178453224Y-86979709D01*
X178476537Y-87013863D01*
X178477377Y-87046994D01*
X178458355Y-87076178D01*
X178458355Y-87076178D01*
G37*
X178458355Y-87076178D02*
X178450782Y-87082758D01*
X178441013Y-87087921D01*
X178426429Y-87091836D01*
X178404415Y-87094676D01*
X178372352Y-87096613D01*
X178327625Y-87097817D01*
X178267615Y-87098461D01*
X178189706Y-87098716D01*
X178114044Y-87098755D01*
X178020198Y-87098686D01*
X177946311Y-87098362D01*
X177889768Y-87097614D01*
X177847951Y-87096268D01*
X177818243Y-87094154D01*
X177798027Y-87091100D01*
X177784686Y-87086934D01*
X177775602Y-87081484D01*
X177769733Y-87076178D01*
X177750053Y-87043174D01*
X177751819Y-87008009D01*
X177773283Y-86976545D01*
X177781663Y-86969316D01*
X177791386Y-86963666D01*
X177805139Y-86959401D01*
X177825611Y-86956327D01*
X177855488Y-86954248D01*
X177897459Y-86952970D01*
X177954211Y-86952299D01*
X178028433Y-86952041D01*
X178112463Y-86952000D01*
X178425515Y-86952000D01*
X178453224Y-86979709D01*
X178476537Y-87013863D01*
X178477377Y-87046994D01*
X178458355Y-87076178D01*
G36*
X178479649Y-86308297D02*
X178474419Y-86383112D01*
X178466250Y-86452694D01*
X178455450Y-86512998D01*
X178442327Y-86559980D01*
X178427187Y-86589594D01*
X178422731Y-86594140D01*
X178388150Y-86609946D01*
X178352649Y-86605153D01*
X178322275Y-86580636D01*
X178321404Y-86579466D01*
X178312046Y-86565046D01*
X178307124Y-86549992D01*
X178306527Y-86528995D01*
X178310139Y-86496743D01*
X178317846Y-86447927D01*
X178318495Y-86444000D01*
X178327431Y-86371261D01*
X178331839Y-86292783D01*
X178331881Y-86214073D01*
X178327721Y-86140639D01*
X178319521Y-86077989D01*
X178307443Y-86031630D01*
X178306229Y-86028584D01*
X178287385Y-85994952D01*
X178268315Y-85983136D01*
X178249561Y-85992386D01*
X178231663Y-86021953D01*
X178215163Y-86071089D01*
X178200604Y-86139043D01*
X178193594Y-86184355D01*
X178180111Y-86278544D01*
X178167786Y-86353456D01*
X178155551Y-86412283D01*
X178142339Y-86458215D01*
X178127083Y-86494445D01*
X178108715Y-86524162D01*
X178086169Y-86550558D01*
X178064029Y-86571770D01*
X178033181Y-86596935D01*
X178006655Y-86609319D01*
X177973974Y-86613192D01*
X177962005Y-86613333D01*
X177922288Y-86610424D01*
X177892741Y-86598798D01*
X177866514Y-86578677D01*
X177826424Y-86537784D01*
X177795851Y-86492183D01*
X177773797Y-86438487D01*
X177759265Y-86373308D01*
X177751259Y-86293256D01*
X177748782Y-86194943D01*
X177748823Y-86178711D01*
X177750182Y-86113151D01*
X177753270Y-86048134D01*
X177757644Y-85990748D01*
X177762860Y-85948078D01*
X177763459Y-85944628D01*
X177773509Y-85902204D01*
X177786204Y-85866220D01*
X177797810Y-85845850D01*
X177828428Y-85826893D01*
X177864082Y-85825573D01*
X177895856Y-85841915D01*
X177899449Y-85845571D01*
X177910124Y-85860685D01*
X177914724Y-85879585D01*
X177913941Y-85908838D01*
X177909873Y-85944349D01*
X177906238Y-85984030D01*
X177903172Y-86039655D01*
X177900947Y-86104594D01*
X177899836Y-86172215D01*
X177899763Y-86190000D01*
X177900036Y-86257872D01*
X177901354Y-86307546D01*
X177904173Y-86343390D01*
X177908950Y-86369776D01*
X177916143Y-86391074D01*
X177922133Y-86403874D01*
X177938767Y-86432000D01*
X177953832Y-86449932D01*
X177958103Y-86452553D01*
X177975737Y-86447024D01*
X177992808Y-86420740D01*
X178008542Y-86375522D01*
X178022162Y-86313192D01*
X178025196Y-86294829D01*
X178040262Y-86198910D01*
X178052854Y-86122359D01*
X178063889Y-86062220D01*
X178074280Y-86015540D01*
X178084944Y-85979363D01*
X178096795Y-85950735D01*
X178110749Y-85926702D01*
X178127719Y-85904308D01*
X178148622Y-85880598D01*
X178155951Y-85872620D01*
X178183301Y-85844647D01*
X178204971Y-85829840D01*
X178229768Y-85824048D01*
X178261017Y-85823111D01*
X178322295Y-85833425D01*
X178374360Y-85864248D01*
X178417042Y-85915405D01*
X178450175Y-85986717D01*
X178465036Y-86037600D01*
X178474634Y-86092900D01*
X178480064Y-86159147D01*
X178481633Y-86232294D01*
X178479649Y-86308297D01*
X178479649Y-86308297D01*
G37*
X178479649Y-86308297D02*
X178474419Y-86383112D01*
X178466250Y-86452694D01*
X178455450Y-86512998D01*
X178442327Y-86559980D01*
X178427187Y-86589594D01*
X178422731Y-86594140D01*
X178388150Y-86609946D01*
X178352649Y-86605153D01*
X178322275Y-86580636D01*
X178321404Y-86579466D01*
X178312046Y-86565046D01*
X178307124Y-86549992D01*
X178306527Y-86528995D01*
X178310139Y-86496743D01*
X178317846Y-86447927D01*
X178318495Y-86444000D01*
X178327431Y-86371261D01*
X178331839Y-86292783D01*
X178331881Y-86214073D01*
X178327721Y-86140639D01*
X178319521Y-86077989D01*
X178307443Y-86031630D01*
X178306229Y-86028584D01*
X178287385Y-85994952D01*
X178268315Y-85983136D01*
X178249561Y-85992386D01*
X178231663Y-86021953D01*
X178215163Y-86071089D01*
X178200604Y-86139043D01*
X178193594Y-86184355D01*
X178180111Y-86278544D01*
X178167786Y-86353456D01*
X178155551Y-86412283D01*
X178142339Y-86458215D01*
X178127083Y-86494445D01*
X178108715Y-86524162D01*
X178086169Y-86550558D01*
X178064029Y-86571770D01*
X178033181Y-86596935D01*
X178006655Y-86609319D01*
X177973974Y-86613192D01*
X177962005Y-86613333D01*
X177922288Y-86610424D01*
X177892741Y-86598798D01*
X177866514Y-86578677D01*
X177826424Y-86537784D01*
X177795851Y-86492183D01*
X177773797Y-86438487D01*
X177759265Y-86373308D01*
X177751259Y-86293256D01*
X177748782Y-86194943D01*
X177748823Y-86178711D01*
X177750182Y-86113151D01*
X177753270Y-86048134D01*
X177757644Y-85990748D01*
X177762860Y-85948078D01*
X177763459Y-85944628D01*
X177773509Y-85902204D01*
X177786204Y-85866220D01*
X177797810Y-85845850D01*
X177828428Y-85826893D01*
X177864082Y-85825573D01*
X177895856Y-85841915D01*
X177899449Y-85845571D01*
X177910124Y-85860685D01*
X177914724Y-85879585D01*
X177913941Y-85908838D01*
X177909873Y-85944349D01*
X177906238Y-85984030D01*
X177903172Y-86039655D01*
X177900947Y-86104594D01*
X177899836Y-86172215D01*
X177899763Y-86190000D01*
X177900036Y-86257872D01*
X177901354Y-86307546D01*
X177904173Y-86343390D01*
X177908950Y-86369776D01*
X177916143Y-86391074D01*
X177922133Y-86403874D01*
X177938767Y-86432000D01*
X177953832Y-86449932D01*
X177958103Y-86452553D01*
X177975737Y-86447024D01*
X177992808Y-86420740D01*
X178008542Y-86375522D01*
X178022162Y-86313192D01*
X178025196Y-86294829D01*
X178040262Y-86198910D01*
X178052854Y-86122359D01*
X178063889Y-86062220D01*
X178074280Y-86015540D01*
X178084944Y-85979363D01*
X178096795Y-85950735D01*
X178110749Y-85926702D01*
X178127719Y-85904308D01*
X178148622Y-85880598D01*
X178155951Y-85872620D01*
X178183301Y-85844647D01*
X178204971Y-85829840D01*
X178229768Y-85824048D01*
X178261017Y-85823111D01*
X178322295Y-85833425D01*
X178374360Y-85864248D01*
X178417042Y-85915405D01*
X178450175Y-85986717D01*
X178465036Y-86037600D01*
X178474634Y-86092900D01*
X178480064Y-86159147D01*
X178481633Y-86232294D01*
X178479649Y-86308297D01*
G36*
X178480854Y-85287206D02*
X178480482Y-85356614D01*
X178479615Y-85409003D01*
X178478054Y-85447153D01*
X178475597Y-85473841D01*
X178472043Y-85491847D01*
X178467190Y-85503951D01*
X178460839Y-85512931D01*
X178457916Y-85516182D01*
X178426858Y-85535957D01*
X178391172Y-85539518D01*
X178359490Y-85526509D01*
X178353087Y-85520494D01*
X178346879Y-85510765D01*
X178342090Y-85495099D01*
X178338486Y-85470592D01*
X178335836Y-85434339D01*
X178333905Y-85383435D01*
X178332461Y-85314974D01*
X178331582Y-85252383D01*
X178328533Y-85004666D01*
X178263622Y-85001281D01*
X178198711Y-84997895D01*
X178198711Y-85166042D01*
X178198081Y-85239041D01*
X178195447Y-85292483D01*
X178189691Y-85329372D01*
X178179696Y-85352712D01*
X178164344Y-85365506D01*
X178142518Y-85370758D01*
X178122262Y-85371555D01*
X178097408Y-85369077D01*
X178079094Y-85359723D01*
X178066363Y-85340617D01*
X178058259Y-85308882D01*
X178053824Y-85261641D01*
X178052101Y-85196017D01*
X178051955Y-85160199D01*
X178051955Y-84999022D01*
X177893911Y-84999022D01*
X177893911Y-85247378D01*
X177893798Y-85328787D01*
X177893288Y-85390658D01*
X177892130Y-85436032D01*
X177890070Y-85467946D01*
X177886854Y-85489441D01*
X177882228Y-85503557D01*
X177875941Y-85513332D01*
X177871333Y-85518311D01*
X177844440Y-85535390D01*
X177820533Y-85540889D01*
X177791333Y-85533037D01*
X177769733Y-85518311D01*
X177762934Y-85510454D01*
X177757654Y-85500312D01*
X177753702Y-85485156D01*
X177750887Y-85462259D01*
X177749018Y-85428891D01*
X177747902Y-85382325D01*
X177747349Y-85319833D01*
X177747167Y-85238686D01*
X177747155Y-85196578D01*
X177747235Y-85106402D01*
X177747602Y-85036076D01*
X177748448Y-84982871D01*
X177749964Y-84944060D01*
X177752341Y-84916913D01*
X177755771Y-84898702D01*
X177760446Y-84886700D01*
X177766556Y-84878178D01*
X177769733Y-84874844D01*
X177777330Y-84868245D01*
X177787130Y-84863073D01*
X177801761Y-84859154D01*
X177823848Y-84856316D01*
X177856018Y-84854385D01*
X177900897Y-84853188D01*
X177961111Y-84852552D01*
X178039287Y-84852303D01*
X178112077Y-84852266D01*
X178205293Y-84852300D01*
X178278569Y-84852535D01*
X178334542Y-84853170D01*
X178375849Y-84854406D01*
X178405128Y-84856444D01*
X178425016Y-84859483D01*
X178438150Y-84863723D01*
X178447168Y-84869365D01*
X178454707Y-84876609D01*
X178456388Y-84878394D01*
X178463828Y-84887055D01*
X178469591Y-84897118D01*
X178473888Y-84911375D01*
X178476936Y-84932617D01*
X178478949Y-84963636D01*
X178480140Y-85007223D01*
X178480725Y-85066169D01*
X178480917Y-85143266D01*
X178480933Y-85197999D01*
X178480854Y-85287206D01*
X178480854Y-85287206D01*
G37*
X178480854Y-85287206D02*
X178480482Y-85356614D01*
X178479615Y-85409003D01*
X178478054Y-85447153D01*
X178475597Y-85473841D01*
X178472043Y-85491847D01*
X178467190Y-85503951D01*
X178460839Y-85512931D01*
X178457916Y-85516182D01*
X178426858Y-85535957D01*
X178391172Y-85539518D01*
X178359490Y-85526509D01*
X178353087Y-85520494D01*
X178346879Y-85510765D01*
X178342090Y-85495099D01*
X178338486Y-85470592D01*
X178335836Y-85434339D01*
X178333905Y-85383435D01*
X178332461Y-85314974D01*
X178331582Y-85252383D01*
X178328533Y-85004666D01*
X178263622Y-85001281D01*
X178198711Y-84997895D01*
X178198711Y-85166042D01*
X178198081Y-85239041D01*
X178195447Y-85292483D01*
X178189691Y-85329372D01*
X178179696Y-85352712D01*
X178164344Y-85365506D01*
X178142518Y-85370758D01*
X178122262Y-85371555D01*
X178097408Y-85369077D01*
X178079094Y-85359723D01*
X178066363Y-85340617D01*
X178058259Y-85308882D01*
X178053824Y-85261641D01*
X178052101Y-85196017D01*
X178051955Y-85160199D01*
X178051955Y-84999022D01*
X177893911Y-84999022D01*
X177893911Y-85247378D01*
X177893798Y-85328787D01*
X177893288Y-85390658D01*
X177892130Y-85436032D01*
X177890070Y-85467946D01*
X177886854Y-85489441D01*
X177882228Y-85503557D01*
X177875941Y-85513332D01*
X177871333Y-85518311D01*
X177844440Y-85535390D01*
X177820533Y-85540889D01*
X177791333Y-85533037D01*
X177769733Y-85518311D01*
X177762934Y-85510454D01*
X177757654Y-85500312D01*
X177753702Y-85485156D01*
X177750887Y-85462259D01*
X177749018Y-85428891D01*
X177747902Y-85382325D01*
X177747349Y-85319833D01*
X177747167Y-85238686D01*
X177747155Y-85196578D01*
X177747235Y-85106402D01*
X177747602Y-85036076D01*
X177748448Y-84982871D01*
X177749964Y-84944060D01*
X177752341Y-84916913D01*
X177755771Y-84898702D01*
X177760446Y-84886700D01*
X177766556Y-84878178D01*
X177769733Y-84874844D01*
X177777330Y-84868245D01*
X177787130Y-84863073D01*
X177801761Y-84859154D01*
X177823848Y-84856316D01*
X177856018Y-84854385D01*
X177900897Y-84853188D01*
X177961111Y-84852552D01*
X178039287Y-84852303D01*
X178112077Y-84852266D01*
X178205293Y-84852300D01*
X178278569Y-84852535D01*
X178334542Y-84853170D01*
X178375849Y-84854406D01*
X178405128Y-84856444D01*
X178425016Y-84859483D01*
X178438150Y-84863723D01*
X178447168Y-84869365D01*
X178454707Y-84876609D01*
X178456388Y-84878394D01*
X178463828Y-84887055D01*
X178469591Y-84897118D01*
X178473888Y-84911375D01*
X178476936Y-84932617D01*
X178478949Y-84963636D01*
X178480140Y-85007223D01*
X178480725Y-85066169D01*
X178480917Y-85143266D01*
X178480933Y-85197999D01*
X178480854Y-85287206D01*
G36*
X178480934Y-83878629D02*
X178480533Y-83918111D01*
X178477741Y-84033800D01*
X178469450Y-84130689D01*
X178454768Y-84212081D01*
X178432807Y-84281277D01*
X178402678Y-84341580D01*
X178363490Y-84396292D01*
X178346468Y-84415833D01*
X178306637Y-84448250D01*
X178252587Y-84477480D01*
X178192677Y-84500009D01*
X178135261Y-84512321D01*
X178114044Y-84513600D01*
X178055231Y-84505583D01*
X177990987Y-84484101D01*
X177930179Y-84453001D01*
X177881670Y-84416134D01*
X177875818Y-84410146D01*
X177834679Y-84359421D01*
X177802565Y-84303875D01*
X177778635Y-84240304D01*
X177762047Y-84165506D01*
X177751959Y-84076278D01*
X177747531Y-83969418D01*
X177747155Y-83920472D01*
X177747455Y-83858238D01*
X177748708Y-83814472D01*
X177751446Y-83785069D01*
X177756199Y-83765921D01*
X177763499Y-83752923D01*
X177769733Y-83745955D01*
X177777306Y-83739374D01*
X177787076Y-83734212D01*
X177801660Y-83730297D01*
X177823674Y-83727457D01*
X177855736Y-83725520D01*
X177900464Y-83724316D01*
X177960474Y-83723672D01*
X178038383Y-83723417D01*
X178114044Y-83723378D01*
X178214959Y-83723130D01*
X178295573Y-83723183D01*
X178334178Y-83724143D01*
X178334178Y-83870133D01*
X177893911Y-83870133D01*
X177893996Y-83963266D01*
X177895604Y-84019307D01*
X177899744Y-84078001D01*
X177905536Y-84126972D01*
X177905774Y-84128462D01*
X177924910Y-84207608D01*
X177954713Y-84268998D01*
X177997122Y-84315695D01*
X178043039Y-84345365D01*
X178093974Y-84363647D01*
X178141800Y-84362229D01*
X178193067Y-84341012D01*
X178246101Y-84299511D01*
X178285400Y-84242002D01*
X178311669Y-84167250D01*
X178320965Y-84117292D01*
X178327493Y-84060584D01*
X178332218Y-84000481D01*
X178334183Y-83949361D01*
X178334192Y-83946333D01*
X178334178Y-83870133D01*
X178334178Y-83724143D01*
X178358149Y-83724740D01*
X178404945Y-83729002D01*
X178438222Y-83737170D01*
X178460241Y-83750444D01*
X178473261Y-83770026D01*
X178479543Y-83797117D01*
X178481347Y-83832918D01*
X178480934Y-83878629D01*
X178480934Y-83878629D01*
G37*
X178480934Y-83878629D02*
X178480533Y-83918111D01*
X178477741Y-84033800D01*
X178469450Y-84130689D01*
X178454768Y-84212081D01*
X178432807Y-84281277D01*
X178402678Y-84341580D01*
X178363490Y-84396292D01*
X178346468Y-84415833D01*
X178306637Y-84448250D01*
X178252587Y-84477480D01*
X178192677Y-84500009D01*
X178135261Y-84512321D01*
X178114044Y-84513600D01*
X178055231Y-84505583D01*
X177990987Y-84484101D01*
X177930179Y-84453001D01*
X177881670Y-84416134D01*
X177875818Y-84410146D01*
X177834679Y-84359421D01*
X177802565Y-84303875D01*
X177778635Y-84240304D01*
X177762047Y-84165506D01*
X177751959Y-84076278D01*
X177747531Y-83969418D01*
X177747155Y-83920472D01*
X177747455Y-83858238D01*
X177748708Y-83814472D01*
X177751446Y-83785069D01*
X177756199Y-83765921D01*
X177763499Y-83752923D01*
X177769733Y-83745955D01*
X177777306Y-83739374D01*
X177787076Y-83734212D01*
X177801660Y-83730297D01*
X177823674Y-83727457D01*
X177855736Y-83725520D01*
X177900464Y-83724316D01*
X177960474Y-83723672D01*
X178038383Y-83723417D01*
X178114044Y-83723378D01*
X178214959Y-83723130D01*
X178295573Y-83723183D01*
X178334178Y-83724143D01*
X178334178Y-83870133D01*
X177893911Y-83870133D01*
X177893996Y-83963266D01*
X177895604Y-84019307D01*
X177899744Y-84078001D01*
X177905536Y-84126972D01*
X177905774Y-84128462D01*
X177924910Y-84207608D01*
X177954713Y-84268998D01*
X177997122Y-84315695D01*
X178043039Y-84345365D01*
X178093974Y-84363647D01*
X178141800Y-84362229D01*
X178193067Y-84341012D01*
X178246101Y-84299511D01*
X178285400Y-84242002D01*
X178311669Y-84167250D01*
X178320965Y-84117292D01*
X178327493Y-84060584D01*
X178332218Y-84000481D01*
X178334183Y-83949361D01*
X178334192Y-83946333D01*
X178334178Y-83870133D01*
X178334178Y-83724143D01*
X178358149Y-83724740D01*
X178404945Y-83729002D01*
X178438222Y-83737170D01*
X178460241Y-83750444D01*
X178473261Y-83770026D01*
X178479543Y-83797117D01*
X178481347Y-83832918D01*
X178480934Y-83878629D01*
G36*
X183723429Y-87726957D02*
X183699191Y-87823232D01*
X183656359Y-87909816D01*
X183596581Y-87984627D01*
X183521506Y-88045582D01*
X183432780Y-88090601D01*
X183336470Y-88116864D01*
X183239205Y-88122714D01*
X183145346Y-88107860D01*
X183057489Y-88074160D01*
X182978230Y-88023472D01*
X182910164Y-87957655D01*
X182855888Y-87878566D01*
X182817998Y-87788066D01*
X182805574Y-87736800D01*
X182798053Y-87692302D01*
X182795081Y-87658001D01*
X182796906Y-87625040D01*
X182803775Y-87584566D01*
X182810750Y-87551469D01*
X182842259Y-87458053D01*
X182893383Y-87374381D01*
X182962571Y-87302335D01*
X183048272Y-87243800D01*
X183075511Y-87229852D01*
X183111878Y-87213414D01*
X183142418Y-87203106D01*
X183174550Y-87197540D01*
X183215693Y-87195331D01*
X183261778Y-87195052D01*
X183346135Y-87199139D01*
X183415414Y-87212554D01*
X183476039Y-87237744D01*
X183534433Y-87277154D01*
X183578698Y-87315702D01*
X183644516Y-87387594D01*
X183689947Y-87462687D01*
X183717150Y-87545438D01*
X183727424Y-87623072D01*
X183723429Y-87726957D01*
X183723429Y-87726957D01*
G37*
X183723429Y-87726957D02*
X183699191Y-87823232D01*
X183656359Y-87909816D01*
X183596581Y-87984627D01*
X183521506Y-88045582D01*
X183432780Y-88090601D01*
X183336470Y-88116864D01*
X183239205Y-88122714D01*
X183145346Y-88107860D01*
X183057489Y-88074160D01*
X182978230Y-88023472D01*
X182910164Y-87957655D01*
X182855888Y-87878566D01*
X182817998Y-87788066D01*
X182805574Y-87736800D01*
X182798053Y-87692302D01*
X182795081Y-87658001D01*
X182796906Y-87625040D01*
X182803775Y-87584566D01*
X182810750Y-87551469D01*
X182842259Y-87458053D01*
X182893383Y-87374381D01*
X182962571Y-87302335D01*
X183048272Y-87243800D01*
X183075511Y-87229852D01*
X183111878Y-87213414D01*
X183142418Y-87203106D01*
X183174550Y-87197540D01*
X183215693Y-87195331D01*
X183261778Y-87195052D01*
X183346135Y-87199139D01*
X183415414Y-87212554D01*
X183476039Y-87237744D01*
X183534433Y-87277154D01*
X183578698Y-87315702D01*
X183644516Y-87387594D01*
X183689947Y-87462687D01*
X183717150Y-87545438D01*
X183727424Y-87623072D01*
X183723429Y-87726957D01*
G36*
X181277755Y-96186507D02*
X181043338Y-96186526D01*
X180830397Y-96186552D01*
X180637832Y-96186625D01*
X180464541Y-96186782D01*
X180309424Y-96187064D01*
X180171380Y-96187509D01*
X180049308Y-96188156D01*
X179942106Y-96189045D01*
X179848674Y-96190213D01*
X179767910Y-96191701D01*
X179698714Y-96193546D01*
X179639985Y-96195789D01*
X179590621Y-96198469D01*
X179549522Y-96201623D01*
X179515587Y-96205292D01*
X179487714Y-96209513D01*
X179464802Y-96214327D01*
X179445751Y-96219773D01*
X179429460Y-96225888D01*
X179414827Y-96232712D01*
X179400751Y-96240285D01*
X179386132Y-96248645D01*
X179377026Y-96253839D01*
X179316311Y-96288104D01*
X179316311Y-95429955D01*
X179412267Y-95429955D01*
X179455630Y-95429224D01*
X179488795Y-95427272D01*
X179506576Y-95424463D01*
X179508222Y-95423221D01*
X179501338Y-95411799D01*
X179483495Y-95389084D01*
X179464121Y-95366385D01*
X179423386Y-95311800D01*
X179382383Y-95242321D01*
X179344877Y-95165270D01*
X179314636Y-95087965D01*
X179304988Y-95057113D01*
X179290422Y-94988616D01*
X179280461Y-94905764D01*
X179275417Y-94816371D01*
X179275604Y-94728248D01*
X179281334Y-94649207D01*
X179287142Y-94611511D01*
X179325203Y-94473414D01*
X179382927Y-94346113D01*
X179459789Y-94230292D01*
X179555261Y-94126637D01*
X179668821Y-94035833D01*
X179779619Y-93969031D01*
X179896375Y-93914164D01*
X180015724Y-93872163D01*
X180141717Y-93842167D01*
X180278406Y-93823311D01*
X180429842Y-93814732D01*
X180507289Y-93814006D01*
X180564066Y-93816100D01*
X180564066Y-94645217D01*
X180470998Y-94645424D01*
X180383308Y-94648337D01*
X180306228Y-94654000D01*
X180244991Y-94662455D01*
X180232650Y-94665038D01*
X180125367Y-94696840D01*
X180038342Y-94738498D01*
X179971358Y-94790363D01*
X179924195Y-94852781D01*
X179896635Y-94926100D01*
X179888459Y-95010669D01*
X179899449Y-95106835D01*
X179915171Y-95170311D01*
X179933361Y-95219454D01*
X179959209Y-95273583D01*
X179982911Y-95314244D01*
X180029279Y-95384800D01*
X181179470Y-95384800D01*
X181223038Y-95317392D01*
X181263960Y-95238867D01*
X181290611Y-95154681D01*
X181302535Y-95069557D01*
X181299278Y-94988216D01*
X181280385Y-94915380D01*
X181264816Y-94883426D01*
X181221819Y-94825501D01*
X181165047Y-94776544D01*
X181092425Y-94735390D01*
X181001879Y-94700874D01*
X180891334Y-94671833D01*
X180885467Y-94670552D01*
X180823212Y-94660381D01*
X180745406Y-94652739D01*
X180657280Y-94647670D01*
X180564066Y-94645217D01*
X180564066Y-93816100D01*
X180720105Y-93821857D01*
X180915941Y-93843802D01*
X181094668Y-93879786D01*
X181256155Y-93929759D01*
X181400274Y-93993668D01*
X181526894Y-94071462D01*
X181635885Y-94163089D01*
X181727117Y-94268497D01*
X181758068Y-94313662D01*
X181814215Y-94414611D01*
X181853826Y-94517901D01*
X181877986Y-94627989D01*
X181887781Y-94749330D01*
X181886735Y-94841836D01*
X181875769Y-94971490D01*
X181853954Y-95084084D01*
X181820286Y-95182875D01*
X181773764Y-95271121D01*
X181739552Y-95319986D01*
X181717638Y-95349353D01*
X181702667Y-95371043D01*
X181698267Y-95379253D01*
X181709096Y-95380868D01*
X181739749Y-95382159D01*
X181787474Y-95383138D01*
X181849521Y-95383817D01*
X181923138Y-95384210D01*
X182005573Y-95384330D01*
X182094075Y-95384188D01*
X182185893Y-95383797D01*
X182278276Y-95383171D01*
X182368472Y-95382320D01*
X182453729Y-95381260D01*
X182531297Y-95380001D01*
X182598424Y-95378556D01*
X182652359Y-95376938D01*
X182690350Y-95375161D01*
X182697333Y-95374669D01*
X182767749Y-95367092D01*
X182822898Y-95355531D01*
X182870019Y-95337792D01*
X182916353Y-95311682D01*
X182925933Y-95305415D01*
X182962622Y-95280983D01*
X182962622Y-96186311D01*
X181277755Y-96186507D01*
X181277755Y-96186507D01*
G37*
X181277755Y-96186507D02*
X181043338Y-96186526D01*
X180830397Y-96186552D01*
X180637832Y-96186625D01*
X180464541Y-96186782D01*
X180309424Y-96187064D01*
X180171380Y-96187509D01*
X180049308Y-96188156D01*
X179942106Y-96189045D01*
X179848674Y-96190213D01*
X179767910Y-96191701D01*
X179698714Y-96193546D01*
X179639985Y-96195789D01*
X179590621Y-96198469D01*
X179549522Y-96201623D01*
X179515587Y-96205292D01*
X179487714Y-96209513D01*
X179464802Y-96214327D01*
X179445751Y-96219773D01*
X179429460Y-96225888D01*
X179414827Y-96232712D01*
X179400751Y-96240285D01*
X179386132Y-96248645D01*
X179377026Y-96253839D01*
X179316311Y-96288104D01*
X179316311Y-95429955D01*
X179412267Y-95429955D01*
X179455630Y-95429224D01*
X179488795Y-95427272D01*
X179506576Y-95424463D01*
X179508222Y-95423221D01*
X179501338Y-95411799D01*
X179483495Y-95389084D01*
X179464121Y-95366385D01*
X179423386Y-95311800D01*
X179382383Y-95242321D01*
X179344877Y-95165270D01*
X179314636Y-95087965D01*
X179304988Y-95057113D01*
X179290422Y-94988616D01*
X179280461Y-94905764D01*
X179275417Y-94816371D01*
X179275604Y-94728248D01*
X179281334Y-94649207D01*
X179287142Y-94611511D01*
X179325203Y-94473414D01*
X179382927Y-94346113D01*
X179459789Y-94230292D01*
X179555261Y-94126637D01*
X179668821Y-94035833D01*
X179779619Y-93969031D01*
X179896375Y-93914164D01*
X180015724Y-93872163D01*
X180141717Y-93842167D01*
X180278406Y-93823311D01*
X180429842Y-93814732D01*
X180507289Y-93814006D01*
X180564066Y-93816100D01*
X180564066Y-94645217D01*
X180470998Y-94645424D01*
X180383308Y-94648337D01*
X180306228Y-94654000D01*
X180244991Y-94662455D01*
X180232650Y-94665038D01*
X180125367Y-94696840D01*
X180038342Y-94738498D01*
X179971358Y-94790363D01*
X179924195Y-94852781D01*
X179896635Y-94926100D01*
X179888459Y-95010669D01*
X179899449Y-95106835D01*
X179915171Y-95170311D01*
X179933361Y-95219454D01*
X179959209Y-95273583D01*
X179982911Y-95314244D01*
X180029279Y-95384800D01*
X181179470Y-95384800D01*
X181223038Y-95317392D01*
X181263960Y-95238867D01*
X181290611Y-95154681D01*
X181302535Y-95069557D01*
X181299278Y-94988216D01*
X181280385Y-94915380D01*
X181264816Y-94883426D01*
X181221819Y-94825501D01*
X181165047Y-94776544D01*
X181092425Y-94735390D01*
X181001879Y-94700874D01*
X180891334Y-94671833D01*
X180885467Y-94670552D01*
X180823212Y-94660381D01*
X180745406Y-94652739D01*
X180657280Y-94647670D01*
X180564066Y-94645217D01*
X180564066Y-93816100D01*
X180720105Y-93821857D01*
X180915941Y-93843802D01*
X181094668Y-93879786D01*
X181256155Y-93929759D01*
X181400274Y-93993668D01*
X181526894Y-94071462D01*
X181635885Y-94163089D01*
X181727117Y-94268497D01*
X181758068Y-94313662D01*
X181814215Y-94414611D01*
X181853826Y-94517901D01*
X181877986Y-94627989D01*
X181887781Y-94749330D01*
X181886735Y-94841836D01*
X181875769Y-94971490D01*
X181853954Y-95084084D01*
X181820286Y-95182875D01*
X181773764Y-95271121D01*
X181739552Y-95319986D01*
X181717638Y-95349353D01*
X181702667Y-95371043D01*
X181698267Y-95379253D01*
X181709096Y-95380868D01*
X181739749Y-95382159D01*
X181787474Y-95383138D01*
X181849521Y-95383817D01*
X181923138Y-95384210D01*
X182005573Y-95384330D01*
X182094075Y-95384188D01*
X182185893Y-95383797D01*
X182278276Y-95383171D01*
X182368472Y-95382320D01*
X182453729Y-95381260D01*
X182531297Y-95380001D01*
X182598424Y-95378556D01*
X182652359Y-95376938D01*
X182690350Y-95375161D01*
X182697333Y-95374669D01*
X182767749Y-95367092D01*
X182822898Y-95355531D01*
X182870019Y-95337792D01*
X182916353Y-95311682D01*
X182925933Y-95305415D01*
X182962622Y-95280983D01*
X182962622Y-96186311D01*
X181277755Y-96186507D01*
G36*
X181883448Y-92673574D02*
X181863433Y-92825492D01*
X181829798Y-92960756D01*
X181782275Y-93080239D01*
X181720595Y-93184815D01*
X181657035Y-93262424D01*
X181582901Y-93331265D01*
X181503129Y-93385006D01*
X181410909Y-93427910D01*
X181367839Y-93443384D01*
X181328858Y-93456244D01*
X181292711Y-93467446D01*
X181257566Y-93477120D01*
X181221590Y-93485396D01*
X181182950Y-93492403D01*
X181139815Y-93498272D01*
X181090351Y-93503131D01*
X181032727Y-93507110D01*
X180965109Y-93510340D01*
X180885666Y-93512949D01*
X180792564Y-93515067D01*
X180683973Y-93516824D01*
X180558058Y-93518349D01*
X180412988Y-93519772D01*
X180270222Y-93521025D01*
X180114032Y-93522351D01*
X179978761Y-93523556D01*
X179862754Y-93524766D01*
X179764355Y-93526106D01*
X179681907Y-93527700D01*
X179613754Y-93529675D01*
X179558240Y-93532156D01*
X179513708Y-93535269D01*
X179478502Y-93539138D01*
X179450966Y-93543889D01*
X179429444Y-93549648D01*
X179412278Y-93556539D01*
X179397814Y-93564689D01*
X179384394Y-93574223D01*
X179370362Y-93585266D01*
X179364929Y-93589566D01*
X179342090Y-93605386D01*
X179326537Y-93612422D01*
X179326078Y-93612444D01*
X179323879Y-93601567D01*
X179321853Y-93570582D01*
X179320058Y-93521957D01*
X179318549Y-93458163D01*
X179317384Y-93381669D01*
X179316620Y-93294944D01*
X179316314Y-93200457D01*
X179316311Y-93189550D01*
X179316311Y-92766657D01*
X179412378Y-92763395D01*
X179508444Y-92760133D01*
X179457457Y-92698044D01*
X179389943Y-92600714D01*
X179335251Y-92490813D01*
X179305022Y-92404349D01*
X179290334Y-92335278D01*
X179280341Y-92251925D01*
X179275354Y-92162159D01*
X179275687Y-92073845D01*
X179281649Y-91994851D01*
X179287362Y-91958622D01*
X179325224Y-91818603D01*
X179380068Y-91692178D01*
X179451076Y-91580260D01*
X179537432Y-91483762D01*
X179638321Y-91403600D01*
X179752924Y-91340687D01*
X179879016Y-91296312D01*
X179935599Y-91283978D01*
X179997798Y-91276368D01*
X180072637Y-91272739D01*
X180106533Y-91272245D01*
X180109718Y-91272310D01*
X180109718Y-92032248D01*
X180034667Y-92041541D01*
X179970840Y-92069728D01*
X179915202Y-92118197D01*
X179910789Y-92123254D01*
X179875963Y-92171548D01*
X179853380Y-92223257D01*
X179841460Y-92283989D01*
X179838617Y-92359352D01*
X179839022Y-92377459D01*
X179841675Y-92431278D01*
X179847091Y-92471308D01*
X179857255Y-92506324D01*
X179874150Y-92545103D01*
X179879328Y-92555745D01*
X179915156Y-92616396D01*
X179957788Y-92663215D01*
X179973027Y-92675952D01*
X180029538Y-92720622D01*
X180225414Y-92720622D01*
X180304061Y-92720086D01*
X180362012Y-92718396D01*
X180401125Y-92715428D01*
X180423259Y-92711057D01*
X180429726Y-92706972D01*
X180432889Y-92691047D01*
X180435512Y-92657264D01*
X180437345Y-92610340D01*
X180438143Y-92554993D01*
X180438158Y-92546106D01*
X180432904Y-92425330D01*
X180416737Y-92322660D01*
X180389039Y-92236106D01*
X180349192Y-92163681D01*
X180302242Y-92108751D01*
X180244355Y-92064204D01*
X180181307Y-92039480D01*
X180109718Y-92032248D01*
X180109718Y-91272310D01*
X180200288Y-91274178D01*
X180279188Y-91282522D01*
X180350410Y-91298768D01*
X180421136Y-91324405D01*
X180473507Y-91348401D01*
X180568804Y-91407020D01*
X180656830Y-91485117D01*
X180735983Y-91580315D01*
X180804660Y-91690238D01*
X180861259Y-91812510D01*
X180904179Y-91944755D01*
X180919118Y-92009422D01*
X180941223Y-92145604D01*
X180955806Y-92294049D01*
X180962187Y-92445505D01*
X180960555Y-92572064D01*
X180953776Y-92733950D01*
X181012755Y-92726530D01*
X181111908Y-92707238D01*
X181192628Y-92676104D01*
X181255534Y-92632269D01*
X181301244Y-92574871D01*
X181330378Y-92503048D01*
X181343553Y-92415941D01*
X181341389Y-92312686D01*
X181337388Y-92274711D01*
X181312220Y-92133520D01*
X181271186Y-91996707D01*
X181233185Y-91902178D01*
X181213810Y-91857018D01*
X181198240Y-91818585D01*
X181188595Y-91792234D01*
X181186548Y-91784546D01*
X181195626Y-91774802D01*
X181224595Y-91758083D01*
X181273783Y-91734232D01*
X181343516Y-91703093D01*
X181434121Y-91664507D01*
X181449911Y-91657910D01*
X181522228Y-91627853D01*
X181587575Y-91600874D01*
X181643094Y-91578136D01*
X181685928Y-91560806D01*
X181713219Y-91550048D01*
X181722058Y-91546941D01*
X181726813Y-91556940D01*
X181732090Y-91583217D01*
X181735769Y-91611489D01*
X181740526Y-91641646D01*
X181749972Y-91689433D01*
X181763180Y-91750612D01*
X181779224Y-91820946D01*
X181797180Y-91896194D01*
X181804203Y-91924755D01*
X181829791Y-92029816D01*
X181849853Y-92117480D01*
X181865031Y-92192068D01*
X181875965Y-92257903D01*
X181883296Y-92319307D01*
X181887665Y-92380602D01*
X181889713Y-92446110D01*
X181890111Y-92504128D01*
X181883448Y-92673574D01*
X181883448Y-92673574D01*
G37*
X181883448Y-92673574D02*
X181863433Y-92825492D01*
X181829798Y-92960756D01*
X181782275Y-93080239D01*
X181720595Y-93184815D01*
X181657035Y-93262424D01*
X181582901Y-93331265D01*
X181503129Y-93385006D01*
X181410909Y-93427910D01*
X181367839Y-93443384D01*
X181328858Y-93456244D01*
X181292711Y-93467446D01*
X181257566Y-93477120D01*
X181221590Y-93485396D01*
X181182950Y-93492403D01*
X181139815Y-93498272D01*
X181090351Y-93503131D01*
X181032727Y-93507110D01*
X180965109Y-93510340D01*
X180885666Y-93512949D01*
X180792564Y-93515067D01*
X180683973Y-93516824D01*
X180558058Y-93518349D01*
X180412988Y-93519772D01*
X180270222Y-93521025D01*
X180114032Y-93522351D01*
X179978761Y-93523556D01*
X179862754Y-93524766D01*
X179764355Y-93526106D01*
X179681907Y-93527700D01*
X179613754Y-93529675D01*
X179558240Y-93532156D01*
X179513708Y-93535269D01*
X179478502Y-93539138D01*
X179450966Y-93543889D01*
X179429444Y-93549648D01*
X179412278Y-93556539D01*
X179397814Y-93564689D01*
X179384394Y-93574223D01*
X179370362Y-93585266D01*
X179364929Y-93589566D01*
X179342090Y-93605386D01*
X179326537Y-93612422D01*
X179326078Y-93612444D01*
X179323879Y-93601567D01*
X179321853Y-93570582D01*
X179320058Y-93521957D01*
X179318549Y-93458163D01*
X179317384Y-93381669D01*
X179316620Y-93294944D01*
X179316314Y-93200457D01*
X179316311Y-93189550D01*
X179316311Y-92766657D01*
X179412378Y-92763395D01*
X179508444Y-92760133D01*
X179457457Y-92698044D01*
X179389943Y-92600714D01*
X179335251Y-92490813D01*
X179305022Y-92404349D01*
X179290334Y-92335278D01*
X179280341Y-92251925D01*
X179275354Y-92162159D01*
X179275687Y-92073845D01*
X179281649Y-91994851D01*
X179287362Y-91958622D01*
X179325224Y-91818603D01*
X179380068Y-91692178D01*
X179451076Y-91580260D01*
X179537432Y-91483762D01*
X179638321Y-91403600D01*
X179752924Y-91340687D01*
X179879016Y-91296312D01*
X179935599Y-91283978D01*
X179997798Y-91276368D01*
X180072637Y-91272739D01*
X180106533Y-91272245D01*
X180109718Y-91272310D01*
X180109718Y-92032248D01*
X180034667Y-92041541D01*
X179970840Y-92069728D01*
X179915202Y-92118197D01*
X179910789Y-92123254D01*
X179875963Y-92171548D01*
X179853380Y-92223257D01*
X179841460Y-92283989D01*
X179838617Y-92359352D01*
X179839022Y-92377459D01*
X179841675Y-92431278D01*
X179847091Y-92471308D01*
X179857255Y-92506324D01*
X179874150Y-92545103D01*
X179879328Y-92555745D01*
X179915156Y-92616396D01*
X179957788Y-92663215D01*
X179973027Y-92675952D01*
X180029538Y-92720622D01*
X180225414Y-92720622D01*
X180304061Y-92720086D01*
X180362012Y-92718396D01*
X180401125Y-92715428D01*
X180423259Y-92711057D01*
X180429726Y-92706972D01*
X180432889Y-92691047D01*
X180435512Y-92657264D01*
X180437345Y-92610340D01*
X180438143Y-92554993D01*
X180438158Y-92546106D01*
X180432904Y-92425330D01*
X180416737Y-92322660D01*
X180389039Y-92236106D01*
X180349192Y-92163681D01*
X180302242Y-92108751D01*
X180244355Y-92064204D01*
X180181307Y-92039480D01*
X180109718Y-92032248D01*
X180109718Y-91272310D01*
X180200288Y-91274178D01*
X180279188Y-91282522D01*
X180350410Y-91298768D01*
X180421136Y-91324405D01*
X180473507Y-91348401D01*
X180568804Y-91407020D01*
X180656830Y-91485117D01*
X180735983Y-91580315D01*
X180804660Y-91690238D01*
X180861259Y-91812510D01*
X180904179Y-91944755D01*
X180919118Y-92009422D01*
X180941223Y-92145604D01*
X180955806Y-92294049D01*
X180962187Y-92445505D01*
X180960555Y-92572064D01*
X180953776Y-92733950D01*
X181012755Y-92726530D01*
X181111908Y-92707238D01*
X181192628Y-92676104D01*
X181255534Y-92632269D01*
X181301244Y-92574871D01*
X181330378Y-92503048D01*
X181343553Y-92415941D01*
X181341389Y-92312686D01*
X181337388Y-92274711D01*
X181312220Y-92133520D01*
X181271186Y-91996707D01*
X181233185Y-91902178D01*
X181213810Y-91857018D01*
X181198240Y-91818585D01*
X181188595Y-91792234D01*
X181186548Y-91784546D01*
X181195626Y-91774802D01*
X181224595Y-91758083D01*
X181273783Y-91734232D01*
X181343516Y-91703093D01*
X181434121Y-91664507D01*
X181449911Y-91657910D01*
X181522228Y-91627853D01*
X181587575Y-91600874D01*
X181643094Y-91578136D01*
X181685928Y-91560806D01*
X181713219Y-91550048D01*
X181722058Y-91546941D01*
X181726813Y-91556940D01*
X181732090Y-91583217D01*
X181735769Y-91611489D01*
X181740526Y-91641646D01*
X181749972Y-91689433D01*
X181763180Y-91750612D01*
X181779224Y-91820946D01*
X181797180Y-91896194D01*
X181804203Y-91924755D01*
X181829791Y-92029816D01*
X181849853Y-92117480D01*
X181865031Y-92192068D01*
X181875965Y-92257903D01*
X181883296Y-92319307D01*
X181887665Y-92380602D01*
X181889713Y-92446110D01*
X181890111Y-92504128D01*
X181883448Y-92673574D01*
G36*
X182800929Y-90328429D02*
X182779755Y-90488570D01*
X182739615Y-90652510D01*
X182680111Y-90822313D01*
X182600846Y-91000043D01*
X182595301Y-91011310D01*
X182567275Y-91069005D01*
X182543198Y-91120552D01*
X182524751Y-91162191D01*
X182513614Y-91190162D01*
X182511067Y-91199733D01*
X182506059Y-91218950D01*
X182501853Y-91223561D01*
X182491420Y-91218458D01*
X182465132Y-91202418D01*
X182425743Y-91177288D01*
X182376009Y-91144914D01*
X182318685Y-91107143D01*
X182256524Y-91065822D01*
X182192282Y-91022798D01*
X182128715Y-90979917D01*
X182068575Y-90939026D01*
X182014620Y-90901971D01*
X181969603Y-90870600D01*
X181936279Y-90846759D01*
X181917403Y-90832294D01*
X181915213Y-90830309D01*
X181919862Y-90820191D01*
X181937038Y-90797850D01*
X181963560Y-90767280D01*
X181978036Y-90751536D01*
X182053318Y-90655047D01*
X182108759Y-90548336D01*
X182143859Y-90432832D01*
X182158120Y-90309962D01*
X182156949Y-90240561D01*
X182139788Y-90119423D01*
X182103906Y-90010205D01*
X182049041Y-89912582D01*
X181974930Y-89826228D01*
X181881312Y-89750815D01*
X181767924Y-89686018D01*
X181681333Y-89648601D01*
X181545634Y-89604748D01*
X181398150Y-89572428D01*
X181242686Y-89551557D01*
X181083044Y-89542051D01*
X180923027Y-89543827D01*
X180766439Y-89556803D01*
X180617082Y-89580894D01*
X180478760Y-89616018D01*
X180355276Y-89662092D01*
X180321022Y-89678373D01*
X180206936Y-89746620D01*
X180110443Y-89827079D01*
X180032330Y-89918570D01*
X179973383Y-90019911D01*
X179934388Y-90129920D01*
X179916132Y-90247415D01*
X179914789Y-90288883D01*
X179925710Y-90410441D01*
X179958526Y-90530878D01*
X180012561Y-90648666D01*
X180087135Y-90762277D01*
X180165461Y-90853685D01*
X180209992Y-90900215D01*
X179912729Y-91081483D01*
X179838567Y-91126580D01*
X179770354Y-91167819D01*
X179710541Y-91203735D01*
X179661580Y-91232866D01*
X179625921Y-91253750D01*
X179606016Y-91264924D01*
X179602921Y-91266375D01*
X179593282Y-91258146D01*
X179576001Y-91232567D01*
X179552717Y-91192873D01*
X179525066Y-91142297D01*
X179494685Y-91084074D01*
X179463210Y-91021437D01*
X179432278Y-90957621D01*
X179403527Y-90895860D01*
X179378592Y-90839388D01*
X179359111Y-90791438D01*
X179350682Y-90767986D01*
X179312867Y-90634221D01*
X179287864Y-90496327D01*
X179274860Y-90348622D01*
X179272532Y-90221833D01*
X179273627Y-90153878D01*
X179275725Y-90088277D01*
X179278566Y-90030847D01*
X179281894Y-89987403D01*
X179283578Y-89973298D01*
X179312413Y-89834284D01*
X179357532Y-89692757D01*
X179416250Y-89555275D01*
X179485880Y-89428394D01*
X179538559Y-89350889D01*
X179646761Y-89223481D01*
X179773329Y-89105178D01*
X179915134Y-88998172D01*
X180069049Y-88904652D01*
X180231947Y-88826810D01*
X180349244Y-88782956D01*
X180532872Y-88732708D01*
X180727419Y-88699209D01*
X180928675Y-88682449D01*
X181132432Y-88682416D01*
X181334479Y-88699101D01*
X181530608Y-88732493D01*
X181716609Y-88782580D01*
X181728197Y-88786397D01*
X181890250Y-88849281D01*
X182038168Y-88926028D01*
X182176135Y-89019242D01*
X182308339Y-89131527D01*
X182353601Y-89175392D01*
X182477543Y-89311534D01*
X182580085Y-89451491D01*
X182662344Y-89597411D01*
X182725436Y-89751442D01*
X182770477Y-89915732D01*
X182787967Y-90011289D01*
X182803534Y-90170023D01*
X182800929Y-90328429D01*
X182800929Y-90328429D01*
G37*
X182800929Y-90328429D02*
X182779755Y-90488570D01*
X182739615Y-90652510D01*
X182680111Y-90822313D01*
X182600846Y-91000043D01*
X182595301Y-91011310D01*
X182567275Y-91069005D01*
X182543198Y-91120552D01*
X182524751Y-91162191D01*
X182513614Y-91190162D01*
X182511067Y-91199733D01*
X182506059Y-91218950D01*
X182501853Y-91223561D01*
X182491420Y-91218458D01*
X182465132Y-91202418D01*
X182425743Y-91177288D01*
X182376009Y-91144914D01*
X182318685Y-91107143D01*
X182256524Y-91065822D01*
X182192282Y-91022798D01*
X182128715Y-90979917D01*
X182068575Y-90939026D01*
X182014620Y-90901971D01*
X181969603Y-90870600D01*
X181936279Y-90846759D01*
X181917403Y-90832294D01*
X181915213Y-90830309D01*
X181919862Y-90820191D01*
X181937038Y-90797850D01*
X181963560Y-90767280D01*
X181978036Y-90751536D01*
X182053318Y-90655047D01*
X182108759Y-90548336D01*
X182143859Y-90432832D01*
X182158120Y-90309962D01*
X182156949Y-90240561D01*
X182139788Y-90119423D01*
X182103906Y-90010205D01*
X182049041Y-89912582D01*
X181974930Y-89826228D01*
X181881312Y-89750815D01*
X181767924Y-89686018D01*
X181681333Y-89648601D01*
X181545634Y-89604748D01*
X181398150Y-89572428D01*
X181242686Y-89551557D01*
X181083044Y-89542051D01*
X180923027Y-89543827D01*
X180766439Y-89556803D01*
X180617082Y-89580894D01*
X180478760Y-89616018D01*
X180355276Y-89662092D01*
X180321022Y-89678373D01*
X180206936Y-89746620D01*
X180110443Y-89827079D01*
X180032330Y-89918570D01*
X179973383Y-90019911D01*
X179934388Y-90129920D01*
X179916132Y-90247415D01*
X179914789Y-90288883D01*
X179925710Y-90410441D01*
X179958526Y-90530878D01*
X180012561Y-90648666D01*
X180087135Y-90762277D01*
X180165461Y-90853685D01*
X180209992Y-90900215D01*
X179912729Y-91081483D01*
X179838567Y-91126580D01*
X179770354Y-91167819D01*
X179710541Y-91203735D01*
X179661580Y-91232866D01*
X179625921Y-91253750D01*
X179606016Y-91264924D01*
X179602921Y-91266375D01*
X179593282Y-91258146D01*
X179576001Y-91232567D01*
X179552717Y-91192873D01*
X179525066Y-91142297D01*
X179494685Y-91084074D01*
X179463210Y-91021437D01*
X179432278Y-90957621D01*
X179403527Y-90895860D01*
X179378592Y-90839388D01*
X179359111Y-90791438D01*
X179350682Y-90767986D01*
X179312867Y-90634221D01*
X179287864Y-90496327D01*
X179274860Y-90348622D01*
X179272532Y-90221833D01*
X179273627Y-90153878D01*
X179275725Y-90088277D01*
X179278566Y-90030847D01*
X179281894Y-89987403D01*
X179283578Y-89973298D01*
X179312413Y-89834284D01*
X179357532Y-89692757D01*
X179416250Y-89555275D01*
X179485880Y-89428394D01*
X179538559Y-89350889D01*
X179646761Y-89223481D01*
X179773329Y-89105178D01*
X179915134Y-88998172D01*
X180069049Y-88904652D01*
X180231947Y-88826810D01*
X180349244Y-88782956D01*
X180532872Y-88732708D01*
X180727419Y-88699209D01*
X180928675Y-88682449D01*
X181132432Y-88682416D01*
X181334479Y-88699101D01*
X181530608Y-88732493D01*
X181716609Y-88782580D01*
X181728197Y-88786397D01*
X181890250Y-88849281D01*
X182038168Y-88926028D01*
X182176135Y-89019242D01*
X182308339Y-89131527D01*
X182353601Y-89175392D01*
X182477543Y-89311534D01*
X182580085Y-89451491D01*
X182662344Y-89597411D01*
X182725436Y-89751442D01*
X182770477Y-89915732D01*
X182787967Y-90011289D01*
X182803534Y-90170023D01*
X182800929Y-90328429D01*
G36*
X183260946Y-87053600D02*
X183147007Y-87064465D01*
X183039384Y-87096082D01*
X182940385Y-87146985D01*
X182852316Y-87215707D01*
X182777484Y-87300781D01*
X182719616Y-87397768D01*
X182679995Y-87504036D01*
X182661427Y-87611050D01*
X182662566Y-87716700D01*
X182682070Y-87818875D01*
X182718594Y-87915466D01*
X182770795Y-88004362D01*
X182837327Y-88083454D01*
X182916848Y-88150631D01*
X183008013Y-88203783D01*
X183109477Y-88240801D01*
X183219898Y-88259573D01*
X183269794Y-88261511D01*
X183357733Y-88261511D01*
X183357733Y-88313440D01*
X183354889Y-88349747D01*
X183343089Y-88376645D01*
X183319351Y-88403751D01*
X183280969Y-88442133D01*
X181089398Y-88442133D01*
X180827261Y-88442124D01*
X180586759Y-88442092D01*
X180366952Y-88442028D01*
X180166899Y-88441924D01*
X179985656Y-88441773D01*
X179822284Y-88441566D01*
X179675840Y-88441294D01*
X179545383Y-88440950D01*
X179429971Y-88440526D01*
X179328662Y-88440013D01*
X179240516Y-88439403D01*
X179164590Y-88438688D01*
X179099943Y-88437860D01*
X179045633Y-88436911D01*
X179000720Y-88435833D01*
X178964260Y-88434617D01*
X178935313Y-88433255D01*
X178912937Y-88431739D01*
X178896191Y-88430062D01*
X178884132Y-88428214D01*
X178875820Y-88426187D01*
X178870313Y-88423975D01*
X178868463Y-88422892D01*
X178861451Y-88418729D01*
X178855004Y-88415195D01*
X178849100Y-88411365D01*
X178843714Y-88406318D01*
X178838822Y-88399129D01*
X178834402Y-88388877D01*
X178830428Y-88374636D01*
X178826879Y-88355486D01*
X178823730Y-88330501D01*
X178820958Y-88298760D01*
X178818539Y-88259338D01*
X178816449Y-88211314D01*
X178814665Y-88153763D01*
X178813163Y-88085763D01*
X178811920Y-88006390D01*
X178810911Y-87914721D01*
X178810115Y-87809834D01*
X178809506Y-87690804D01*
X178809061Y-87556710D01*
X178808757Y-87406627D01*
X178808570Y-87239633D01*
X178808476Y-87054804D01*
X178808452Y-86851217D01*
X178808475Y-86627950D01*
X178808520Y-86384078D01*
X178808563Y-86118679D01*
X178808568Y-86080296D01*
X178808611Y-85813318D01*
X178808682Y-85567998D01*
X178808787Y-85343417D01*
X178808934Y-85138655D01*
X178809131Y-84952794D01*
X178809384Y-84784912D01*
X178809700Y-84634092D01*
X178810087Y-84499413D01*
X178810553Y-84379956D01*
X178811103Y-84274801D01*
X178811747Y-84183029D01*
X178812489Y-84103721D01*
X178813339Y-84035957D01*
X178814303Y-83978818D01*
X178815389Y-83931383D01*
X178816603Y-83892734D01*
X178817953Y-83861951D01*
X178819445Y-83838115D01*
X178821089Y-83820306D01*
X178822889Y-83807605D01*
X178824855Y-83799092D01*
X178826523Y-83794734D01*
X178830094Y-83786272D01*
X178832730Y-83778503D01*
X178835366Y-83771398D01*
X178838938Y-83764927D01*
X178844379Y-83759061D01*
X178852625Y-83753771D01*
X178864610Y-83749026D01*
X178881269Y-83744798D01*
X178903537Y-83741057D01*
X178932348Y-83737773D01*
X178968637Y-83734917D01*
X179013339Y-83732460D01*
X179067389Y-83730371D01*
X179131721Y-83728622D01*
X179207270Y-83727183D01*
X179294970Y-83726024D01*
X179395757Y-83725117D01*
X179510566Y-83724431D01*
X179640330Y-83723937D01*
X179785985Y-83723605D01*
X179948465Y-83723407D01*
X180128705Y-83723313D01*
X180327640Y-83723292D01*
X180546204Y-83723315D01*
X180785332Y-83723354D01*
X181045960Y-83723378D01*
X181088111Y-83723378D01*
X181351008Y-83723364D01*
X181592268Y-83723339D01*
X181812835Y-83723329D01*
X182013648Y-83723358D01*
X182195651Y-83723452D01*
X182359784Y-83723638D01*
X182506989Y-83723941D01*
X182638208Y-83724386D01*
X182748133Y-83724966D01*
X182748133Y-84027803D01*
X182690289Y-84067593D01*
X182674521Y-84078764D01*
X182660559Y-84088834D01*
X182647216Y-84097862D01*
X182633307Y-84105903D01*
X182617644Y-84113014D01*
X182599042Y-84119253D01*
X182576314Y-84124675D01*
X182548273Y-84129338D01*
X182513733Y-84133299D01*
X182471508Y-84136615D01*
X182420411Y-84139341D01*
X182359256Y-84141536D01*
X182286856Y-84143255D01*
X182202025Y-84144556D01*
X182103578Y-84145495D01*
X181990326Y-84146130D01*
X181861084Y-84146516D01*
X181714666Y-84146712D01*
X181549884Y-84146773D01*
X181365553Y-84146757D01*
X181160487Y-84146720D01*
X181037867Y-84146711D01*
X180820918Y-84146735D01*
X180625358Y-84146769D01*
X180450001Y-84146757D01*
X180293659Y-84146642D01*
X180155143Y-84146370D01*
X180033266Y-84145882D01*
X179926840Y-84145124D01*
X179834678Y-84144038D01*
X179755591Y-84142569D01*
X179688392Y-84140660D01*
X179631893Y-84138256D01*
X179584907Y-84135299D01*
X179546245Y-84131734D01*
X179514720Y-84127505D01*
X179489145Y-84122554D01*
X179468330Y-84116827D01*
X179451089Y-84110267D01*
X179436235Y-84102817D01*
X179422578Y-84094421D01*
X179408931Y-84085024D01*
X179394107Y-84074568D01*
X179385217Y-84068477D01*
X179327600Y-84029704D01*
X179327600Y-84561268D01*
X179327635Y-84684517D01*
X179327785Y-84787013D01*
X179328122Y-84870580D01*
X179328714Y-84937044D01*
X179329633Y-84988229D01*
X179330949Y-85025959D01*
X179332731Y-85052060D01*
X179335049Y-85068356D01*
X179337974Y-85076672D01*
X179341576Y-85078832D01*
X179345925Y-85076661D01*
X179347355Y-85075465D01*
X179384427Y-85050315D01*
X179437228Y-85024417D01*
X179499230Y-85000808D01*
X179525643Y-84992539D01*
X179543584Y-84987922D01*
X179564645Y-84984021D01*
X179590911Y-84980752D01*
X179624468Y-84978034D01*
X179667401Y-84975785D01*
X179721796Y-84973923D01*
X179789738Y-84972364D01*
X179873312Y-84971028D01*
X179974605Y-84969831D01*
X180095700Y-84968692D01*
X180140400Y-84968315D01*
X180265551Y-84967298D01*
X180369918Y-84966540D01*
X180455293Y-84966097D01*
X180523467Y-84966030D01*
X180576235Y-84966395D01*
X180615386Y-84967252D01*
X180642715Y-84968659D01*
X180660014Y-84970675D01*
X180669074Y-84973357D01*
X180671688Y-84976764D01*
X180669649Y-84980956D01*
X180665333Y-84985429D01*
X180652398Y-84995784D01*
X180623324Y-85017842D01*
X180580241Y-85050043D01*
X180525282Y-85090826D01*
X180460577Y-85138630D01*
X180388258Y-85191895D01*
X180310456Y-85249060D01*
X180229302Y-85308563D01*
X180146928Y-85368845D01*
X180065464Y-85428345D01*
X179987043Y-85485502D01*
X179913796Y-85538755D01*
X179847853Y-85586543D01*
X179791346Y-85627307D01*
X179746407Y-85659484D01*
X179715166Y-85681515D01*
X179708534Y-85686083D01*
X179671631Y-85709004D01*
X179623641Y-85735812D01*
X179574103Y-85761211D01*
X179567423Y-85764432D01*
X179519228Y-85786110D01*
X179481666Y-85798696D01*
X179445840Y-85804426D01*
X179403800Y-85805544D01*
X179327600Y-85804910D01*
X179327600Y-86959349D01*
X179421331Y-86868185D01*
X179471225Y-86821388D01*
X179527705Y-86771101D01*
X179581974Y-86725056D01*
X179607327Y-86704631D01*
X179646872Y-86674193D01*
X179700084Y-86634138D01*
X179765333Y-86585639D01*
X179840989Y-86529865D01*
X179925423Y-86467989D01*
X180017006Y-86401181D01*
X180114108Y-86330613D01*
X180215099Y-86257455D01*
X180318350Y-86182879D01*
X180422232Y-86108056D01*
X180525115Y-86034157D01*
X180625369Y-85962354D01*
X180721364Y-85893816D01*
X180811473Y-85829716D01*
X180894064Y-85771225D01*
X180967508Y-85719514D01*
X181030176Y-85675753D01*
X181080439Y-85641115D01*
X181116666Y-85616770D01*
X181137229Y-85603889D01*
X181141332Y-85602131D01*
X181152658Y-85610090D01*
X181179838Y-85630885D01*
X181221171Y-85663153D01*
X181274956Y-85705530D01*
X181339494Y-85756653D01*
X181413082Y-85815159D01*
X181494022Y-85879686D01*
X181580612Y-85948869D01*
X181671152Y-86021347D01*
X181763940Y-86095754D01*
X181838298Y-86155483D01*
X181838298Y-87166489D01*
X181825341Y-87172398D01*
X181803092Y-87186728D01*
X181801609Y-87187775D01*
X181771456Y-87206562D01*
X181734625Y-87226209D01*
X181726489Y-87230108D01*
X181718060Y-87233644D01*
X181707941Y-87236770D01*
X181694740Y-87239514D01*
X181677062Y-87241908D01*
X181653516Y-87243981D01*
X181622707Y-87245765D01*
X181583243Y-87247288D01*
X181533731Y-87248581D01*
X181472777Y-87249674D01*
X181398989Y-87250597D01*
X181310972Y-87251381D01*
X181207335Y-87252055D01*
X181086684Y-87252650D01*
X180947626Y-87253195D01*
X180788768Y-87253721D01*
X180609911Y-87254255D01*
X180424793Y-87254794D01*
X180260855Y-87255228D01*
X180116697Y-87255491D01*
X179990921Y-87255516D01*
X179882129Y-87255235D01*
X179788923Y-87254581D01*
X179709903Y-87253486D01*
X179643672Y-87251882D01*
X179588830Y-87249703D01*
X179543979Y-87246881D01*
X179507722Y-87243349D01*
X179478659Y-87239039D01*
X179455391Y-87233883D01*
X179436521Y-87227815D01*
X179420649Y-87220767D01*
X179406378Y-87212671D01*
X179392309Y-87203460D01*
X179379842Y-87194960D01*
X179353548Y-87177824D01*
X179335963Y-87167678D01*
X179332743Y-87166489D01*
X179331666Y-87177396D01*
X179330665Y-87208589D01*
X179329765Y-87257777D01*
X179328990Y-87322667D01*
X179328363Y-87400970D01*
X179327909Y-87490393D01*
X179327651Y-87588644D01*
X179327600Y-87657555D01*
X179327820Y-87762548D01*
X179328452Y-87859390D01*
X179329451Y-87945893D01*
X179330773Y-88019868D01*
X179332374Y-88079126D01*
X179334209Y-88121480D01*
X179336235Y-88144740D01*
X179337507Y-88148622D01*
X179352409Y-88140924D01*
X179360440Y-88132926D01*
X179377566Y-88119754D01*
X179407817Y-88102515D01*
X179432378Y-88090593D01*
X179491289Y-88063955D01*
X180668155Y-88060880D01*
X181845022Y-88057805D01*
X181845022Y-87612147D01*
X181844858Y-87514330D01*
X181844389Y-87423936D01*
X181843653Y-87343370D01*
X181842684Y-87275038D01*
X181841520Y-87221344D01*
X181840197Y-87184695D01*
X181838751Y-87167496D01*
X181838298Y-87166489D01*
X181838298Y-86155483D01*
X181857278Y-86170730D01*
X181949463Y-86244910D01*
X182038796Y-86316931D01*
X182123576Y-86385431D01*
X182202102Y-86449045D01*
X182272674Y-86506412D01*
X182333591Y-86556167D01*
X182383153Y-86596948D01*
X182403822Y-86614112D01*
X182504484Y-86700404D01*
X182587741Y-86777003D01*
X182655562Y-86845817D01*
X182709911Y-86908752D01*
X182717278Y-86918133D01*
X182747883Y-86957644D01*
X182748133Y-85825884D01*
X182700156Y-85831173D01*
X182642812Y-85827870D01*
X182574537Y-85806339D01*
X182494788Y-85766365D01*
X182422505Y-85721057D01*
X182399860Y-85704839D01*
X182362304Y-85676786D01*
X182311979Y-85638570D01*
X182251027Y-85591863D01*
X182181589Y-85538339D01*
X182105806Y-85479669D01*
X182025820Y-85417525D01*
X181943772Y-85353579D01*
X181861804Y-85289505D01*
X181782057Y-85226973D01*
X181706673Y-85167657D01*
X181637793Y-85113229D01*
X181577558Y-85065361D01*
X181528111Y-85025725D01*
X181491592Y-84995994D01*
X181470142Y-84977839D01*
X181466844Y-84974780D01*
X181474851Y-84971921D01*
X181505145Y-84969707D01*
X181557444Y-84968143D01*
X181631469Y-84967233D01*
X181726937Y-84966980D01*
X181843566Y-84967387D01*
X181963555Y-84968296D01*
X182095667Y-84969618D01*
X182207406Y-84971143D01*
X182300975Y-84973119D01*
X182378581Y-84975794D01*
X182442426Y-84979418D01*
X182494717Y-84984239D01*
X182537656Y-84990506D01*
X182573449Y-84998468D01*
X182604300Y-85008373D01*
X182632414Y-85020469D01*
X182659995Y-85035007D01*
X182685034Y-85049689D01*
X182748133Y-85087686D01*
X182748133Y-84027803D01*
X182748133Y-83724966D01*
X182754383Y-83724999D01*
X182856456Y-83725805D01*
X182945367Y-83726830D01*
X183022059Y-83728100D01*
X183087473Y-83729640D01*
X183142551Y-83731476D01*
X183188235Y-83733633D01*
X183225466Y-83736137D01*
X183255187Y-83739013D01*
X183278338Y-83742287D01*
X183295861Y-83745985D01*
X183308699Y-83750131D01*
X183317792Y-83754753D01*
X183324082Y-83759874D01*
X183328512Y-83765522D01*
X183332022Y-83771721D01*
X183335555Y-83778496D01*
X183339124Y-83784492D01*
X183341700Y-83789725D01*
X183344028Y-83797901D01*
X183346122Y-83810114D01*
X183347993Y-83827459D01*
X183349653Y-83851031D01*
X183351116Y-83881923D01*
X183352392Y-83921232D01*
X183353496Y-83970050D01*
X183354439Y-84029473D01*
X183355233Y-84100596D01*
X183355891Y-84184512D01*
X183356425Y-84282317D01*
X183356847Y-84395106D01*
X183357171Y-84523971D01*
X183357408Y-84670009D01*
X183357570Y-84834314D01*
X183357670Y-85017980D01*
X183357720Y-85222103D01*
X183357733Y-85433247D01*
X183357733Y-87053600D01*
X183260946Y-87053600D01*
X183260946Y-87053600D01*
G37*
X183260946Y-87053600D02*
X183147007Y-87064465D01*
X183039384Y-87096082D01*
X182940385Y-87146985D01*
X182852316Y-87215707D01*
X182777484Y-87300781D01*
X182719616Y-87397768D01*
X182679995Y-87504036D01*
X182661427Y-87611050D01*
X182662566Y-87716700D01*
X182682070Y-87818875D01*
X182718594Y-87915466D01*
X182770795Y-88004362D01*
X182837327Y-88083454D01*
X182916848Y-88150631D01*
X183008013Y-88203783D01*
X183109477Y-88240801D01*
X183219898Y-88259573D01*
X183269794Y-88261511D01*
X183357733Y-88261511D01*
X183357733Y-88313440D01*
X183354889Y-88349747D01*
X183343089Y-88376645D01*
X183319351Y-88403751D01*
X183280969Y-88442133D01*
X181089398Y-88442133D01*
X180827261Y-88442124D01*
X180586759Y-88442092D01*
X180366952Y-88442028D01*
X180166899Y-88441924D01*
X179985656Y-88441773D01*
X179822284Y-88441566D01*
X179675840Y-88441294D01*
X179545383Y-88440950D01*
X179429971Y-88440526D01*
X179328662Y-88440013D01*
X179240516Y-88439403D01*
X179164590Y-88438688D01*
X179099943Y-88437860D01*
X179045633Y-88436911D01*
X179000720Y-88435833D01*
X178964260Y-88434617D01*
X178935313Y-88433255D01*
X178912937Y-88431739D01*
X178896191Y-88430062D01*
X178884132Y-88428214D01*
X178875820Y-88426187D01*
X178870313Y-88423975D01*
X178868463Y-88422892D01*
X178861451Y-88418729D01*
X178855004Y-88415195D01*
X178849100Y-88411365D01*
X178843714Y-88406318D01*
X178838822Y-88399129D01*
X178834402Y-88388877D01*
X178830428Y-88374636D01*
X178826879Y-88355486D01*
X178823730Y-88330501D01*
X178820958Y-88298760D01*
X178818539Y-88259338D01*
X178816449Y-88211314D01*
X178814665Y-88153763D01*
X178813163Y-88085763D01*
X178811920Y-88006390D01*
X178810911Y-87914721D01*
X178810115Y-87809834D01*
X178809506Y-87690804D01*
X178809061Y-87556710D01*
X178808757Y-87406627D01*
X178808570Y-87239633D01*
X178808476Y-87054804D01*
X178808452Y-86851217D01*
X178808475Y-86627950D01*
X178808520Y-86384078D01*
X178808563Y-86118679D01*
X178808568Y-86080296D01*
X178808611Y-85813318D01*
X178808682Y-85567998D01*
X178808787Y-85343417D01*
X178808934Y-85138655D01*
X178809131Y-84952794D01*
X178809384Y-84784912D01*
X178809700Y-84634092D01*
X178810087Y-84499413D01*
X178810553Y-84379956D01*
X178811103Y-84274801D01*
X178811747Y-84183029D01*
X178812489Y-84103721D01*
X178813339Y-84035957D01*
X178814303Y-83978818D01*
X178815389Y-83931383D01*
X178816603Y-83892734D01*
X178817953Y-83861951D01*
X178819445Y-83838115D01*
X178821089Y-83820306D01*
X178822889Y-83807605D01*
X178824855Y-83799092D01*
X178826523Y-83794734D01*
X178830094Y-83786272D01*
X178832730Y-83778503D01*
X178835366Y-83771398D01*
X178838938Y-83764927D01*
X178844379Y-83759061D01*
X178852625Y-83753771D01*
X178864610Y-83749026D01*
X178881269Y-83744798D01*
X178903537Y-83741057D01*
X178932348Y-83737773D01*
X178968637Y-83734917D01*
X179013339Y-83732460D01*
X179067389Y-83730371D01*
X179131721Y-83728622D01*
X179207270Y-83727183D01*
X179294970Y-83726024D01*
X179395757Y-83725117D01*
X179510566Y-83724431D01*
X179640330Y-83723937D01*
X179785985Y-83723605D01*
X179948465Y-83723407D01*
X180128705Y-83723313D01*
X180327640Y-83723292D01*
X180546204Y-83723315D01*
X180785332Y-83723354D01*
X181045960Y-83723378D01*
X181088111Y-83723378D01*
X181351008Y-83723364D01*
X181592268Y-83723339D01*
X181812835Y-83723329D01*
X182013648Y-83723358D01*
X182195651Y-83723452D01*
X182359784Y-83723638D01*
X182506989Y-83723941D01*
X182638208Y-83724386D01*
X182748133Y-83724966D01*
X182748133Y-84027803D01*
X182690289Y-84067593D01*
X182674521Y-84078764D01*
X182660559Y-84088834D01*
X182647216Y-84097862D01*
X182633307Y-84105903D01*
X182617644Y-84113014D01*
X182599042Y-84119253D01*
X182576314Y-84124675D01*
X182548273Y-84129338D01*
X182513733Y-84133299D01*
X182471508Y-84136615D01*
X182420411Y-84139341D01*
X182359256Y-84141536D01*
X182286856Y-84143255D01*
X182202025Y-84144556D01*
X182103578Y-84145495D01*
X181990326Y-84146130D01*
X181861084Y-84146516D01*
X181714666Y-84146712D01*
X181549884Y-84146773D01*
X181365553Y-84146757D01*
X181160487Y-84146720D01*
X181037867Y-84146711D01*
X180820918Y-84146735D01*
X180625358Y-84146769D01*
X180450001Y-84146757D01*
X180293659Y-84146642D01*
X180155143Y-84146370D01*
X180033266Y-84145882D01*
X179926840Y-84145124D01*
X179834678Y-84144038D01*
X179755591Y-84142569D01*
X179688392Y-84140660D01*
X179631893Y-84138256D01*
X179584907Y-84135299D01*
X179546245Y-84131734D01*
X179514720Y-84127505D01*
X179489145Y-84122554D01*
X179468330Y-84116827D01*
X179451089Y-84110267D01*
X179436235Y-84102817D01*
X179422578Y-84094421D01*
X179408931Y-84085024D01*
X179394107Y-84074568D01*
X179385217Y-84068477D01*
X179327600Y-84029704D01*
X179327600Y-84561268D01*
X179327635Y-84684517D01*
X179327785Y-84787013D01*
X179328122Y-84870580D01*
X179328714Y-84937044D01*
X179329633Y-84988229D01*
X179330949Y-85025959D01*
X179332731Y-85052060D01*
X179335049Y-85068356D01*
X179337974Y-85076672D01*
X179341576Y-85078832D01*
X179345925Y-85076661D01*
X179347355Y-85075465D01*
X179384427Y-85050315D01*
X179437228Y-85024417D01*
X179499230Y-85000808D01*
X179525643Y-84992539D01*
X179543584Y-84987922D01*
X179564645Y-84984021D01*
X179590911Y-84980752D01*
X179624468Y-84978034D01*
X179667401Y-84975785D01*
X179721796Y-84973923D01*
X179789738Y-84972364D01*
X179873312Y-84971028D01*
X179974605Y-84969831D01*
X180095700Y-84968692D01*
X180140400Y-84968315D01*
X180265551Y-84967298D01*
X180369918Y-84966540D01*
X180455293Y-84966097D01*
X180523467Y-84966030D01*
X180576235Y-84966395D01*
X180615386Y-84967252D01*
X180642715Y-84968659D01*
X180660014Y-84970675D01*
X180669074Y-84973357D01*
X180671688Y-84976764D01*
X180669649Y-84980956D01*
X180665333Y-84985429D01*
X180652398Y-84995784D01*
X180623324Y-85017842D01*
X180580241Y-85050043D01*
X180525282Y-85090826D01*
X180460577Y-85138630D01*
X180388258Y-85191895D01*
X180310456Y-85249060D01*
X180229302Y-85308563D01*
X180146928Y-85368845D01*
X180065464Y-85428345D01*
X179987043Y-85485502D01*
X179913796Y-85538755D01*
X179847853Y-85586543D01*
X179791346Y-85627307D01*
X179746407Y-85659484D01*
X179715166Y-85681515D01*
X179708534Y-85686083D01*
X179671631Y-85709004D01*
X179623641Y-85735812D01*
X179574103Y-85761211D01*
X179567423Y-85764432D01*
X179519228Y-85786110D01*
X179481666Y-85798696D01*
X179445840Y-85804426D01*
X179403800Y-85805544D01*
X179327600Y-85804910D01*
X179327600Y-86959349D01*
X179421331Y-86868185D01*
X179471225Y-86821388D01*
X179527705Y-86771101D01*
X179581974Y-86725056D01*
X179607327Y-86704631D01*
X179646872Y-86674193D01*
X179700084Y-86634138D01*
X179765333Y-86585639D01*
X179840989Y-86529865D01*
X179925423Y-86467989D01*
X180017006Y-86401181D01*
X180114108Y-86330613D01*
X180215099Y-86257455D01*
X180318350Y-86182879D01*
X180422232Y-86108056D01*
X180525115Y-86034157D01*
X180625369Y-85962354D01*
X180721364Y-85893816D01*
X180811473Y-85829716D01*
X180894064Y-85771225D01*
X180967508Y-85719514D01*
X181030176Y-85675753D01*
X181080439Y-85641115D01*
X181116666Y-85616770D01*
X181137229Y-85603889D01*
X181141332Y-85602131D01*
X181152658Y-85610090D01*
X181179838Y-85630885D01*
X181221171Y-85663153D01*
X181274956Y-85705530D01*
X181339494Y-85756653D01*
X181413082Y-85815159D01*
X181494022Y-85879686D01*
X181580612Y-85948869D01*
X181671152Y-86021347D01*
X181763940Y-86095754D01*
X181838298Y-86155483D01*
X181838298Y-87166489D01*
X181825341Y-87172398D01*
X181803092Y-87186728D01*
X181801609Y-87187775D01*
X181771456Y-87206562D01*
X181734625Y-87226209D01*
X181726489Y-87230108D01*
X181718060Y-87233644D01*
X181707941Y-87236770D01*
X181694740Y-87239514D01*
X181677062Y-87241908D01*
X181653516Y-87243981D01*
X181622707Y-87245765D01*
X181583243Y-87247288D01*
X181533731Y-87248581D01*
X181472777Y-87249674D01*
X181398989Y-87250597D01*
X181310972Y-87251381D01*
X181207335Y-87252055D01*
X181086684Y-87252650D01*
X180947626Y-87253195D01*
X180788768Y-87253721D01*
X180609911Y-87254255D01*
X180424793Y-87254794D01*
X180260855Y-87255228D01*
X180116697Y-87255491D01*
X179990921Y-87255516D01*
X179882129Y-87255235D01*
X179788923Y-87254581D01*
X179709903Y-87253486D01*
X179643672Y-87251882D01*
X179588830Y-87249703D01*
X179543979Y-87246881D01*
X179507722Y-87243349D01*
X179478659Y-87239039D01*
X179455391Y-87233883D01*
X179436521Y-87227815D01*
X179420649Y-87220767D01*
X179406378Y-87212671D01*
X179392309Y-87203460D01*
X179379842Y-87194960D01*
X179353548Y-87177824D01*
X179335963Y-87167678D01*
X179332743Y-87166489D01*
X179331666Y-87177396D01*
X179330665Y-87208589D01*
X179329765Y-87257777D01*
X179328990Y-87322667D01*
X179328363Y-87400970D01*
X179327909Y-87490393D01*
X179327651Y-87588644D01*
X179327600Y-87657555D01*
X179327820Y-87762548D01*
X179328452Y-87859390D01*
X179329451Y-87945893D01*
X179330773Y-88019868D01*
X179332374Y-88079126D01*
X179334209Y-88121480D01*
X179336235Y-88144740D01*
X179337507Y-88148622D01*
X179352409Y-88140924D01*
X179360440Y-88132926D01*
X179377566Y-88119754D01*
X179407817Y-88102515D01*
X179432378Y-88090593D01*
X179491289Y-88063955D01*
X180668155Y-88060880D01*
X181845022Y-88057805D01*
X181845022Y-87612147D01*
X181844858Y-87514330D01*
X181844389Y-87423936D01*
X181843653Y-87343370D01*
X181842684Y-87275038D01*
X181841520Y-87221344D01*
X181840197Y-87184695D01*
X181838751Y-87167496D01*
X181838298Y-87166489D01*
X181838298Y-86155483D01*
X181857278Y-86170730D01*
X181949463Y-86244910D01*
X182038796Y-86316931D01*
X182123576Y-86385431D01*
X182202102Y-86449045D01*
X182272674Y-86506412D01*
X182333591Y-86556167D01*
X182383153Y-86596948D01*
X182403822Y-86614112D01*
X182504484Y-86700404D01*
X182587741Y-86777003D01*
X182655562Y-86845817D01*
X182709911Y-86908752D01*
X182717278Y-86918133D01*
X182747883Y-86957644D01*
X182748133Y-85825884D01*
X182700156Y-85831173D01*
X182642812Y-85827870D01*
X182574537Y-85806339D01*
X182494788Y-85766365D01*
X182422505Y-85721057D01*
X182399860Y-85704839D01*
X182362304Y-85676786D01*
X182311979Y-85638570D01*
X182251027Y-85591863D01*
X182181589Y-85538339D01*
X182105806Y-85479669D01*
X182025820Y-85417525D01*
X181943772Y-85353579D01*
X181861804Y-85289505D01*
X181782057Y-85226973D01*
X181706673Y-85167657D01*
X181637793Y-85113229D01*
X181577558Y-85065361D01*
X181528111Y-85025725D01*
X181491592Y-84995994D01*
X181470142Y-84977839D01*
X181466844Y-84974780D01*
X181474851Y-84971921D01*
X181505145Y-84969707D01*
X181557444Y-84968143D01*
X181631469Y-84967233D01*
X181726937Y-84966980D01*
X181843566Y-84967387D01*
X181963555Y-84968296D01*
X182095667Y-84969618D01*
X182207406Y-84971143D01*
X182300975Y-84973119D01*
X182378581Y-84975794D01*
X182442426Y-84979418D01*
X182494717Y-84984239D01*
X182537656Y-84990506D01*
X182573449Y-84998468D01*
X182604300Y-85008373D01*
X182632414Y-85020469D01*
X182659995Y-85035007D01*
X182685034Y-85049689D01*
X182748133Y-85087686D01*
X182748133Y-84027803D01*
X182748133Y-83724966D01*
X182754383Y-83724999D01*
X182856456Y-83725805D01*
X182945367Y-83726830D01*
X183022059Y-83728100D01*
X183087473Y-83729640D01*
X183142551Y-83731476D01*
X183188235Y-83733633D01*
X183225466Y-83736137D01*
X183255187Y-83739013D01*
X183278338Y-83742287D01*
X183295861Y-83745985D01*
X183308699Y-83750131D01*
X183317792Y-83754753D01*
X183324082Y-83759874D01*
X183328512Y-83765522D01*
X183332022Y-83771721D01*
X183335555Y-83778496D01*
X183339124Y-83784492D01*
X183341700Y-83789725D01*
X183344028Y-83797901D01*
X183346122Y-83810114D01*
X183347993Y-83827459D01*
X183349653Y-83851031D01*
X183351116Y-83881923D01*
X183352392Y-83921232D01*
X183353496Y-83970050D01*
X183354439Y-84029473D01*
X183355233Y-84100596D01*
X183355891Y-84184512D01*
X183356425Y-84282317D01*
X183356847Y-84395106D01*
X183357171Y-84523971D01*
X183357408Y-84670009D01*
X183357570Y-84834314D01*
X183357670Y-85017980D01*
X183357720Y-85222103D01*
X183357733Y-85433247D01*
X183357733Y-87053600D01*
X183260946Y-87053600D01*
G04 #@! TO.C,R16*
D12*
X166357142Y-95202380D02*
X166023809Y-94726190D01*
X165785714Y-95202380D02*
X165785714Y-94202380D01*
X166166666Y-94202380D01*
X166261904Y-94250000D01*
X166309523Y-94297619D01*
X166357142Y-94392857D01*
X166357142Y-94535714D01*
X166309523Y-94630952D01*
X166261904Y-94678571D01*
X166166666Y-94726190D01*
X165785714Y-94726190D01*
X167309523Y-95202380D02*
X166738095Y-95202380D01*
X167023809Y-95202380D02*
X167023809Y-94202380D01*
X166928571Y-94345238D01*
X166833333Y-94440476D01*
X166738095Y-94488095D01*
X168166666Y-94202380D02*
X167976190Y-94202380D01*
X167880952Y-94250000D01*
X167833333Y-94297619D01*
X167738095Y-94440476D01*
X167690476Y-94630952D01*
X167690476Y-95011904D01*
X167738095Y-95107142D01*
X167785714Y-95154761D01*
X167880952Y-95202380D01*
X168071428Y-95202380D01*
X168166666Y-95154761D01*
X168214285Y-95107142D01*
X168261904Y-95011904D01*
X168261904Y-94773809D01*
X168214285Y-94678571D01*
X168166666Y-94630952D01*
X168071428Y-94583333D01*
X167880952Y-94583333D01*
X167785714Y-94630952D01*
X167738095Y-94678571D01*
X167690476Y-94773809D01*
G04 #@! TO.C,U4*
X168988095Y-91202380D02*
X168988095Y-92011904D01*
X169035714Y-92107142D01*
X169083333Y-92154761D01*
X169178571Y-92202380D01*
X169369047Y-92202380D01*
X169464285Y-92154761D01*
X169511904Y-92107142D01*
X169559523Y-92011904D01*
X169559523Y-91202380D01*
X170464285Y-91535714D02*
X170464285Y-92202380D01*
X170226190Y-91154761D02*
X169988095Y-91869047D01*
X170607142Y-91869047D01*
G04 #@! TO.C,C30*
X165122142Y-87857142D02*
X165074523Y-87904761D01*
X164931666Y-87952380D01*
X164836428Y-87952380D01*
X164693571Y-87904761D01*
X164598333Y-87809523D01*
X164550714Y-87714285D01*
X164503095Y-87523809D01*
X164503095Y-87380952D01*
X164550714Y-87190476D01*
X164598333Y-87095238D01*
X164693571Y-87000000D01*
X164836428Y-86952380D01*
X164931666Y-86952380D01*
X165074523Y-87000000D01*
X165122142Y-87047619D01*
X165455476Y-86952380D02*
X166074523Y-86952380D01*
X165741190Y-87333333D01*
X165884047Y-87333333D01*
X165979285Y-87380952D01*
X166026904Y-87428571D01*
X166074523Y-87523809D01*
X166074523Y-87761904D01*
X166026904Y-87857142D01*
X165979285Y-87904761D01*
X165884047Y-87952380D01*
X165598333Y-87952380D01*
X165503095Y-87904761D01*
X165455476Y-87857142D01*
X166693571Y-86952380D02*
X166788809Y-86952380D01*
X166884047Y-87000000D01*
X166931666Y-87047619D01*
X166979285Y-87142857D01*
X167026904Y-87333333D01*
X167026904Y-87571428D01*
X166979285Y-87761904D01*
X166931666Y-87857142D01*
X166884047Y-87904761D01*
X166788809Y-87952380D01*
X166693571Y-87952380D01*
X166598333Y-87904761D01*
X166550714Y-87857142D01*
X166503095Y-87761904D01*
X166455476Y-87571428D01*
X166455476Y-87333333D01*
X166503095Y-87142857D01*
X166550714Y-87047619D01*
X166598333Y-87000000D01*
X166693571Y-86952380D01*
G04 #@! TO.C,R10*
X148857142Y-80452380D02*
X148523809Y-79976190D01*
X148285714Y-80452380D02*
X148285714Y-79452380D01*
X148666666Y-79452380D01*
X148761904Y-79500000D01*
X148809523Y-79547619D01*
X148857142Y-79642857D01*
X148857142Y-79785714D01*
X148809523Y-79880952D01*
X148761904Y-79928571D01*
X148666666Y-79976190D01*
X148285714Y-79976190D01*
X149809523Y-80452380D02*
X149238095Y-80452380D01*
X149523809Y-80452380D02*
X149523809Y-79452380D01*
X149428571Y-79595238D01*
X149333333Y-79690476D01*
X149238095Y-79738095D01*
X150428571Y-79452380D02*
X150523809Y-79452380D01*
X150619047Y-79500000D01*
X150666666Y-79547619D01*
X150714285Y-79642857D01*
X150761904Y-79833333D01*
X150761904Y-80071428D01*
X150714285Y-80261904D01*
X150666666Y-80357142D01*
X150619047Y-80404761D01*
X150523809Y-80452380D01*
X150428571Y-80452380D01*
X150333333Y-80404761D01*
X150285714Y-80357142D01*
X150238095Y-80261904D01*
X150190476Y-80071428D01*
X150190476Y-79833333D01*
X150238095Y-79642857D01*
X150285714Y-79547619D01*
X150333333Y-79500000D01*
X150428571Y-79452380D01*
G04 #@! TO.C,R9*
X130333333Y-80952380D02*
X130000000Y-80476190D01*
X129761904Y-80952380D02*
X129761904Y-79952380D01*
X130142857Y-79952380D01*
X130238095Y-80000000D01*
X130285714Y-80047619D01*
X130333333Y-80142857D01*
X130333333Y-80285714D01*
X130285714Y-80380952D01*
X130238095Y-80428571D01*
X130142857Y-80476190D01*
X129761904Y-80476190D01*
X130809523Y-80952380D02*
X131000000Y-80952380D01*
X131095238Y-80904761D01*
X131142857Y-80857142D01*
X131238095Y-80714285D01*
X131285714Y-80523809D01*
X131285714Y-80142857D01*
X131238095Y-80047619D01*
X131190476Y-80000000D01*
X131095238Y-79952380D01*
X130904761Y-79952380D01*
X130809523Y-80000000D01*
X130761904Y-80047619D01*
X130714285Y-80142857D01*
X130714285Y-80380952D01*
X130761904Y-80476190D01*
X130809523Y-80523809D01*
X130904761Y-80571428D01*
X131095238Y-80571428D01*
X131190476Y-80523809D01*
X131238095Y-80476190D01*
X131285714Y-80380952D01*
G04 #@! TO.C,R8*
X130333333Y-77952380D02*
X130000000Y-77476190D01*
X129761904Y-77952380D02*
X129761904Y-76952380D01*
X130142857Y-76952380D01*
X130238095Y-77000000D01*
X130285714Y-77047619D01*
X130333333Y-77142857D01*
X130333333Y-77285714D01*
X130285714Y-77380952D01*
X130238095Y-77428571D01*
X130142857Y-77476190D01*
X129761904Y-77476190D01*
X130904761Y-77380952D02*
X130809523Y-77333333D01*
X130761904Y-77285714D01*
X130714285Y-77190476D01*
X130714285Y-77142857D01*
X130761904Y-77047619D01*
X130809523Y-77000000D01*
X130904761Y-76952380D01*
X131095238Y-76952380D01*
X131190476Y-77000000D01*
X131238095Y-77047619D01*
X131285714Y-77142857D01*
X131285714Y-77190476D01*
X131238095Y-77285714D01*
X131190476Y-77333333D01*
X131095238Y-77380952D01*
X130904761Y-77380952D01*
X130809523Y-77428571D01*
X130761904Y-77476190D01*
X130714285Y-77571428D01*
X130714285Y-77761904D01*
X130761904Y-77857142D01*
X130809523Y-77904761D01*
X130904761Y-77952380D01*
X131095238Y-77952380D01*
X131190476Y-77904761D01*
X131238095Y-77857142D01*
X131285714Y-77761904D01*
X131285714Y-77571428D01*
X131238095Y-77476190D01*
X131190476Y-77428571D01*
X131095238Y-77380952D01*
G04 #@! TO.C,R6*
X130333333Y-79452380D02*
X130000000Y-78976190D01*
X129761904Y-79452380D02*
X129761904Y-78452380D01*
X130142857Y-78452380D01*
X130238095Y-78500000D01*
X130285714Y-78547619D01*
X130333333Y-78642857D01*
X130333333Y-78785714D01*
X130285714Y-78880952D01*
X130238095Y-78928571D01*
X130142857Y-78976190D01*
X129761904Y-78976190D01*
X131190476Y-78452380D02*
X131000000Y-78452380D01*
X130904761Y-78500000D01*
X130857142Y-78547619D01*
X130761904Y-78690476D01*
X130714285Y-78880952D01*
X130714285Y-79261904D01*
X130761904Y-79357142D01*
X130809523Y-79404761D01*
X130904761Y-79452380D01*
X131095238Y-79452380D01*
X131190476Y-79404761D01*
X131238095Y-79357142D01*
X131285714Y-79261904D01*
X131285714Y-79023809D01*
X131238095Y-78928571D01*
X131190476Y-78880952D01*
X131095238Y-78833333D01*
X130904761Y-78833333D01*
X130809523Y-78880952D01*
X130761904Y-78928571D01*
X130714285Y-79023809D01*
G04 #@! TO.C,R7*
X148833333Y-81952380D02*
X148500000Y-81476190D01*
X148261904Y-81952380D02*
X148261904Y-80952380D01*
X148642857Y-80952380D01*
X148738095Y-81000000D01*
X148785714Y-81047619D01*
X148833333Y-81142857D01*
X148833333Y-81285714D01*
X148785714Y-81380952D01*
X148738095Y-81428571D01*
X148642857Y-81476190D01*
X148261904Y-81476190D01*
X149166666Y-80952380D02*
X149833333Y-80952380D01*
X149404761Y-81952380D01*
G04 #@! TO.C,R4*
X158333333Y-100952380D02*
X158000000Y-100476190D01*
X157761904Y-100952380D02*
X157761904Y-99952380D01*
X158142857Y-99952380D01*
X158238095Y-100000000D01*
X158285714Y-100047619D01*
X158333333Y-100142857D01*
X158333333Y-100285714D01*
X158285714Y-100380952D01*
X158238095Y-100428571D01*
X158142857Y-100476190D01*
X157761904Y-100476190D01*
X159190476Y-100285714D02*
X159190476Y-100952380D01*
X158952380Y-99904761D02*
X158714285Y-100619047D01*
X159333333Y-100619047D01*
G04 #@! TO.C,C1*
X141357142Y-92666666D02*
X141404761Y-92714285D01*
X141452380Y-92857142D01*
X141452380Y-92952380D01*
X141404761Y-93095238D01*
X141309523Y-93190476D01*
X141214285Y-93238095D01*
X141023809Y-93285714D01*
X140880952Y-93285714D01*
X140690476Y-93238095D01*
X140595238Y-93190476D01*
X140500000Y-93095238D01*
X140452380Y-92952380D01*
X140452380Y-92857142D01*
X140500000Y-92714285D01*
X140547619Y-92666666D01*
X141452380Y-91714285D02*
X141452380Y-92285714D01*
X141452380Y-92000000D02*
X140452380Y-92000000D01*
X140595238Y-92095238D01*
X140690476Y-92190476D01*
X140738095Y-92285714D01*
G04 #@! TO.C,C2*
X142333333Y-94607142D02*
X142285714Y-94654761D01*
X142142857Y-94702380D01*
X142047619Y-94702380D01*
X141904761Y-94654761D01*
X141809523Y-94559523D01*
X141761904Y-94464285D01*
X141714285Y-94273809D01*
X141714285Y-94130952D01*
X141761904Y-93940476D01*
X141809523Y-93845238D01*
X141904761Y-93750000D01*
X142047619Y-93702380D01*
X142142857Y-93702380D01*
X142285714Y-93750000D01*
X142333333Y-93797619D01*
X142714285Y-93797619D02*
X142761904Y-93750000D01*
X142857142Y-93702380D01*
X143095238Y-93702380D01*
X143190476Y-93750000D01*
X143238095Y-93797619D01*
X143285714Y-93892857D01*
X143285714Y-93988095D01*
X143238095Y-94130952D01*
X142666666Y-94702380D01*
X143285714Y-94702380D01*
G04 #@! TO.C,C3*
X157277142Y-92666666D02*
X157324761Y-92714285D01*
X157372380Y-92857142D01*
X157372380Y-92952380D01*
X157324761Y-93095238D01*
X157229523Y-93190476D01*
X157134285Y-93238095D01*
X156943809Y-93285714D01*
X156800952Y-93285714D01*
X156610476Y-93238095D01*
X156515238Y-93190476D01*
X156420000Y-93095238D01*
X156372380Y-92952380D01*
X156372380Y-92857142D01*
X156420000Y-92714285D01*
X156467619Y-92666666D01*
X156372380Y-92333333D02*
X156372380Y-91714285D01*
X156753333Y-92047619D01*
X156753333Y-91904761D01*
X156800952Y-91809523D01*
X156848571Y-91761904D01*
X156943809Y-91714285D01*
X157181904Y-91714285D01*
X157277142Y-91761904D01*
X157324761Y-91809523D01*
X157372380Y-91904761D01*
X157372380Y-92190476D01*
X157324761Y-92285714D01*
X157277142Y-92333333D01*
G04 #@! TO.C,C4*
X152583333Y-95437142D02*
X152535714Y-95484761D01*
X152392857Y-95532380D01*
X152297619Y-95532380D01*
X152154761Y-95484761D01*
X152059523Y-95389523D01*
X152011904Y-95294285D01*
X151964285Y-95103809D01*
X151964285Y-94960952D01*
X152011904Y-94770476D01*
X152059523Y-94675238D01*
X152154761Y-94580000D01*
X152297619Y-94532380D01*
X152392857Y-94532380D01*
X152535714Y-94580000D01*
X152583333Y-94627619D01*
X153440476Y-94865714D02*
X153440476Y-95532380D01*
X153202380Y-94484761D02*
X152964285Y-95199047D01*
X153583333Y-95199047D01*
G04 #@! TO.C,C5*
X153583333Y-84607142D02*
X153535714Y-84654761D01*
X153392857Y-84702380D01*
X153297619Y-84702380D01*
X153154761Y-84654761D01*
X153059523Y-84559523D01*
X153011904Y-84464285D01*
X152964285Y-84273809D01*
X152964285Y-84130952D01*
X153011904Y-83940476D01*
X153059523Y-83845238D01*
X153154761Y-83750000D01*
X153297619Y-83702380D01*
X153392857Y-83702380D01*
X153535714Y-83750000D01*
X153583333Y-83797619D01*
X154488095Y-83702380D02*
X154011904Y-83702380D01*
X153964285Y-84178571D01*
X154011904Y-84130952D01*
X154107142Y-84083333D01*
X154345238Y-84083333D01*
X154440476Y-84130952D01*
X154488095Y-84178571D01*
X154535714Y-84273809D01*
X154535714Y-84511904D01*
X154488095Y-84607142D01*
X154440476Y-84654761D01*
X154345238Y-84702380D01*
X154107142Y-84702380D01*
X154011904Y-84654761D01*
X153964285Y-84607142D01*
G04 #@! TO.C,C6*
X141687142Y-86166666D02*
X141734761Y-86214285D01*
X141782380Y-86357142D01*
X141782380Y-86452380D01*
X141734761Y-86595238D01*
X141639523Y-86690476D01*
X141544285Y-86738095D01*
X141353809Y-86785714D01*
X141210952Y-86785714D01*
X141020476Y-86738095D01*
X140925238Y-86690476D01*
X140830000Y-86595238D01*
X140782380Y-86452380D01*
X140782380Y-86357142D01*
X140830000Y-86214285D01*
X140877619Y-86166666D01*
X140782380Y-85309523D02*
X140782380Y-85500000D01*
X140830000Y-85595238D01*
X140877619Y-85642857D01*
X141020476Y-85738095D01*
X141210952Y-85785714D01*
X141591904Y-85785714D01*
X141687142Y-85738095D01*
X141734761Y-85690476D01*
X141782380Y-85595238D01*
X141782380Y-85404761D01*
X141734761Y-85309523D01*
X141687142Y-85261904D01*
X141591904Y-85214285D01*
X141353809Y-85214285D01*
X141258571Y-85261904D01*
X141210952Y-85309523D01*
X141163333Y-85404761D01*
X141163333Y-85595238D01*
X141210952Y-85690476D01*
X141258571Y-85738095D01*
X141353809Y-85785714D01*
G04 #@! TO.C,C7*
X142333333Y-95857142D02*
X142285714Y-95904761D01*
X142142857Y-95952380D01*
X142047619Y-95952380D01*
X141904761Y-95904761D01*
X141809523Y-95809523D01*
X141761904Y-95714285D01*
X141714285Y-95523809D01*
X141714285Y-95380952D01*
X141761904Y-95190476D01*
X141809523Y-95095238D01*
X141904761Y-95000000D01*
X142047619Y-94952380D01*
X142142857Y-94952380D01*
X142285714Y-95000000D01*
X142333333Y-95047619D01*
X142666666Y-94952380D02*
X143333333Y-94952380D01*
X142904761Y-95952380D01*
G04 #@! TO.C,C8*
X145583333Y-84607142D02*
X145535714Y-84654761D01*
X145392857Y-84702380D01*
X145297619Y-84702380D01*
X145154761Y-84654761D01*
X145059523Y-84559523D01*
X145011904Y-84464285D01*
X144964285Y-84273809D01*
X144964285Y-84130952D01*
X145011904Y-83940476D01*
X145059523Y-83845238D01*
X145154761Y-83750000D01*
X145297619Y-83702380D01*
X145392857Y-83702380D01*
X145535714Y-83750000D01*
X145583333Y-83797619D01*
X146154761Y-84130952D02*
X146059523Y-84083333D01*
X146011904Y-84035714D01*
X145964285Y-83940476D01*
X145964285Y-83892857D01*
X146011904Y-83797619D01*
X146059523Y-83750000D01*
X146154761Y-83702380D01*
X146345238Y-83702380D01*
X146440476Y-83750000D01*
X146488095Y-83797619D01*
X146535714Y-83892857D01*
X146535714Y-83940476D01*
X146488095Y-84035714D01*
X146440476Y-84083333D01*
X146345238Y-84130952D01*
X146154761Y-84130952D01*
X146059523Y-84178571D01*
X146011904Y-84226190D01*
X145964285Y-84321428D01*
X145964285Y-84511904D01*
X146011904Y-84607142D01*
X146059523Y-84654761D01*
X146154761Y-84702380D01*
X146345238Y-84702380D01*
X146440476Y-84654761D01*
X146488095Y-84607142D01*
X146535714Y-84511904D01*
X146535714Y-84321428D01*
X146488095Y-84226190D01*
X146440476Y-84178571D01*
X146345238Y-84130952D01*
G04 #@! TO.C,C9*
X141687142Y-88666666D02*
X141734761Y-88714285D01*
X141782380Y-88857142D01*
X141782380Y-88952380D01*
X141734761Y-89095238D01*
X141639523Y-89190476D01*
X141544285Y-89238095D01*
X141353809Y-89285714D01*
X141210952Y-89285714D01*
X141020476Y-89238095D01*
X140925238Y-89190476D01*
X140830000Y-89095238D01*
X140782380Y-88952380D01*
X140782380Y-88857142D01*
X140830000Y-88714285D01*
X140877619Y-88666666D01*
X141782380Y-88190476D02*
X141782380Y-88000000D01*
X141734761Y-87904761D01*
X141687142Y-87857142D01*
X141544285Y-87761904D01*
X141353809Y-87714285D01*
X140972857Y-87714285D01*
X140877619Y-87761904D01*
X140830000Y-87809523D01*
X140782380Y-87904761D01*
X140782380Y-88095238D01*
X140830000Y-88190476D01*
X140877619Y-88238095D01*
X140972857Y-88285714D01*
X141210952Y-88285714D01*
X141306190Y-88238095D01*
X141353809Y-88190476D01*
X141401428Y-88095238D01*
X141401428Y-87904761D01*
X141353809Y-87809523D01*
X141306190Y-87761904D01*
X141210952Y-87714285D01*
G04 #@! TO.C,C10*
X149107142Y-83357142D02*
X149059523Y-83404761D01*
X148916666Y-83452380D01*
X148821428Y-83452380D01*
X148678571Y-83404761D01*
X148583333Y-83309523D01*
X148535714Y-83214285D01*
X148488095Y-83023809D01*
X148488095Y-82880952D01*
X148535714Y-82690476D01*
X148583333Y-82595238D01*
X148678571Y-82500000D01*
X148821428Y-82452380D01*
X148916666Y-82452380D01*
X149059523Y-82500000D01*
X149107142Y-82547619D01*
X150059523Y-83452380D02*
X149488095Y-83452380D01*
X149773809Y-83452380D02*
X149773809Y-82452380D01*
X149678571Y-82595238D01*
X149583333Y-82690476D01*
X149488095Y-82738095D01*
X150678571Y-82452380D02*
X150773809Y-82452380D01*
X150869047Y-82500000D01*
X150916666Y-82547619D01*
X150964285Y-82642857D01*
X151011904Y-82833333D01*
X151011904Y-83071428D01*
X150964285Y-83261904D01*
X150916666Y-83357142D01*
X150869047Y-83404761D01*
X150773809Y-83452380D01*
X150678571Y-83452380D01*
X150583333Y-83404761D01*
X150535714Y-83357142D01*
X150488095Y-83261904D01*
X150440476Y-83071428D01*
X150440476Y-82833333D01*
X150488095Y-82642857D01*
X150535714Y-82547619D01*
X150583333Y-82500000D01*
X150678571Y-82452380D01*
G04 #@! TO.C,C11*
X158857142Y-85642857D02*
X158904761Y-85690476D01*
X158952380Y-85833333D01*
X158952380Y-85928571D01*
X158904761Y-86071428D01*
X158809523Y-86166666D01*
X158714285Y-86214285D01*
X158523809Y-86261904D01*
X158380952Y-86261904D01*
X158190476Y-86214285D01*
X158095238Y-86166666D01*
X158000000Y-86071428D01*
X157952380Y-85928571D01*
X157952380Y-85833333D01*
X158000000Y-85690476D01*
X158047619Y-85642857D01*
X158952380Y-84690476D02*
X158952380Y-85261904D01*
X158952380Y-84976190D02*
X157952380Y-84976190D01*
X158095238Y-85071428D01*
X158190476Y-85166666D01*
X158238095Y-85261904D01*
X158952380Y-83738095D02*
X158952380Y-84309523D01*
X158952380Y-84023809D02*
X157952380Y-84023809D01*
X158095238Y-84119047D01*
X158190476Y-84214285D01*
X158238095Y-84309523D01*
G04 #@! TO.C,C12*
X158857142Y-90642857D02*
X158904761Y-90690476D01*
X158952380Y-90833333D01*
X158952380Y-90928571D01*
X158904761Y-91071428D01*
X158809523Y-91166666D01*
X158714285Y-91214285D01*
X158523809Y-91261904D01*
X158380952Y-91261904D01*
X158190476Y-91214285D01*
X158095238Y-91166666D01*
X158000000Y-91071428D01*
X157952380Y-90928571D01*
X157952380Y-90833333D01*
X158000000Y-90690476D01*
X158047619Y-90642857D01*
X158952380Y-89690476D02*
X158952380Y-90261904D01*
X158952380Y-89976190D02*
X157952380Y-89976190D01*
X158095238Y-90071428D01*
X158190476Y-90166666D01*
X158238095Y-90261904D01*
X158047619Y-89309523D02*
X158000000Y-89261904D01*
X157952380Y-89166666D01*
X157952380Y-88928571D01*
X158000000Y-88833333D01*
X158047619Y-88785714D01*
X158142857Y-88738095D01*
X158238095Y-88738095D01*
X158380952Y-88785714D01*
X158952380Y-89357142D01*
X158952380Y-88738095D01*
G04 #@! TO.C,C13*
X148857142Y-78857142D02*
X148809523Y-78904761D01*
X148666666Y-78952380D01*
X148571428Y-78952380D01*
X148428571Y-78904761D01*
X148333333Y-78809523D01*
X148285714Y-78714285D01*
X148238095Y-78523809D01*
X148238095Y-78380952D01*
X148285714Y-78190476D01*
X148333333Y-78095238D01*
X148428571Y-78000000D01*
X148571428Y-77952380D01*
X148666666Y-77952380D01*
X148809523Y-78000000D01*
X148857142Y-78047619D01*
X149809523Y-78952380D02*
X149238095Y-78952380D01*
X149523809Y-78952380D02*
X149523809Y-77952380D01*
X149428571Y-78095238D01*
X149333333Y-78190476D01*
X149238095Y-78238095D01*
X150142857Y-77952380D02*
X150761904Y-77952380D01*
X150428571Y-78333333D01*
X150571428Y-78333333D01*
X150666666Y-78380952D01*
X150714285Y-78428571D01*
X150761904Y-78523809D01*
X150761904Y-78761904D01*
X150714285Y-78857142D01*
X150666666Y-78904761D01*
X150571428Y-78952380D01*
X150285714Y-78952380D01*
X150190476Y-78904761D01*
X150142857Y-78857142D01*
G04 #@! TO.C,C14*
X148857142Y-77357142D02*
X148809523Y-77404761D01*
X148666666Y-77452380D01*
X148571428Y-77452380D01*
X148428571Y-77404761D01*
X148333333Y-77309523D01*
X148285714Y-77214285D01*
X148238095Y-77023809D01*
X148238095Y-76880952D01*
X148285714Y-76690476D01*
X148333333Y-76595238D01*
X148428571Y-76500000D01*
X148571428Y-76452380D01*
X148666666Y-76452380D01*
X148809523Y-76500000D01*
X148857142Y-76547619D01*
X149809523Y-77452380D02*
X149238095Y-77452380D01*
X149523809Y-77452380D02*
X149523809Y-76452380D01*
X149428571Y-76595238D01*
X149333333Y-76690476D01*
X149238095Y-76738095D01*
X150666666Y-76785714D02*
X150666666Y-77452380D01*
X150428571Y-76404761D02*
X150190476Y-77119047D01*
X150809523Y-77119047D01*
G04 #@! TO.C,C15*
X133357142Y-94392857D02*
X133404761Y-94440476D01*
X133452380Y-94583333D01*
X133452380Y-94678571D01*
X133404761Y-94821428D01*
X133309523Y-94916666D01*
X133214285Y-94964285D01*
X133023809Y-95011904D01*
X132880952Y-95011904D01*
X132690476Y-94964285D01*
X132595238Y-94916666D01*
X132500000Y-94821428D01*
X132452380Y-94678571D01*
X132452380Y-94583333D01*
X132500000Y-94440476D01*
X132547619Y-94392857D01*
X133452380Y-93440476D02*
X133452380Y-94011904D01*
X133452380Y-93726190D02*
X132452380Y-93726190D01*
X132595238Y-93821428D01*
X132690476Y-93916666D01*
X132738095Y-94011904D01*
X132452380Y-92535714D02*
X132452380Y-93011904D01*
X132928571Y-93059523D01*
X132880952Y-93011904D01*
X132833333Y-92916666D01*
X132833333Y-92678571D01*
X132880952Y-92583333D01*
X132928571Y-92535714D01*
X133023809Y-92488095D01*
X133261904Y-92488095D01*
X133357142Y-92535714D01*
X133404761Y-92583333D01*
X133452380Y-92678571D01*
X133452380Y-92916666D01*
X133404761Y-93011904D01*
X133357142Y-93059523D01*
G04 #@! TO.C,C16*
X140527142Y-96942857D02*
X140574761Y-96990476D01*
X140622380Y-97133333D01*
X140622380Y-97228571D01*
X140574761Y-97371428D01*
X140479523Y-97466666D01*
X140384285Y-97514285D01*
X140193809Y-97561904D01*
X140050952Y-97561904D01*
X139860476Y-97514285D01*
X139765238Y-97466666D01*
X139670000Y-97371428D01*
X139622380Y-97228571D01*
X139622380Y-97133333D01*
X139670000Y-96990476D01*
X139717619Y-96942857D01*
X140622380Y-95990476D02*
X140622380Y-96561904D01*
X140622380Y-96276190D02*
X139622380Y-96276190D01*
X139765238Y-96371428D01*
X139860476Y-96466666D01*
X139908095Y-96561904D01*
X139622380Y-95133333D02*
X139622380Y-95323809D01*
X139670000Y-95419047D01*
X139717619Y-95466666D01*
X139860476Y-95561904D01*
X140050952Y-95609523D01*
X140431904Y-95609523D01*
X140527142Y-95561904D01*
X140574761Y-95514285D01*
X140622380Y-95419047D01*
X140622380Y-95228571D01*
X140574761Y-95133333D01*
X140527142Y-95085714D01*
X140431904Y-95038095D01*
X140193809Y-95038095D01*
X140098571Y-95085714D01*
X140050952Y-95133333D01*
X140003333Y-95228571D01*
X140003333Y-95419047D01*
X140050952Y-95514285D01*
X140098571Y-95561904D01*
X140193809Y-95609523D01*
G04 #@! TO.C,C17*
X132107142Y-90892857D02*
X132154761Y-90940476D01*
X132202380Y-91083333D01*
X132202380Y-91178571D01*
X132154761Y-91321428D01*
X132059523Y-91416666D01*
X131964285Y-91464285D01*
X131773809Y-91511904D01*
X131630952Y-91511904D01*
X131440476Y-91464285D01*
X131345238Y-91416666D01*
X131250000Y-91321428D01*
X131202380Y-91178571D01*
X131202380Y-91083333D01*
X131250000Y-90940476D01*
X131297619Y-90892857D01*
X132202380Y-89940476D02*
X132202380Y-90511904D01*
X132202380Y-90226190D02*
X131202380Y-90226190D01*
X131345238Y-90321428D01*
X131440476Y-90416666D01*
X131488095Y-90511904D01*
X131202380Y-89607142D02*
X131202380Y-88940476D01*
X132202380Y-89369047D01*
G04 #@! TO.C,C18*
X139357142Y-88392857D02*
X139404761Y-88440476D01*
X139452380Y-88583333D01*
X139452380Y-88678571D01*
X139404761Y-88821428D01*
X139309523Y-88916666D01*
X139214285Y-88964285D01*
X139023809Y-89011904D01*
X138880952Y-89011904D01*
X138690476Y-88964285D01*
X138595238Y-88916666D01*
X138500000Y-88821428D01*
X138452380Y-88678571D01*
X138452380Y-88583333D01*
X138500000Y-88440476D01*
X138547619Y-88392857D01*
X139452380Y-87440476D02*
X139452380Y-88011904D01*
X139452380Y-87726190D02*
X138452380Y-87726190D01*
X138595238Y-87821428D01*
X138690476Y-87916666D01*
X138738095Y-88011904D01*
X138880952Y-86869047D02*
X138833333Y-86964285D01*
X138785714Y-87011904D01*
X138690476Y-87059523D01*
X138642857Y-87059523D01*
X138547619Y-87011904D01*
X138500000Y-86964285D01*
X138452380Y-86869047D01*
X138452380Y-86678571D01*
X138500000Y-86583333D01*
X138547619Y-86535714D01*
X138642857Y-86488095D01*
X138690476Y-86488095D01*
X138785714Y-86535714D01*
X138833333Y-86583333D01*
X138880952Y-86678571D01*
X138880952Y-86869047D01*
X138928571Y-86964285D01*
X138976190Y-87011904D01*
X139071428Y-87059523D01*
X139261904Y-87059523D01*
X139357142Y-87011904D01*
X139404761Y-86964285D01*
X139452380Y-86869047D01*
X139452380Y-86678571D01*
X139404761Y-86583333D01*
X139357142Y-86535714D01*
X139261904Y-86488095D01*
X139071428Y-86488095D01*
X138976190Y-86535714D01*
X138928571Y-86583333D01*
X138880952Y-86678571D01*
G04 #@! TO.C,C26*
X129472142Y-104107142D02*
X129424523Y-104154761D01*
X129281666Y-104202380D01*
X129186428Y-104202380D01*
X129043571Y-104154761D01*
X128948333Y-104059523D01*
X128900714Y-103964285D01*
X128853095Y-103773809D01*
X128853095Y-103630952D01*
X128900714Y-103440476D01*
X128948333Y-103345238D01*
X129043571Y-103250000D01*
X129186428Y-103202380D01*
X129281666Y-103202380D01*
X129424523Y-103250000D01*
X129472142Y-103297619D01*
X129853095Y-103297619D02*
X129900714Y-103250000D01*
X129995952Y-103202380D01*
X130234047Y-103202380D01*
X130329285Y-103250000D01*
X130376904Y-103297619D01*
X130424523Y-103392857D01*
X130424523Y-103488095D01*
X130376904Y-103630952D01*
X129805476Y-104202380D01*
X130424523Y-104202380D01*
X131281666Y-103202380D02*
X131091190Y-103202380D01*
X130995952Y-103250000D01*
X130948333Y-103297619D01*
X130853095Y-103440476D01*
X130805476Y-103630952D01*
X130805476Y-104011904D01*
X130853095Y-104107142D01*
X130900714Y-104154761D01*
X130995952Y-104202380D01*
X131186428Y-104202380D01*
X131281666Y-104154761D01*
X131329285Y-104107142D01*
X131376904Y-104011904D01*
X131376904Y-103773809D01*
X131329285Y-103678571D01*
X131281666Y-103630952D01*
X131186428Y-103583333D01*
X130995952Y-103583333D01*
X130900714Y-103630952D01*
X130853095Y-103678571D01*
X130805476Y-103773809D01*
G04 #@! TO.C,C27*
X133357142Y-101642857D02*
X133404761Y-101690476D01*
X133452380Y-101833333D01*
X133452380Y-101928571D01*
X133404761Y-102071428D01*
X133309523Y-102166666D01*
X133214285Y-102214285D01*
X133023809Y-102261904D01*
X132880952Y-102261904D01*
X132690476Y-102214285D01*
X132595238Y-102166666D01*
X132500000Y-102071428D01*
X132452380Y-101928571D01*
X132452380Y-101833333D01*
X132500000Y-101690476D01*
X132547619Y-101642857D01*
X132547619Y-101261904D02*
X132500000Y-101214285D01*
X132452380Y-101119047D01*
X132452380Y-100880952D01*
X132500000Y-100785714D01*
X132547619Y-100738095D01*
X132642857Y-100690476D01*
X132738095Y-100690476D01*
X132880952Y-100738095D01*
X133452380Y-101309523D01*
X133452380Y-100690476D01*
X132452380Y-100357142D02*
X132452380Y-99690476D01*
X133452380Y-100119047D01*
G04 #@! TO.C,D1*
X146702380Y-97988095D02*
X145702380Y-97988095D01*
X145702380Y-97750000D01*
X145750000Y-97607142D01*
X145845238Y-97511904D01*
X145940476Y-97464285D01*
X146130952Y-97416666D01*
X146273809Y-97416666D01*
X146464285Y-97464285D01*
X146559523Y-97511904D01*
X146654761Y-97607142D01*
X146702380Y-97750000D01*
X146702380Y-97988095D01*
X146702380Y-96464285D02*
X146702380Y-97035714D01*
X146702380Y-96750000D02*
X145702380Y-96750000D01*
X145845238Y-96845238D01*
X145940476Y-96940476D01*
X145988095Y-97035714D01*
G04 #@! TO.C,D2*
X145202380Y-97988095D02*
X144202380Y-97988095D01*
X144202380Y-97750000D01*
X144250000Y-97607142D01*
X144345238Y-97511904D01*
X144440476Y-97464285D01*
X144630952Y-97416666D01*
X144773809Y-97416666D01*
X144964285Y-97464285D01*
X145059523Y-97511904D01*
X145154761Y-97607142D01*
X145202380Y-97750000D01*
X145202380Y-97988095D01*
X144297619Y-97035714D02*
X144250000Y-96988095D01*
X144202380Y-96892857D01*
X144202380Y-96654761D01*
X144250000Y-96559523D01*
X144297619Y-96511904D01*
X144392857Y-96464285D01*
X144488095Y-96464285D01*
X144630952Y-96511904D01*
X145202380Y-97083333D01*
X145202380Y-96464285D01*
G04 #@! TO.C,D3*
X143702380Y-97988095D02*
X142702380Y-97988095D01*
X142702380Y-97750000D01*
X142750000Y-97607142D01*
X142845238Y-97511904D01*
X142940476Y-97464285D01*
X143130952Y-97416666D01*
X143273809Y-97416666D01*
X143464285Y-97464285D01*
X143559523Y-97511904D01*
X143654761Y-97607142D01*
X143702380Y-97750000D01*
X143702380Y-97988095D01*
X142702380Y-97083333D02*
X142702380Y-96464285D01*
X143083333Y-96797619D01*
X143083333Y-96654761D01*
X143130952Y-96559523D01*
X143178571Y-96511904D01*
X143273809Y-96464285D01*
X143511904Y-96464285D01*
X143607142Y-96511904D01*
X143654761Y-96559523D01*
X143702380Y-96654761D01*
X143702380Y-96940476D01*
X143654761Y-97035714D01*
X143607142Y-97083333D01*
G04 #@! TO.C,D4*
X138261904Y-94952380D02*
X138261904Y-93952380D01*
X138500000Y-93952380D01*
X138642857Y-94000000D01*
X138738095Y-94095238D01*
X138785714Y-94190476D01*
X138833333Y-94380952D01*
X138833333Y-94523809D01*
X138785714Y-94714285D01*
X138738095Y-94809523D01*
X138642857Y-94904761D01*
X138500000Y-94952380D01*
X138261904Y-94952380D01*
X139690476Y-94285714D02*
X139690476Y-94952380D01*
X139452380Y-93904761D02*
X139214285Y-94619047D01*
X139833333Y-94619047D01*
G04 #@! TO.C,D5*
X132261904Y-88202380D02*
X132261904Y-87202380D01*
X132500000Y-87202380D01*
X132642857Y-87250000D01*
X132738095Y-87345238D01*
X132785714Y-87440476D01*
X132833333Y-87630952D01*
X132833333Y-87773809D01*
X132785714Y-87964285D01*
X132738095Y-88059523D01*
X132642857Y-88154761D01*
X132500000Y-88202380D01*
X132261904Y-88202380D01*
X133738095Y-87202380D02*
X133261904Y-87202380D01*
X133214285Y-87678571D01*
X133261904Y-87630952D01*
X133357142Y-87583333D01*
X133595238Y-87583333D01*
X133690476Y-87630952D01*
X133738095Y-87678571D01*
X133785714Y-87773809D01*
X133785714Y-88011904D01*
X133738095Y-88107142D01*
X133690476Y-88154761D01*
X133595238Y-88202380D01*
X133357142Y-88202380D01*
X133261904Y-88154761D01*
X133214285Y-88107142D01*
G04 #@! TO.C,J2*
X149666666Y-103952380D02*
X149666666Y-104666666D01*
X149619047Y-104809523D01*
X149523809Y-104904761D01*
X149380952Y-104952380D01*
X149285714Y-104952380D01*
X150095238Y-104047619D02*
X150142857Y-104000000D01*
X150238095Y-103952380D01*
X150476190Y-103952380D01*
X150571428Y-104000000D01*
X150619047Y-104047619D01*
X150666666Y-104142857D01*
X150666666Y-104238095D01*
X150619047Y-104380952D01*
X150047619Y-104952380D01*
X150666666Y-104952380D01*
G04 #@! TO.C,J3*
X171416666Y-97952380D02*
X171416666Y-98666666D01*
X171369047Y-98809523D01*
X171273809Y-98904761D01*
X171130952Y-98952380D01*
X171035714Y-98952380D01*
X171797619Y-97952380D02*
X172416666Y-97952380D01*
X172083333Y-98333333D01*
X172226190Y-98333333D01*
X172321428Y-98380952D01*
X172369047Y-98428571D01*
X172416666Y-98523809D01*
X172416666Y-98761904D01*
X172369047Y-98857142D01*
X172321428Y-98904761D01*
X172226190Y-98952380D01*
X171940476Y-98952380D01*
X171845238Y-98904761D01*
X171797619Y-98857142D01*
G04 #@! TO.C,J4*
X131702380Y-86583333D02*
X132416666Y-86583333D01*
X132559523Y-86630952D01*
X132654761Y-86726190D01*
X132702380Y-86869047D01*
X132702380Y-86964285D01*
X132035714Y-85678571D02*
X132702380Y-85678571D01*
X131654761Y-85916666D02*
X132369047Y-86154761D01*
X132369047Y-85535714D01*
G04 #@! TO.C,R1*
X141372380Y-100166666D02*
X140896190Y-100500000D01*
X141372380Y-100738095D02*
X140372380Y-100738095D01*
X140372380Y-100357142D01*
X140420000Y-100261904D01*
X140467619Y-100214285D01*
X140562857Y-100166666D01*
X140705714Y-100166666D01*
X140800952Y-100214285D01*
X140848571Y-100261904D01*
X140896190Y-100357142D01*
X140896190Y-100738095D01*
X141372380Y-99214285D02*
X141372380Y-99785714D01*
X141372380Y-99500000D02*
X140372380Y-99500000D01*
X140515238Y-99595238D01*
X140610476Y-99690476D01*
X140658095Y-99785714D01*
G04 #@! TO.C,R2*
X139372380Y-100166666D02*
X138896190Y-100500000D01*
X139372380Y-100738095D02*
X138372380Y-100738095D01*
X138372380Y-100357142D01*
X138420000Y-100261904D01*
X138467619Y-100214285D01*
X138562857Y-100166666D01*
X138705714Y-100166666D01*
X138800952Y-100214285D01*
X138848571Y-100261904D01*
X138896190Y-100357142D01*
X138896190Y-100738095D01*
X138467619Y-99785714D02*
X138420000Y-99738095D01*
X138372380Y-99642857D01*
X138372380Y-99404761D01*
X138420000Y-99309523D01*
X138467619Y-99261904D01*
X138562857Y-99214285D01*
X138658095Y-99214285D01*
X138800952Y-99261904D01*
X139372380Y-99833333D01*
X139372380Y-99214285D01*
G04 #@! TO.C,R3*
X137372380Y-100166666D02*
X136896190Y-100500000D01*
X137372380Y-100738095D02*
X136372380Y-100738095D01*
X136372380Y-100357142D01*
X136420000Y-100261904D01*
X136467619Y-100214285D01*
X136562857Y-100166666D01*
X136705714Y-100166666D01*
X136800952Y-100214285D01*
X136848571Y-100261904D01*
X136896190Y-100357142D01*
X136896190Y-100738095D01*
X136372380Y-99833333D02*
X136372380Y-99214285D01*
X136753333Y-99547619D01*
X136753333Y-99404761D01*
X136800952Y-99309523D01*
X136848571Y-99261904D01*
X136943809Y-99214285D01*
X137181904Y-99214285D01*
X137277142Y-99261904D01*
X137324761Y-99309523D01*
X137372380Y-99404761D01*
X137372380Y-99690476D01*
X137324761Y-99785714D01*
X137277142Y-99833333D01*
G04 #@! TO.C,R5*
X158333333Y-99702380D02*
X158000000Y-99226190D01*
X157761904Y-99702380D02*
X157761904Y-98702380D01*
X158142857Y-98702380D01*
X158238095Y-98750000D01*
X158285714Y-98797619D01*
X158333333Y-98892857D01*
X158333333Y-99035714D01*
X158285714Y-99130952D01*
X158238095Y-99178571D01*
X158142857Y-99226190D01*
X157761904Y-99226190D01*
X159238095Y-98702380D02*
X158761904Y-98702380D01*
X158714285Y-99178571D01*
X158761904Y-99130952D01*
X158857142Y-99083333D01*
X159095238Y-99083333D01*
X159190476Y-99130952D01*
X159238095Y-99178571D01*
X159285714Y-99273809D01*
X159285714Y-99511904D01*
X159238095Y-99607142D01*
X159190476Y-99654761D01*
X159095238Y-99702380D01*
X158857142Y-99702380D01*
X158761904Y-99654761D01*
X158714285Y-99607142D01*
G04 #@! TO.C,R11*
X125107142Y-101702380D02*
X124773809Y-101226190D01*
X124535714Y-101702380D02*
X124535714Y-100702380D01*
X124916666Y-100702380D01*
X125011904Y-100750000D01*
X125059523Y-100797619D01*
X125107142Y-100892857D01*
X125107142Y-101035714D01*
X125059523Y-101130952D01*
X125011904Y-101178571D01*
X124916666Y-101226190D01*
X124535714Y-101226190D01*
X126059523Y-101702380D02*
X125488095Y-101702380D01*
X125773809Y-101702380D02*
X125773809Y-100702380D01*
X125678571Y-100845238D01*
X125583333Y-100940476D01*
X125488095Y-100988095D01*
X127011904Y-101702380D02*
X126440476Y-101702380D01*
X126726190Y-101702380D02*
X126726190Y-100702380D01*
X126630952Y-100845238D01*
X126535714Y-100940476D01*
X126440476Y-100988095D01*
G04 #@! TO.C,R12*
X125107142Y-103202380D02*
X124773809Y-102726190D01*
X124535714Y-103202380D02*
X124535714Y-102202380D01*
X124916666Y-102202380D01*
X125011904Y-102250000D01*
X125059523Y-102297619D01*
X125107142Y-102392857D01*
X125107142Y-102535714D01*
X125059523Y-102630952D01*
X125011904Y-102678571D01*
X124916666Y-102726190D01*
X124535714Y-102726190D01*
X126059523Y-103202380D02*
X125488095Y-103202380D01*
X125773809Y-103202380D02*
X125773809Y-102202380D01*
X125678571Y-102345238D01*
X125583333Y-102440476D01*
X125488095Y-102488095D01*
X126440476Y-102297619D02*
X126488095Y-102250000D01*
X126583333Y-102202380D01*
X126821428Y-102202380D01*
X126916666Y-102250000D01*
X126964285Y-102297619D01*
X127011904Y-102392857D01*
X127011904Y-102488095D01*
X126964285Y-102630952D01*
X126392857Y-103202380D01*
X127011904Y-103202380D01*
G04 #@! TO.C,U1*
X147738095Y-94952380D02*
X147738095Y-95761904D01*
X147785714Y-95857142D01*
X147833333Y-95904761D01*
X147928571Y-95952380D01*
X148119047Y-95952380D01*
X148214285Y-95904761D01*
X148261904Y-95857142D01*
X148309523Y-95761904D01*
X148309523Y-94952380D01*
X149309523Y-95952380D02*
X148738095Y-95952380D01*
X149023809Y-95952380D02*
X149023809Y-94952380D01*
X148928571Y-95095238D01*
X148833333Y-95190476D01*
X148738095Y-95238095D01*
G04 #@! TO.C,U3*
X127202380Y-101761904D02*
X128011904Y-101761904D01*
X128107142Y-101714285D01*
X128154761Y-101666666D01*
X128202380Y-101571428D01*
X128202380Y-101380952D01*
X128154761Y-101285714D01*
X128107142Y-101238095D01*
X128011904Y-101190476D01*
X127202380Y-101190476D01*
X127202380Y-100809523D02*
X127202380Y-100190476D01*
X127583333Y-100523809D01*
X127583333Y-100380952D01*
X127630952Y-100285714D01*
X127678571Y-100238095D01*
X127773809Y-100190476D01*
X128011904Y-100190476D01*
X128107142Y-100238095D01*
X128154761Y-100285714D01*
X128202380Y-100380952D01*
X128202380Y-100666666D01*
X128154761Y-100761904D01*
X128107142Y-100809523D01*
G04 #@! TO.C,VR1*
X138440476Y-97952380D02*
X138773809Y-98952380D01*
X139107142Y-97952380D01*
X140011904Y-98952380D02*
X139678571Y-98476190D01*
X139440476Y-98952380D02*
X139440476Y-97952380D01*
X139821428Y-97952380D01*
X139916666Y-98000000D01*
X139964285Y-98047619D01*
X140011904Y-98142857D01*
X140011904Y-98285714D01*
X139964285Y-98380952D01*
X139916666Y-98428571D01*
X139821428Y-98476190D01*
X139440476Y-98476190D01*
X140964285Y-98952380D02*
X140392857Y-98952380D01*
X140678571Y-98952380D02*
X140678571Y-97952380D01*
X140583333Y-98095238D01*
X140488095Y-98190476D01*
X140392857Y-98238095D01*
G04 #@! TO.C,VR2*
X137690476Y-92202380D02*
X138023809Y-93202380D01*
X138357142Y-92202380D01*
X139261904Y-93202380D02*
X138928571Y-92726190D01*
X138690476Y-93202380D02*
X138690476Y-92202380D01*
X139071428Y-92202380D01*
X139166666Y-92250000D01*
X139214285Y-92297619D01*
X139261904Y-92392857D01*
X139261904Y-92535714D01*
X139214285Y-92630952D01*
X139166666Y-92678571D01*
X139071428Y-92726190D01*
X138690476Y-92726190D01*
X139642857Y-92297619D02*
X139690476Y-92250000D01*
X139785714Y-92202380D01*
X140023809Y-92202380D01*
X140119047Y-92250000D01*
X140166666Y-92297619D01*
X140214285Y-92392857D01*
X140214285Y-92488095D01*
X140166666Y-92630952D01*
X139595238Y-93202380D01*
X140214285Y-93202380D01*
G04 #@! TO.C,Y1*
X158476190Y-87976190D02*
X158952380Y-87976190D01*
X157952380Y-88309523D02*
X158476190Y-87976190D01*
X157952380Y-87642857D01*
X158952380Y-86785714D02*
X158952380Y-87357142D01*
X158952380Y-87071428D02*
X157952380Y-87071428D01*
X158095238Y-87166666D01*
X158190476Y-87261904D01*
X158238095Y-87357142D01*
G04 #@! TO.C,C25*
X123857142Y-102642857D02*
X123904761Y-102690476D01*
X123952380Y-102833333D01*
X123952380Y-102928571D01*
X123904761Y-103071428D01*
X123809523Y-103166666D01*
X123714285Y-103214285D01*
X123523809Y-103261904D01*
X123380952Y-103261904D01*
X123190476Y-103214285D01*
X123095238Y-103166666D01*
X123000000Y-103071428D01*
X122952380Y-102928571D01*
X122952380Y-102833333D01*
X123000000Y-102690476D01*
X123047619Y-102642857D01*
X123047619Y-102261904D02*
X123000000Y-102214285D01*
X122952380Y-102119047D01*
X122952380Y-101880952D01*
X123000000Y-101785714D01*
X123047619Y-101738095D01*
X123142857Y-101690476D01*
X123238095Y-101690476D01*
X123380952Y-101738095D01*
X123952380Y-102309523D01*
X123952380Y-101690476D01*
X122952380Y-100785714D02*
X122952380Y-101261904D01*
X123428571Y-101309523D01*
X123380952Y-101261904D01*
X123333333Y-101166666D01*
X123333333Y-100928571D01*
X123380952Y-100833333D01*
X123428571Y-100785714D01*
X123523809Y-100738095D01*
X123761904Y-100738095D01*
X123857142Y-100785714D01*
X123904761Y-100833333D01*
X123952380Y-100928571D01*
X123952380Y-101166666D01*
X123904761Y-101261904D01*
X123857142Y-101309523D01*
G04 #@! TO.C,C28*
X171857142Y-87892857D02*
X171904761Y-87940476D01*
X171952380Y-88083333D01*
X171952380Y-88178571D01*
X171904761Y-88321428D01*
X171809523Y-88416666D01*
X171714285Y-88464285D01*
X171523809Y-88511904D01*
X171380952Y-88511904D01*
X171190476Y-88464285D01*
X171095238Y-88416666D01*
X171000000Y-88321428D01*
X170952380Y-88178571D01*
X170952380Y-88083333D01*
X171000000Y-87940476D01*
X171047619Y-87892857D01*
X171047619Y-87511904D02*
X171000000Y-87464285D01*
X170952380Y-87369047D01*
X170952380Y-87130952D01*
X171000000Y-87035714D01*
X171047619Y-86988095D01*
X171142857Y-86940476D01*
X171238095Y-86940476D01*
X171380952Y-86988095D01*
X171952380Y-87559523D01*
X171952380Y-86940476D01*
X171380952Y-86369047D02*
X171333333Y-86464285D01*
X171285714Y-86511904D01*
X171190476Y-86559523D01*
X171142857Y-86559523D01*
X171047619Y-86511904D01*
X171000000Y-86464285D01*
X170952380Y-86369047D01*
X170952380Y-86178571D01*
X171000000Y-86083333D01*
X171047619Y-86035714D01*
X171142857Y-85988095D01*
X171190476Y-85988095D01*
X171285714Y-86035714D01*
X171333333Y-86083333D01*
X171380952Y-86178571D01*
X171380952Y-86369047D01*
X171428571Y-86464285D01*
X171476190Y-86511904D01*
X171571428Y-86559523D01*
X171761904Y-86559523D01*
X171857142Y-86511904D01*
X171904761Y-86464285D01*
X171952380Y-86369047D01*
X171952380Y-86178571D01*
X171904761Y-86083333D01*
X171857142Y-86035714D01*
X171761904Y-85988095D01*
X171571428Y-85988095D01*
X171476190Y-86035714D01*
X171428571Y-86083333D01*
X171380952Y-86178571D01*
G04 #@! TO.C,C29*
X170357142Y-87892857D02*
X170404761Y-87940476D01*
X170452380Y-88083333D01*
X170452380Y-88178571D01*
X170404761Y-88321428D01*
X170309523Y-88416666D01*
X170214285Y-88464285D01*
X170023809Y-88511904D01*
X169880952Y-88511904D01*
X169690476Y-88464285D01*
X169595238Y-88416666D01*
X169500000Y-88321428D01*
X169452380Y-88178571D01*
X169452380Y-88083333D01*
X169500000Y-87940476D01*
X169547619Y-87892857D01*
X169547619Y-87511904D02*
X169500000Y-87464285D01*
X169452380Y-87369047D01*
X169452380Y-87130952D01*
X169500000Y-87035714D01*
X169547619Y-86988095D01*
X169642857Y-86940476D01*
X169738095Y-86940476D01*
X169880952Y-86988095D01*
X170452380Y-87559523D01*
X170452380Y-86940476D01*
X170452380Y-86464285D02*
X170452380Y-86273809D01*
X170404761Y-86178571D01*
X170357142Y-86130952D01*
X170214285Y-86035714D01*
X170023809Y-85988095D01*
X169642857Y-85988095D01*
X169547619Y-86035714D01*
X169500000Y-86083333D01*
X169452380Y-86178571D01*
X169452380Y-86369047D01*
X169500000Y-86464285D01*
X169547619Y-86511904D01*
X169642857Y-86559523D01*
X169880952Y-86559523D01*
X169976190Y-86511904D01*
X170023809Y-86464285D01*
X170071428Y-86369047D01*
X170071428Y-86178571D01*
X170023809Y-86083333D01*
X169976190Y-86035714D01*
X169880952Y-85988095D01*
G04 #@! TO.C,R13*
X169357142Y-93702380D02*
X169023809Y-93226190D01*
X168785714Y-93702380D02*
X168785714Y-92702380D01*
X169166666Y-92702380D01*
X169261904Y-92750000D01*
X169309523Y-92797619D01*
X169357142Y-92892857D01*
X169357142Y-93035714D01*
X169309523Y-93130952D01*
X169261904Y-93178571D01*
X169166666Y-93226190D01*
X168785714Y-93226190D01*
X170309523Y-93702380D02*
X169738095Y-93702380D01*
X170023809Y-93702380D02*
X170023809Y-92702380D01*
X169928571Y-92845238D01*
X169833333Y-92940476D01*
X169738095Y-92988095D01*
X170642857Y-92702380D02*
X171261904Y-92702380D01*
X170928571Y-93083333D01*
X171071428Y-93083333D01*
X171166666Y-93130952D01*
X171214285Y-93178571D01*
X171261904Y-93273809D01*
X171261904Y-93511904D01*
X171214285Y-93607142D01*
X171166666Y-93654761D01*
X171071428Y-93702380D01*
X170785714Y-93702380D01*
X170690476Y-93654761D01*
X170642857Y-93607142D01*
G04 #@! TO.C,R14*
X169357142Y-95202380D02*
X169023809Y-94726190D01*
X168785714Y-95202380D02*
X168785714Y-94202380D01*
X169166666Y-94202380D01*
X169261904Y-94250000D01*
X169309523Y-94297619D01*
X169357142Y-94392857D01*
X169357142Y-94535714D01*
X169309523Y-94630952D01*
X169261904Y-94678571D01*
X169166666Y-94726190D01*
X168785714Y-94726190D01*
X170309523Y-95202380D02*
X169738095Y-95202380D01*
X170023809Y-95202380D02*
X170023809Y-94202380D01*
X169928571Y-94345238D01*
X169833333Y-94440476D01*
X169738095Y-94488095D01*
X171166666Y-94535714D02*
X171166666Y-95202380D01*
X170928571Y-94154761D02*
X170690476Y-94869047D01*
X171309523Y-94869047D01*
G04 #@! TO.C,R15*
X166357142Y-93702380D02*
X166023809Y-93226190D01*
X165785714Y-93702380D02*
X165785714Y-92702380D01*
X166166666Y-92702380D01*
X166261904Y-92750000D01*
X166309523Y-92797619D01*
X166357142Y-92892857D01*
X166357142Y-93035714D01*
X166309523Y-93130952D01*
X166261904Y-93178571D01*
X166166666Y-93226190D01*
X165785714Y-93226190D01*
X167309523Y-93702380D02*
X166738095Y-93702380D01*
X167023809Y-93702380D02*
X167023809Y-92702380D01*
X166928571Y-92845238D01*
X166833333Y-92940476D01*
X166738095Y-92988095D01*
X168214285Y-92702380D02*
X167738095Y-92702380D01*
X167690476Y-93178571D01*
X167738095Y-93130952D01*
X167833333Y-93083333D01*
X168071428Y-93083333D01*
X168166666Y-93130952D01*
X168214285Y-93178571D01*
X168261904Y-93273809D01*
X168261904Y-93511904D01*
X168214285Y-93607142D01*
X168166666Y-93654761D01*
X168071428Y-93702380D01*
X167833333Y-93702380D01*
X167738095Y-93654761D01*
X167690476Y-93607142D01*
G04 #@! TO.C,U2*
X139238095Y-75252380D02*
X139238095Y-76061904D01*
X139285714Y-76157142D01*
X139333333Y-76204761D01*
X139428571Y-76252380D01*
X139619047Y-76252380D01*
X139714285Y-76204761D01*
X139761904Y-76157142D01*
X139809523Y-76061904D01*
X139809523Y-75252380D01*
X140238095Y-75347619D02*
X140285714Y-75300000D01*
X140380952Y-75252380D01*
X140619047Y-75252380D01*
X140714285Y-75300000D01*
X140761904Y-75347619D01*
X140809523Y-75442857D01*
X140809523Y-75538095D01*
X140761904Y-75680952D01*
X140190476Y-76252380D01*
X140809523Y-76252380D01*
G04 #@! TD*
M02*
